0
SECTION
2
HEADER
9
$INSUNITS
70
4
0
ENDSEC
0
SECTION
2
TABLES
0
TABLE
2
LTYPE
0
LTYPE
72
65
70
64
2
CONTINUOUS
3
______
73
0
40
0
0
ENDTAB
0
TABLE
2
LAYER
0
ENDTAB
0
ENDSEC
0
SECTION
2
ENTITIES
0
LINE
8
0
10
-7
20
-9.5
11
48.2057714
21
-9.5
0
LINE
8
0
10
-10
20
-6.5
11
-10
21
42.1126785
0
LINE
8
0
10
45.5832034
20
63.9
11
26.4167966
21
63.9
0
LINE
8
0
10
82
20
42.2
11
82
21
51.4319076
0
LINE
8
0
10
49.7057714
20
-9.9019238
11
97.9006351
21
-37.7272413
0
LINE
8
0
10
101.9987113
20
-36.6291651
11
108.4987113
21
-25.3708349
0
LINE
8
0
10
107.4006351
20
-21.2727587
11
104.5
21
-19.5980763
0
LINE
8
0
10
103
20
-17.0000001
11
103
21
36.2
0
LINE
8
0
10
100
20
39.2
11
85
21
39.2
0
LINE
8
0
10
-8.9429453
20
44.3984965
11
7.5027532
21
58.3773402
0
LINE
8
0
10
8.6278906
20
58.9779023
11
25.5989888
21
63.7863802
0
LINE
8
0
10
46.4010112
20
63.7863802
11
79.8178078
21
54.3182878
0
ARC
8
0
10
48.2057714
20
-12.5
40
3
50
59.9999999
51
90
0
ARC
8
0
10
99.4006351
20
-35.1291651
40
3
50
239.9999999
51
329.9999999
0
ARC
8
0
10
105.9006351
20
-23.8708349
40
3
50
329.9999999
51
59.9999999
0
ARC
8
0
10
106
20
-17.0000001
40
3
50
180
51
239.9999999
0
ARC
8
0
10
100
20
36.2
40
3
50
0
51
90
0
ARC
8
0
10
85
20
42.2
40
3
50
180
51
270
0
ARC
8
0
10
79
20
51.4319076
40
3
50
0
51
74.1808041
0
ARC
8
0
10
45.5832034
20
60.9
40
3
50
74.1808041
51
90
0
ARC
8
0
10
26.4167966
20
60.9
40
3
50
90
51
105.8191959
0
ARC
8
0
10
9.4456985
20
56.0915222
40
3
50
105.8191959
51
130.3645364
0
ARC
8
0
10
-7
20
42.1126785
40
3
50
130.3645364
51
180
0
ARC
8
0
10
-7
20
-6.5
40
3
50
180
51
270
0
LINE
8
0
10
-8.75
20
-8.25
11
8.75
21
-8.25
0
LINE
8
0
10
8.75
20
-8.25
11
8.75
21
8.25
0
LINE
8
0
10
8.75
20
8.25
11
-8.75
21
8.25
0
LINE
8
0
10
-8.75
20
8.25
11
-8.75
21
-8.25
0
LINE
8
0
10
-8.75
20
8.75
11
8.75
21
8.75
0
LINE
8
0
10
8.75
20
8.75
11
8.75
21
25.25
0
LINE
8
0
10
8.75
20
25.25
11
-8.75
21
25.25
0
LINE
8
0
10
-8.75
20
25.25
11
-8.75
21
8.75
0
LINE
8
0
10
-8.75
20
25.75
11
8.75
21
25.75
0
LINE
8
0
10
8.75
20
25.75
11
8.75
21
42.25
0
LINE
8
0
10
8.75
20
42.25
11
-8.75
21
42.25
0
LINE
8
0
10
-8.75
20
42.25
11
-8.75
21
25.75
0
LINE
8
0
10
9.25
20
7.05
11
26.75
21
7.05
0
LINE
8
0
10
26.75
20
7.05
11
26.75
21
23.55
0
LINE
8
0
10
26.75
20
23.55
11
9.25
21
23.55
0
LINE
8
0
10
9.25
20
23.55
11
9.25
21
7.05
0
LINE
8
0
10
9.25
20
24.05
11
26.75
21
24.05
0
LINE
8
0
10
26.75
20
24.05
11
26.75
21
40.55
0
LINE
8
0
10
26.75
20
40.55
11
9.25
21
40.55
0
LINE
8
0
10
9.25
20
40.55
11
9.25
21
24.05
0
LINE
8
0
10
9.25
20
41.05
11
26.75
21
41.05
0
LINE
8
0
10
26.75
20
41.05
11
26.75
21
57.55
0
LINE
8
0
10
26.75
20
57.55
11
9.25
21
57.55
0
LINE
8
0
10
9.25
20
57.55
11
9.25
21
41.05
0
LINE
8
0
10
27.25
20
12.15
11
44.75
21
12.15
0
LINE
8
0
10
44.75
20
12.15
11
44.75
21
28.65
0
LINE
8
0
10
44.75
20
28.65
11
27.25
21
28.65
0
LINE
8
0
10
27.25
20
28.65
11
27.25
21
12.15
0
LINE
8
0
10
27.25
20
29.15
11
44.75
21
29.15
0
LINE
8
0
10
44.75
20
29.15
11
44.75
21
45.65
0
LINE
8
0
10
44.75
20
45.65
11
27.25
21
45.65
0
LINE
8
0
10
27.25
20
45.65
11
27.25
21
29.15
0
LINE
8
0
10
27.25
20
46.15
11
44.75
21
46.15
0
LINE
8
0
10
44.75
20
46.15
11
44.75
21
62.65
0
LINE
8
0
10
44.75
20
62.65
11
27.25
21
62.65
0
LINE
8
0
10
27.25
20
62.65
11
27.25
21
46.15
0
LINE
8
0
10
45.25
20
7.05
11
62.75
21
7.05
0
LINE
8
0
10
62.75
20
7.05
11
62.75
21
23.55
0
LINE
8
0
10
62.75
20
23.55
11
45.25
21
23.55
0
LINE
8
0
10
45.25
20
23.55
11
45.25
21
7.05
0
LINE
8
0
10
45.25
20
24.05
11
62.75
21
24.05
0
LINE
8
0
10
62.75
20
24.05
11
62.75
21
40.55
0
LINE
8
0
10
62.75
20
40.55
11
45.25
21
40.55
0
LINE
8
0
10
45.25
20
40.55
11
45.25
21
24.05
0
LINE
8
0
10
45.25
20
41.05
11
62.75
21
41.05
0
LINE
8
0
10
62.75
20
41.05
11
62.75
21
57.55
0
LINE
8
0
10
62.75
20
57.55
11
45.25
21
57.55
0
LINE
8
0
10
45.25
20
57.55
11
45.25
21
41.05
0
LINE
8
0
10
63.25
20
1.95
11
80.75
21
1.95
0
LINE
8
0
10
80.75
20
1.95
11
80.75
21
18.45
0
LINE
8
0
10
80.75
20
18.45
11
63.25
21
18.45
0
LINE
8
0
10
63.25
20
18.45
11
63.25
21
1.95
0
LINE
8
0
10
63.25
20
18.95
11
80.75
21
18.95
0
LINE
8
0
10
80.75
20
18.95
11
80.75
21
35.45
0
LINE
8
0
10
80.75
20
35.45
11
63.25
21
35.45
0
LINE
8
0
10
63.25
20
35.45
11
63.25
21
18.95
0
LINE
8
0
10
63.25
20
35.95
11
80.75
21
35.95
0
LINE
8
0
10
80.75
20
35.95
11
80.75
21
52.45
0
LINE
8
0
10
80.75
20
52.45
11
63.25
21
52.45
0
LINE
8
0
10
63.25
20
52.45
11
63.25
21
35.95
0
LINE
8
0
10
69.2972777
20
-19.7697096
11
84.4527223
21
-28.5197096
0
LINE
8
0
10
84.4527223
20
-28.5197096
11
92.7027223
21
-14.2302904
0
LINE
8
0
10
92.7027223
20
-14.2302904
11
77.5472777
21
-5.4802904
0
LINE
8
0
10
77.5472777
20
-5.4802904
11
69.2972777
21
-19.7697096
0
LINE
8
0
10
84.885735
20
-28.7697096
11
100.0411796
21
-37.5197096
0
LINE
8
0
10
100.0411796
20
-37.5197096
11
108.2911796
21
-23.2302904
0
LINE
8
0
10
108.2911796
20
-23.2302904
11
93.135735
21
-14.4802904
0
LINE
8
0
10
93.135735
20
-14.4802904
11
84.885735
21
-28.7697096
0
ENDSEC
0
EOF