0
SECTION
2
HEADER
9
$INSUNITS
70
4
0
ENDSEC
0
SECTION
2
TABLES
0
TABLE
2
LTYPE
0
LTYPE
72
65
70
64
2
CONTINUOUS
3
______
73
0
40
0
0
ENDTAB
0
TABLE
2
LAYER
0
ENDTAB
0
ENDSEC
0
SECTION
2
ENTITIES
0
LINE
8
0
10
-6.9
20
-6.9
11
6.9
21
-6.9
0
LINE
8
0
10
6.9
20
-6.9
11
6.9
21
6.9
0
LINE
8
0
10
6.9
20
6.9
11
-6.9
21
6.9
0
LINE
8
0
10
-6.9
20
6.9
11
-6.9
21
-6.9
0
LINE
8
0
10
-6.9
20
10.1
11
6.9
21
10.1
0
LINE
8
0
10
6.9
20
10.1
11
6.9
21
23.9
0
LINE
8
0
10
6.9
20
23.9
11
-6.9
21
23.9
0
LINE
8
0
10
-6.9
20
23.9
11
-6.9
21
10.1
0
LINE
8
0
10
-6.9
20
27.1
11
6.9
21
27.1
0
LINE
8
0
10
6.9
20
27.1
11
6.9
21
40.9
0
LINE
8
0
10
6.9
20
40.9
11
-6.9
21
40.9
0
LINE
8
0
10
-6.9
20
40.9
11
-6.9
21
27.1
0
LINE
8
0
10
11.1
20
8.4
11
24.9
21
8.4
0
LINE
8
0
10
24.9
20
8.4
11
24.9
21
22.2
0
LINE
8
0
10
24.9
20
22.2
11
11.1
21
22.2
0
LINE
8
0
10
11.1
20
22.2
11
11.1
21
8.4
0
LINE
8
0
10
11.1
20
25.4
11
24.9
21
25.4
0
LINE
8
0
10
24.9
20
25.4
11
24.9
21
39.2
0
LINE
8
0
10
24.9
20
39.2
11
11.1
21
39.2
0
LINE
8
0
10
11.1
20
39.2
11
11.1
21
25.4
0
LINE
8
0
10
11.1
20
42.4
11
24.9
21
42.4
0
LINE
8
0
10
24.9
20
42.4
11
24.9
21
56.2
0
LINE
8
0
10
24.9
20
56.2
11
11.1
21
56.2
0
LINE
8
0
10
11.1
20
56.2
11
11.1
21
42.4
0
LINE
8
0
10
29.1
20
13.5
11
42.9
21
13.5
0
LINE
8
0
10
42.9
20
13.5
11
42.9
21
27.3
0
LINE
8
0
10
42.9
20
27.3
11
29.1
21
27.3
0
LINE
8
0
10
29.1
20
27.3
11
29.1
21
13.5
0
LINE
8
0
10
29.1
20
30.5
11
42.9
21
30.5
0
LINE
8
0
10
42.9
20
30.5
11
42.9
21
44.3
0
LINE
8
0
10
42.9
20
44.3
11
29.1
21
44.3
0
LINE
8
0
10
29.1
20
44.3
11
29.1
21
30.5
0
LINE
8
0
10
29.1
20
47.5
11
42.9
21
47.5
0
LINE
8
0
10
42.9
20
47.5
11
42.9
21
61.3
0
LINE
8
0
10
42.9
20
61.3
11
29.1
21
61.3
0
LINE
8
0
10
29.1
20
61.3
11
29.1
21
47.5
0
LINE
8
0
10
47.1
20
8.4
11
60.9
21
8.4
0
LINE
8
0
10
60.9
20
8.4
11
60.9
21
22.2
0
LINE
8
0
10
60.9
20
22.2
11
47.1
21
22.2
0
LINE
8
0
10
47.1
20
22.2
11
47.1
21
8.4
0
LINE
8
0
10
47.1
20
25.4
11
60.9
21
25.4
0
LINE
8
0
10
60.9
20
25.4
11
60.9
21
39.2
0
LINE
8
0
10
60.9
20
39.2
11
47.1
21
39.2
0
LINE
8
0
10
47.1
20
39.2
11
47.1
21
25.4
0
LINE
8
0
10
47.1
20
42.4
11
60.9
21
42.4
0
LINE
8
0
10
60.9
20
42.4
11
60.9
21
56.2
0
LINE
8
0
10
60.9
20
56.2
11
47.1
21
56.2
0
LINE
8
0
10
47.1
20
56.2
11
47.1
21
42.4
0
LINE
8
0
10
65.1
20
3.3
11
78.9
21
3.3
0
LINE
8
0
10
78.9
20
3.3
11
78.9
21
17.1
0
LINE
8
0
10
78.9
20
17.1
11
65.1
21
17.1
0
LINE
8
0
10
65.1
20
17.1
11
65.1
21
3.3
0
LINE
8
0
10
65.1
20
20.3
11
78.9
21
20.3
0
LINE
8
0
10
78.9
20
20.3
11
78.9
21
34.1
0
LINE
8
0
10
78.9
20
34.1
11
65.1
21
34.1
0
LINE
8
0
10
65.1
20
34.1
11
65.1
21
20.3
0
LINE
8
0
10
65.1
20
37.3
11
78.9
21
37.3
0
LINE
8
0
10
78.9
20
37.3
11
78.9
21
51.1
0
LINE
8
0
10
78.9
20
51.1
11
65.1
21
51.1
0
LINE
8
0
10
65.1
20
51.1
11
65.1
21
37.3
0
LINE
8
0
10
71.5744247
20
-19.5255753
11
83.5255753
21
-26.4255753
0
LINE
8
0
10
83.5255753
20
-26.4255753
11
90.4255753
21
-14.4744247
0
LINE
8
0
10
90.4255753
20
-14.4744247
11
78.4744247
21
-7.5744247
0
LINE
8
0
10
78.4744247
20
-7.5744247
11
71.5744247
21
-19.5255753
0
LINE
8
0
10
87.162882
20
-28.5255753
11
99.1140326
21
-35.4255753
0
LINE
8
0
10
99.1140326
20
-35.4255753
11
106.0140326
21
-23.4744247
0
LINE
8
0
10
106.0140326
20
-23.4744247
11
94.062882
21
-16.5744247
0
LINE
8
0
10
94.062882
20
-16.5744247
11
87.162882
21
-28.5255753
0
ENDSEC
0
EOF