M48
; DRILL file {KiCad (6.0.6-1)-1} date Tuesday, March 28, 2023 at 12:01:53 AM
; FORMAT={-:-/ absolute / inch / decimal}
; #@! TF.CreationDate,2023-03-28T00:01:53-05:00
; #@! TF.GenerationSoftware,Kicad,Pcbnew,(6.0.6-1)-1
; #@! TF.FileFunction,NonPlated,1,2,NPTH
FMAT,2
INCH
; #@! TA.AperFunction,NonPlated,NPTH,ComponentDrill
T1C0.0354
; #@! TA.AperFunction,NonPlated,NPTH,ComponentDrill
T2C0.0670
; #@! TA.AperFunction,NonPlated,NPTH,ComponentDrill
T3C0.1181
; #@! TA.AperFunction,NonPlated,NPTH,ComponentDrill
T4C0.1350
%
G90
G05
T1
X9.8467Y-6.8228
X9.8467Y-6.8228
X9.8467Y-6.9409
X9.8467Y-6.9409
T2
X5.6604Y-5.1969
X5.6604Y-5.8661
X5.6604Y-6.5354
X6.0935Y-5.1969
X6.0935Y-5.8661
X6.0935Y-6.5354
X6.3691Y-4.5945
X6.3691Y-5.2638
X6.3691Y-5.9331
X6.8022Y-4.5945
X6.8022Y-5.2638
X6.8022Y-5.9331
X7.0778Y-4.3937
X7.0778Y-5.063
X7.0778Y-5.7323
X7.5108Y-4.3937
X7.5108Y-5.063
X7.5108Y-5.7323
X7.7864Y-4.5945
X7.7864Y-5.2638
X7.7864Y-5.9331
X8.2195Y-4.5945
X8.2195Y-5.2638
X8.2195Y-5.9331
X8.4951Y-4.7953
X8.4951Y-5.4646
X8.4951Y-6.1339
X8.8784Y-7.0965
X8.9281Y-4.7953
X8.9281Y-5.4646
X8.9281Y-6.1339
X9.2535Y-7.313
X9.4921Y-7.4508
X9.8672Y-7.6673
T3
X5.6801Y-5.0492
X5.6801Y-5.7185
X5.6801Y-6.3878
X5.877Y-4.9626
X5.877Y-4.9626
X5.877Y-5.6319
X5.877Y-5.6319
X5.877Y-6.3012
X5.877Y-6.3012
X6.0738Y-5.0492
X6.0738Y-5.7185
X6.0738Y-6.3878
X6.3888Y-4.4469
X6.3888Y-5.1161
X6.3888Y-5.7854
X6.5856Y-4.3602
X6.5856Y-4.3602
X6.5856Y-5.0295
X6.5856Y-5.0295
X6.5856Y-5.6988
X6.5856Y-5.6988
X6.7825Y-4.4469
X6.7825Y-5.1161
X6.7825Y-5.7854
X7.0974Y-4.2461
X7.0974Y-4.9154
X7.0974Y-5.5846
X7.2943Y-4.1594
X7.2943Y-4.1594
X7.2943Y-4.8287
X7.2943Y-4.8287
X7.2943Y-5.498
X7.2943Y-5.498
X7.4911Y-4.2461
X7.4911Y-4.9154
X7.4911Y-5.5846
X7.8061Y-4.4469
X7.8061Y-5.1161
X7.8061Y-5.7854
X8.003Y-4.3602
X8.003Y-4.3602
X8.003Y-5.0295
X8.003Y-5.0295
X8.003Y-5.6988
X8.003Y-5.6988
X8.1998Y-4.4469
X8.1998Y-5.1161
X8.1998Y-5.7854
X8.5148Y-4.6476
X8.5148Y-5.3169
X8.5148Y-5.9862
X8.7116Y-4.561
X8.7116Y-4.561
X8.7116Y-5.2303
X8.7116Y-5.2303
X8.7116Y-5.8996
X8.7116Y-5.8996
X8.9085Y-4.6476
X8.9085Y-5.3169
X8.9085Y-5.9862
X8.9693Y-6.9784
X9.1831Y-7.0019
X9.1831Y-7.0019
X9.3102Y-7.1753
X9.583Y-7.3328
X9.7968Y-7.3562
X9.7968Y-7.3562
X9.924Y-7.5296
T4
X5.877Y-5.1969
X5.877Y-5.8661
X5.877Y-6.5354
X6.5856Y-4.5945
X6.5856Y-5.2638
X6.5856Y-5.9331
X7.2943Y-4.3937
X7.2943Y-5.063
X7.2943Y-5.7323
X8.003Y-4.5945
X8.003Y-5.2638
X8.003Y-5.9331
X8.7116Y-4.7953
X8.7116Y-5.4646
X8.7116Y-6.1339
X9.0659Y-7.2047
X9.6797Y-7.5591
T0
M30
