M48
; DRILL file {KiCad (6.0.6-1)-1} date Tuesday, March 28, 2023 at 12:01:53 AM
; FORMAT={-:-/ absolute / inch / decimal}
; #@! TF.CreationDate,2023-03-28T00:01:53-05:00
; #@! TF.GenerationSoftware,Kicad,Pcbnew,(6.0.6-1)-1
; #@! TF.FileFunction,Plated,1,2,PTH
FMAT,2
INCH
; #@! TA.AperFunction,Plated,PTH,ViaDrill
T1C0.0118
; #@! TA.AperFunction,Plated,PTH,ComponentDrill
T2C0.0118
; #@! TA.AperFunction,Plated,PTH,ComponentDrill
T3C0.0157
; #@! TA.AperFunction,Plated,PTH,ComponentDrill
T4C0.0276
; #@! TA.AperFunction,Plated,PTH,ComponentDrill
T5C0.0433
%
G90
G05
T1
X9.8228Y-6.8799
X9.8524Y-6.8799
T2
X5.8041Y-5.3543
X5.8041Y-6.0236
X5.8041Y-6.6929
X5.877Y-5.0492
X5.877Y-5.0984
X5.877Y-5.7185
X5.877Y-5.7677
X5.877Y-6.3878
X5.877Y-6.437
X5.9498Y-5.3543
X5.9498Y-6.0236
X5.9498Y-6.6929
X6.5128Y-4.752
X6.5128Y-5.4213
X6.5128Y-6.0906
X6.5856Y-4.4469
X6.5856Y-4.4961
X6.5856Y-5.1161
X6.5856Y-5.1654
X6.5856Y-5.7854
X6.5856Y-5.8346
X6.6585Y-4.752
X6.6585Y-5.4213
X6.6585Y-6.0906
X7.2215Y-4.5512
X7.2215Y-5.2205
X7.2215Y-5.8898
X7.2943Y-4.2461
X7.2943Y-4.2953
X7.2943Y-4.9154
X7.2943Y-4.9646
X7.2943Y-5.5846
X7.2943Y-5.6339
X7.3671Y-4.5512
X7.3671Y-5.2205
X7.3671Y-5.8898
X7.9301Y-4.752
X7.9301Y-5.4213
X7.9301Y-6.0906
X8.003Y-4.4469
X8.003Y-4.4961
X8.003Y-5.1161
X8.003Y-5.1654
X8.003Y-5.7854
X8.003Y-5.8346
X8.0758Y-4.752
X8.0758Y-5.4213
X8.0758Y-6.0906
X8.5659Y-6.6063
X8.6388Y-4.9528
X8.6388Y-5.622
X8.6388Y-6.2913
X8.6998Y-6.6063
X8.7116Y-4.6476
X8.7116Y-4.6969
X8.7116Y-5.3169
X8.7116Y-5.3661
X8.7116Y-5.9862
X8.7116Y-6.0354
X8.7844Y-4.9528
X8.7844Y-5.622
X8.7844Y-6.2913
X8.9241Y-7.3047
X9.0503Y-7.3775
X9.1152Y-7.1195
X9.1398Y-7.0769
X9.5378Y-7.659
X9.664Y-7.7319
X9.7289Y-7.4738
X9.7535Y-7.4312
T3
X9.469Y-5.1508
X9.469Y-5.2508
X9.469Y-5.3508
X9.469Y-5.4508
X9.469Y-5.5508
X9.469Y-5.6508
X9.469Y-5.7508
X9.469Y-5.8508
X9.469Y-5.9508
X9.469Y-6.0508
X9.469Y-6.1508
X9.469Y-6.2508
X9.529Y-5.1508
X9.529Y-5.2508
X9.529Y-5.3508
X9.529Y-5.4508
X9.529Y-5.5508
X9.529Y-5.6508
X9.529Y-5.7508
X9.529Y-5.8508
X9.529Y-5.9508
X9.529Y-6.0508
X9.529Y-6.1508
X9.529Y-6.2508
T4
X9.1841Y-6.498
X9.1841Y-6.5571
T5
X9.199Y-5.1508
X9.199Y-5.1508
X9.199Y-5.2508
X9.199Y-5.3508
X9.199Y-5.4508
X9.199Y-5.5508
X9.199Y-5.6508
X9.199Y-5.7508
X9.199Y-5.8508
X9.199Y-5.9508
X9.199Y-6.0508
X9.199Y-6.1508
X9.199Y-6.2508
X9.799Y-5.1508
X9.799Y-5.1508
X9.799Y-5.2508
X9.799Y-5.3508
X9.799Y-5.4508
X9.799Y-5.5508
X9.799Y-5.6508
X9.799Y-5.7508
X9.799Y-5.8508
X9.799Y-5.9508
X9.799Y-6.0508
X9.799Y-6.1508
X9.799Y-6.2508
T0
M30
