%TF.GenerationSoftware,KiCad,Pcbnew,(6.0.6-1)-1*%
%TF.CreationDate,2023-03-28T00:01:58-05:00*%
%TF.ProjectId,smcboard,736d6362-6f61-4726-942e-6b696361645f,v1.0.0*%
%TF.SameCoordinates,Original*%
%TF.FileFunction,Soldermask,Bot*%
%TF.FilePolarity,Negative*%
%FSLAX46Y46*%
G04 Gerber Fmt 4.6, Leading zero omitted, Abs format (unit mm)*
G04 Created by KiCad (PCBNEW (6.0.6-1)-1) date 2023-03-28 00:01:58*
%MOMM*%
%LPD*%
G01*
G04 APERTURE LIST*
G04 Aperture macros list*
%AMRoundRect*
0 Rectangle with rounded corners*
0 $1 Rounding radius*
0 $2 $3 $4 $5 $6 $7 $8 $9 X,Y pos of 4 corners*
0 Add a 4 corners polygon primitive as box body*
4,1,4,$2,$3,$4,$5,$6,$7,$8,$9,$2,$3,0*
0 Add four circle primitives for the rounded corners*
1,1,$1+$1,$2,$3*
1,1,$1+$1,$4,$5*
1,1,$1+$1,$6,$7*
1,1,$1+$1,$8,$9*
0 Add four rect primitives between the rounded corners*
20,1,$1+$1,$2,$3,$4,$5,0*
20,1,$1+$1,$4,$5,$6,$7,0*
20,1,$1+$1,$6,$7,$8,$9,0*
20,1,$1+$1,$8,$9,$2,$3,0*%
%AMFreePoly0*
4,1,16,0.635355,1.035355,0.650000,1.000000,0.650000,-0.250000,0.635355,-0.285355,0.600000,-0.300000,-0.600000,-0.300000,-0.635355,-0.285355,-0.650000,-0.250000,-0.650000,1.000000,-0.635355,1.035355,-0.600000,1.050000,-0.564645,1.035355,0.000000,0.470710,0.564645,1.035355,0.600000,1.050000,0.635355,1.035355,0.635355,1.035355,$1*%
%AMFreePoly1*
4,1,14,0.635355,0.435355,0.650000,0.400000,0.650000,0.200000,0.635355,0.164645,0.035355,-0.435355,0.000000,-0.450000,-0.035355,-0.435355,-0.635355,0.164645,-0.650000,0.200000,-0.650000,0.400000,-0.635355,0.435355,-0.600000,0.450000,0.600000,0.450000,0.635355,0.435355,0.635355,0.435355,$1*%
G04 Aperture macros list end*
%ADD10C,0.250000*%
%ADD11C,0.100000*%
%ADD12C,1.700000*%
%ADD13RoundRect,0.050000X-0.800000X0.800000X-0.800000X-0.800000X0.800000X-0.800000X0.800000X0.800000X0*%
%ADD14FreePoly0,90.000000*%
%ADD15FreePoly1,90.000000*%
%ADD16FreePoly1,270.000000*%
%ADD17FreePoly0,270.000000*%
%ADD18RoundRect,0.050000X-0.450000X-0.850000X0.450000X-0.850000X0.450000X0.850000X-0.450000X0.850000X0*%
%ADD19C,1.000000*%
%ADD20RoundRect,0.050000X-0.350000X-0.750000X0.350000X-0.750000X0.350000X0.750000X-0.350000X0.750000X0*%
%ADD21RoundRect,0.050000X-0.500000X-0.400000X0.500000X-0.400000X0.500000X0.400000X-0.500000X0.400000X0*%
%ADD22C,1.100000*%
%ADD23C,3.529000*%
%ADD24C,1.801800*%
%ADD25C,3.100000*%
%ADD26RoundRect,0.050000X-1.300000X-1.300000X1.300000X-1.300000X1.300000X1.300000X-1.300000X1.300000X0*%
%ADD27RoundRect,0.050000X-1.775833X-0.475833X0.475833X-1.775833X1.775833X0.475833X-0.475833X1.775833X0*%
%ADD28RoundRect,0.050000X0.825000X0.825000X-0.825000X0.825000X-0.825000X-0.825000X0.825000X-0.825000X0*%
%ADD29RoundRect,0.050000X-0.825000X-0.825000X0.825000X-0.825000X0.825000X0.825000X-0.825000X0.825000X0*%
%ADD30RoundRect,0.050000X1.126971X0.301971X-0.301971X1.126971X-1.126971X-0.301971X0.301971X-1.126971X0*%
%ADD31RoundRect,0.050000X-1.126971X-0.301971X0.301971X-1.126971X1.126971X0.301971X-0.301971X1.126971X0*%
G04 APERTURE END LIST*
D10*
%TO.C,MCU1*%
X240638000Y-158770000D02*
G75*
G03*
X240638000Y-158770000I-125000J0D01*
G01*
X242162000Y-158770000D02*
G75*
G03*
X242162000Y-158770000I-125000J0D01*
G01*
X240638000Y-156230000D02*
G75*
G03*
X240638000Y-156230000I-125000J0D01*
G01*
X242162000Y-156230000D02*
G75*
G03*
X242162000Y-156230000I-125000J0D01*
G01*
X240638000Y-153690000D02*
G75*
G03*
X240638000Y-153690000I-125000J0D01*
G01*
X242162000Y-153690000D02*
G75*
G03*
X242162000Y-153690000I-125000J0D01*
G01*
X240638000Y-151150000D02*
G75*
G03*
X240638000Y-151150000I-125000J0D01*
G01*
X242162000Y-151150000D02*
G75*
G03*
X242162000Y-151150000I-125000J0D01*
G01*
X240638000Y-148610000D02*
G75*
G03*
X240638000Y-148610000I-125000J0D01*
G01*
X242162000Y-148610000D02*
G75*
G03*
X242162000Y-148610000I-125000J0D01*
G01*
X240638000Y-146070000D02*
G75*
G03*
X240638000Y-146070000I-125000J0D01*
G01*
X242162000Y-146070000D02*
G75*
G03*
X242162000Y-146070000I-125000J0D01*
G01*
X240638000Y-143530000D02*
G75*
G03*
X240638000Y-143530000I-125000J0D01*
G01*
X242162000Y-143530000D02*
G75*
G03*
X242162000Y-143530000I-125000J0D01*
G01*
X240638000Y-140990000D02*
G75*
G03*
X240638000Y-140990000I-125000J0D01*
G01*
X242162000Y-140990000D02*
G75*
G03*
X242162000Y-140990000I-125000J0D01*
G01*
X240638000Y-138450000D02*
G75*
G03*
X240638000Y-138450000I-125000J0D01*
G01*
X242162000Y-138450000D02*
G75*
G03*
X242162000Y-138450000I-125000J0D01*
G01*
X240638000Y-135910000D02*
G75*
G03*
X240638000Y-135910000I-125000J0D01*
G01*
X242162000Y-135910000D02*
G75*
G03*
X242162000Y-135910000I-125000J0D01*
G01*
X242162000Y-133370000D02*
G75*
G03*
X242162000Y-133370000I-125000J0D01*
G01*
X240638000Y-133370000D02*
G75*
G03*
X240638000Y-133370000I-125000J0D01*
G01*
X240638000Y-130830000D02*
G75*
G03*
X240638000Y-130830000I-125000J0D01*
G01*
X242162000Y-130830000D02*
G75*
G03*
X242162000Y-130830000I-125000J0D01*
G01*
G36*
X247371000Y-159278000D02*
G01*
X246355000Y-159278000D01*
X246355000Y-158262000D01*
X247371000Y-158262000D01*
X247371000Y-159278000D01*
G37*
D11*
X247371000Y-159278000D02*
X246355000Y-159278000D01*
X246355000Y-158262000D01*
X247371000Y-158262000D01*
X247371000Y-159278000D01*
G36*
X247371000Y-156738000D02*
G01*
X246355000Y-156738000D01*
X246355000Y-155722000D01*
X247371000Y-155722000D01*
X247371000Y-156738000D01*
G37*
X247371000Y-156738000D02*
X246355000Y-156738000D01*
X246355000Y-155722000D01*
X247371000Y-155722000D01*
X247371000Y-156738000D01*
G36*
X247371000Y-154198000D02*
G01*
X246355000Y-154198000D01*
X246355000Y-153182000D01*
X247371000Y-153182000D01*
X247371000Y-154198000D01*
G37*
X247371000Y-154198000D02*
X246355000Y-154198000D01*
X246355000Y-153182000D01*
X247371000Y-153182000D01*
X247371000Y-154198000D01*
G36*
X247371000Y-151658000D02*
G01*
X246355000Y-151658000D01*
X246355000Y-150642000D01*
X247371000Y-150642000D01*
X247371000Y-151658000D01*
G37*
X247371000Y-151658000D02*
X246355000Y-151658000D01*
X246355000Y-150642000D01*
X247371000Y-150642000D01*
X247371000Y-151658000D01*
G36*
X247371000Y-149118000D02*
G01*
X246355000Y-149118000D01*
X246355000Y-148102000D01*
X247371000Y-148102000D01*
X247371000Y-149118000D01*
G37*
X247371000Y-149118000D02*
X246355000Y-149118000D01*
X246355000Y-148102000D01*
X247371000Y-148102000D01*
X247371000Y-149118000D01*
G36*
X247371000Y-146578000D02*
G01*
X246355000Y-146578000D01*
X246355000Y-145562000D01*
X247371000Y-145562000D01*
X247371000Y-146578000D01*
G37*
X247371000Y-146578000D02*
X246355000Y-146578000D01*
X246355000Y-145562000D01*
X247371000Y-145562000D01*
X247371000Y-146578000D01*
G36*
X247371000Y-144038000D02*
G01*
X246355000Y-144038000D01*
X246355000Y-143022000D01*
X247371000Y-143022000D01*
X247371000Y-144038000D01*
G37*
X247371000Y-144038000D02*
X246355000Y-144038000D01*
X246355000Y-143022000D01*
X247371000Y-143022000D01*
X247371000Y-144038000D01*
G36*
X247371000Y-141498000D02*
G01*
X246355000Y-141498000D01*
X246355000Y-140482000D01*
X247371000Y-140482000D01*
X247371000Y-141498000D01*
G37*
X247371000Y-141498000D02*
X246355000Y-141498000D01*
X246355000Y-140482000D01*
X247371000Y-140482000D01*
X247371000Y-141498000D01*
G36*
X247371000Y-138958000D02*
G01*
X246355000Y-138958000D01*
X246355000Y-137942000D01*
X247371000Y-137942000D01*
X247371000Y-138958000D01*
G37*
X247371000Y-138958000D02*
X246355000Y-138958000D01*
X246355000Y-137942000D01*
X247371000Y-137942000D01*
X247371000Y-138958000D01*
G36*
X247371000Y-136418000D02*
G01*
X246355000Y-136418000D01*
X246355000Y-135402000D01*
X247371000Y-135402000D01*
X247371000Y-136418000D01*
G37*
X247371000Y-136418000D02*
X246355000Y-136418000D01*
X246355000Y-135402000D01*
X247371000Y-135402000D01*
X247371000Y-136418000D01*
G36*
X247371000Y-133878000D02*
G01*
X246355000Y-133878000D01*
X246355000Y-132862000D01*
X247371000Y-132862000D01*
X247371000Y-133878000D01*
G37*
X247371000Y-133878000D02*
X246355000Y-133878000D01*
X246355000Y-132862000D01*
X247371000Y-132862000D01*
X247371000Y-133878000D01*
G36*
X247371000Y-131338000D02*
G01*
X246355000Y-131338000D01*
X246355000Y-130322000D01*
X247371000Y-130322000D01*
X247371000Y-131338000D01*
G37*
X247371000Y-131338000D02*
X246355000Y-131338000D01*
X246355000Y-130322000D01*
X247371000Y-130322000D01*
X247371000Y-131338000D01*
G36*
X236195000Y-159278000D02*
G01*
X235179000Y-159278000D01*
X235179000Y-158262000D01*
X236195000Y-158262000D01*
X236195000Y-159278000D01*
G37*
X236195000Y-159278000D02*
X235179000Y-159278000D01*
X235179000Y-158262000D01*
X236195000Y-158262000D01*
X236195000Y-159278000D01*
G36*
X236195000Y-156738000D02*
G01*
X235179000Y-156738000D01*
X235179000Y-155722000D01*
X236195000Y-155722000D01*
X236195000Y-156738000D01*
G37*
X236195000Y-156738000D02*
X235179000Y-156738000D01*
X235179000Y-155722000D01*
X236195000Y-155722000D01*
X236195000Y-156738000D01*
G36*
X236195000Y-154198000D02*
G01*
X235179000Y-154198000D01*
X235179000Y-153182000D01*
X236195000Y-153182000D01*
X236195000Y-154198000D01*
G37*
X236195000Y-154198000D02*
X235179000Y-154198000D01*
X235179000Y-153182000D01*
X236195000Y-153182000D01*
X236195000Y-154198000D01*
G36*
X236195000Y-151658000D02*
G01*
X235179000Y-151658000D01*
X235179000Y-150642000D01*
X236195000Y-150642000D01*
X236195000Y-151658000D01*
G37*
X236195000Y-151658000D02*
X235179000Y-151658000D01*
X235179000Y-150642000D01*
X236195000Y-150642000D01*
X236195000Y-151658000D01*
G36*
X236195000Y-149118000D02*
G01*
X235179000Y-149118000D01*
X235179000Y-148102000D01*
X236195000Y-148102000D01*
X236195000Y-149118000D01*
G37*
X236195000Y-149118000D02*
X235179000Y-149118000D01*
X235179000Y-148102000D01*
X236195000Y-148102000D01*
X236195000Y-149118000D01*
G36*
X236195000Y-146578000D02*
G01*
X235179000Y-146578000D01*
X235179000Y-145562000D01*
X236195000Y-145562000D01*
X236195000Y-146578000D01*
G37*
X236195000Y-146578000D02*
X235179000Y-146578000D01*
X235179000Y-145562000D01*
X236195000Y-145562000D01*
X236195000Y-146578000D01*
G36*
X236195000Y-144038000D02*
G01*
X235179000Y-144038000D01*
X235179000Y-143022000D01*
X236195000Y-143022000D01*
X236195000Y-144038000D01*
G37*
X236195000Y-144038000D02*
X235179000Y-144038000D01*
X235179000Y-143022000D01*
X236195000Y-143022000D01*
X236195000Y-144038000D01*
G36*
X236195000Y-141498000D02*
G01*
X235179000Y-141498000D01*
X235179000Y-140482000D01*
X236195000Y-140482000D01*
X236195000Y-141498000D01*
G37*
X236195000Y-141498000D02*
X235179000Y-141498000D01*
X235179000Y-140482000D01*
X236195000Y-140482000D01*
X236195000Y-141498000D01*
G36*
X236195000Y-138958000D02*
G01*
X235179000Y-138958000D01*
X235179000Y-137942000D01*
X236195000Y-137942000D01*
X236195000Y-138958000D01*
G37*
X236195000Y-138958000D02*
X235179000Y-138958000D01*
X235179000Y-137942000D01*
X236195000Y-137942000D01*
X236195000Y-138958000D01*
G36*
X236195000Y-136418000D02*
G01*
X235179000Y-136418000D01*
X235179000Y-135402000D01*
X236195000Y-135402000D01*
X236195000Y-136418000D01*
G37*
X236195000Y-136418000D02*
X235179000Y-136418000D01*
X235179000Y-135402000D01*
X236195000Y-135402000D01*
X236195000Y-136418000D01*
G36*
X236195000Y-133878000D02*
G01*
X235179000Y-133878000D01*
X235179000Y-132862000D01*
X236195000Y-132862000D01*
X236195000Y-133878000D01*
G37*
X236195000Y-133878000D02*
X235179000Y-133878000D01*
X235179000Y-132862000D01*
X236195000Y-132862000D01*
X236195000Y-133878000D01*
G36*
X236195000Y-131338000D02*
G01*
X235179000Y-131338000D01*
X235179000Y-130322000D01*
X236195000Y-130322000D01*
X236195000Y-131338000D01*
G37*
X236195000Y-131338000D02*
X235179000Y-131338000D01*
X235179000Y-130322000D01*
X236195000Y-130322000D01*
X236195000Y-131338000D01*
%TD*%
D12*
%TO.C,MCU1*%
X233655000Y-130830000D03*
X233655000Y-133370000D03*
X233655000Y-135910000D03*
X233655000Y-138450000D03*
X233655000Y-140990000D03*
X233655000Y-143530000D03*
X233655000Y-146070000D03*
X233655000Y-148610000D03*
X233655000Y-151150000D03*
X233655000Y-153690000D03*
X233655000Y-156230000D03*
X233655000Y-158770000D03*
X248895000Y-158770000D03*
X248895000Y-156230000D03*
X248895000Y-153690000D03*
X248895000Y-151150000D03*
X248895000Y-148610000D03*
X248895000Y-146070000D03*
X248895000Y-143530000D03*
X248895000Y-140990000D03*
X248895000Y-138450000D03*
X248895000Y-135910000D03*
X248895000Y-133370000D03*
X248895000Y-130830000D03*
D13*
X248895000Y-130830000D03*
D14*
X236449000Y-130830000D03*
D15*
X235433000Y-130830000D03*
X235433000Y-133370000D03*
D14*
X236449000Y-133370000D03*
D15*
X235433000Y-135910000D03*
D14*
X236449000Y-135910000D03*
D15*
X235433000Y-138450000D03*
D14*
X236449000Y-138450000D03*
D15*
X235433000Y-140990000D03*
D14*
X236449000Y-140990000D03*
D15*
X235433000Y-143530000D03*
D14*
X236449000Y-143530000D03*
D15*
X235433000Y-146070000D03*
D14*
X236449000Y-146070000D03*
D15*
X235433000Y-148610000D03*
D14*
X236449000Y-148610000D03*
D15*
X235433000Y-151150000D03*
D14*
X236449000Y-151150000D03*
D15*
X235433000Y-153690000D03*
D14*
X236449000Y-153690000D03*
D15*
X235433000Y-156230000D03*
D14*
X236449000Y-156230000D03*
D15*
X235433000Y-158770000D03*
D14*
X236449000Y-158770000D03*
D16*
X247117000Y-130830000D03*
D17*
X246101000Y-130830000D03*
X246101000Y-133370000D03*
D16*
X247117000Y-133370000D03*
D17*
X246101000Y-135910000D03*
D16*
X247117000Y-135910000D03*
D17*
X246101000Y-138450000D03*
D16*
X247117000Y-138450000D03*
D17*
X246101000Y-140990000D03*
D16*
X247117000Y-140990000D03*
D17*
X246101000Y-143530000D03*
D16*
X247117000Y-143530000D03*
D17*
X246101000Y-146070000D03*
D16*
X247117000Y-146070000D03*
D17*
X246101000Y-148610000D03*
D16*
X247117000Y-148610000D03*
D17*
X246101000Y-151150000D03*
D16*
X247117000Y-151150000D03*
D17*
X246101000Y-153690000D03*
D16*
X247117000Y-153690000D03*
D17*
X246101000Y-156230000D03*
D16*
X247117000Y-156230000D03*
D17*
X246101000Y-158770000D03*
D16*
X247117000Y-158770000D03*
%TD*%
D18*
%TO.C,*%
X217475000Y-167800000D03*
X221075000Y-167800000D03*
%TD*%
D19*
%TO.C,*%
X250105000Y-176300000D03*
X250105000Y-173300000D03*
X250105000Y-176300000D03*
X250105000Y-173300000D03*
D20*
X248345000Y-172550000D03*
X248345000Y-175550000D03*
X248345000Y-177050000D03*
D21*
X251205000Y-171150000D03*
X251205000Y-178450000D03*
X248995000Y-178450000D03*
X248995000Y-171150000D03*
%TD*%
D22*
%TO.C,*%
X233275000Y-165050000D03*
X233275000Y-166550000D03*
%TD*%
D23*
%TO.C,S1*%
X149275000Y-166000000D03*
D24*
X154775000Y-166000000D03*
X143775000Y-166000000D03*
D25*
X154275000Y-162250000D03*
X149275000Y-160050000D03*
D26*
X146000000Y-160050000D03*
X157550000Y-162250000D03*
D25*
X144275000Y-162250000D03*
X149275000Y-160050000D03*
%TD*%
D23*
%TO.C,S2*%
X149275000Y-149000000D03*
D24*
X154775000Y-149000000D03*
X143775000Y-149000000D03*
D25*
X154275000Y-145250000D03*
X149275000Y-143050000D03*
D26*
X146000000Y-143050000D03*
X157550000Y-145250000D03*
D25*
X144275000Y-145250000D03*
X149275000Y-143050000D03*
%TD*%
D23*
%TO.C,S3*%
X149275000Y-132000000D03*
D24*
X154775000Y-132000000D03*
X143775000Y-132000000D03*
D25*
X154275000Y-128250000D03*
X149275000Y-126050000D03*
D26*
X146000000Y-126050000D03*
X157550000Y-128250000D03*
D25*
X144275000Y-128250000D03*
X149275000Y-126050000D03*
%TD*%
D23*
%TO.C,S4*%
X167275000Y-150700000D03*
D24*
X172775000Y-150700000D03*
X161775000Y-150700000D03*
D25*
X172275000Y-146950000D03*
X167275000Y-144750000D03*
D26*
X164000000Y-144750000D03*
X175550000Y-146950000D03*
D25*
X162275000Y-146950000D03*
X167275000Y-144750000D03*
%TD*%
D23*
%TO.C,S5*%
X167275000Y-133700000D03*
D24*
X172775000Y-133700000D03*
X161775000Y-133700000D03*
D25*
X172275000Y-129950000D03*
X167275000Y-127750000D03*
D26*
X164000000Y-127750000D03*
X175550000Y-129950000D03*
D25*
X162275000Y-129950000D03*
X167275000Y-127750000D03*
%TD*%
D23*
%TO.C,S6*%
X167275000Y-116700000D03*
D24*
X172775000Y-116700000D03*
X161775000Y-116700000D03*
D25*
X172275000Y-112950000D03*
X167275000Y-110750000D03*
D26*
X164000000Y-110750000D03*
X175550000Y-112950000D03*
D25*
X162275000Y-112950000D03*
X167275000Y-110750000D03*
%TD*%
D23*
%TO.C,S7*%
X185275000Y-145600000D03*
D24*
X190775000Y-145600000D03*
X179775000Y-145600000D03*
D25*
X190275000Y-141850000D03*
X185275000Y-139650000D03*
D26*
X182000000Y-139650000D03*
X193550000Y-141850000D03*
D25*
X180275000Y-141850000D03*
X185275000Y-139650000D03*
%TD*%
D23*
%TO.C,S8*%
X185275000Y-128600000D03*
D24*
X190775000Y-128600000D03*
X179775000Y-128600000D03*
D25*
X190275000Y-124850000D03*
X185275000Y-122650000D03*
D26*
X182000000Y-122650000D03*
X193550000Y-124850000D03*
D25*
X180275000Y-124850000D03*
X185275000Y-122650000D03*
%TD*%
D23*
%TO.C,S9*%
X185275000Y-111600000D03*
D24*
X190775000Y-111600000D03*
X179775000Y-111600000D03*
D25*
X190275000Y-107850000D03*
X185275000Y-105650000D03*
D26*
X182000000Y-105650000D03*
X193550000Y-107850000D03*
D25*
X180275000Y-107850000D03*
X185275000Y-105650000D03*
%TD*%
D23*
%TO.C,S10*%
X203275000Y-150700000D03*
D24*
X208775000Y-150700000D03*
X197775000Y-150700000D03*
D25*
X208275000Y-146950000D03*
X203275000Y-144750000D03*
D26*
X200000000Y-144750000D03*
X211550000Y-146950000D03*
D25*
X198275000Y-146950000D03*
X203275000Y-144750000D03*
%TD*%
D23*
%TO.C,S11*%
X203275000Y-133700000D03*
D24*
X208775000Y-133700000D03*
X197775000Y-133700000D03*
D25*
X208275000Y-129950000D03*
X203275000Y-127750000D03*
D26*
X200000000Y-127750000D03*
X211550000Y-129950000D03*
D25*
X198275000Y-129950000D03*
X203275000Y-127750000D03*
%TD*%
D23*
%TO.C,S12*%
X203275000Y-116700000D03*
D24*
X208775000Y-116700000D03*
X197775000Y-116700000D03*
D25*
X208275000Y-112950000D03*
X203275000Y-110750000D03*
D26*
X200000000Y-110750000D03*
X211550000Y-112950000D03*
D25*
X198275000Y-112950000D03*
X203275000Y-110750000D03*
%TD*%
D23*
%TO.C,S13*%
X221275000Y-155800000D03*
D24*
X226775000Y-155800000D03*
X215775000Y-155800000D03*
D25*
X226275000Y-152050000D03*
X221275000Y-149850000D03*
D26*
X218000000Y-149850000D03*
X229550000Y-152050000D03*
D25*
X216275000Y-152050000D03*
X221275000Y-149850000D03*
%TD*%
D23*
%TO.C,S14*%
X221275000Y-138800000D03*
D24*
X226775000Y-138800000D03*
X215775000Y-138800000D03*
D25*
X226275000Y-135050000D03*
X221275000Y-132850000D03*
D26*
X218000000Y-132850000D03*
X229550000Y-135050000D03*
D25*
X216275000Y-135050000D03*
X221275000Y-132850000D03*
%TD*%
D23*
%TO.C,S15*%
X221275000Y-121800000D03*
D24*
X226775000Y-121800000D03*
X215775000Y-121800000D03*
D25*
X226275000Y-118050000D03*
X221275000Y-115850000D03*
D26*
X218000000Y-115850000D03*
X229550000Y-118050000D03*
D25*
X216275000Y-118050000D03*
X221275000Y-115850000D03*
%TD*%
D23*
%TO.C,S16*%
X230275000Y-183000000D03*
D24*
X235038140Y-185750000D03*
X225511860Y-180250000D03*
D25*
X236480127Y-182252405D03*
X233250000Y-177847149D03*
D27*
X230413767Y-176209649D03*
X239316360Y-183889905D03*
D25*
X227819873Y-177252405D03*
X233250000Y-177847149D03*
%TD*%
D23*
%TO.C,S17*%
X245863457Y-192000000D03*
D24*
X250626597Y-194750000D03*
X241100317Y-189250000D03*
D25*
X252068584Y-191252405D03*
X248838457Y-186847149D03*
D27*
X246002224Y-185209649D03*
X254904817Y-192889905D03*
D25*
X243408330Y-186252405D03*
X248838457Y-186847149D03*
%TD*%
D28*
%TO.C,D1*%
X147325000Y-170000000D03*
D29*
X151225000Y-170000000D03*
%TD*%
D28*
%TO.C,D2*%
X147325000Y-153000000D03*
D29*
X151225000Y-153000000D03*
%TD*%
D28*
%TO.C,D3*%
X147325000Y-136000000D03*
D29*
X151225000Y-136000000D03*
%TD*%
D28*
%TO.C,D4*%
X165325000Y-154700000D03*
D29*
X169225000Y-154700000D03*
%TD*%
D28*
%TO.C,D5*%
X165325000Y-137700000D03*
D29*
X169225000Y-137700000D03*
%TD*%
D28*
%TO.C,D6*%
X165325000Y-120700000D03*
D29*
X169225000Y-120700000D03*
%TD*%
D28*
%TO.C,D7*%
X183325000Y-149600000D03*
D29*
X187225000Y-149600000D03*
%TD*%
D28*
%TO.C,D8*%
X183325000Y-132600000D03*
D29*
X187225000Y-132600000D03*
%TD*%
D28*
%TO.C,D9*%
X183325000Y-115600000D03*
D29*
X187225000Y-115600000D03*
%TD*%
D28*
%TO.C,D10*%
X201325000Y-154700000D03*
D29*
X205225000Y-154700000D03*
%TD*%
D28*
%TO.C,D11*%
X201325000Y-137700000D03*
D29*
X205225000Y-137700000D03*
%TD*%
D28*
%TO.C,D12*%
X201325000Y-120700000D03*
D29*
X205225000Y-120700000D03*
%TD*%
D28*
%TO.C,D13*%
X219325000Y-159800000D03*
D29*
X223225000Y-159800000D03*
%TD*%
D28*
%TO.C,D14*%
X219325000Y-142800000D03*
D29*
X223225000Y-142800000D03*
%TD*%
D28*
%TO.C,D15*%
X219325000Y-125800000D03*
D29*
X223225000Y-125800000D03*
%TD*%
D30*
%TO.C,D16*%
X226586250Y-185489102D03*
D31*
X229963750Y-187439102D03*
%TD*%
D30*
%TO.C,D17*%
X242174707Y-194489102D03*
D31*
X245552207Y-196439102D03*
%TD*%
M02*
