%TF.GenerationSoftware,KiCad,Pcbnew,(6.0.6-1)-1*%
%TF.CreationDate,2023-03-28T00:01:58-05:00*%
%TF.ProjectId,smcboard,736d6362-6f61-4726-942e-6b696361645f,v1.0.0*%
%TF.SameCoordinates,Original*%
%TF.FileFunction,Legend,Bot*%
%TF.FilePolarity,Positive*%
%FSLAX46Y46*%
G04 Gerber Fmt 4.6, Leading zero omitted, Abs format (unit mm)*
G04 Created by KiCad (PCBNEW (6.0.6-1)-1) date 2023-03-28 00:01:58*
%MOMM*%
%LPD*%
G01*
G04 APERTURE LIST*
%ADD10C,0.300000*%
%ADD11C,0.150000*%
%ADD12C,0.100000*%
%ADD13C,1.000000*%
G04 APERTURE END LIST*
D10*
X213464285Y-168357142D02*
X213321428Y-168428571D01*
X213035714Y-168428571D01*
X212892857Y-168357142D01*
X212821428Y-168214285D01*
X212821428Y-168142857D01*
X212892857Y-168000000D01*
X213035714Y-167928571D01*
X213250000Y-167928571D01*
X213392857Y-167857142D01*
X213464285Y-167714285D01*
X213464285Y-167642857D01*
X213392857Y-167500000D01*
X213250000Y-167428571D01*
X213035714Y-167428571D01*
X212892857Y-167500000D01*
X212178571Y-168428571D02*
X212178571Y-167428571D01*
X212178571Y-167571428D02*
X212107142Y-167500000D01*
X211964285Y-167428571D01*
X211750000Y-167428571D01*
X211607142Y-167500000D01*
X211535714Y-167642857D01*
X211535714Y-168428571D01*
X211535714Y-167642857D02*
X211464285Y-167500000D01*
X211321428Y-167428571D01*
X211107142Y-167428571D01*
X210964285Y-167500000D01*
X210892857Y-167642857D01*
X210892857Y-168428571D01*
X209535714Y-168357142D02*
X209678571Y-168428571D01*
X209964285Y-168428571D01*
X210107142Y-168357142D01*
X210178571Y-168285714D01*
X210250000Y-168142857D01*
X210250000Y-167714285D01*
X210178571Y-167571428D01*
X210107142Y-167500000D01*
X209964285Y-167428571D01*
X209678571Y-167428571D01*
X209535714Y-167500000D01*
X208892857Y-168428571D02*
X208892857Y-166928571D01*
X208250000Y-168428571D02*
X208250000Y-167642857D01*
X208321428Y-167500000D01*
X208464285Y-167428571D01*
X208678571Y-167428571D01*
X208821428Y-167500000D01*
X208892857Y-167571428D01*
X206892857Y-167428571D02*
X206892857Y-168428571D01*
X207535714Y-167428571D02*
X207535714Y-168214285D01*
X207464285Y-168357142D01*
X207321428Y-168428571D01*
X207107142Y-168428571D01*
X206964285Y-168357142D01*
X206892857Y-168285714D01*
X206178571Y-167428571D02*
X206178571Y-168428571D01*
X206178571Y-167571428D02*
X206107142Y-167500000D01*
X205964285Y-167428571D01*
X205750000Y-167428571D01*
X205607142Y-167500000D01*
X205535714Y-167642857D01*
X205535714Y-168428571D01*
X204821428Y-167428571D02*
X204821428Y-168428571D01*
X204821428Y-167571428D02*
X204750000Y-167500000D01*
X204607142Y-167428571D01*
X204392857Y-167428571D01*
X204250000Y-167500000D01*
X204178571Y-167642857D01*
X204178571Y-168428571D01*
X202678571Y-168428571D02*
X203535714Y-168428571D01*
X203107142Y-168428571D02*
X203107142Y-166928571D01*
X203250000Y-167142857D01*
X203392857Y-167285714D01*
X203535714Y-167357142D01*
X201250000Y-168428571D02*
X202107142Y-168428571D01*
X201678571Y-168428571D02*
X201678571Y-166928571D01*
X201821428Y-167142857D01*
X201964285Y-167285714D01*
X202107142Y-167357142D01*
X200750000Y-167428571D02*
X200392857Y-168428571D01*
X200035714Y-167428571D01*
X199178571Y-166928571D02*
X199035714Y-166928571D01*
X198892857Y-167000000D01*
X198821428Y-167071428D01*
X198750000Y-167214285D01*
X198678571Y-167500000D01*
X198678571Y-167857142D01*
X198750000Y-168142857D01*
X198821428Y-168285714D01*
X198892857Y-168357142D01*
X199035714Y-168428571D01*
X199178571Y-168428571D01*
X199321428Y-168357142D01*
X199392857Y-168285714D01*
X199464285Y-168142857D01*
X199535714Y-167857142D01*
X199535714Y-167500000D01*
X199464285Y-167214285D01*
X199392857Y-167071428D01*
X199321428Y-167000000D01*
X199178571Y-166928571D01*
X198035714Y-168285714D02*
X197964285Y-168357142D01*
X198035714Y-168428571D01*
X198107142Y-168357142D01*
X198035714Y-168285714D01*
X198035714Y-168428571D01*
X196678571Y-167428571D02*
X196678571Y-168428571D01*
X197035714Y-166857142D02*
X197392857Y-167928571D01*
X196464285Y-167928571D01*
D11*
%TO.C,MCU1*%
X247625000Y-129560000D02*
X247625000Y-132100000D01*
X247625000Y-129560000D02*
X250165000Y-129560000D01*
X247625000Y-132100000D02*
X250165000Y-132100000D01*
X250165000Y-132100000D02*
X250165000Y-129560000D01*
D12*
%TO.C,D1*%
X149525000Y-170000000D02*
X150025000Y-170000000D01*
X149525000Y-170400000D02*
X148925000Y-170000000D01*
X149525000Y-169600000D02*
X149525000Y-170400000D01*
X148925000Y-170000000D02*
X149525000Y-169600000D01*
X148925000Y-170000000D02*
X148925000Y-170550000D01*
X148925000Y-170000000D02*
X148925000Y-169450000D01*
X148525000Y-170000000D02*
X148925000Y-170000000D01*
%TO.C,D2*%
X149525000Y-153000000D02*
X150025000Y-153000000D01*
X149525000Y-153400000D02*
X148925000Y-153000000D01*
X149525000Y-152600000D02*
X149525000Y-153400000D01*
X148925000Y-153000000D02*
X149525000Y-152600000D01*
X148925000Y-153000000D02*
X148925000Y-153550000D01*
X148925000Y-153000000D02*
X148925000Y-152450000D01*
X148525000Y-153000000D02*
X148925000Y-153000000D01*
%TO.C,D3*%
X149525000Y-136000000D02*
X150025000Y-136000000D01*
X149525000Y-136400000D02*
X148925000Y-136000000D01*
X149525000Y-135600000D02*
X149525000Y-136400000D01*
X148925000Y-136000000D02*
X149525000Y-135600000D01*
X148925000Y-136000000D02*
X148925000Y-136550000D01*
X148925000Y-136000000D02*
X148925000Y-135450000D01*
X148525000Y-136000000D02*
X148925000Y-136000000D01*
%TO.C,D4*%
X167525000Y-154700000D02*
X168025000Y-154700000D01*
X167525000Y-155100000D02*
X166925000Y-154700000D01*
X167525000Y-154300000D02*
X167525000Y-155100000D01*
X166925000Y-154700000D02*
X167525000Y-154300000D01*
X166925000Y-154700000D02*
X166925000Y-155250000D01*
X166925000Y-154700000D02*
X166925000Y-154150000D01*
X166525000Y-154700000D02*
X166925000Y-154700000D01*
%TO.C,D5*%
X167525000Y-137700000D02*
X168025000Y-137700000D01*
X167525000Y-138100000D02*
X166925000Y-137700000D01*
X167525000Y-137300000D02*
X167525000Y-138100000D01*
X166925000Y-137700000D02*
X167525000Y-137300000D01*
X166925000Y-137700000D02*
X166925000Y-138250000D01*
X166925000Y-137700000D02*
X166925000Y-137150000D01*
X166525000Y-137700000D02*
X166925000Y-137700000D01*
%TO.C,D6*%
X167525000Y-120700000D02*
X168025000Y-120700000D01*
X167525000Y-121100000D02*
X166925000Y-120700000D01*
X167525000Y-120300000D02*
X167525000Y-121100000D01*
X166925000Y-120700000D02*
X167525000Y-120300000D01*
X166925000Y-120700000D02*
X166925000Y-121250000D01*
X166925000Y-120700000D02*
X166925000Y-120150000D01*
X166525000Y-120700000D02*
X166925000Y-120700000D01*
%TO.C,D7*%
X185525000Y-149600000D02*
X186025000Y-149600000D01*
X185525000Y-150000000D02*
X184925000Y-149600000D01*
X185525000Y-149200000D02*
X185525000Y-150000000D01*
X184925000Y-149600000D02*
X185525000Y-149200000D01*
X184925000Y-149600000D02*
X184925000Y-150150000D01*
X184925000Y-149600000D02*
X184925000Y-149050000D01*
X184525000Y-149600000D02*
X184925000Y-149600000D01*
%TO.C,D8*%
X185525000Y-132600000D02*
X186025000Y-132600000D01*
X185525000Y-133000000D02*
X184925000Y-132600000D01*
X185525000Y-132200000D02*
X185525000Y-133000000D01*
X184925000Y-132600000D02*
X185525000Y-132200000D01*
X184925000Y-132600000D02*
X184925000Y-133150000D01*
X184925000Y-132600000D02*
X184925000Y-132050000D01*
X184525000Y-132600000D02*
X184925000Y-132600000D01*
%TO.C,D9*%
X185525000Y-115600000D02*
X186025000Y-115600000D01*
X185525000Y-116000000D02*
X184925000Y-115600000D01*
X185525000Y-115200000D02*
X185525000Y-116000000D01*
X184925000Y-115600000D02*
X185525000Y-115200000D01*
X184925000Y-115600000D02*
X184925000Y-116150000D01*
X184925000Y-115600000D02*
X184925000Y-115050000D01*
X184525000Y-115600000D02*
X184925000Y-115600000D01*
%TO.C,D10*%
X203525000Y-154700000D02*
X204025000Y-154700000D01*
X203525000Y-155100000D02*
X202925000Y-154700000D01*
X203525000Y-154300000D02*
X203525000Y-155100000D01*
X202925000Y-154700000D02*
X203525000Y-154300000D01*
X202925000Y-154700000D02*
X202925000Y-155250000D01*
X202925000Y-154700000D02*
X202925000Y-154150000D01*
X202525000Y-154700000D02*
X202925000Y-154700000D01*
%TO.C,D11*%
X203525000Y-137700000D02*
X204025000Y-137700000D01*
X203525000Y-138100000D02*
X202925000Y-137700000D01*
X203525000Y-137300000D02*
X203525000Y-138100000D01*
X202925000Y-137700000D02*
X203525000Y-137300000D01*
X202925000Y-137700000D02*
X202925000Y-138250000D01*
X202925000Y-137700000D02*
X202925000Y-137150000D01*
X202525000Y-137700000D02*
X202925000Y-137700000D01*
%TO.C,D12*%
X203525000Y-120700000D02*
X204025000Y-120700000D01*
X203525000Y-121100000D02*
X202925000Y-120700000D01*
X203525000Y-120300000D02*
X203525000Y-121100000D01*
X202925000Y-120700000D02*
X203525000Y-120300000D01*
X202925000Y-120700000D02*
X202925000Y-121250000D01*
X202925000Y-120700000D02*
X202925000Y-120150000D01*
X202525000Y-120700000D02*
X202925000Y-120700000D01*
%TO.C,D13*%
X221525000Y-159800000D02*
X222025000Y-159800000D01*
X221525000Y-160200000D02*
X220925000Y-159800000D01*
X221525000Y-159400000D02*
X221525000Y-160200000D01*
X220925000Y-159800000D02*
X221525000Y-159400000D01*
X220925000Y-159800000D02*
X220925000Y-160350000D01*
X220925000Y-159800000D02*
X220925000Y-159250000D01*
X220525000Y-159800000D02*
X220925000Y-159800000D01*
%TO.C,D14*%
X221525000Y-142800000D02*
X222025000Y-142800000D01*
X221525000Y-143200000D02*
X220925000Y-142800000D01*
X221525000Y-142400000D02*
X221525000Y-143200000D01*
X220925000Y-142800000D02*
X221525000Y-142400000D01*
X220925000Y-142800000D02*
X220925000Y-143350000D01*
X220925000Y-142800000D02*
X220925000Y-142250000D01*
X220525000Y-142800000D02*
X220925000Y-142800000D01*
%TO.C,D15*%
X221525000Y-125800000D02*
X222025000Y-125800000D01*
X221525000Y-126200000D02*
X220925000Y-125800000D01*
X221525000Y-125400000D02*
X221525000Y-126200000D01*
X220925000Y-125800000D02*
X221525000Y-125400000D01*
X220925000Y-125800000D02*
X220925000Y-126350000D01*
X220925000Y-125800000D02*
X220925000Y-125250000D01*
X220525000Y-125800000D02*
X220925000Y-125800000D01*
%TO.C,D16*%
X228491506Y-186589102D02*
X228924519Y-186839102D01*
X228291506Y-186935512D02*
X227971891Y-186289102D01*
X228691506Y-186242692D02*
X228291506Y-186935512D01*
X227971891Y-186289102D02*
X228691506Y-186242692D01*
X227971891Y-186289102D02*
X227696891Y-186765416D01*
X227971891Y-186289102D02*
X228246891Y-185812788D01*
X227625481Y-186089102D02*
X227971891Y-186289102D01*
%TO.C,D17*%
X244079963Y-195589102D02*
X244512976Y-195839102D01*
X243879963Y-195935512D02*
X243560348Y-195289102D01*
X244279963Y-195242692D02*
X243879963Y-195935512D01*
X243560348Y-195289102D02*
X244279963Y-195242692D01*
X243560348Y-195289102D02*
X243285348Y-195765416D01*
X243560348Y-195289102D02*
X243835348Y-194812788D01*
X243213938Y-195089102D02*
X243560348Y-195289102D01*
%TD*%
D13*
%TO.C,*%
X233275000Y-165050000D03*
X233275000Y-166550000D03*
%TD*%
M02*
