%TF.GenerationSoftware,KiCad,Pcbnew,(6.0.6-1)-1*%
%TF.CreationDate,2023-03-28T00:01:58-05:00*%
%TF.ProjectId,smcboard,736d6362-6f61-4726-942e-6b696361645f,v1.0.0*%
%TF.SameCoordinates,Original*%
%TF.FileFunction,Paste,Top*%
%TF.FilePolarity,Positive*%
%FSLAX46Y46*%
G04 Gerber Fmt 4.6, Leading zero omitted, Abs format (unit mm)*
G04 Created by KiCad (PCBNEW (6.0.6-1)-1) date 2023-03-28 00:01:58*
%MOMM*%
%LPD*%
G01*
G04 APERTURE LIST*
G04 Aperture macros list*
%AMRotRect*
0 Rectangle, with rotation*
0 The origin of the aperture is its center*
0 $1 length*
0 $2 width*
0 $3 Rotation angle, in degrees counterclockwise*
0 Add horizontal line*
21,1,$1,$2,0,0,$3*%
G04 Aperture macros list end*
%ADD10R,0.900000X1.700000*%
%ADD11R,0.700000X1.500000*%
%ADD12R,1.000000X0.800000*%
%ADD13R,2.600000X2.600000*%
%ADD14RotRect,2.600000X2.600000X330.000000*%
G04 APERTURE END LIST*
D10*
%TO.C,*%
X217475000Y-167800000D03*
X221075000Y-167800000D03*
%TD*%
D11*
%TO.C,*%
X248345000Y-177050000D03*
X248345000Y-174050000D03*
X248345000Y-172550000D03*
D12*
X251205000Y-178450000D03*
X251205000Y-171150000D03*
X248995000Y-171150000D03*
X248995000Y-178450000D03*
%TD*%
D13*
%TO.C,S1*%
X152550000Y-160050000D03*
X141000000Y-162250000D03*
%TD*%
%TO.C,S2*%
X152550000Y-143050000D03*
X141000000Y-145250000D03*
%TD*%
%TO.C,S3*%
X152550000Y-126050000D03*
X141000000Y-128250000D03*
%TD*%
%TO.C,S4*%
X170550000Y-144750000D03*
X159000000Y-146950000D03*
%TD*%
%TO.C,S5*%
X170550000Y-127750000D03*
X159000000Y-129950000D03*
%TD*%
%TO.C,S6*%
X170550000Y-110750000D03*
X159000000Y-112950000D03*
%TD*%
%TO.C,S7*%
X188550000Y-139650000D03*
X177000000Y-141850000D03*
%TD*%
%TO.C,S8*%
X188550000Y-122650000D03*
X177000000Y-124850000D03*
%TD*%
%TO.C,S9*%
X188550000Y-105650000D03*
X177000000Y-107850000D03*
%TD*%
%TO.C,S10*%
X206550000Y-144750000D03*
X195000000Y-146950000D03*
%TD*%
%TO.C,S11*%
X206550000Y-127750000D03*
X195000000Y-129950000D03*
%TD*%
%TO.C,S12*%
X206550000Y-110750000D03*
X195000000Y-112950000D03*
%TD*%
%TO.C,S13*%
X224550000Y-149850000D03*
X213000000Y-152050000D03*
%TD*%
%TO.C,S14*%
X224550000Y-132850000D03*
X213000000Y-135050000D03*
%TD*%
%TO.C,S15*%
X224550000Y-115850000D03*
X213000000Y-118050000D03*
%TD*%
D14*
%TO.C,S16*%
X236086233Y-179484649D03*
X224983640Y-175614905D03*
%TD*%
%TO.C,S17*%
X251674690Y-188484649D03*
X240572097Y-184614905D03*
%TD*%
M02*
