0
SECTION
2
HEADER
9
$INSUNITS
70
4
0
ENDSEC
0
SECTION
2
TABLES
0
TABLE
2
LTYPE
0
LTYPE
72
65
70
64
2
CONTINUOUS
3
______
73
0
40
0
0
ENDTAB
0
TABLE
2
LAYER
0
ENDTAB
0
ENDSEC
0
SECTION
2
ENTITIES
0
LINE
8
0
10
-8.75
20
-8.25
11
8.75
21
-8.25
0
LINE
8
0
10
8.75
20
-8.25
11
8.75
21
8.25
0
LINE
8
0
10
8.75
20
8.25
11
-8.75
21
8.25
0
LINE
8
0
10
-8.75
20
8.25
11
-8.75
21
-8.25
0
LINE
8
0
10
-8.75
20
8.75
11
8.75
21
8.75
0
LINE
8
0
10
8.75
20
8.75
11
8.75
21
25.25
0
LINE
8
0
10
8.75
20
25.25
11
-8.75
21
25.25
0
LINE
8
0
10
-8.75
20
25.25
11
-8.75
21
8.75
0
LINE
8
0
10
-8.75
20
25.75
11
8.75
21
25.75
0
LINE
8
0
10
8.75
20
25.75
11
8.75
21
42.25
0
LINE
8
0
10
8.75
20
42.25
11
-8.75
21
42.25
0
LINE
8
0
10
-8.75
20
42.25
11
-8.75
21
25.75
0
LINE
8
0
10
9.25
20
3.65
11
26.75
21
3.65
0
LINE
8
0
10
26.75
20
3.65
11
26.75
21
20.15
0
LINE
8
0
10
26.75
20
20.15
11
9.25
21
20.15
0
LINE
8
0
10
9.25
20
20.15
11
9.25
21
3.65
0
LINE
8
0
10
9.25
20
20.65
11
26.75
21
20.65
0
LINE
8
0
10
26.75
20
20.65
11
26.75
21
37.15
0
LINE
8
0
10
26.75
20
37.15
11
9.25
21
37.15
0
LINE
8
0
10
9.25
20
37.15
11
9.25
21
20.65
0
LINE
8
0
10
9.25
20
37.65
11
26.75
21
37.65
0
LINE
8
0
10
26.75
20
37.65
11
26.75
21
54.15
0
LINE
8
0
10
26.75
20
54.15
11
9.25
21
54.15
0
LINE
8
0
10
9.25
20
54.15
11
9.25
21
37.65
0
LINE
8
0
10
27.25
20
8.75
11
44.75
21
8.75
0
LINE
8
0
10
44.75
20
8.75
11
44.75
21
25.25
0
LINE
8
0
10
44.75
20
25.25
11
27.25
21
25.25
0
LINE
8
0
10
27.25
20
25.25
11
27.25
21
8.75
0
LINE
8
0
10
27.25
20
25.75
11
44.75
21
25.75
0
LINE
8
0
10
44.75
20
25.75
11
44.75
21
42.25
0
LINE
8
0
10
44.75
20
42.25
11
27.25
21
42.25
0
LINE
8
0
10
27.25
20
42.25
11
27.25
21
25.75
0
LINE
8
0
10
27.25
20
42.75
11
44.75
21
42.75
0
LINE
8
0
10
44.75
20
42.75
11
44.75
21
59.25
0
LINE
8
0
10
44.75
20
59.25
11
27.25
21
59.25
0
LINE
8
0
10
27.25
20
59.25
11
27.25
21
42.75
0
LINE
8
0
10
45.25
20
3.65
11
62.75
21
3.65
0
LINE
8
0
10
62.75
20
3.65
11
62.75
21
20.15
0
LINE
8
0
10
62.75
20
20.15
11
45.25
21
20.15
0
LINE
8
0
10
45.25
20
20.15
11
45.25
21
3.65
0
LINE
8
0
10
45.25
20
20.65
11
62.75
21
20.65
0
LINE
8
0
10
62.75
20
20.65
11
62.75
21
37.15
0
LINE
8
0
10
62.75
20
37.15
11
45.25
21
37.15
0
LINE
8
0
10
45.25
20
37.15
11
45.25
21
20.65
0
LINE
8
0
10
45.25
20
37.65
11
62.75
21
37.65
0
LINE
8
0
10
62.75
20
37.65
11
62.75
21
54.15
0
LINE
8
0
10
62.75
20
54.15
11
45.25
21
54.15
0
LINE
8
0
10
45.25
20
54.15
11
45.25
21
37.65
0
LINE
8
0
10
63.25
20
-1.45
11
80.75
21
-1.45
0
LINE
8
0
10
80.75
20
-1.45
11
80.75
21
15.05
0
LINE
8
0
10
80.75
20
15.05
11
63.25
21
15.05
0
LINE
8
0
10
63.25
20
15.05
11
63.25
21
-1.45
0
LINE
8
0
10
63.25
20
15.55
11
80.75
21
15.55
0
LINE
8
0
10
80.75
20
15.55
11
80.75
21
32.05
0
LINE
8
0
10
80.75
20
32.05
11
63.25
21
32.05
0
LINE
8
0
10
63.25
20
32.05
11
63.25
21
15.55
0
LINE
8
0
10
63.25
20
32.55
11
80.75
21
32.55
0
LINE
8
0
10
80.75
20
32.55
11
80.75
21
49.05
0
LINE
8
0
10
80.75
20
49.05
11
63.25
21
49.05
0
LINE
8
0
10
63.25
20
49.05
11
63.25
21
32.55
0
LINE
8
0
10
60.1503347
20
-20.2052424
11
77.3844704
21
-23.2440855
0
LINE
8
0
10
77.3844704
20
-23.2440855
11
80.2496653
21
-6.9947576
0
LINE
8
0
10
80.2496653
20
-6.9947576
11
63.0155296
21
-3.9559145
0
LINE
8
0
10
63.0155296
20
-3.9559145
11
60.1503347
21
-20.2052424
0
LINE
8
0
10
78.1410998
20
-21.2655096
11
94.0014861
21
-28.6613291
0
LINE
8
0
10
94.0014861
20
-28.6613291
11
100.9746874
21
-13.7072506
0
LINE
8
0
10
100.9746874
20
-13.7072506
11
85.1143011
21
-6.3114311
0
LINE
8
0
10
85.1143011
20
-6.3114311
11
78.1410998
21
-21.2655096
0
ENDSEC
0
EOF