0
SECTION
2
HEADER
9
$INSUNITS
70
4
0
ENDSEC
0
SECTION
2
TABLES
0
TABLE
2
LTYPE
0
LTYPE
72
65
70
64
2
CONTINUOUS
3
______
73
0
40
0
0
ENDTAB
0
TABLE
2
LAYER
0
ENDTAB
0
ENDSEC
0
SECTION
2
ENTITIES
0
LINE
8
0
10
42.9506377
20
-9.5
11
-7
21
-9.5
0
LINE
8
0
10
-10
20
-6.5
11
-10
21
41.8870004
0
LINE
8
0
10
-8.6544631
20
44.3895494
11
7.6114679
21
55.1431371
0
LINE
8
0
10
8.4481232
20
55.5269682
11
25.5989888
21
60.3863802
0
LINE
8
0
10
26.4167966
20
60.5
11
45.5832034
21
60.5
0
LINE
8
0
10
46.4010112
20
60.3863802
11
79.8178078
21
50.9182878
0
LINE
8
0
10
82
20
48.0319076
11
82
21
45.7
0
LINE
8
0
10
85
20
42.7
11
100.6
21
42.7
0
LINE
8
0
10
103.6
20
39.7
11
103.6
21
-10.5781315
0
LINE
8
0
10
103.313435
20
-11.8576904
11
95.7563926
21
-27.8831697
0
LINE
8
0
10
92.0585067
20
-29.4374874
11
78.6253466
21
-24.7709867
0
LINE
8
0
10
78.1618402
20
-24.65044
11
59.4541954
21
-21.3517776
0
LINE
8
0
10
58.1052044
20
-20.7432744
11
44.8205733
21
-10.1540799
0
ARC
8
0
10
-7
20
-6.5
40
3
50
180
51
270
0
ARC
8
0
10
-7
20
41.8870004
40
3
50
123.4691361
51
180
0
ARC
8
0
10
9.265931
20
52.6405881
40
3
50
105.8191959
51
123.4691361
0
ARC
8
0
10
26.4167966
20
57.5
40
3
50
90
51
105.8191959
0
ARC
8
0
10
45.5832034
20
57.5
40
3
50
74.1808041
51
90
0
ARC
8
0
10
79
20
48.0319076
40
3
50
0
51
74.1808041
0
ARC
8
0
10
85
20
45.7
40
3
50
180
51
270
0
ARC
8
0
10
100.6
20
39.7
40
3
50
0
51
90
0
ARC
8
0
10
100.6
20
-10.5781315
40
3
50
334.7531124
51
0
0
ARC
8
0
10
93.0429576
20
-26.6036109
40
3
50
250.8434549
51
334.7531124
0
ARC
8
0
10
77.6408956
20
-27.6048633
40
3
50
70.8434549
51
79.9999992
0
ARC
8
0
10
59.97514
20
-18.3973543
40
3
50
231.4416104
51
259.9999992
0
ARC
8
0
10
42.9506377
20
-12.5
40
3
50
51.4416104
51
90
0
LINE
8
0
10
-8.75
20
-8.25
11
8.75
21
-8.25
0
LINE
8
0
10
8.75
20
-8.25
11
8.75
21
8.25
0
LINE
8
0
10
8.75
20
8.25
11
-8.75
21
8.25
0
LINE
8
0
10
-8.75
20
8.25
11
-8.75
21
-8.25
0
LINE
8
0
10
-8.75
20
8.75
11
8.75
21
8.75
0
LINE
8
0
10
8.75
20
8.75
11
8.75
21
25.25
0
LINE
8
0
10
8.75
20
25.25
11
-8.75
21
25.25
0
LINE
8
0
10
-8.75
20
25.25
11
-8.75
21
8.75
0
LINE
8
0
10
-8.75
20
25.75
11
8.75
21
25.75
0
LINE
8
0
10
8.75
20
25.75
11
8.75
21
42.25
0
LINE
8
0
10
8.75
20
42.25
11
-8.75
21
42.25
0
LINE
8
0
10
-8.75
20
42.25
11
-8.75
21
25.75
0
LINE
8
0
10
9.25
20
3.65
11
26.75
21
3.65
0
LINE
8
0
10
26.75
20
3.65
11
26.75
21
20.15
0
LINE
8
0
10
26.75
20
20.15
11
9.25
21
20.15
0
LINE
8
0
10
9.25
20
20.15
11
9.25
21
3.65
0
LINE
8
0
10
9.25
20
20.65
11
26.75
21
20.65
0
LINE
8
0
10
26.75
20
20.65
11
26.75
21
37.15
0
LINE
8
0
10
26.75
20
37.15
11
9.25
21
37.15
0
LINE
8
0
10
9.25
20
37.15
11
9.25
21
20.65
0
LINE
8
0
10
9.25
20
37.65
11
26.75
21
37.65
0
LINE
8
0
10
26.75
20
37.65
11
26.75
21
54.15
0
LINE
8
0
10
26.75
20
54.15
11
9.25
21
54.15
0
LINE
8
0
10
9.25
20
54.15
11
9.25
21
37.65
0
LINE
8
0
10
27.25
20
8.75
11
44.75
21
8.75
0
LINE
8
0
10
44.75
20
8.75
11
44.75
21
25.25
0
LINE
8
0
10
44.75
20
25.25
11
27.25
21
25.25
0
LINE
8
0
10
27.25
20
25.25
11
27.25
21
8.75
0
LINE
8
0
10
27.25
20
25.75
11
44.75
21
25.75
0
LINE
8
0
10
44.75
20
25.75
11
44.75
21
42.25
0
LINE
8
0
10
44.75
20
42.25
11
27.25
21
42.25
0
LINE
8
0
10
27.25
20
42.25
11
27.25
21
25.75
0
LINE
8
0
10
27.25
20
42.75
11
44.75
21
42.75
0
LINE
8
0
10
44.75
20
42.75
11
44.75
21
59.25
0
LINE
8
0
10
44.75
20
59.25
11
27.25
21
59.25
0
LINE
8
0
10
27.25
20
59.25
11
27.25
21
42.75
0
LINE
8
0
10
45.25
20
3.65
11
62.75
21
3.65
0
LINE
8
0
10
62.75
20
3.65
11
62.75
21
20.15
0
LINE
8
0
10
62.75
20
20.15
11
45.25
21
20.15
0
LINE
8
0
10
45.25
20
20.15
11
45.25
21
3.65
0
LINE
8
0
10
45.25
20
20.65
11
62.75
21
20.65
0
LINE
8
0
10
62.75
20
20.65
11
62.75
21
37.15
0
LINE
8
0
10
62.75
20
37.15
11
45.25
21
37.15
0
LINE
8
0
10
45.25
20
37.15
11
45.25
21
20.65
0
LINE
8
0
10
45.25
20
37.65
11
62.75
21
37.65
0
LINE
8
0
10
62.75
20
37.65
11
62.75
21
54.15
0
LINE
8
0
10
62.75
20
54.15
11
45.25
21
54.15
0
LINE
8
0
10
45.25
20
54.15
11
45.25
21
37.65
0
LINE
8
0
10
63.25
20
-1.45
11
80.75
21
-1.45
0
LINE
8
0
10
80.75
20
-1.45
11
80.75
21
15.05
0
LINE
8
0
10
80.75
20
15.05
11
63.25
21
15.05
0
LINE
8
0
10
63.25
20
15.05
11
63.25
21
-1.45
0
LINE
8
0
10
63.25
20
15.55
11
80.75
21
15.55
0
LINE
8
0
10
80.75
20
15.55
11
80.75
21
32.05
0
LINE
8
0
10
80.75
20
32.05
11
63.25
21
32.05
0
LINE
8
0
10
63.25
20
32.05
11
63.25
21
15.55
0
LINE
8
0
10
63.25
20
32.55
11
80.75
21
32.55
0
LINE
8
0
10
80.75
20
32.55
11
80.75
21
49.05
0
LINE
8
0
10
80.75
20
49.05
11
63.25
21
49.05
0
LINE
8
0
10
63.25
20
49.05
11
63.25
21
32.55
0
LINE
8
0
10
60.1503347
20
-20.2052424
11
77.3844704
21
-23.2440855
0
LINE
8
0
10
77.3844704
20
-23.2440855
11
80.2496653
21
-6.9947576
0
LINE
8
0
10
80.2496653
20
-6.9947576
11
63.0155296
21
-3.9559145
0
LINE
8
0
10
63.0155296
20
-3.9559145
11
60.1503347
21
-20.2052424
0
LINE
8
0
10
78.1410998
20
-21.2655096
11
94.0014861
21
-28.6613291
0
LINE
8
0
10
94.0014861
20
-28.6613291
11
100.9746874
21
-13.7072506
0
LINE
8
0
10
100.9746874
20
-13.7072506
11
85.1143011
21
-6.3114311
0
LINE
8
0
10
85.1143011
20
-6.3114311
11
78.1410998
21
-21.2655096
0
ENDSEC
0
EOF