0
SECTION
2
HEADER
9
$INSUNITS
70
4
0
ENDSEC
0
SECTION
2
TABLES
0
TABLE
2
LTYPE
0
LTYPE
72
65
70
64
2
CONTINUOUS
3
______
73
0
40
0
0
ENDTAB
0
TABLE
2
LAYER
0
ENDTAB
0
ENDSEC
0
SECTION
2
ENTITIES
0
LINE
8
0
10
-8.75
20
-8.25
11
8.75
21
-8.25
0
LINE
8
0
10
8.75
20
-8.25
11
8.75
21
8.25
0
LINE
8
0
10
8.75
20
8.25
11
-8.75
21
8.25
0
LINE
8
0
10
-8.75
20
8.25
11
-8.75
21
-8.25
0
LINE
8
0
10
-8.75
20
8.75
11
8.75
21
8.75
0
LINE
8
0
10
8.75
20
8.75
11
8.75
21
25.25
0
LINE
8
0
10
8.75
20
25.25
11
-8.75
21
25.25
0
LINE
8
0
10
-8.75
20
25.25
11
-8.75
21
8.75
0
LINE
8
0
10
-8.75
20
25.75
11
8.75
21
25.75
0
LINE
8
0
10
8.75
20
25.75
11
8.75
21
42.25
0
LINE
8
0
10
8.75
20
42.25
11
-8.75
21
42.25
0
LINE
8
0
10
-8.75
20
42.25
11
-8.75
21
25.75
0
LINE
8
0
10
9.25
20
3.65
11
26.75
21
3.65
0
LINE
8
0
10
26.75
20
3.65
11
26.75
21
20.15
0
LINE
8
0
10
26.75
20
20.15
11
9.25
21
20.15
0
LINE
8
0
10
9.25
20
20.15
11
9.25
21
3.65
0
LINE
8
0
10
9.25
20
20.65
11
26.75
21
20.65
0
LINE
8
0
10
26.75
20
20.65
11
26.75
21
37.15
0
LINE
8
0
10
26.75
20
37.15
11
9.25
21
37.15
0
LINE
8
0
10
9.25
20
37.15
11
9.25
21
20.65
0
LINE
8
0
10
9.25
20
37.65
11
26.75
21
37.65
0
LINE
8
0
10
26.75
20
37.65
11
26.75
21
54.15
0
LINE
8
0
10
26.75
20
54.15
11
9.25
21
54.15
0
LINE
8
0
10
9.25
20
54.15
11
9.25
21
37.65
0
LINE
8
0
10
27.25
20
8.75
11
44.75
21
8.75
0
LINE
8
0
10
44.75
20
8.75
11
44.75
21
25.25
0
LINE
8
0
10
44.75
20
25.25
11
27.25
21
25.25
0
LINE
8
0
10
27.25
20
25.25
11
27.25
21
8.75
0
LINE
8
0
10
27.25
20
25.75
11
44.75
21
25.75
0
LINE
8
0
10
44.75
20
25.75
11
44.75
21
42.25
0
LINE
8
0
10
44.75
20
42.25
11
27.25
21
42.25
0
LINE
8
0
10
27.25
20
42.25
11
27.25
21
25.75
0
LINE
8
0
10
27.25
20
42.75
11
44.75
21
42.75
0
LINE
8
0
10
44.75
20
42.75
11
44.75
21
59.25
0
LINE
8
0
10
44.75
20
59.25
11
27.25
21
59.25
0
LINE
8
0
10
27.25
20
59.25
11
27.25
21
42.75
0
LINE
8
0
10
45.25
20
3.65
11
62.75
21
3.65
0
LINE
8
0
10
62.75
20
3.65
11
62.75
21
20.15
0
LINE
8
0
10
62.75
20
20.15
11
45.25
21
20.15
0
LINE
8
0
10
45.25
20
20.15
11
45.25
21
3.65
0
LINE
8
0
10
45.25
20
20.65
11
62.75
21
20.65
0
LINE
8
0
10
62.75
20
20.65
11
62.75
21
37.15
0
LINE
8
0
10
62.75
20
37.15
11
45.25
21
37.15
0
LINE
8
0
10
45.25
20
37.15
11
45.25
21
20.65
0
LINE
8
0
10
45.25
20
37.65
11
62.75
21
37.65
0
LINE
8
0
10
62.75
20
37.65
11
62.75
21
54.15
0
LINE
8
0
10
62.75
20
54.15
11
45.25
21
54.15
0
LINE
8
0
10
45.25
20
54.15
11
45.25
21
37.65
0
LINE
8
0
10
63.25
20
-1.45
11
80.75
21
-1.45
0
LINE
8
0
10
80.75
20
-1.45
11
80.75
21
15.05
0
LINE
8
0
10
80.75
20
15.05
11
63.25
21
15.05
0
LINE
8
0
10
63.25
20
15.05
11
63.25
21
-1.45
0
LINE
8
0
10
63.25
20
15.55
11
80.75
21
15.55
0
LINE
8
0
10
80.75
20
15.55
11
80.75
21
32.05
0
LINE
8
0
10
80.75
20
32.05
11
63.25
21
32.05
0
LINE
8
0
10
63.25
20
32.05
11
63.25
21
15.55
0
LINE
8
0
10
63.25
20
32.55
11
80.75
21
32.55
0
LINE
8
0
10
80.75
20
32.55
11
80.75
21
49.05
0
LINE
8
0
10
80.75
20
49.05
11
63.25
21
49.05
0
LINE
8
0
10
63.25
20
49.05
11
63.25
21
32.55
0
LINE
8
0
10
59.9503347
20
-20.8052424
11
77.1844704
21
-23.8440855
0
LINE
8
0
10
77.1844704
20
-23.8440855
11
80.0496653
21
-7.5947576
0
LINE
8
0
10
80.0496653
20
-7.5947576
11
62.8155296
21
-4.5559145
0
LINE
8
0
10
62.8155296
20
-4.5559145
11
59.9503347
21
-20.8052424
0
LINE
8
0
10
78.1223614
20
-21.9500332
11
93.9827477
21
-29.3458527
0
LINE
8
0
10
93.9827477
20
-29.3458527
11
100.955949
21
-14.3917742
0
LINE
8
0
10
100.955949
20
-14.3917742
11
85.0955627
21
-6.9959547
0
LINE
8
0
10
85.0955627
20
-6.9959547
11
78.1223614
21
-21.9500332
0
ENDSEC
0
EOF