0
SECTION
2
HEADER
9
$INSUNITS
70
4
0
ENDSEC
0
SECTION
2
TABLES
0
TABLE
2
LTYPE
0
LTYPE
72
65
70
64
2
CONTINUOUS
3
______
73
0
40
0
0
ENDTAB
0
TABLE
2
LAYER
0
ENDTAB
0
ENDSEC
0
SECTION
2
ENTITIES
0
LINE
8
0
10
42.8977961
20
-9.5
11
-7
21
-9.5
0
LINE
8
0
10
-10
20
-6.5
11
-10
21
41.8870004
0
LINE
8
0
10
-8.6544631
20
44.3895494
11
7.6114679
21
55.1431371
0
LINE
8
0
10
8.4481232
20
55.5269682
11
25.5989888
21
60.3863802
0
LINE
8
0
10
26.4167966
20
60.5
11
45.5832034
21
60.5
0
LINE
8
0
10
46.4010112
20
60.3863802
11
79.8178078
21
50.9182878
0
LINE
8
0
10
82
20
48.0319076
11
82
21
45.7
0
LINE
8
0
10
85
20
42.7
11
100.6
21
42.7
0
LINE
8
0
10
103.6
20
39.7
11
103.6
21
-10.5980534
0
LINE
8
0
10
103.3294222
20
-11.8431456
11
95.7223441
21
-28.5189602
0
LINE
8
0
10
92.005147
20
-30.1065878
11
78.4269265
21
-25.3718361
0
LINE
8
0
10
77.9600962
20
-25.2501325
11
59.303491
21
-21.9604697
0
LINE
8
0
10
57.8821981
20
-21.2924658
11
44.8400336
21
-10.2135806
0
ARC
8
0
10
-7
20
-6.5
40
3
50
180
51
270
0
ARC
8
0
10
-7
20
41.8870004
40
3
50
123.4691361
51
180
0
ARC
8
0
10
9.265931
20
52.6405881
40
3
50
105.8191959
51
123.4691361
0
ARC
8
0
10
26.4167966
20
57.5
40
3
50
90
51
105.8191959
0
ARC
8
0
10
45.5832034
20
57.5
40
3
50
74.1808041
51
90
0
ARC
8
0
10
79
20
48.0319076
40
3
50
0
51
74.1808041
0
ARC
8
0
10
85
20
45.7
40
3
50
180
51
270
0
ARC
8
0
10
100.6
20
39.7
40
3
50
0
51
90
0
ARC
8
0
10
100.6
20
-10.5980534
40
3
50
335.47875
51
0
0
ARC
8
0
10
92.9929219
20
-27.2738681
40
3
50
250.7762367
51
335.47875
0
ARC
8
0
10
77.4391517
20
-28.2045558
40
3
50
70.7762367
51
79.9999992
0
ARC
8
0
10
59.8244356
20
-19.0060464
40
3
50
229.6532021
51
259.9999992
0
ARC
8
0
10
42.8977961
20
-12.5
40
3
50
49.6532021
51
90
0
CIRCLE
8
0
10
9
20
8
40
4.4
0
CIRCLE
8
0
10
27
20
45
40
4.4
0
CIRCLE
8
0
10
63
20
39.9
40
4.4
0
CIRCLE
8
0
10
78.3423252
20
-18.7172569
40
4.4
0
LINE
8
0
10
87.8
20
-2.5
11
99.8
21
-2.5
0
LINE
8
0
10
99.8
20
-2.5
11
99.8
21
3.5
0
LINE
8
0
10
99.8
20
3.5
11
87.8
21
3.5
0
LINE
8
0
10
87.8
20
3.5
11
87.8
21
-2.5
0
LINE
8
0
10
15
20
-6
11
75
21
-6
0
LINE
8
0
10
75
20
-6
11
75
21
34
0
LINE
8
0
10
75
20
34
11
15
21
34
0
LINE
8
0
10
15
20
34
11
15
21
-6
0
LINE
8
0
10
86.8
20
40.8
11
98.8
21
40.8
0
LINE
8
0
10
98.8
20
40.8
11
98.8
21
46.8
0
LINE
8
0
10
98.8
20
46.8
11
86.8
21
46.8
0
LINE
8
0
10
86.8
20
46.8
11
86.8
21
40.8
0
ENDSEC
0
EOF