0
SECTION
2
HEADER
9
$INSUNITS
70
4
0
ENDSEC
0
SECTION
2
TABLES
0
TABLE
2
LTYPE
0
LTYPE
72
65
70
64
2
CONTINUOUS
3
______
73
0
40
0
0
ENDTAB
0
TABLE
2
LAYER
0
ENDTAB
0
ENDSEC
0
SECTION
2
ENTITIES
0
LINE
8
0
10
-6.9
20
-6.9
11
6.9
21
-6.9
0
LINE
8
0
10
6.9
20
-6.9
11
6.9
21
6.9
0
LINE
8
0
10
6.9
20
6.9
11
-6.9
21
6.9
0
LINE
8
0
10
-6.9
20
6.9
11
-6.9
21
-6.9
0
LINE
8
0
10
-6.9
20
10.1
11
6.9
21
10.1
0
LINE
8
0
10
6.9
20
10.1
11
6.9
21
23.9
0
LINE
8
0
10
6.9
20
23.9
11
-6.9
21
23.9
0
LINE
8
0
10
-6.9
20
23.9
11
-6.9
21
10.1
0
LINE
8
0
10
-6.9
20
27.1
11
6.9
21
27.1
0
LINE
8
0
10
6.9
20
27.1
11
6.9
21
40.9
0
LINE
8
0
10
6.9
20
40.9
11
-6.9
21
40.9
0
LINE
8
0
10
-6.9
20
40.9
11
-6.9
21
27.1
0
LINE
8
0
10
11.1
20
5
11
24.9
21
5
0
LINE
8
0
10
24.9
20
5
11
24.9
21
18.8
0
LINE
8
0
10
24.9
20
18.8
11
11.1
21
18.8
0
LINE
8
0
10
11.1
20
18.8
11
11.1
21
5
0
LINE
8
0
10
11.1
20
22
11
24.9
21
22
0
LINE
8
0
10
24.9
20
22
11
24.9
21
35.8
0
LINE
8
0
10
24.9
20
35.8
11
11.1
21
35.8
0
LINE
8
0
10
11.1
20
35.8
11
11.1
21
22
0
LINE
8
0
10
11.1
20
39
11
24.9
21
39
0
LINE
8
0
10
24.9
20
39
11
24.9
21
52.8
0
LINE
8
0
10
24.9
20
52.8
11
11.1
21
52.8
0
LINE
8
0
10
11.1
20
52.8
11
11.1
21
39
0
LINE
8
0
10
29.1
20
10.1
11
42.9
21
10.1
0
LINE
8
0
10
42.9
20
10.1
11
42.9
21
23.9
0
LINE
8
0
10
42.9
20
23.9
11
29.1
21
23.9
0
LINE
8
0
10
29.1
20
23.9
11
29.1
21
10.1
0
LINE
8
0
10
29.1
20
27.1
11
42.9
21
27.1
0
LINE
8
0
10
42.9
20
27.1
11
42.9
21
40.9
0
LINE
8
0
10
42.9
20
40.9
11
29.1
21
40.9
0
LINE
8
0
10
29.1
20
40.9
11
29.1
21
27.1
0
LINE
8
0
10
29.1
20
44.1
11
42.9
21
44.1
0
LINE
8
0
10
42.9
20
44.1
11
42.9
21
57.9
0
LINE
8
0
10
42.9
20
57.9
11
29.1
21
57.9
0
LINE
8
0
10
29.1
20
57.9
11
29.1
21
44.1
0
LINE
8
0
10
47.1
20
5
11
60.9
21
5
0
LINE
8
0
10
60.9
20
5
11
60.9
21
18.8
0
LINE
8
0
10
60.9
20
18.8
11
47.1
21
18.8
0
LINE
8
0
10
47.1
20
18.8
11
47.1
21
5
0
LINE
8
0
10
47.1
20
22
11
60.9
21
22
0
LINE
8
0
10
60.9
20
22
11
60.9
21
35.8
0
LINE
8
0
10
60.9
20
35.8
11
47.1
21
35.8
0
LINE
8
0
10
47.1
20
35.8
11
47.1
21
22
0
LINE
8
0
10
47.1
20
39
11
60.9
21
39
0
LINE
8
0
10
60.9
20
39
11
60.9
21
52.8
0
LINE
8
0
10
60.9
20
52.8
11
47.1
21
52.8
0
LINE
8
0
10
47.1
20
52.8
11
47.1
21
39
0
LINE
8
0
10
65.1
20
-0.1
11
78.9
21
-0.1
0
LINE
8
0
10
78.9
20
-0.1
11
78.9
21
13.7
0
LINE
8
0
10
78.9
20
13.7
11
65.1
21
13.7
0
LINE
8
0
10
65.1
20
13.7
11
65.1
21
-0.1
0
LINE
8
0
10
65.1
20
16.9
11
78.9
21
16.9
0
LINE
8
0
10
78.9
20
16.9
11
78.9
21
30.7
0
LINE
8
0
10
78.9
20
30.7
11
65.1
21
30.7
0
LINE
8
0
10
65.1
20
30.7
11
65.1
21
16.9
0
LINE
8
0
10
65.1
20
33.9
11
78.9
21
33.9
0
LINE
8
0
10
78.9
20
33.9
11
78.9
21
47.7
0
LINE
8
0
10
78.9
20
47.7
11
65.1
21
47.7
0
LINE
8
0
10
65.1
20
47.7
11
65.1
21
33.9
0
LINE
8
0
10
62.0066541
20
-19.7970011
11
75.5970011
21
-22.1933459
0
LINE
8
0
10
75.5970011
20
-22.1933459
11
77.9933459
21
-8.6029989
0
LINE
8
0
10
77.9933459
20
-8.6029989
11
64.4029989
21
-6.2066541
0
LINE
8
0
10
64.4029989
20
-6.2066541
11
62.0066541
21
-19.7970011
0
LINE
8
0
10
80.3695655
20
-21.5083614
11
92.8766129
21
-27.3404934
0
LINE
8
0
10
92.8766129
20
-27.3404934
11
98.7087449
21
-14.833446
0
LINE
8
0
10
98.7087449
20
-14.833446
11
86.2016975
21
-9.001314
0
LINE
8
0
10
86.2016975
20
-9.001314
11
80.3695655
21
-21.5083614
0
ENDSEC
0
EOF