0
SECTION
2
HEADER
9
$INSUNITS
70
4
0
ENDSEC
0
SECTION
2
TABLES
0
TABLE
2
LTYPE
0
LTYPE
72
65
70
64
2
CONTINUOUS
3
______
73
0
40
0
0
ENDTAB
0
TABLE
2
LAYER
0
ENDTAB
0
ENDSEC
0
SECTION
2
ENTITIES
0
LINE
8
0
10
191.1022039
20
-9.5
11
241
21
-9.5
0
LINE
8
0
10
244
20
-6.5
11
244
21
41.8870004
0
LINE
8
0
10
242.6544631
20
44.3895494
11
226.3885321
21
55.1431371
0
LINE
8
0
10
225.5518768
20
55.5269682
11
208.4010112
21
60.3863802
0
LINE
8
0
10
207.5832034
20
60.5
11
188.4167966
21
60.5
0
LINE
8
0
10
187.5989888
20
60.3863802
11
154.1821922
21
50.9182878
0
LINE
8
0
10
152
20
48.0319076
11
152
21
45.7
0
LINE
8
0
10
149
20
42.7
11
133.4
21
42.7
0
LINE
8
0
10
130.4
20
39.7
11
130.4
21
-10.5980534
0
LINE
8
0
10
130.6705778
20
-11.8431456
11
138.2776559
21
-28.5189602
0
LINE
8
0
10
141.994853
20
-30.1065878
11
155.5730735
21
-25.3718361
0
LINE
8
0
10
156.0399038
20
-25.2501325
11
174.696509
21
-21.9604697
0
LINE
8
0
10
176.1178019
20
-21.2924658
11
189.1599664
21
-10.2135806
0
ARC
8
0
10
241
20
-6.5
40
3
50
270
51
0
0
ARC
8
0
10
241
20
41.8870004
40
3
50
0
51
56.5308639
0
ARC
8
0
10
224.734069
20
52.6405881
40
3
50
56.5308639
51
74.1808041
0
ARC
8
0
10
207.5832034
20
57.5
40
3
50
74.1808041
51
90
0
ARC
8
0
10
188.4167966
20
57.5
40
3
50
90
51
105.8191959
0
ARC
8
0
10
155
20
48.0319076
40
3
50
105.8191959
51
180
0
ARC
8
0
10
149
20
45.7
40
3
50
270
51
0
0
ARC
8
0
10
133.4
20
39.7
40
3
50
90
51
180
0
ARC
8
0
10
133.4
20
-10.5980534
40
3
50
180
51
204.52125
0
ARC
8
0
10
141.0070781
20
-27.2738681
40
3
50
204.52125
51
289.2237633
0
ARC
8
0
10
156.5608483
20
-28.2045558
40
3
50
100.0000008
51
109.2237633
0
ARC
8
0
10
174.1755644
20
-19.0060464
40
3
50
280.0000008
51
310.3467979
0
ARC
8
0
10
191.1022039
20
-12.5
40
3
50
90
51
130.3467979
0
LINE
8
0
10
225.25
20
-8.25
11
242.75
21
-8.25
0
LINE
8
0
10
242.75
20
-8.25
11
242.75
21
8.25
0
LINE
8
0
10
242.75
20
8.25
11
225.25
21
8.25
0
LINE
8
0
10
225.25
20
8.25
11
225.25
21
-8.25
0
LINE
8
0
10
225.25
20
8.75
11
242.75
21
8.75
0
LINE
8
0
10
242.75
20
8.75
11
242.75
21
25.25
0
LINE
8
0
10
242.75
20
25.25
11
225.25
21
25.25
0
LINE
8
0
10
225.25
20
25.25
11
225.25
21
8.75
0
LINE
8
0
10
225.25
20
25.75
11
242.75
21
25.75
0
LINE
8
0
10
242.75
20
25.75
11
242.75
21
42.25
0
LINE
8
0
10
242.75
20
42.25
11
225.25
21
42.25
0
LINE
8
0
10
225.25
20
42.25
11
225.25
21
25.75
0
LINE
8
0
10
207.25
20
3.65
11
224.75
21
3.65
0
LINE
8
0
10
224.75
20
3.65
11
224.75
21
20.15
0
LINE
8
0
10
224.75
20
20.15
11
207.25
21
20.15
0
LINE
8
0
10
207.25
20
20.15
11
207.25
21
3.65
0
LINE
8
0
10
207.25
20
20.65
11
224.75
21
20.65
0
LINE
8
0
10
224.75
20
20.65
11
224.75
21
37.15
0
LINE
8
0
10
224.75
20
37.15
11
207.25
21
37.15
0
LINE
8
0
10
207.25
20
37.15
11
207.25
21
20.65
0
LINE
8
0
10
207.25
20
37.65
11
224.75
21
37.65
0
LINE
8
0
10
224.75
20
37.65
11
224.75
21
54.15
0
LINE
8
0
10
224.75
20
54.15
11
207.25
21
54.15
0
LINE
8
0
10
207.25
20
54.15
11
207.25
21
37.65
0
LINE
8
0
10
189.25
20
8.75
11
206.75
21
8.75
0
LINE
8
0
10
206.75
20
8.75
11
206.75
21
25.25
0
LINE
8
0
10
206.75
20
25.25
11
189.25
21
25.25
0
LINE
8
0
10
189.25
20
25.25
11
189.25
21
8.75
0
LINE
8
0
10
189.25
20
25.75
11
206.75
21
25.75
0
LINE
8
0
10
206.75
20
25.75
11
206.75
21
42.25
0
LINE
8
0
10
206.75
20
42.25
11
189.25
21
42.25
0
LINE
8
0
10
189.25
20
42.25
11
189.25
21
25.75
0
LINE
8
0
10
189.25
20
42.75
11
206.75
21
42.75
0
LINE
8
0
10
206.75
20
42.75
11
206.75
21
59.25
0
LINE
8
0
10
206.75
20
59.25
11
189.25
21
59.25
0
LINE
8
0
10
189.25
20
59.25
11
189.25
21
42.75
0
LINE
8
0
10
171.25
20
3.65
11
188.75
21
3.65
0
LINE
8
0
10
188.75
20
3.65
11
188.75
21
20.15
0
LINE
8
0
10
188.75
20
20.15
11
171.25
21
20.15
0
LINE
8
0
10
171.25
20
20.15
11
171.25
21
3.65
0
LINE
8
0
10
171.25
20
20.65
11
188.75
21
20.65
0
LINE
8
0
10
188.75
20
20.65
11
188.75
21
37.15
0
LINE
8
0
10
188.75
20
37.15
11
171.25
21
37.15
0
LINE
8
0
10
171.25
20
37.15
11
171.25
21
20.65
0
LINE
8
0
10
171.25
20
37.65
11
188.75
21
37.65
0
LINE
8
0
10
188.75
20
37.65
11
188.75
21
54.15
0
LINE
8
0
10
188.75
20
54.15
11
171.25
21
54.15
0
LINE
8
0
10
171.25
20
54.15
11
171.25
21
37.65
0
LINE
8
0
10
153.25
20
-1.45
11
170.75
21
-1.45
0
LINE
8
0
10
170.75
20
-1.45
11
170.75
21
15.05
0
LINE
8
0
10
170.75
20
15.05
11
153.25
21
15.05
0
LINE
8
0
10
153.25
20
15.05
11
153.25
21
-1.45
0
LINE
8
0
10
153.25
20
15.55
11
170.75
21
15.55
0
LINE
8
0
10
170.75
20
15.55
11
170.75
21
32.05
0
LINE
8
0
10
170.75
20
32.05
11
153.25
21
32.05
0
LINE
8
0
10
153.25
20
32.05
11
153.25
21
15.55
0
LINE
8
0
10
153.25
20
32.55
11
170.75
21
32.55
0
LINE
8
0
10
170.75
20
32.55
11
170.75
21
49.05
0
LINE
8
0
10
170.75
20
49.05
11
153.25
21
49.05
0
LINE
8
0
10
153.25
20
49.05
11
153.25
21
32.55
0
LINE
8
0
10
156.8155296
20
-23.8440855
11
174.0496653
21
-20.8052424
0
LINE
8
0
10
174.0496653
20
-20.8052424
11
171.1844704
21
-4.5559145
0
LINE
8
0
10
171.1844704
20
-4.5559145
11
153.9503347
21
-7.5947576
0
LINE
8
0
10
153.9503347
20
-7.5947576
11
156.8155296
21
-23.8440855
0
LINE
8
0
10
140.0172523
20
-29.3458527
11
155.8776386
21
-21.9500332
0
LINE
8
0
10
155.8776386
20
-21.9500332
11
148.9044373
21
-6.9959547
0
LINE
8
0
10
148.9044373
20
-6.9959547
11
133.044051
21
-14.3917742
0
LINE
8
0
10
133.044051
20
-14.3917742
11
140.0172523
21
-29.3458527
0
ENDSEC
0
EOF