%TF.GenerationSoftware,KiCad,Pcbnew,(6.0.6-1)-1*%
%TF.CreationDate,2022-07-25T21:02:29-05:00*%
%TF.ProjectId,smcboard,736d6362-6f61-4726-942e-6b696361645f,v1.0.0*%
%TF.SameCoordinates,Original*%
%TF.FileFunction,Copper,L1,Top*%
%TF.FilePolarity,Positive*%
%FSLAX46Y46*%
G04 Gerber Fmt 4.6, Leading zero omitted, Abs format (unit mm)*
G04 Created by KiCad (PCBNEW (6.0.6-1)-1) date 2022-07-25 21:02:29*
%MOMM*%
%LPD*%
G01*
G04 APERTURE LIST*
G04 Aperture macros list*
%AMRotRect*
0 Rectangle, with rotation*
0 The origin of the aperture is its center*
0 $1 length*
0 $2 width*
0 $3 Rotation angle, in degrees counterclockwise*
0 Add horizontal line*
21,1,$1,$2,0,0,$3*%
%AMFreePoly0*
4,1,21,0.800354,0.825354,0.800500,0.825000,0.800500,0.300000,0.825000,0.300000,0.825000,-0.300000,0.800500,-0.300000,0.800500,-0.825000,0.800354,-0.825354,0.800000,-0.825500,-0.290000,-0.825500,-0.290354,-0.825354,-0.290500,-0.825000,-0.290500,-0.300000,-0.825000,-0.300000,-0.825000,0.300000,-0.290500,0.300000,-0.290500,0.825000,-0.290354,0.825354,-0.290000,0.825500,0.800000,0.825500,
0.800354,0.825354,0.800354,0.825354,$1*%
%AMFreePoly1*
4,1,21,0.300354,0.825354,0.300500,0.825000,0.300500,0.300000,0.825000,0.300000,0.825000,-0.300000,0.300500,-0.300000,0.300500,-0.825000,0.300354,-0.825354,0.300000,-0.825500,-0.800000,-0.825500,-0.800354,-0.825354,-0.800500,-0.825000,-0.800500,-0.300000,-0.825000,-0.300000,-0.825000,0.300000,-0.800500,0.300000,-0.800500,0.825000,-0.800354,0.825354,-0.800000,0.825500,0.300000,0.825500,
0.300354,0.825354,0.300354,0.825354,$1*%
%AMFreePoly2*
4,1,49,0.088388,4.152388,0.854389,3.386388,0.867708,3.368551,0.871189,3.365530,0.871982,3.362827,0.875852,3.357644,0.882333,3.327543,0.891000,3.298000,0.891000,0.766000,0.887805,0.743969,0.888131,0.739371,0.886780,0.736898,0.885852,0.730498,0.869154,0.704638,0.854389,0.677612,0.088388,-0.088388,0.064607,-0.106146,0.062500,-0.108253,0.061385,-0.108552,0.059644,-0.109852,
0.043810,-0.113261,0.000000,-0.125000,-0.004774,-0.123721,-0.009154,-0.124664,-0.028953,-0.117242,-0.062500,-0.108253,-0.068237,-0.102516,-0.075052,-0.099961,-0.087614,-0.083139,-0.108253,-0.062500,-0.111178,-0.051584,-0.117161,-0.043572,-0.118539,-0.024114,-0.125000,0.000000,-0.121239,0.014035,-0.122131,0.026629,-0.113759,0.041953,-0.108253,0.062500,-0.095642,0.075111,-0.088388,0.088388,
0.641000,0.817777,0.641000,3.246223,-0.088388,3.975612,-0.109852,4.004356,-0.124664,4.073154,-0.099961,4.139052,-0.043572,4.181161,0.026629,4.186131,0.088388,4.152388,0.088388,4.152388,$1*%
%AMFreePoly3*
4,1,6,0.600000,0.200000,0.000000,-0.400000,-0.600000,0.200000,-0.600000,0.400000,0.600000,0.400000,0.600000,0.200000,0.600000,0.200000,$1*%
%AMFreePoly4*
4,1,6,0.600000,-0.250000,-0.600000,-0.250000,-0.600000,1.000000,0.000000,0.400000,0.600000,1.000000,0.600000,-0.250000,0.600000,-0.250000,$1*%
%AMFreePoly5*
4,1,5,0.125000,-0.500000,-0.125000,-0.500000,-0.125000,0.500000,0.125000,0.500000,0.125000,-0.500000,0.125000,-0.500000,$1*%
%AMFreePoly6*
4,1,49,0.088388,4.152388,0.850389,3.390388,0.863708,3.372551,0.867189,3.369530,0.867982,3.366827,0.871852,3.361644,0.878333,3.331543,0.887000,3.302000,0.887000,0.762000,0.883805,0.739969,0.884131,0.735371,0.882780,0.732898,0.881852,0.726498,0.865154,0.700638,0.850389,0.673612,0.088388,-0.088388,0.064607,-0.106146,0.062500,-0.108253,0.061385,-0.108552,0.059644,-0.109852,
0.043810,-0.113261,0.000000,-0.125000,-0.004774,-0.123721,-0.009154,-0.124664,-0.028953,-0.117242,-0.062500,-0.108253,-0.068237,-0.102516,-0.075052,-0.099961,-0.087614,-0.083139,-0.108253,-0.062500,-0.111178,-0.051584,-0.117161,-0.043572,-0.118539,-0.024114,-0.125000,0.000000,-0.121239,0.014035,-0.122131,0.026629,-0.113759,0.041953,-0.108253,0.062500,-0.095642,0.075111,-0.088388,0.088388,
0.637000,0.813777,0.637000,3.250223,-0.088388,3.975612,-0.109852,4.004356,-0.124664,4.073154,-0.099961,4.139052,-0.043572,4.181161,0.026629,4.186131,0.088388,4.152388,0.088388,4.152388,$1*%
G04 Aperture macros list end*
%TA.AperFunction,SMDPad,CuDef*%
%ADD10R,2.600000X2.600000*%
%TD*%
%TA.AperFunction,ComponentPad*%
%ADD11C,2.032000*%
%TD*%
%TA.AperFunction,SMDPad,CuDef*%
%ADD12FreePoly0,0.000000*%
%TD*%
%TA.AperFunction,SMDPad,CuDef*%
%ADD13FreePoly1,0.000000*%
%TD*%
%TA.AperFunction,ComponentPad*%
%ADD14C,0.300000*%
%TD*%
%TA.AperFunction,SMDPad,CuDef*%
%ADD15RotRect,2.600000X2.600000X330.000000*%
%TD*%
%TA.AperFunction,SMDPad,CuDef*%
%ADD16FreePoly0,330.000000*%
%TD*%
%TA.AperFunction,SMDPad,CuDef*%
%ADD17FreePoly1,330.000000*%
%TD*%
%TA.AperFunction,SMDPad,CuDef*%
%ADD18FreePoly2,270.000000*%
%TD*%
%TA.AperFunction,ComponentPad*%
%ADD19C,1.600000*%
%TD*%
%TA.AperFunction,SMDPad,CuDef*%
%ADD20FreePoly3,90.000000*%
%TD*%
%TA.AperFunction,SMDPad,CuDef*%
%ADD21FreePoly4,90.000000*%
%TD*%
%TA.AperFunction,SMDPad,CuDef*%
%ADD22FreePoly5,90.000000*%
%TD*%
%TA.AperFunction,ComponentPad*%
%ADD23R,1.600000X1.600000*%
%TD*%
%TA.AperFunction,SMDPad,CuDef*%
%ADD24FreePoly4,270.000000*%
%TD*%
%TA.AperFunction,SMDPad,CuDef*%
%ADD25FreePoly5,270.000000*%
%TD*%
%TA.AperFunction,SMDPad,CuDef*%
%ADD26FreePoly3,270.000000*%
%TD*%
%TA.AperFunction,SMDPad,CuDef*%
%ADD27FreePoly6,90.000000*%
%TD*%
%TA.AperFunction,ComponentPad*%
%ADD28C,0.800000*%
%TD*%
%TA.AperFunction,ComponentPad*%
%ADD29O,2.200000X1.600000*%
%TD*%
%TA.AperFunction,Conductor*%
%ADD30C,0.250000*%
%TD*%
G04 APERTURE END LIST*
D10*
%TO.P,S1,1*%
%TO.N,pinky_bottom*%
X141836539Y-136546000D03*
%TO.P,S1,2*%
%TO.N,P7*%
X130286539Y-138746000D03*
%TD*%
D11*
%TO.P,S2,1*%
%TO.N,pinky_bottom*%
X133561539Y-146296000D03*
%TO.P,S2,2*%
%TO.N,P7*%
X138561539Y-148396000D03*
%TO.P,S2,1*%
%TO.N,pinky_bottom*%
X143561539Y-146296000D03*
%TO.P,S2,2*%
%TO.N,P7*%
X138561539Y-148396000D03*
%TD*%
D12*
%TO.P,D1,1*%
%TO.N,P2*%
X136611539Y-146496000D03*
D13*
%TO.P,D1,2*%
%TO.N,pinky_bottom*%
X140511539Y-146496000D03*
D14*
%TO.P,D1,1*%
%TO.N,P2*%
X136611539Y-146496000D03*
%TO.P,D1,2*%
%TO.N,pinky_bottom*%
X140511539Y-146496000D03*
%TD*%
D10*
%TO.P,S3,1*%
%TO.N,pinky_home*%
X141836539Y-119546000D03*
%TO.P,S3,2*%
%TO.N,P7*%
X130286539Y-121746000D03*
%TD*%
D11*
%TO.P,S4,1*%
%TO.N,pinky_home*%
X133561539Y-129296000D03*
%TO.P,S4,2*%
%TO.N,P7*%
X138561539Y-131396000D03*
%TO.P,S4,1*%
%TO.N,pinky_home*%
X143561539Y-129296000D03*
%TO.P,S4,2*%
%TO.N,P7*%
X138561539Y-131396000D03*
%TD*%
D12*
%TO.P,D2,1*%
%TO.N,P0*%
X136611539Y-129496000D03*
D13*
%TO.P,D2,2*%
%TO.N,pinky_home*%
X140511539Y-129496000D03*
D14*
%TO.P,D2,1*%
%TO.N,P0*%
X136611539Y-129496000D03*
%TO.P,D2,2*%
%TO.N,pinky_home*%
X140511539Y-129496000D03*
%TD*%
D10*
%TO.P,S5,1*%
%TO.N,pinky_top*%
X141836539Y-102546000D03*
%TO.P,S5,2*%
%TO.N,P7*%
X130286539Y-104746000D03*
%TD*%
D11*
%TO.P,S6,1*%
%TO.N,pinky_top*%
X133561539Y-112296000D03*
%TO.P,S6,2*%
%TO.N,P7*%
X138561539Y-114396000D03*
%TO.P,S6,1*%
%TO.N,pinky_top*%
X143561539Y-112296000D03*
%TO.P,S6,2*%
%TO.N,P7*%
X138561539Y-114396000D03*
%TD*%
D12*
%TO.P,D3,1*%
%TO.N,P1*%
X136611539Y-112496000D03*
D13*
%TO.P,D3,2*%
%TO.N,pinky_top*%
X140511539Y-112496000D03*
D14*
%TO.P,D3,1*%
%TO.N,P1*%
X136611539Y-112496000D03*
%TO.P,D3,2*%
%TO.N,pinky_top*%
X140511539Y-112496000D03*
%TD*%
D10*
%TO.P,S7,1*%
%TO.N,ring_bottom*%
X159836539Y-121246000D03*
%TO.P,S7,2*%
%TO.N,P6*%
X148286539Y-123446000D03*
%TD*%
D11*
%TO.P,S8,1*%
%TO.N,ring_bottom*%
X151561539Y-130996000D03*
%TO.P,S8,2*%
%TO.N,P6*%
X156561539Y-133096000D03*
%TO.P,S8,1*%
%TO.N,ring_bottom*%
X161561539Y-130996000D03*
%TO.P,S8,2*%
%TO.N,P6*%
X156561539Y-133096000D03*
%TD*%
D12*
%TO.P,D4,1*%
%TO.N,P2*%
X154611539Y-131196000D03*
D13*
%TO.P,D4,2*%
%TO.N,ring_bottom*%
X158511539Y-131196000D03*
D14*
%TO.P,D4,1*%
%TO.N,P2*%
X154611539Y-131196000D03*
%TO.P,D4,2*%
%TO.N,ring_bottom*%
X158511539Y-131196000D03*
%TD*%
D10*
%TO.P,S9,1*%
%TO.N,ring_home*%
X159836539Y-104246000D03*
%TO.P,S9,2*%
%TO.N,P6*%
X148286539Y-106446000D03*
%TD*%
D11*
%TO.P,S10,1*%
%TO.N,ring_home*%
X151561539Y-113996000D03*
%TO.P,S10,2*%
%TO.N,P6*%
X156561539Y-116096000D03*
%TO.P,S10,1*%
%TO.N,ring_home*%
X161561539Y-113996000D03*
%TO.P,S10,2*%
%TO.N,P6*%
X156561539Y-116096000D03*
%TD*%
D12*
%TO.P,D5,1*%
%TO.N,P0*%
X154611539Y-114196000D03*
D13*
%TO.P,D5,2*%
%TO.N,ring_home*%
X158511539Y-114196000D03*
D14*
%TO.P,D5,1*%
%TO.N,P0*%
X154611539Y-114196000D03*
%TO.P,D5,2*%
%TO.N,ring_home*%
X158511539Y-114196000D03*
%TD*%
D10*
%TO.P,S11,1*%
%TO.N,ring_top*%
X159836539Y-87246000D03*
%TO.P,S11,2*%
%TO.N,P6*%
X148286539Y-89446000D03*
%TD*%
D11*
%TO.P,S12,1*%
%TO.N,ring_top*%
X151561539Y-96996000D03*
%TO.P,S12,2*%
%TO.N,P6*%
X156561539Y-99096000D03*
%TO.P,S12,1*%
%TO.N,ring_top*%
X161561539Y-96996000D03*
%TO.P,S12,2*%
%TO.N,P6*%
X156561539Y-99096000D03*
%TD*%
D12*
%TO.P,D6,1*%
%TO.N,P1*%
X154611539Y-97196000D03*
D13*
%TO.P,D6,2*%
%TO.N,ring_top*%
X158511539Y-97196000D03*
D14*
%TO.P,D6,1*%
%TO.N,P1*%
X154611539Y-97196000D03*
%TO.P,D6,2*%
%TO.N,ring_top*%
X158511539Y-97196000D03*
%TD*%
D10*
%TO.P,S13,1*%
%TO.N,middle_bottom*%
X177836539Y-116146000D03*
%TO.P,S13,2*%
%TO.N,P5*%
X166286539Y-118346000D03*
%TD*%
D11*
%TO.P,S14,1*%
%TO.N,middle_bottom*%
X169561539Y-125896000D03*
%TO.P,S14,2*%
%TO.N,P5*%
X174561539Y-127996000D03*
%TO.P,S14,1*%
%TO.N,middle_bottom*%
X179561539Y-125896000D03*
%TO.P,S14,2*%
%TO.N,P5*%
X174561539Y-127996000D03*
%TD*%
D12*
%TO.P,D7,1*%
%TO.N,P2*%
X172611539Y-126096000D03*
D13*
%TO.P,D7,2*%
%TO.N,middle_bottom*%
X176511539Y-126096000D03*
D14*
%TO.P,D7,1*%
%TO.N,P2*%
X172611539Y-126096000D03*
%TO.P,D7,2*%
%TO.N,middle_bottom*%
X176511539Y-126096000D03*
%TD*%
D10*
%TO.P,S15,1*%
%TO.N,middle_home*%
X177836539Y-99146000D03*
%TO.P,S15,2*%
%TO.N,P5*%
X166286539Y-101346000D03*
%TD*%
D11*
%TO.P,S16,1*%
%TO.N,middle_home*%
X169561539Y-108896000D03*
%TO.P,S16,2*%
%TO.N,P5*%
X174561539Y-110996000D03*
%TO.P,S16,1*%
%TO.N,middle_home*%
X179561539Y-108896000D03*
%TO.P,S16,2*%
%TO.N,P5*%
X174561539Y-110996000D03*
%TD*%
D12*
%TO.P,D8,1*%
%TO.N,P0*%
X172611539Y-109096000D03*
D13*
%TO.P,D8,2*%
%TO.N,middle_home*%
X176511539Y-109096000D03*
D14*
%TO.P,D8,1*%
%TO.N,P0*%
X172611539Y-109096000D03*
%TO.P,D8,2*%
%TO.N,middle_home*%
X176511539Y-109096000D03*
%TD*%
D10*
%TO.P,S17,1*%
%TO.N,middle_top*%
X177836539Y-82146000D03*
%TO.P,S17,2*%
%TO.N,P5*%
X166286539Y-84346000D03*
%TD*%
D11*
%TO.P,S18,1*%
%TO.N,middle_top*%
X169561539Y-91896000D03*
%TO.P,S18,2*%
%TO.N,P5*%
X174561539Y-93996000D03*
%TO.P,S18,1*%
%TO.N,middle_top*%
X179561539Y-91896000D03*
%TO.P,S18,2*%
%TO.N,P5*%
X174561539Y-93996000D03*
%TD*%
D12*
%TO.P,D9,1*%
%TO.N,P1*%
X172611539Y-92096000D03*
D13*
%TO.P,D9,2*%
%TO.N,middle_top*%
X176511539Y-92096000D03*
D14*
%TO.P,D9,1*%
%TO.N,P1*%
X172611539Y-92096000D03*
%TO.P,D9,2*%
%TO.N,middle_top*%
X176511539Y-92096000D03*
%TD*%
D10*
%TO.P,S19,1*%
%TO.N,index_bottom*%
X195836539Y-121246000D03*
%TO.P,S19,2*%
%TO.N,P4*%
X184286539Y-123446000D03*
%TD*%
D11*
%TO.P,S20,1*%
%TO.N,index_bottom*%
X187561539Y-130996000D03*
%TO.P,S20,2*%
%TO.N,P4*%
X192561539Y-133096000D03*
%TO.P,S20,1*%
%TO.N,index_bottom*%
X197561539Y-130996000D03*
%TO.P,S20,2*%
%TO.N,P4*%
X192561539Y-133096000D03*
%TD*%
D12*
%TO.P,D10,1*%
%TO.N,P2*%
X190611539Y-131196000D03*
D13*
%TO.P,D10,2*%
%TO.N,index_bottom*%
X194511539Y-131196000D03*
D14*
%TO.P,D10,1*%
%TO.N,P2*%
X190611539Y-131196000D03*
%TO.P,D10,2*%
%TO.N,index_bottom*%
X194511539Y-131196000D03*
%TD*%
D10*
%TO.P,S21,1*%
%TO.N,index_home*%
X195836539Y-104246000D03*
%TO.P,S21,2*%
%TO.N,P4*%
X184286539Y-106446000D03*
%TD*%
D11*
%TO.P,S22,1*%
%TO.N,index_home*%
X187561539Y-113996000D03*
%TO.P,S22,2*%
%TO.N,P4*%
X192561539Y-116096000D03*
%TO.P,S22,1*%
%TO.N,index_home*%
X197561539Y-113996000D03*
%TO.P,S22,2*%
%TO.N,P4*%
X192561539Y-116096000D03*
%TD*%
D12*
%TO.P,D11,1*%
%TO.N,P0*%
X190611539Y-114196000D03*
D13*
%TO.P,D11,2*%
%TO.N,index_home*%
X194511539Y-114196000D03*
D14*
%TO.P,D11,1*%
%TO.N,P0*%
X190611539Y-114196000D03*
%TO.P,D11,2*%
%TO.N,index_home*%
X194511539Y-114196000D03*
%TD*%
D10*
%TO.P,S23,1*%
%TO.N,index_top*%
X195836539Y-87246000D03*
%TO.P,S23,2*%
%TO.N,P4*%
X184286539Y-89446000D03*
%TD*%
D11*
%TO.P,S24,1*%
%TO.N,index_top*%
X187561539Y-96996000D03*
%TO.P,S24,2*%
%TO.N,P4*%
X192561539Y-99096000D03*
%TO.P,S24,1*%
%TO.N,index_top*%
X197561539Y-96996000D03*
%TO.P,S24,2*%
%TO.N,P4*%
X192561539Y-99096000D03*
%TD*%
D12*
%TO.P,D12,1*%
%TO.N,P1*%
X190611539Y-97196000D03*
D13*
%TO.P,D12,2*%
%TO.N,index_top*%
X194511539Y-97196000D03*
D14*
%TO.P,D12,1*%
%TO.N,P1*%
X190611539Y-97196000D03*
%TO.P,D12,2*%
%TO.N,index_top*%
X194511539Y-97196000D03*
%TD*%
D10*
%TO.P,S25,1*%
%TO.N,inner_bottom*%
X213836539Y-126346000D03*
%TO.P,S25,2*%
%TO.N,P3*%
X202286539Y-128546000D03*
%TD*%
D11*
%TO.P,S26,1*%
%TO.N,inner_bottom*%
X205561539Y-136096000D03*
%TO.P,S26,2*%
%TO.N,P3*%
X210561539Y-138196000D03*
%TO.P,S26,1*%
%TO.N,inner_bottom*%
X215561539Y-136096000D03*
%TO.P,S26,2*%
%TO.N,P3*%
X210561539Y-138196000D03*
%TD*%
D12*
%TO.P,D13,1*%
%TO.N,P2*%
X208611539Y-136296000D03*
D13*
%TO.P,D13,2*%
%TO.N,inner_bottom*%
X212511539Y-136296000D03*
D14*
%TO.P,D13,1*%
%TO.N,P2*%
X208611539Y-136296000D03*
%TO.P,D13,2*%
%TO.N,inner_bottom*%
X212511539Y-136296000D03*
%TD*%
D10*
%TO.P,S27,1*%
%TO.N,inner_home*%
X213836539Y-109346000D03*
%TO.P,S27,2*%
%TO.N,P3*%
X202286539Y-111546000D03*
%TD*%
D11*
%TO.P,S28,1*%
%TO.N,inner_home*%
X205561539Y-119096000D03*
%TO.P,S28,2*%
%TO.N,P3*%
X210561539Y-121196000D03*
%TO.P,S28,1*%
%TO.N,inner_home*%
X215561539Y-119096000D03*
%TO.P,S28,2*%
%TO.N,P3*%
X210561539Y-121196000D03*
%TD*%
D12*
%TO.P,D14,1*%
%TO.N,P0*%
X208611539Y-119296000D03*
D13*
%TO.P,D14,2*%
%TO.N,inner_home*%
X212511539Y-119296000D03*
D14*
%TO.P,D14,1*%
%TO.N,P0*%
X208611539Y-119296000D03*
%TO.P,D14,2*%
%TO.N,inner_home*%
X212511539Y-119296000D03*
%TD*%
D10*
%TO.P,S29,1*%
%TO.N,inner_top*%
X213836539Y-92346000D03*
%TO.P,S29,2*%
%TO.N,P3*%
X202286539Y-94546000D03*
%TD*%
D11*
%TO.P,S30,1*%
%TO.N,inner_top*%
X205561539Y-102096000D03*
%TO.P,S30,2*%
%TO.N,P3*%
X210561539Y-104196000D03*
%TO.P,S30,1*%
%TO.N,inner_top*%
X215561539Y-102096000D03*
%TO.P,S30,2*%
%TO.N,P3*%
X210561539Y-104196000D03*
%TD*%
D12*
%TO.P,D15,1*%
%TO.N,P1*%
X208611539Y-102296000D03*
D13*
%TO.P,D15,2*%
%TO.N,inner_top*%
X212511539Y-102296000D03*
D14*
%TO.P,D15,1*%
%TO.N,P1*%
X208611539Y-102296000D03*
%TO.P,D15,2*%
%TO.N,inner_top*%
X212511539Y-102296000D03*
%TD*%
D15*
%TO.P,S31,1*%
%TO.N,near_thumb*%
X225372772Y-155980649D03*
%TO.P,S31,2*%
%TO.N,P5*%
X214270179Y-152110905D03*
%TD*%
D11*
%TO.P,S32,1*%
%TO.N,near_thumb*%
X213331412Y-160286897D03*
%TO.P,S32,2*%
%TO.N,P5*%
X216611539Y-164605550D03*
%TO.P,S32,1*%
%TO.N,near_thumb*%
X221991666Y-165286897D03*
%TO.P,S32,2*%
%TO.N,P5*%
X216611539Y-164605550D03*
%TD*%
D16*
%TO.P,D16,1*%
%TO.N,P9*%
X215872789Y-161985102D03*
D17*
%TO.P,D16,2*%
%TO.N,near_thumb*%
X219250289Y-163935102D03*
D14*
%TO.P,D16,1*%
%TO.N,P9*%
X215872789Y-161985102D03*
%TO.P,D16,2*%
%TO.N,near_thumb*%
X219250289Y-163935102D03*
%TD*%
D15*
%TO.P,S33,1*%
%TO.N,home_thumb*%
X240961229Y-164980649D03*
%TO.P,S33,2*%
%TO.N,P4*%
X229858636Y-161110905D03*
%TD*%
D11*
%TO.P,S34,1*%
%TO.N,home_thumb*%
X228919869Y-169286897D03*
%TO.P,S34,2*%
%TO.N,P4*%
X232199996Y-173605550D03*
%TO.P,S34,1*%
%TO.N,home_thumb*%
X237580123Y-174286897D03*
%TO.P,S34,2*%
%TO.N,P4*%
X232199996Y-173605550D03*
%TD*%
D16*
%TO.P,D17,1*%
%TO.N,P9*%
X231461246Y-170985102D03*
D17*
%TO.P,D17,2*%
%TO.N,home_thumb*%
X234838746Y-172935102D03*
D14*
%TO.P,D17,1*%
%TO.N,P9*%
X231461246Y-170985102D03*
%TO.P,D17,2*%
%TO.N,home_thumb*%
X234838746Y-172935102D03*
%TD*%
D18*
%TO.P,MCU1,2*%
%TO.N,GND*%
X231323539Y-109866000D03*
D19*
%TO.P,MCU1,*%
%TO.N,*%
X222941539Y-107326000D03*
X222941539Y-109866000D03*
X222941539Y-112406000D03*
X222941539Y-114946000D03*
X222941539Y-117486000D03*
X222941539Y-120026000D03*
X222941539Y-122566000D03*
X222941539Y-125106000D03*
X222941539Y-127646000D03*
X222941539Y-130186000D03*
X222941539Y-132726000D03*
X222941539Y-135266000D03*
X238181539Y-135266000D03*
X238181539Y-132726000D03*
X238181539Y-130186000D03*
X238181539Y-127646000D03*
X238181539Y-125106000D03*
X238181539Y-122566000D03*
X238181539Y-120026000D03*
X238181539Y-117486000D03*
X238181539Y-114946000D03*
X238181539Y-112406000D03*
X238181539Y-109866000D03*
X238181539Y-107326000D03*
D20*
X224719539Y-107326000D03*
D21*
%TO.P,MCU1,24*%
%TO.N,P1*%
X225735539Y-107326000D03*
D22*
%TO.P,MCU1,*%
%TO.N,*%
X224211539Y-107326000D03*
D23*
X222941539Y-107326000D03*
D22*
X224211539Y-109866000D03*
D20*
X224719539Y-109866000D03*
D21*
%TO.P,MCU1,23*%
%TO.N,P0*%
X225735539Y-109866000D03*
D22*
%TO.P,MCU1,*%
%TO.N,*%
X224211539Y-112406000D03*
D20*
X224719539Y-112406000D03*
D21*
%TO.P,MCU1,22*%
%TO.N,GND*%
X225735539Y-112406000D03*
D22*
%TO.P,MCU1,*%
%TO.N,*%
X224211539Y-114946000D03*
D20*
X224719539Y-114946000D03*
D21*
%TO.P,MCU1,21*%
%TO.N,GND*%
X225735539Y-114946000D03*
D22*
%TO.P,MCU1,*%
%TO.N,*%
X224211539Y-117486000D03*
D20*
X224719539Y-117486000D03*
D21*
%TO.P,MCU1,20*%
%TO.N,P2*%
X225735539Y-117486000D03*
D22*
%TO.P,MCU1,*%
%TO.N,*%
X224211539Y-120026000D03*
D20*
X224719539Y-120026000D03*
D21*
%TO.P,MCU1,19*%
%TO.N,P3*%
X225735539Y-120026000D03*
D22*
%TO.P,MCU1,*%
%TO.N,*%
X224211539Y-122566000D03*
D20*
X224719539Y-122566000D03*
D21*
%TO.P,MCU1,18*%
%TO.N,P4*%
X225735539Y-122566000D03*
D22*
%TO.P,MCU1,*%
%TO.N,*%
X224211539Y-125106000D03*
D20*
X224719539Y-125106000D03*
D21*
%TO.P,MCU1,17*%
%TO.N,P5*%
X225735539Y-125106000D03*
D22*
%TO.P,MCU1,*%
%TO.N,*%
X224211539Y-127646000D03*
D20*
X224719539Y-127646000D03*
D21*
%TO.P,MCU1,16*%
%TO.N,P6*%
X225735539Y-127646000D03*
D22*
%TO.P,MCU1,*%
%TO.N,*%
X224211539Y-130186000D03*
D20*
X224719539Y-130186000D03*
D21*
%TO.P,MCU1,15*%
%TO.N,P7*%
X225735539Y-130186000D03*
D22*
%TO.P,MCU1,*%
%TO.N,*%
X224211539Y-132726000D03*
D20*
X224719539Y-132726000D03*
D21*
%TO.P,MCU1,14*%
%TO.N,P8*%
X225735539Y-132726000D03*
D22*
%TO.P,MCU1,*%
%TO.N,*%
X224211539Y-135266000D03*
D20*
X224719539Y-135266000D03*
D21*
%TO.P,MCU1,13*%
%TO.N,P9*%
X225735539Y-135266000D03*
D24*
%TO.P,MCU1,1*%
%TO.N,RAW*%
X235387539Y-107326000D03*
%TO.P,MCU1,3*%
%TO.N,RST*%
X235387539Y-112406000D03*
D25*
%TO.P,MCU1,*%
%TO.N,*%
X236911539Y-112406000D03*
D26*
X236403539Y-112406000D03*
X236403539Y-107326000D03*
D25*
X236911539Y-109866000D03*
D24*
%TO.P,MCU1,2*%
%TO.N,GND*%
X235387539Y-109866000D03*
D25*
%TO.P,MCU1,*%
%TO.N,*%
X236911539Y-107326000D03*
D24*
%TO.P,MCU1,4*%
%TO.N,VCC*%
X235387539Y-114946000D03*
D26*
%TO.P,MCU1,*%
%TO.N,*%
X236403539Y-109866000D03*
X236403539Y-114946000D03*
D24*
%TO.P,MCU1,6*%
%TO.N,P20*%
X235387539Y-120026000D03*
%TO.P,MCU1,7*%
%TO.N,P19*%
X235387539Y-122566000D03*
D25*
%TO.P,MCU1,*%
%TO.N,*%
X236911539Y-135266000D03*
D26*
X236403539Y-122566000D03*
D25*
X236911539Y-130186000D03*
D24*
%TO.P,MCU1,8*%
%TO.N,P18*%
X235387539Y-125106000D03*
D25*
%TO.P,MCU1,*%
%TO.N,*%
X236911539Y-122566000D03*
D24*
%TO.P,MCU1,12*%
%TO.N,P10*%
X235387539Y-135266000D03*
D26*
%TO.P,MCU1,*%
%TO.N,*%
X236403539Y-125106000D03*
D25*
X236911539Y-127646000D03*
D26*
X236403539Y-135266000D03*
D25*
X236911539Y-117486000D03*
X236911539Y-125106000D03*
X236911539Y-120026000D03*
D24*
%TO.P,MCU1,9*%
%TO.N,P15*%
X235387539Y-127646000D03*
D25*
%TO.P,MCU1,*%
%TO.N,*%
X236911539Y-114946000D03*
D26*
X236403539Y-117486000D03*
X236403539Y-120026000D03*
X236403539Y-127646000D03*
D24*
%TO.P,MCU1,10*%
%TO.N,P14*%
X235387539Y-130186000D03*
D26*
%TO.P,MCU1,*%
%TO.N,*%
X236403539Y-130186000D03*
X236403539Y-132726000D03*
D24*
%TO.P,MCU1,11*%
%TO.N,P16*%
X235387539Y-132726000D03*
D25*
%TO.P,MCU1,*%
%TO.N,*%
X236911539Y-132726000D03*
D24*
%TO.P,MCU1,5*%
%TO.N,P21*%
X235387539Y-117486000D03*
D27*
%TO.P,MCU1,23*%
%TO.N,P0*%
X229799539Y-109866000D03*
D28*
%TO.P,MCU1,2*%
%TO.N,GND*%
X231323539Y-109866000D03*
%TO.P,MCU1,23*%
%TO.N,P0*%
X229799539Y-109866000D03*
%TO.P,MCU1,24*%
%TO.N,P1*%
X229799539Y-107326000D03*
%TO.P,MCU1,1*%
%TO.N,RAW*%
X231323539Y-107326000D03*
D18*
X231323539Y-107326000D03*
D27*
%TO.P,MCU1,24*%
%TO.N,P1*%
X229799539Y-107326000D03*
D28*
%TO.P,MCU1,22*%
%TO.N,GND*%
X229799539Y-112406000D03*
%TO.P,MCU1,3*%
%TO.N,RST*%
X231323539Y-112406000D03*
D18*
X231323539Y-112406000D03*
D27*
%TO.P,MCU1,22*%
%TO.N,GND*%
X229799539Y-112406000D03*
D28*
%TO.P,MCU1,21*%
X229799539Y-114946000D03*
%TO.P,MCU1,4*%
%TO.N,VCC*%
X231323539Y-114946000D03*
D18*
X231323539Y-114946000D03*
D27*
%TO.P,MCU1,21*%
%TO.N,GND*%
X229799539Y-114946000D03*
D28*
%TO.P,MCU1,20*%
%TO.N,P2*%
X229799539Y-117486000D03*
%TO.P,MCU1,5*%
%TO.N,P21*%
X231323539Y-117486000D03*
D18*
X231323539Y-117486000D03*
D27*
%TO.P,MCU1,20*%
%TO.N,P2*%
X229799539Y-117486000D03*
D28*
%TO.P,MCU1,19*%
%TO.N,P3*%
X229799539Y-120026000D03*
%TO.P,MCU1,6*%
%TO.N,P20*%
X231323539Y-120026000D03*
D18*
X231323539Y-120026000D03*
D27*
%TO.P,MCU1,19*%
%TO.N,P3*%
X229799539Y-120026000D03*
D28*
%TO.P,MCU1,18*%
%TO.N,P4*%
X229799539Y-122566000D03*
%TO.P,MCU1,7*%
%TO.N,P19*%
X231323539Y-122566000D03*
D18*
X231323539Y-122566000D03*
D27*
%TO.P,MCU1,18*%
%TO.N,P4*%
X229799539Y-122566000D03*
D28*
%TO.P,MCU1,17*%
%TO.N,P5*%
X229799539Y-125106000D03*
%TO.P,MCU1,8*%
%TO.N,P18*%
X231323539Y-125106000D03*
D18*
X231323539Y-125106000D03*
D27*
%TO.P,MCU1,17*%
%TO.N,P5*%
X229799539Y-125106000D03*
D28*
%TO.P,MCU1,16*%
%TO.N,P6*%
X229799539Y-127646000D03*
%TO.P,MCU1,9*%
%TO.N,P15*%
X231323539Y-127646000D03*
D18*
X231323539Y-127646000D03*
D27*
%TO.P,MCU1,16*%
%TO.N,P6*%
X229799539Y-127646000D03*
D28*
%TO.P,MCU1,15*%
%TO.N,P7*%
X229799539Y-130186000D03*
%TO.P,MCU1,10*%
%TO.N,P14*%
X231323539Y-130186000D03*
D18*
X231323539Y-130186000D03*
D27*
%TO.P,MCU1,15*%
%TO.N,P7*%
X229799539Y-130186000D03*
D28*
%TO.P,MCU1,14*%
%TO.N,P8*%
X229799539Y-132726000D03*
%TO.P,MCU1,11*%
%TO.N,P16*%
X231323539Y-132726000D03*
D18*
X231323539Y-132726000D03*
D27*
%TO.P,MCU1,14*%
%TO.N,P8*%
X229799539Y-132726000D03*
D28*
%TO.P,MCU1,13*%
%TO.N,P9*%
X229799539Y-135266000D03*
%TO.P,MCU1,12*%
%TO.N,P10*%
X231323539Y-135266000D03*
D18*
X231323539Y-135266000D03*
D27*
%TO.P,MCU1,13*%
%TO.N,P9*%
X229799539Y-135266000D03*
%TD*%
D29*
%TO.P,REF\u002A\u002A,1*%
%TO.N,VCC*%
X229261539Y-147296000D03*
%TO.P,REF\u002A\u002A,2*%
X230361539Y-142696000D03*
%TO.P,REF\u002A\u002A,3*%
%TO.N,GND*%
X234361539Y-142696000D03*
%TO.P,REF\u002A\u002A,4*%
%TO.N,P16*%
X237361539Y-142696000D03*
%TO.P,REF\u002A\u002A,1*%
%TO.N,VCC*%
X229261539Y-142696000D03*
%TO.P,REF\u002A\u002A,2*%
X230361539Y-147296000D03*
%TO.P,REF\u002A\u002A,3*%
%TO.N,GND*%
X234361539Y-147296000D03*
%TO.P,REF\u002A\u002A,4*%
%TO.N,P16*%
X237361539Y-147296000D03*
%TD*%
D30*
%TO.N,P5*%
X214270179Y-152110905D02*
X216775084Y-149606000D01*
X216775084Y-149606000D02*
X237490000Y-149606000D01*
X231185539Y-126492000D02*
X229799539Y-125106000D01*
X237490000Y-149606000D02*
X240284000Y-146812000D01*
X240284000Y-146812000D02*
X240284000Y-127508000D01*
X240284000Y-127508000D02*
X239268000Y-126492000D01*
X239268000Y-126492000D02*
X231185539Y-126492000D01*
%TO.N,P4*%
X240734000Y-146998396D02*
X240734000Y-124910000D01*
X229858636Y-153427364D02*
X233230000Y-150056000D01*
X229858636Y-161110905D02*
X229858636Y-153427364D01*
X233230000Y-150056000D02*
X237676396Y-150056000D01*
X237676396Y-150056000D02*
X240734000Y-146998396D01*
X240734000Y-124910000D02*
X239606000Y-123782000D01*
X239606000Y-123782000D02*
X231015539Y-123782000D01*
X231015539Y-123782000D02*
X229799539Y-122566000D01*
%TO.N,P7*%
X138561539Y-131396000D02*
X149428682Y-131396000D01*
X206068093Y-141429281D02*
X215825907Y-141429281D01*
X215825907Y-141429281D02*
X219398000Y-137857188D01*
X153552682Y-135520000D02*
X200158812Y-135520000D01*
X149428682Y-131396000D02*
X153552682Y-135520000D01*
X200158812Y-135520000D02*
X206068093Y-141429281D01*
X219398000Y-137857188D02*
X219398000Y-131884000D01*
X219768000Y-131514000D02*
X228471539Y-131514000D01*
X228471539Y-131514000D02*
X229799539Y-130186000D01*
X219398000Y-131884000D02*
X219768000Y-131514000D01*
%TO.N,P6*%
X156561539Y-133096000D02*
X186307604Y-133096000D01*
X188281604Y-135070000D02*
X200345208Y-135070000D01*
X186307604Y-133096000D02*
X188281604Y-135070000D01*
X200345208Y-135070000D02*
X206254489Y-140979281D01*
X219920337Y-128821663D02*
X228623876Y-128821663D01*
X206254489Y-140979281D02*
X215639511Y-140979281D01*
X215639511Y-140979281D02*
X218948000Y-137670792D01*
X218948000Y-137670792D02*
X218948000Y-129794000D01*
X218948000Y-129794000D02*
X219920337Y-128821663D01*
X228623876Y-128821663D02*
X229799539Y-127646000D01*
%TO.N,P5*%
X188468000Y-134620000D02*
X200531604Y-134620000D01*
X181844000Y-127996000D02*
X188468000Y-134620000D01*
X174561539Y-127996000D02*
X181844000Y-127996000D01*
X206440885Y-140529281D02*
X215453115Y-140529281D01*
X200531604Y-134620000D02*
X206440885Y-140529281D01*
X215453115Y-140529281D02*
X218382000Y-137600396D01*
X218382000Y-137600396D02*
X218382000Y-127820000D01*
X218382000Y-127820000D02*
X219964000Y-126238000D01*
X228667539Y-126238000D02*
X229799539Y-125106000D01*
X219964000Y-126238000D02*
X228667539Y-126238000D01*
%TO.N,P4*%
X192561539Y-133096000D02*
X199644000Y-133096000D01*
X217932000Y-125730000D02*
X219971000Y-123691000D01*
X199644000Y-133096000D02*
X206627281Y-140079281D01*
X206627281Y-140079281D02*
X215266719Y-140079281D01*
X217932000Y-137414000D02*
X217932000Y-125730000D01*
X219971000Y-123691000D02*
X228674539Y-123691000D01*
X215266719Y-140079281D02*
X217932000Y-137414000D01*
X228674539Y-123691000D02*
X229799539Y-122566000D01*
%TO.N,P3*%
X210561539Y-121196000D02*
X228629539Y-121196000D01*
X228629539Y-121196000D02*
X229799539Y-120026000D01*
%TO.N,pinky_top*%
X141686538Y-102696001D02*
X141686538Y-108174302D01*
X141836539Y-102546000D02*
X141686538Y-102696001D01*
X141686538Y-108174302D02*
X143561539Y-110049303D01*
X143561539Y-110049303D02*
X143561539Y-112296000D01*
%TO.N,pinky_bottom*%
X141686538Y-136696001D02*
X141686538Y-142174302D01*
X141686538Y-142174302D02*
X143561539Y-144049303D01*
X143561539Y-144049303D02*
X143561539Y-146296000D01*
%TO.N,pinky_home*%
X141686538Y-119696001D02*
X141686538Y-125174302D01*
X141686538Y-125174302D02*
X143561539Y-127049303D01*
X141836539Y-119546000D02*
X141686538Y-119696001D01*
X143561539Y-127049303D02*
X143561539Y-129296000D01*
%TO.N,ring_bottom*%
X159686538Y-121396001D02*
X159686538Y-126874302D01*
X159836539Y-121246000D02*
X159686538Y-121396001D01*
X159686538Y-126874302D02*
X161561539Y-128749303D01*
X161561539Y-128749303D02*
X161561539Y-130996000D01*
%TO.N,ring_home*%
X159686538Y-104396001D02*
X159686538Y-109874302D01*
X159836539Y-104246000D02*
X159686538Y-104396001D01*
X159686538Y-109874302D02*
X161561539Y-111749303D01*
X161561539Y-111749303D02*
X161561539Y-113996000D01*
%TO.N,ring_top*%
X159686538Y-87396001D02*
X159686538Y-92874302D01*
X159836539Y-87246000D02*
X159686538Y-87396001D01*
X159686538Y-92874302D02*
X161561539Y-94749303D01*
X161561539Y-94749303D02*
X161561539Y-96996000D01*
%TO.N,middle_home*%
X177686538Y-99296001D02*
X177686538Y-104774302D01*
X179561539Y-106649303D02*
X179561539Y-108896000D01*
X177836539Y-99146000D02*
X177686538Y-99296001D01*
X177686538Y-104774302D02*
X179561539Y-106649303D01*
%TO.N,middle_bottom*%
X177686538Y-116296001D02*
X177686538Y-121774302D01*
X177836539Y-116146000D02*
X177686538Y-116296001D01*
X177686538Y-121774302D02*
X179561539Y-123649303D01*
X179561539Y-123649303D02*
X179561539Y-125896000D01*
%TO.N,index_bottom*%
X195686538Y-121396001D02*
X195686538Y-126874302D01*
X197561539Y-128749303D02*
X197561539Y-130996000D01*
X195836539Y-121246000D02*
X195686538Y-121396001D01*
X195686538Y-126874302D02*
X197561539Y-128749303D01*
%TO.N,index_home*%
X195686538Y-104396001D02*
X195686538Y-109874302D01*
X195836539Y-104246000D02*
X195686538Y-104396001D01*
X195686538Y-109874302D02*
X197561539Y-111749303D01*
X197561539Y-111749303D02*
X197561539Y-113996000D01*
%TO.N,middle_top*%
X177686538Y-82296001D02*
X177686538Y-87774302D01*
X177836539Y-82146000D02*
X177686538Y-82296001D01*
X177686538Y-87774302D02*
X179561539Y-89649303D01*
X179561539Y-89649303D02*
X179561539Y-91896000D01*
%TO.N,index_top*%
X195580000Y-87502539D02*
X195580000Y-92964000D01*
X195836539Y-87246000D02*
X195580000Y-87502539D01*
X195580000Y-92964000D02*
X197561539Y-94945539D01*
X197561539Y-94945539D02*
X197561539Y-96996000D01*
%TO.N,inner_top*%
X213686538Y-92496001D02*
X213686538Y-97974302D01*
X213836539Y-92346000D02*
X213686538Y-92496001D01*
X213686538Y-97974302D02*
X215561539Y-99849303D01*
X215561539Y-99849303D02*
X215561539Y-102096000D01*
%TO.N,inner_home*%
X213686538Y-109496001D02*
X213686538Y-114974302D01*
X213836539Y-109346000D02*
X213686538Y-109496001D01*
X213686538Y-114974302D02*
X215561539Y-116849303D01*
X215561539Y-116849303D02*
X215561539Y-119096000D01*
%TO.N,inner_bottom*%
X213686538Y-126496001D02*
X213686538Y-131974302D01*
X213836539Y-126346000D02*
X213686538Y-126496001D01*
X213686538Y-131974302D02*
X215561539Y-133849303D01*
X215561539Y-133849303D02*
X215561539Y-136096000D01*
%TO.N,P7*%
X130286539Y-104746000D02*
X130286539Y-110917461D01*
X130286539Y-110917461D02*
X133765078Y-114396000D01*
X133765078Y-114396000D02*
X138561539Y-114396000D01*
%TO.N,pinky_bottom*%
X141836539Y-136546000D02*
X141686538Y-136696001D01*
%TO.N,P16*%
X237361539Y-142696000D02*
X239776000Y-140281539D01*
X239776000Y-140281539D02*
X239776000Y-132729470D01*
X239776000Y-132729470D02*
X238647530Y-131601000D01*
X232448539Y-131601000D02*
X231323539Y-132726000D01*
X238647530Y-131601000D02*
X232448539Y-131601000D01*
%TO.N,pinky_bottom*%
X140511539Y-146496000D02*
X139303539Y-145288000D01*
X139303539Y-145288000D02*
X134569539Y-145288000D01*
X134569539Y-145288000D02*
X133561539Y-146296000D01*
%TO.N,P4*%
X229858636Y-161110905D02*
X227578869Y-163390672D01*
X227578869Y-163390672D02*
X227578869Y-169920869D01*
X227578869Y-169920869D02*
X231263550Y-173605550D01*
X231263550Y-173605550D02*
X232199996Y-173605550D01*
%TO.N,P5*%
X214270179Y-152110905D02*
X211990412Y-154390672D01*
X211990412Y-154390672D02*
X211990412Y-161190412D01*
X211990412Y-161190412D02*
X215405550Y-164605550D01*
X215405550Y-164605550D02*
X216611539Y-164605550D01*
%TO.N,ring_bottom*%
X158511539Y-131196000D02*
X157361039Y-130045500D01*
X157361039Y-130045500D02*
X152512039Y-130045500D01*
X152512039Y-130045500D02*
X151561539Y-130996000D01*
%TO.N,middle_home*%
X176511539Y-109096000D02*
X175361039Y-107945500D01*
X175361039Y-107945500D02*
X170512039Y-107945500D01*
X170512039Y-107945500D02*
X169561539Y-108896000D01*
%TO.N,middle_bottom*%
X176511539Y-126096000D02*
X175361039Y-124945500D01*
X175361039Y-124945500D02*
X170512039Y-124945500D01*
X170512039Y-124945500D02*
X169561539Y-125896000D01*
%TO.N,index_bottom*%
X194511539Y-131196000D02*
X193361039Y-130045500D01*
X193361039Y-130045500D02*
X188512039Y-130045500D01*
X188512039Y-130045500D02*
X187561539Y-130996000D01*
%TO.N,inner_bottom*%
X211343539Y-135128000D02*
X206502000Y-135128000D01*
X212511539Y-136296000D02*
X211343539Y-135128000D01*
X205561539Y-136068461D02*
X205561539Y-136096000D01*
X206502000Y-135128000D02*
X205561539Y-136068461D01*
%TO.N,pinky_home*%
X140511539Y-129496000D02*
X139285539Y-128270000D01*
X139285539Y-128270000D02*
X134587539Y-128270000D01*
X134587539Y-128270000D02*
X133561539Y-129296000D01*
%TO.N,ring_home*%
X157345539Y-113030000D02*
X152400000Y-113030000D01*
X151561539Y-113868461D02*
X151561539Y-113996000D01*
X158511539Y-114196000D02*
X157345539Y-113030000D01*
X152400000Y-113030000D02*
X151561539Y-113868461D01*
%TO.N,index_home*%
X193345539Y-113030000D02*
X188468000Y-113030000D01*
X194511539Y-114196000D02*
X193345539Y-113030000D01*
X188468000Y-113030000D02*
X187561539Y-113936461D01*
X187561539Y-113936461D02*
X187561539Y-113996000D01*
%TO.N,inner_home*%
X211325539Y-118110000D02*
X206502000Y-118110000D01*
X212511539Y-119296000D02*
X211325539Y-118110000D01*
X206502000Y-118110000D02*
X205561539Y-119050461D01*
X205561539Y-119050461D02*
X205561539Y-119096000D01*
%TO.N,pinky_top*%
X140511539Y-112496000D02*
X139267539Y-111252000D01*
X139267539Y-111252000D02*
X134605539Y-111252000D01*
X134605539Y-111252000D02*
X133561539Y-112296000D01*
%TO.N,ring_top*%
X158511539Y-97196000D02*
X157327539Y-96012000D01*
X157327539Y-96012000D02*
X152545539Y-96012000D01*
X152545539Y-96012000D02*
X151561539Y-96996000D01*
%TO.N,middle_top*%
X175347539Y-90932000D02*
X170434000Y-90932000D01*
X176511539Y-92096000D02*
X175347539Y-90932000D01*
X170434000Y-90932000D02*
X169561539Y-91804461D01*
X169561539Y-91804461D02*
X169561539Y-91896000D01*
%TO.N,index_top*%
X193327539Y-96012000D02*
X188468000Y-96012000D01*
X187561539Y-96918461D02*
X187561539Y-96996000D01*
X194511539Y-97196000D02*
X193327539Y-96012000D01*
X188468000Y-96012000D02*
X187561539Y-96918461D01*
%TO.N,inner_top*%
X211307539Y-101092000D02*
X206502000Y-101092000D01*
X212511539Y-102296000D02*
X211307539Y-101092000D01*
X206502000Y-101092000D02*
X205561539Y-102032461D01*
X205561539Y-102032461D02*
X205561539Y-102096000D01*
%TO.N,P5*%
X166286539Y-101346000D02*
X166286539Y-107517461D01*
X166286539Y-107517461D02*
X169765078Y-110996000D01*
X169765078Y-110996000D02*
X174561539Y-110996000D01*
X166286539Y-118346000D02*
X166286539Y-124517461D01*
X169765078Y-127996000D02*
X174561539Y-127996000D01*
X166286539Y-124517461D02*
X169765078Y-127996000D01*
%TO.N,P4*%
X184286539Y-106446000D02*
X184286539Y-112617461D01*
X187765078Y-116096000D02*
X192561539Y-116096000D01*
X184286539Y-112617461D02*
X187765078Y-116096000D01*
X184286539Y-123446000D02*
X184286539Y-129617461D01*
X184286539Y-129617461D02*
X187765078Y-133096000D01*
X187765078Y-133096000D02*
X192561539Y-133096000D01*
%TO.N,P3*%
X202286539Y-128546000D02*
X202286539Y-134717461D01*
X205765078Y-138196000D02*
X210561539Y-138196000D01*
X202286539Y-134717461D02*
X205765078Y-138196000D01*
X202286539Y-111546000D02*
X202286539Y-117717461D01*
X202286539Y-117717461D02*
X205765078Y-121196000D01*
X205765078Y-121196000D02*
X210561539Y-121196000D01*
X202286539Y-94546000D02*
X202286539Y-100717461D01*
X202286539Y-100717461D02*
X205765078Y-104196000D01*
X205765078Y-104196000D02*
X210561539Y-104196000D01*
%TO.N,P4*%
X184286539Y-89446000D02*
X184286539Y-95617461D01*
X184286539Y-95617461D02*
X187765078Y-99096000D01*
X187765078Y-99096000D02*
X192561539Y-99096000D01*
%TO.N,P5*%
X166286539Y-84346000D02*
X166286539Y-90517461D01*
X169765078Y-93996000D02*
X174561539Y-93996000D01*
X166286539Y-90517461D02*
X169765078Y-93996000D01*
%TO.N,P6*%
X148286539Y-89446000D02*
X148286539Y-95617461D01*
X151765078Y-99096000D02*
X156561539Y-99096000D01*
X148286539Y-95617461D02*
X151765078Y-99096000D01*
X148286539Y-106446000D02*
X148286539Y-112617461D01*
X148286539Y-112617461D02*
X151765078Y-116096000D01*
X151765078Y-116096000D02*
X156561539Y-116096000D01*
X148286539Y-123446000D02*
X148286539Y-129617461D01*
X148286539Y-129617461D02*
X151765078Y-133096000D01*
X151765078Y-133096000D02*
X156561539Y-133096000D01*
%TO.N,P7*%
X130286539Y-138746000D02*
X130286539Y-144917461D01*
X130286539Y-144917461D02*
X133765078Y-148396000D01*
X133765078Y-148396000D02*
X138561539Y-148396000D01*
X130286539Y-121746000D02*
X130286539Y-127917461D01*
X130286539Y-127917461D02*
X133765078Y-131396000D01*
X133765078Y-131396000D02*
X138561539Y-131396000D01*
X130286539Y-138746000D02*
X137636539Y-131396000D01*
X137636539Y-131396000D02*
X138561539Y-131396000D01*
X130286539Y-121746000D02*
X137636539Y-114396000D01*
X137636539Y-114396000D02*
X138561539Y-114396000D01*
%TO.N,P6*%
X148286539Y-106446000D02*
X155636539Y-99096000D01*
X155636539Y-99096000D02*
X156561539Y-99096000D01*
X148286539Y-123446000D02*
X155636539Y-116096000D01*
X155636539Y-116096000D02*
X156561539Y-116096000D01*
%TO.N,P5*%
X166286539Y-118346000D02*
X173636539Y-110996000D01*
X173636539Y-110996000D02*
X174561539Y-110996000D01*
X166286539Y-101346000D02*
X173636539Y-93996000D01*
X173636539Y-93996000D02*
X174561539Y-93996000D01*
%TO.N,P4*%
X184286539Y-106446000D02*
X191636539Y-99096000D01*
X191636539Y-99096000D02*
X192561539Y-99096000D01*
X184286539Y-123446000D02*
X191636539Y-116096000D01*
X191636539Y-116096000D02*
X192561539Y-116096000D01*
%TO.N,P3*%
X202286539Y-128546000D02*
X209636539Y-121196000D01*
X209636539Y-121196000D02*
X210561539Y-121196000D01*
X202286539Y-111546000D02*
X209636539Y-104196000D01*
X209636539Y-104196000D02*
X210561539Y-104196000D01*
%TO.N,near_thumb*%
X225372772Y-155980649D02*
X221991666Y-159361755D01*
X221991666Y-159361755D02*
X221991666Y-165286897D01*
%TO.N,home_thumb*%
X240961229Y-164980649D02*
X237580123Y-168361755D01*
X237580123Y-168361755D02*
X237580123Y-174286897D01*
%TD*%
M02*
