%TF.GenerationSoftware,KiCad,Pcbnew,(6.0.6-1)-1*%
%TF.CreationDate,2022-08-23T15:15:48-05:00*%
%TF.ProjectId,smcboard,736d6362-6f61-4726-942e-6b696361645f,v1.0.0*%
%TF.SameCoordinates,Original*%
%TF.FileFunction,Legend,Top*%
%TF.FilePolarity,Positive*%
%FSLAX46Y46*%
G04 Gerber Fmt 4.6, Leading zero omitted, Abs format (unit mm)*
G04 Created by KiCad (PCBNEW (6.0.6-1)-1) date 2022-08-23 15:15:48*
%MOMM*%
%LPD*%
G01*
G04 APERTURE LIST*
%ADD10C,0.150000*%
%ADD11C,0.100000*%
G04 APERTURE END LIST*
D10*
%TO.C,MCU1*%
%TO.C,REF\u002A\u002A*%
X111666666Y-70952380D02*
X111333333Y-70476190D01*
X111095238Y-70952380D02*
X111095238Y-69952380D01*
X111476190Y-69952380D01*
X111571428Y-70000000D01*
X111619047Y-70047619D01*
X111666666Y-70142857D01*
X111666666Y-70285714D01*
X111619047Y-70380952D01*
X111571428Y-70428571D01*
X111476190Y-70476190D01*
X111095238Y-70476190D01*
X112095238Y-70428571D02*
X112428571Y-70428571D01*
X112571428Y-70952380D02*
X112095238Y-70952380D01*
X112095238Y-69952380D01*
X112571428Y-69952380D01*
X113333333Y-70428571D02*
X113000000Y-70428571D01*
X113000000Y-70952380D02*
X113000000Y-69952380D01*
X113476190Y-69952380D01*
X114000000Y-69952380D02*
X114000000Y-70190476D01*
X113761904Y-70095238D02*
X114000000Y-70190476D01*
X114238095Y-70095238D01*
X113857142Y-70380952D02*
X114000000Y-70190476D01*
X114142857Y-70380952D01*
X114761904Y-69952380D02*
X114761904Y-70190476D01*
X114523809Y-70095238D02*
X114761904Y-70190476D01*
X115000000Y-70095238D01*
X114619047Y-70380952D02*
X114761904Y-70190476D01*
X114904761Y-70380952D01*
D11*
%TO.C,D6*%
X92750000Y-49650000D02*
X92150000Y-49250000D01*
X92750000Y-48850000D02*
X92750000Y-49650000D01*
X92750000Y-49250000D02*
X93250000Y-49250000D01*
X91750000Y-49250000D02*
X92150000Y-49250000D01*
X92150000Y-49250000D02*
X92150000Y-48700000D01*
X92150000Y-49250000D02*
X92150000Y-49800000D01*
X92150000Y-49250000D02*
X92750000Y-48850000D01*
%TO.C,D14*%
X146150000Y-71350000D02*
X146150000Y-71900000D01*
X146750000Y-71350000D02*
X147250000Y-71350000D01*
X146750000Y-70950000D02*
X146750000Y-71750000D01*
X146150000Y-71350000D02*
X146750000Y-70950000D01*
X145750000Y-71350000D02*
X146150000Y-71350000D01*
X146750000Y-71750000D02*
X146150000Y-71350000D01*
X146150000Y-71350000D02*
X146150000Y-70800000D01*
%TO.C,D17*%
X168785348Y-123839102D02*
X168510348Y-124315416D01*
X168438938Y-123639102D02*
X168785348Y-123839102D01*
X169104963Y-124485512D02*
X168785348Y-123839102D01*
X168785348Y-123839102D02*
X169504963Y-123792692D01*
X169304963Y-124139102D02*
X169737976Y-124389102D01*
X169504963Y-123792692D02*
X169104963Y-124485512D01*
X168785348Y-123839102D02*
X169060348Y-123362788D01*
%TO.C,D12*%
X128750000Y-49650000D02*
X128150000Y-49250000D01*
X128750000Y-49250000D02*
X129250000Y-49250000D01*
X127750000Y-49250000D02*
X128150000Y-49250000D01*
X128150000Y-49250000D02*
X128150000Y-48700000D01*
X128750000Y-48850000D02*
X128750000Y-49650000D01*
X128150000Y-49250000D02*
X128750000Y-48850000D01*
X128150000Y-49250000D02*
X128150000Y-49800000D01*
%TO.C,D5*%
X92150000Y-66250000D02*
X92750000Y-65850000D01*
X92150000Y-66250000D02*
X92150000Y-66800000D01*
X92750000Y-65850000D02*
X92750000Y-66650000D01*
X91750000Y-66250000D02*
X92150000Y-66250000D01*
X92750000Y-66250000D02*
X93250000Y-66250000D01*
X92150000Y-66250000D02*
X92150000Y-65700000D01*
X92750000Y-66650000D02*
X92150000Y-66250000D01*
%TO.C,D2*%
X74150000Y-81550000D02*
X74150000Y-82100000D01*
X74750000Y-81550000D02*
X75250000Y-81550000D01*
X74750000Y-81150000D02*
X74750000Y-81950000D01*
X74150000Y-81550000D02*
X74750000Y-81150000D01*
X73750000Y-81550000D02*
X74150000Y-81550000D01*
X74750000Y-81950000D02*
X74150000Y-81550000D01*
X74150000Y-81550000D02*
X74150000Y-81000000D01*
%TO.C,D9*%
X110150000Y-44150000D02*
X110150000Y-44700000D01*
X110150000Y-44150000D02*
X110750000Y-43750000D01*
X110750000Y-43750000D02*
X110750000Y-44550000D01*
X109750000Y-44150000D02*
X110150000Y-44150000D01*
X110150000Y-44150000D02*
X110150000Y-43600000D01*
X110750000Y-44150000D02*
X111250000Y-44150000D01*
X110750000Y-44550000D02*
X110150000Y-44150000D01*
%TO.C,D16*%
X153516506Y-115485512D02*
X153196891Y-114839102D01*
X153196891Y-114839102D02*
X153471891Y-114362788D01*
X152850481Y-114639102D02*
X153196891Y-114839102D01*
X153916506Y-114792692D02*
X153516506Y-115485512D01*
X153196891Y-114839102D02*
X153916506Y-114792692D01*
X153716506Y-115139102D02*
X154149519Y-115389102D01*
X153196891Y-114839102D02*
X152921891Y-115315416D01*
%TO.C,D13*%
X145750000Y-88350000D02*
X146150000Y-88350000D01*
X146150000Y-88350000D02*
X146150000Y-88900000D01*
X146150000Y-88350000D02*
X146150000Y-87800000D01*
X146750000Y-88750000D02*
X146150000Y-88350000D01*
X146150000Y-88350000D02*
X146750000Y-87950000D01*
X146750000Y-87950000D02*
X146750000Y-88750000D01*
X146750000Y-88350000D02*
X147250000Y-88350000D01*
%TO.C,D10*%
X128150000Y-83250000D02*
X128750000Y-82850000D01*
X128750000Y-83650000D02*
X128150000Y-83250000D01*
X128750000Y-83250000D02*
X129250000Y-83250000D01*
X128150000Y-83250000D02*
X128150000Y-82700000D01*
X128150000Y-83250000D02*
X128150000Y-83800000D01*
X128750000Y-82850000D02*
X128750000Y-83650000D01*
X127750000Y-83250000D02*
X128150000Y-83250000D01*
D10*
%TO.C,MCU1*%
X160150000Y-58110000D02*
X160150000Y-60650000D01*
X160150000Y-60650000D02*
X157610000Y-60650000D01*
X157610000Y-60650000D02*
X157610000Y-58110000D01*
X160150000Y-58110000D02*
X157610000Y-58110000D01*
D11*
%TO.C,D7*%
X109750000Y-78150000D02*
X110150000Y-78150000D01*
X110750000Y-78550000D02*
X110150000Y-78150000D01*
X110150000Y-78150000D02*
X110750000Y-77750000D01*
X110150000Y-78150000D02*
X110150000Y-78700000D01*
X110750000Y-78150000D02*
X111250000Y-78150000D01*
X110150000Y-78150000D02*
X110150000Y-77600000D01*
X110750000Y-77750000D02*
X110750000Y-78550000D01*
%TO.C,D15*%
X146150000Y-54350000D02*
X146150000Y-54900000D01*
X146750000Y-54350000D02*
X147250000Y-54350000D01*
X145750000Y-54350000D02*
X146150000Y-54350000D01*
X146150000Y-54350000D02*
X146750000Y-53950000D01*
X146750000Y-53950000D02*
X146750000Y-54750000D01*
X146750000Y-54750000D02*
X146150000Y-54350000D01*
X146150000Y-54350000D02*
X146150000Y-53800000D01*
%TO.C,D11*%
X127750000Y-66250000D02*
X128150000Y-66250000D01*
X128150000Y-66250000D02*
X128150000Y-65700000D01*
X128150000Y-66250000D02*
X128150000Y-66800000D01*
X128750000Y-66250000D02*
X129250000Y-66250000D01*
X128750000Y-66650000D02*
X128150000Y-66250000D01*
X128150000Y-66250000D02*
X128750000Y-65850000D01*
X128750000Y-65850000D02*
X128750000Y-66650000D01*
%TO.C,D4*%
X92750000Y-83250000D02*
X93250000Y-83250000D01*
X92150000Y-83250000D02*
X92150000Y-82700000D01*
X92150000Y-83250000D02*
X92750000Y-82850000D01*
X92750000Y-83650000D02*
X92150000Y-83250000D01*
X91750000Y-83250000D02*
X92150000Y-83250000D01*
X92150000Y-83250000D02*
X92150000Y-83800000D01*
X92750000Y-82850000D02*
X92750000Y-83650000D01*
%TO.C,D3*%
X74150000Y-64550000D02*
X74150000Y-64000000D01*
X73750000Y-64550000D02*
X74150000Y-64550000D01*
X74750000Y-64550000D02*
X75250000Y-64550000D01*
X74750000Y-64950000D02*
X74150000Y-64550000D01*
X74150000Y-64550000D02*
X74150000Y-65100000D01*
X74750000Y-64150000D02*
X74750000Y-64950000D01*
X74150000Y-64550000D02*
X74750000Y-64150000D01*
%TO.C,D8*%
X110150000Y-61150000D02*
X110150000Y-60600000D01*
X109750000Y-61150000D02*
X110150000Y-61150000D01*
X110750000Y-61150000D02*
X111250000Y-61150000D01*
X110750000Y-60750000D02*
X110750000Y-61550000D01*
X110150000Y-61150000D02*
X110750000Y-60750000D01*
X110750000Y-61550000D02*
X110150000Y-61150000D01*
X110150000Y-61150000D02*
X110150000Y-61700000D01*
%TO.C,D1*%
X74750000Y-98150000D02*
X74750000Y-98950000D01*
X74150000Y-98550000D02*
X74150000Y-98000000D01*
X73750000Y-98550000D02*
X74150000Y-98550000D01*
X74750000Y-98950000D02*
X74150000Y-98550000D01*
X74750000Y-98550000D02*
X75250000Y-98550000D01*
X74150000Y-98550000D02*
X74150000Y-99100000D01*
X74150000Y-98550000D02*
X74750000Y-98150000D01*
%TD*%
M02*
