%TF.GenerationSoftware,KiCad,Pcbnew,(6.0.6-1)-1*%
%TF.CreationDate,2022-08-23T15:15:48-05:00*%
%TF.ProjectId,smcboard,736d6362-6f61-4726-942e-6b696361645f,v1.0.0*%
%TF.SameCoordinates,Original*%
%TF.FileFunction,Copper,L1,Top*%
%TF.FilePolarity,Positive*%
%FSLAX46Y46*%
G04 Gerber Fmt 4.6, Leading zero omitted, Abs format (unit mm)*
G04 Created by KiCad (PCBNEW (6.0.6-1)-1) date 2022-08-23 15:15:48*
%MOMM*%
%LPD*%
G01*
G04 APERTURE LIST*
G04 Aperture macros list*
%AMRotRect*
0 Rectangle, with rotation*
0 The origin of the aperture is its center*
0 $1 length*
0 $2 width*
0 $3 Rotation angle, in degrees counterclockwise*
0 Add horizontal line*
21,1,$1,$2,0,0,$3*%
%AMFreePoly0*
4,1,6,0.600000,0.200000,0.000000,-0.400000,-0.600000,0.200000,-0.600000,0.400000,0.600000,0.400000,0.600000,0.200000,0.600000,0.200000,$1*%
%AMFreePoly1*
4,1,5,0.125000,-0.500000,-0.125000,-0.500000,-0.125000,0.500000,0.125000,0.500000,0.125000,-0.500000,0.125000,-0.500000,$1*%
%AMFreePoly2*
4,1,6,0.600000,-0.250000,-0.600000,-0.250000,-0.600000,1.000000,0.000000,0.400000,0.600000,1.000000,0.600000,-0.250000,0.600000,-0.250000,$1*%
%AMFreePoly3*
4,1,49,0.088388,4.152388,0.854389,3.386388,0.867708,3.368551,0.871189,3.365530,0.871982,3.362827,0.875852,3.357644,0.882333,3.327543,0.891000,3.298000,0.891000,0.766000,0.887805,0.743969,0.888131,0.739371,0.886780,0.736898,0.885852,0.730498,0.869154,0.704638,0.854389,0.677612,0.088388,-0.088388,0.064607,-0.106146,0.062500,-0.108253,0.061385,-0.108552,0.059644,-0.109852,
0.043810,-0.113261,0.000000,-0.125000,-0.004774,-0.123721,-0.009154,-0.124664,-0.028953,-0.117242,-0.062500,-0.108253,-0.068237,-0.102516,-0.075052,-0.099961,-0.087614,-0.083139,-0.108253,-0.062500,-0.111178,-0.051584,-0.117161,-0.043572,-0.118539,-0.024114,-0.125000,0.000000,-0.121239,0.014035,-0.122131,0.026629,-0.113759,0.041953,-0.108253,0.062500,-0.095642,0.075111,-0.088388,0.088388,
0.641000,0.817777,0.641000,3.246223,-0.088388,3.975612,-0.109852,4.004356,-0.124664,4.073154,-0.099961,4.139052,-0.043572,4.181161,0.026629,4.186131,0.088388,4.152388,0.088388,4.152388,$1*%
%AMFreePoly4*
4,1,49,0.088388,4.152388,0.850389,3.390388,0.863708,3.372551,0.867189,3.369530,0.867982,3.366827,0.871852,3.361644,0.878333,3.331543,0.887000,3.302000,0.887000,0.762000,0.883805,0.739969,0.884131,0.735371,0.882780,0.732898,0.881852,0.726498,0.865154,0.700638,0.850389,0.673612,0.088388,-0.088388,0.064607,-0.106146,0.062500,-0.108253,0.061385,-0.108552,0.059644,-0.109852,
0.043810,-0.113261,0.000000,-0.125000,-0.004774,-0.123721,-0.009154,-0.124664,-0.028953,-0.117242,-0.062500,-0.108253,-0.068237,-0.102516,-0.075052,-0.099961,-0.087614,-0.083139,-0.108253,-0.062500,-0.111178,-0.051584,-0.117161,-0.043572,-0.118539,-0.024114,-0.125000,0.000000,-0.121239,0.014035,-0.122131,0.026629,-0.113759,0.041953,-0.108253,0.062500,-0.095642,0.075111,-0.088388,0.088388,
0.637000,0.813777,0.637000,3.250223,-0.088388,3.975612,-0.109852,4.004356,-0.124664,4.073154,-0.099961,4.139052,-0.043572,4.181161,0.026629,4.186131,0.088388,4.152388,0.088388,4.152388,$1*%
G04 Aperture macros list end*
%TA.AperFunction,ComponentPad*%
%ADD10R,1.650000X1.650000*%
%TD*%
%TA.AperFunction,ComponentPad*%
%ADD11C,0.600000*%
%TD*%
%TA.AperFunction,SMDPad,CuDef*%
%ADD12RotRect,2.600000X2.600000X330.000000*%
%TD*%
%TA.AperFunction,ComponentPad*%
%ADD13RotRect,1.650000X1.650000X150.000000*%
%TD*%
%TA.AperFunction,ComponentPad*%
%ADD14RotRect,1.650000X1.650000X330.000000*%
%TD*%
%TA.AperFunction,SMDPad,CuDef*%
%ADD15R,2.600000X2.600000*%
%TD*%
%TA.AperFunction,ComponentPad*%
%ADD16O,2.200000X1.600000*%
%TD*%
%TA.AperFunction,SMDPad,CuDef*%
%ADD17FreePoly0,270.000000*%
%TD*%
%TA.AperFunction,SMDPad,CuDef*%
%ADD18FreePoly1,270.000000*%
%TD*%
%TA.AperFunction,ComponentPad*%
%ADD19C,1.600000*%
%TD*%
%TA.AperFunction,SMDPad,CuDef*%
%ADD20FreePoly0,90.000000*%
%TD*%
%TA.AperFunction,SMDPad,CuDef*%
%ADD21FreePoly1,90.000000*%
%TD*%
%TA.AperFunction,ComponentPad*%
%ADD22R,1.600000X1.600000*%
%TD*%
%TA.AperFunction,ComponentPad*%
%ADD23C,0.800000*%
%TD*%
%TA.AperFunction,SMDPad,CuDef*%
%ADD24FreePoly2,270.000000*%
%TD*%
%TA.AperFunction,SMDPad,CuDef*%
%ADD25FreePoly3,270.000000*%
%TD*%
%TA.AperFunction,SMDPad,CuDef*%
%ADD26FreePoly2,90.000000*%
%TD*%
%TA.AperFunction,SMDPad,CuDef*%
%ADD27FreePoly4,90.000000*%
%TD*%
%TA.AperFunction,Conductor*%
%ADD28C,0.250000*%
%TD*%
G04 APERTURE END LIST*
D10*
%TO.P,D6,1*%
%TO.N,P1*%
X90450000Y-49250000D03*
%TO.P,D6,2*%
%TO.N,ring_top*%
X94550000Y-49250000D03*
%TD*%
D11*
%TO.P,REF\u002A\u002A,1*%
%TO.N,P4*%
X146500000Y-64850000D03*
%TD*%
%TO.P,REF\u002A\u002A,1*%
%TO.N,P4*%
X146500000Y-47850000D03*
%TD*%
%TO.P,REF\u002A\u002A,1*%
%TO.N,P6*%
X110500000Y-71650000D03*
%TD*%
%TO.P,REF\u002A\u002A,1*%
%TO.N,P4*%
X146500000Y-81850000D03*
%TD*%
D12*
%TO.P,S16,1*%
%TO.N,near_thumb*%
X161311233Y-108034649D03*
%TO.P,S16,2*%
%TO.N,P6*%
X150208640Y-104164905D03*
%TD*%
D11*
%TO.P,REF\u002A\u002A,1*%
%TO.N,ring_bottom*%
X92500000Y-75500000D03*
%TD*%
%TO.P,REF\u002A\u002A,1*%
%TO.N,P7*%
X92500000Y-76750000D03*
%TD*%
D10*
%TO.P,D14,1*%
%TO.N,P2*%
X144450000Y-71350000D03*
%TO.P,D14,2*%
%TO.N,inner_home*%
X148550000Y-71350000D03*
%TD*%
D13*
%TO.P,D17,1*%
%TO.N,P9*%
X167313104Y-122989102D03*
D14*
%TO.P,D17,2*%
%TO.N,home_thumb*%
X170863810Y-125039102D03*
%TD*%
D15*
%TO.P,S9,1*%
%TO.N,middle_top*%
X113775000Y-34200000D03*
%TO.P,S9,2*%
%TO.N,P6*%
X102225000Y-36400000D03*
%TD*%
D11*
%TO.P,REF\u002A\u002A,1*%
%TO.N,pinky_bottom*%
X74500000Y-90800000D03*
%TD*%
%TO.P,REF\u002A\u002A,1*%
%TO.N,P8*%
X74500000Y-58050000D03*
%TD*%
D15*
%TO.P,S15,1*%
%TO.N,inner_top*%
X149775000Y-44400000D03*
%TO.P,S15,2*%
%TO.N,P4*%
X138225000Y-46600000D03*
%TD*%
D10*
%TO.P,D12,1*%
%TO.N,P1*%
X126450000Y-49250000D03*
%TO.P,D12,2*%
%TO.N,index_top*%
X130550000Y-49250000D03*
%TD*%
D11*
%TO.P,REF\u002A\u002A,1*%
%TO.N,pinky_home*%
X74500000Y-73800000D03*
%TD*%
%TO.P,REF\u002A\u002A,1*%
%TO.N,P5*%
X128500000Y-59750000D03*
%TD*%
D10*
%TO.P,D5,1*%
%TO.N,P2*%
X90450000Y-66250000D03*
%TO.P,D5,2*%
%TO.N,ring_home*%
X94550000Y-66250000D03*
%TD*%
D16*
%TO.P,REF\u002A\u002A,1*%
%TO.N,VCC*%
X165200000Y-99350000D03*
X165200000Y-94750000D03*
%TO.P,REF\u002A\u002A,2*%
X166300000Y-99350000D03*
X166300000Y-94750000D03*
%TO.P,REF\u002A\u002A,3*%
%TO.N,GND*%
X170300000Y-94750000D03*
X170300000Y-99350000D03*
%TO.P,REF\u002A\u002A,4*%
%TO.N,P0*%
X173300000Y-94750000D03*
X173300000Y-99350000D03*
%TD*%
D10*
%TO.P,D2,1*%
%TO.N,P2*%
X72450000Y-81550000D03*
%TO.P,D2,2*%
%TO.N,pinky_home*%
X76550000Y-81550000D03*
%TD*%
D11*
%TO.P,REF\u002A\u002A,1*%
%TO.N,P8*%
X74500000Y-92050000D03*
%TD*%
D15*
%TO.P,S3,1*%
%TO.N,pinky_top*%
X77775000Y-54600000D03*
%TO.P,S3,2*%
%TO.N,P8*%
X66225000Y-56800000D03*
%TD*%
D10*
%TO.P,D9,1*%
%TO.N,P1*%
X108450000Y-44150000D03*
%TO.P,D9,2*%
%TO.N,middle_top*%
X112550000Y-44150000D03*
%TD*%
D11*
%TO.P,REF\u002A\u002A,1*%
%TO.N,P6*%
X156750000Y-109384937D03*
%TD*%
%TO.P,REF\u002A\u002A,1*%
%TO.N,P7*%
X92500000Y-42750000D03*
%TD*%
D15*
%TO.P,S13,1*%
%TO.N,inner_bottom*%
X149775000Y-78400000D03*
%TO.P,S13,2*%
%TO.N,P4*%
X138225000Y-80600000D03*
%TD*%
D13*
%TO.P,D16,1*%
%TO.N,P9*%
X151724647Y-113989102D03*
D14*
%TO.P,D16,2*%
%TO.N,near_thumb*%
X155275353Y-116039102D03*
%TD*%
D10*
%TO.P,D13,1*%
%TO.N,P3*%
X144450000Y-88350000D03*
%TO.P,D13,2*%
%TO.N,inner_bottom*%
X148550000Y-88350000D03*
%TD*%
D15*
%TO.P,S14,1*%
%TO.N,inner_home*%
X149775000Y-61400000D03*
%TO.P,S14,2*%
%TO.N,P4*%
X138225000Y-63600000D03*
%TD*%
D10*
%TO.P,D10,1*%
%TO.N,P3*%
X126450000Y-83250000D03*
%TO.P,D10,2*%
%TO.N,index_bottom*%
X130550000Y-83250000D03*
%TD*%
D17*
%TO.P,MCU1,*%
%TO.N,*%
X172342000Y-61920000D03*
D18*
X172850000Y-72080000D03*
D19*
X158880000Y-74620000D03*
D18*
X172850000Y-74620000D03*
D20*
X160658000Y-64460000D03*
D19*
X174120000Y-74620000D03*
D21*
X160150000Y-61920000D03*
X160150000Y-77160000D03*
D20*
X160658000Y-69540000D03*
D17*
X172342000Y-64460000D03*
D21*
X160150000Y-79700000D03*
D17*
X172342000Y-84780000D03*
D18*
X172850000Y-69540000D03*
X172850000Y-64460000D03*
D19*
X158880000Y-79700000D03*
D17*
X172342000Y-87320000D03*
D21*
X160150000Y-67000000D03*
D22*
X158880000Y-59380000D03*
D21*
X160150000Y-72080000D03*
X160150000Y-74620000D03*
D20*
X160658000Y-82240000D03*
D19*
X158880000Y-77160000D03*
D20*
X160658000Y-67000000D03*
D18*
X172850000Y-79700000D03*
X172850000Y-87320000D03*
D19*
X174120000Y-59380000D03*
X158880000Y-64460000D03*
D17*
X172342000Y-67000000D03*
D19*
X158880000Y-87320000D03*
X158880000Y-82240000D03*
D20*
X160658000Y-72080000D03*
D17*
X172342000Y-79700000D03*
D19*
X174120000Y-84780000D03*
X174120000Y-82240000D03*
X158880000Y-59380000D03*
D17*
X172342000Y-77160000D03*
D19*
X174120000Y-61920000D03*
D17*
X172342000Y-82240000D03*
D21*
X160150000Y-84780000D03*
D19*
X174120000Y-64460000D03*
D18*
X172850000Y-67000000D03*
D20*
X160658000Y-87320000D03*
D21*
X160150000Y-64460000D03*
D18*
X172850000Y-82240000D03*
D21*
X160150000Y-69540000D03*
D18*
X172850000Y-59380000D03*
D20*
X160658000Y-59380000D03*
D21*
X160150000Y-87320000D03*
D19*
X158880000Y-84780000D03*
D21*
X160150000Y-59380000D03*
D19*
X174120000Y-87320000D03*
D17*
X172342000Y-72080000D03*
X172342000Y-59380000D03*
D18*
X172850000Y-61920000D03*
D20*
X160658000Y-84780000D03*
X160658000Y-77160000D03*
D19*
X158880000Y-67000000D03*
X158880000Y-61920000D03*
D20*
X160658000Y-74620000D03*
D17*
X172342000Y-69540000D03*
D21*
X160150000Y-82240000D03*
D19*
X158880000Y-72080000D03*
X174120000Y-72080000D03*
X174120000Y-69540000D03*
X174120000Y-77160000D03*
X174120000Y-79700000D03*
D18*
X172850000Y-84780000D03*
D20*
X160658000Y-61920000D03*
D18*
X172850000Y-77160000D03*
D17*
X172342000Y-74620000D03*
D19*
X174120000Y-67000000D03*
D20*
X160658000Y-79700000D03*
D19*
X158880000Y-69540000D03*
D23*
%TO.P,MCU1,1*%
%TO.N,RAW*%
X167262000Y-59380000D03*
D24*
X171326000Y-59380000D03*
D25*
X167262000Y-59380000D03*
%TO.P,MCU1,2*%
%TO.N,GND*%
X167262000Y-61920000D03*
D23*
X167262000Y-61920000D03*
D24*
X171326000Y-61920000D03*
%TO.P,MCU1,3*%
%TO.N,RST*%
X171326000Y-64460000D03*
D23*
X167262000Y-64460000D03*
D25*
X167262000Y-64460000D03*
D23*
%TO.P,MCU1,4*%
%TO.N,VCC*%
X167262000Y-67000000D03*
D25*
X167262000Y-67000000D03*
D24*
X171326000Y-67000000D03*
D23*
%TO.P,MCU1,5*%
%TO.N,P21*%
X167262000Y-69540000D03*
D25*
X167262000Y-69540000D03*
D24*
X171326000Y-69540000D03*
D25*
%TO.P,MCU1,6*%
%TO.N,P20*%
X167262000Y-72080000D03*
D23*
X167262000Y-72080000D03*
D24*
X171326000Y-72080000D03*
%TO.P,MCU1,7*%
%TO.N,P19*%
X171326000Y-74620000D03*
D25*
X167262000Y-74620000D03*
D23*
X167262000Y-74620000D03*
%TO.P,MCU1,8*%
%TO.N,P18*%
X167262000Y-77160000D03*
D25*
X167262000Y-77160000D03*
D24*
X171326000Y-77160000D03*
%TO.P,MCU1,9*%
%TO.N,P15*%
X171326000Y-79700000D03*
D23*
X167262000Y-79700000D03*
D25*
X167262000Y-79700000D03*
%TO.P,MCU1,10*%
%TO.N,P14*%
X167262000Y-82240000D03*
D23*
X167262000Y-82240000D03*
D24*
X171326000Y-82240000D03*
%TO.P,MCU1,11*%
%TO.N,P16*%
X171326000Y-84780000D03*
D25*
X167262000Y-84780000D03*
D23*
X167262000Y-84780000D03*
D25*
%TO.P,MCU1,12*%
%TO.N,P10*%
X167262000Y-87320000D03*
D24*
X171326000Y-87320000D03*
D23*
X167262000Y-87320000D03*
%TO.P,MCU1,13*%
%TO.N,P9*%
X165738000Y-87320000D03*
D26*
X161674000Y-87320000D03*
D27*
X165738000Y-87320000D03*
D23*
%TO.P,MCU1,14*%
%TO.N,P8*%
X165738000Y-84780000D03*
D26*
X161674000Y-84780000D03*
D27*
X165738000Y-84780000D03*
D23*
%TO.P,MCU1,15*%
%TO.N,P7*%
X165738000Y-82240000D03*
D26*
X161674000Y-82240000D03*
D27*
X165738000Y-82240000D03*
%TO.P,MCU1,16*%
%TO.N,P6*%
X165738000Y-79700000D03*
D23*
X165738000Y-79700000D03*
D26*
X161674000Y-79700000D03*
%TO.P,MCU1,17*%
%TO.N,P5*%
X161674000Y-77160000D03*
D23*
X165738000Y-77160000D03*
D27*
X165738000Y-77160000D03*
D26*
%TO.P,MCU1,18*%
%TO.N,P4*%
X161674000Y-74620000D03*
D23*
X165738000Y-74620000D03*
D27*
X165738000Y-74620000D03*
%TO.P,MCU1,19*%
%TO.N,P3*%
X165738000Y-72080000D03*
D26*
X161674000Y-72080000D03*
D23*
X165738000Y-72080000D03*
D26*
%TO.P,MCU1,20*%
%TO.N,P2*%
X161674000Y-69540000D03*
D27*
X165738000Y-69540000D03*
D23*
X165738000Y-69540000D03*
D27*
%TO.P,MCU1,21*%
%TO.N,GND*%
X165738000Y-67000000D03*
D23*
X165738000Y-67000000D03*
D26*
X161674000Y-67000000D03*
%TO.P,MCU1,22*%
X161674000Y-64460000D03*
D27*
X165738000Y-64460000D03*
D23*
X165738000Y-64460000D03*
D26*
%TO.P,MCU1,23*%
%TO.N,P0*%
X161674000Y-61920000D03*
D23*
X165738000Y-61920000D03*
D27*
X165738000Y-61920000D03*
%TO.P,MCU1,24*%
%TO.N,P1*%
X165738000Y-59380000D03*
D26*
X161674000Y-59380000D03*
D23*
X165738000Y-59380000D03*
%TD*%
D11*
%TO.P,REF\u002A\u002A,1*%
%TO.N,P6*%
X110500000Y-37650000D03*
%TD*%
%TO.P,REF\u002A\u002A,1*%
%TO.N,ring_top*%
X92500000Y-41500000D03*
%TD*%
D15*
%TO.P,S7,1*%
%TO.N,middle_bottom*%
X113775000Y-68200000D03*
%TO.P,S7,2*%
%TO.N,P6*%
X102225000Y-70400000D03*
%TD*%
D10*
%TO.P,D7,1*%
%TO.N,P3*%
X108450000Y-78150000D03*
%TO.P,D7,2*%
%TO.N,middle_bottom*%
X112550000Y-78150000D03*
%TD*%
D15*
%TO.P,S12,1*%
%TO.N,index_top*%
X131775000Y-39300000D03*
%TO.P,S12,2*%
%TO.N,P5*%
X120225000Y-41500000D03*
%TD*%
D11*
%TO.P,REF\u002A\u002A,1*%
%TO.N,P8*%
X74500000Y-75050000D03*
%TD*%
D15*
%TO.P,S6,1*%
%TO.N,ring_top*%
X95775000Y-39300000D03*
%TO.P,S6,2*%
%TO.N,P7*%
X84225000Y-41500000D03*
%TD*%
D11*
%TO.P,REF\u002A\u002A,1*%
%TO.N,P5*%
X128500000Y-76750000D03*
%TD*%
%TO.P,REF\u002A\u002A,1*%
%TO.N,inner_home*%
X146500000Y-63600000D03*
%TD*%
D15*
%TO.P,S5,1*%
%TO.N,ring_home*%
X95775000Y-56300000D03*
%TO.P,S5,2*%
%TO.N,P7*%
X84225000Y-58500000D03*
%TD*%
%TO.P,S2,1*%
%TO.N,pinky_home*%
X77775000Y-71600000D03*
%TO.P,S2,2*%
%TO.N,P8*%
X66225000Y-73800000D03*
%TD*%
D11*
%TO.P,REF\u002A\u002A,1*%
%TO.N,index_top*%
X128500000Y-41500000D03*
%TD*%
%TO.P,REF\u002A\u002A,1*%
%TO.N,index_home*%
X128500000Y-58500000D03*
%TD*%
D10*
%TO.P,D15,1*%
%TO.N,P1*%
X144450000Y-54350000D03*
%TO.P,D15,2*%
%TO.N,inner_top*%
X148550000Y-54350000D03*
%TD*%
D11*
%TO.P,REF\u002A\u002A,1*%
%TO.N,index_bottom*%
X128500000Y-75500000D03*
%TD*%
D15*
%TO.P,S1,1*%
%TO.N,pinky_bottom*%
X77775000Y-88600000D03*
%TO.P,S1,2*%
%TO.N,P8*%
X66225000Y-90800000D03*
%TD*%
%TO.P,S8,1*%
%TO.N,middle_home*%
X113775000Y-51200000D03*
%TO.P,S8,2*%
%TO.N,P6*%
X102225000Y-53400000D03*
%TD*%
D11*
%TO.P,REF\u002A\u002A,1*%
%TO.N,middle_top*%
X110500000Y-36400000D03*
%TD*%
D15*
%TO.P,S4,1*%
%TO.N,ring_bottom*%
X95775000Y-73300000D03*
%TO.P,S4,2*%
%TO.N,P7*%
X84225000Y-75500000D03*
%TD*%
D10*
%TO.P,D11,1*%
%TO.N,P2*%
X126450000Y-66250000D03*
%TO.P,D11,2*%
%TO.N,index_home*%
X130550000Y-66250000D03*
%TD*%
D11*
%TO.P,REF\u002A\u002A,1*%
%TO.N,P5*%
X128500000Y-42750000D03*
%TD*%
D10*
%TO.P,D4,1*%
%TO.N,P3*%
X90450000Y-83250000D03*
%TO.P,D4,2*%
%TO.N,ring_bottom*%
X94550000Y-83250000D03*
%TD*%
D11*
%TO.P,REF\u002A\u002A,1*%
%TO.N,near_thumb*%
X157375000Y-108302405D03*
%TD*%
%TO.P,REF\u002A\u002A,1*%
%TO.N,inner_bottom*%
X146500000Y-80600000D03*
%TD*%
%TO.P,REF\u002A\u002A,1*%
%TO.N,ring_home*%
X92500000Y-58500000D03*
%TD*%
D15*
%TO.P,S11,1*%
%TO.N,index_home*%
X131775000Y-56300000D03*
%TO.P,S11,2*%
%TO.N,P5*%
X120225000Y-58500000D03*
%TD*%
D10*
%TO.P,D3,1*%
%TO.N,P1*%
X72450000Y-64550000D03*
%TO.P,D3,2*%
%TO.N,pinky_top*%
X76550000Y-64550000D03*
%TD*%
D11*
%TO.P,REF\u002A\u002A,1*%
%TO.N,pinky_top*%
X74500000Y-56800000D03*
%TD*%
%TO.P,REF\u002A\u002A,1*%
%TO.N,home_thumb*%
X172963457Y-117302405D03*
%TD*%
%TO.P,REF\u002A\u002A,1*%
%TO.N,middle_bottom*%
X110500000Y-70400000D03*
%TD*%
%TO.P,REF\u002A\u002A,1*%
%TO.N,inner_top*%
X146500000Y-46600000D03*
%TD*%
%TO.P,REF\u002A\u002A,1*%
%TO.N,middle_home*%
X110500000Y-53400000D03*
%TD*%
%TO.P,REF\u002A\u002A,1*%
%TO.N,P6*%
X110500000Y-54650000D03*
%TD*%
D15*
%TO.P,S10,1*%
%TO.N,index_bottom*%
X131775000Y-73300000D03*
%TO.P,S10,2*%
%TO.N,P5*%
X120225000Y-75500000D03*
%TD*%
D12*
%TO.P,S17,1*%
%TO.N,home_thumb*%
X176899690Y-117034649D03*
%TO.P,S17,2*%
%TO.N,P5*%
X165797097Y-113164905D03*
%TD*%
D10*
%TO.P,D8,1*%
%TO.N,P2*%
X108450000Y-61150000D03*
%TO.P,D8,2*%
%TO.N,middle_home*%
X112550000Y-61150000D03*
%TD*%
D11*
%TO.P,REF\u002A\u002A,1*%
%TO.N,P5*%
X172338457Y-118384937D03*
%TD*%
%TO.P,REF\u002A\u002A,1*%
%TO.N,P7*%
X92500000Y-59750000D03*
%TD*%
D10*
%TO.P,D1,1*%
%TO.N,P3*%
X72450000Y-98550000D03*
%TO.P,D1,2*%
%TO.N,pinky_bottom*%
X76550000Y-98550000D03*
%TD*%
D28*
%TO.N,*%
X166500000Y-82500000D02*
X166333001Y-82666999D01*
X166500000Y-71816695D02*
X166500000Y-82500000D01*
X166333001Y-82666999D02*
X166500000Y-80250000D01*
X169500000Y-71250000D02*
X167066695Y-71250000D01*
X167066695Y-71250000D02*
X166500000Y-71816695D01*
X166500000Y-80250000D02*
X166500000Y-82500000D01*
%TO.N,pinky_bottom*%
X75575000Y-90800000D02*
X74500000Y-90800000D01*
X74500000Y-90800000D02*
X76589501Y-92889501D01*
X76589501Y-92889501D02*
X76589501Y-98370499D01*
X77775000Y-88600000D02*
X75575000Y-90800000D01*
%TO.N,P8*%
X73574999Y-92675001D02*
X74200000Y-92050000D01*
X66225000Y-73800000D02*
X66225000Y-90800000D01*
X68100001Y-92675001D02*
X73574999Y-92675001D01*
X73574999Y-58675001D02*
X74200000Y-58050000D01*
X66225000Y-73800000D02*
X68425000Y-76000000D01*
X66225000Y-56800000D02*
X66225000Y-73800000D01*
X66225000Y-90800000D02*
X68100001Y-92675001D01*
X71396195Y-85628805D02*
X84628805Y-85628805D01*
X162055000Y-86195000D02*
X163470000Y-84780000D01*
X151000000Y-92250000D02*
X157055000Y-86195000D01*
X68425000Y-76000000D02*
X72960499Y-76000000D01*
X91250000Y-92250000D02*
X151000000Y-92250000D01*
X74200000Y-58050000D02*
X74500000Y-58050000D01*
X66225000Y-56800000D02*
X68100001Y-58675001D01*
X157055000Y-86195000D02*
X162055000Y-86195000D01*
X163470000Y-84780000D02*
X165738000Y-84780000D01*
X68100001Y-58675001D02*
X73574999Y-58675001D01*
X74200000Y-92050000D02*
X74500000Y-92050000D01*
X84628805Y-85628805D02*
X91250000Y-92250000D01*
X72960499Y-76000000D02*
X73910499Y-75050000D01*
X66225000Y-90800000D02*
X71396195Y-85628805D01*
X73910499Y-75050000D02*
X74500000Y-75050000D01*
%TO.N,pinky_home*%
X74500000Y-73800000D02*
X76589501Y-75889501D01*
X75575000Y-73800000D02*
X74500000Y-73800000D01*
X76589501Y-75889501D02*
X76589501Y-81370499D01*
X77775000Y-71600000D02*
X75575000Y-73800000D01*
%TO.N,pinky_top*%
X76589501Y-58889501D02*
X76589501Y-64370499D01*
X75575000Y-56800000D02*
X74500000Y-56800000D01*
X77775000Y-54600000D02*
X75575000Y-56800000D01*
X74500000Y-56800000D02*
X76589501Y-58889501D01*
%TO.N,ring_bottom*%
X94589501Y-77589501D02*
X94589501Y-83070499D01*
X92500000Y-75500000D02*
X94589501Y-77589501D01*
X95775000Y-73300000D02*
X93575000Y-75500000D01*
X93575000Y-75500000D02*
X92500000Y-75500000D01*
%TO.N,P7*%
X84225000Y-75500000D02*
X86100001Y-77375001D01*
X84225000Y-41500000D02*
X86100001Y-43375001D01*
X157000000Y-85069009D02*
X158704009Y-83365000D01*
X84225000Y-41500000D02*
X84225000Y-58500000D01*
X91374999Y-77375001D02*
X92000000Y-76750000D01*
X84225000Y-58500000D02*
X84225000Y-75500000D01*
X84225000Y-58500000D02*
X86100001Y-60375001D01*
X89797106Y-42750000D02*
X92500000Y-42750000D01*
X84225000Y-84588604D02*
X91436396Y-91800000D01*
X157000000Y-85613604D02*
X157000000Y-85069009D01*
X91436396Y-91800000D02*
X150813604Y-91800000D01*
X92000000Y-76750000D02*
X92500000Y-76750000D01*
X89172105Y-43375001D02*
X89797106Y-42750000D01*
X158704009Y-83365000D02*
X164613000Y-83365000D01*
X86100001Y-60375001D02*
X91374999Y-60375001D01*
X150813604Y-91800000D02*
X157000000Y-85613604D01*
X86100001Y-43375001D02*
X89172105Y-43375001D01*
X164613000Y-83365000D02*
X165738000Y-82240000D01*
X92000000Y-59750000D02*
X92500000Y-59750000D01*
X84225000Y-75500000D02*
X84225000Y-84588604D01*
X91374999Y-60375001D02*
X92000000Y-59750000D01*
X86100001Y-77375001D02*
X91374999Y-77375001D01*
%TO.N,ring_home*%
X93575000Y-58500000D02*
X92500000Y-58500000D01*
X92500000Y-58500000D02*
X94589501Y-60589501D01*
X94589501Y-60589501D02*
X94589501Y-66070499D01*
X95775000Y-56300000D02*
X93575000Y-58500000D01*
%TO.N,ring_top*%
X93575000Y-41500000D02*
X92500000Y-41500000D01*
X94589501Y-43589501D02*
X94589501Y-49070499D01*
X95775000Y-39300000D02*
X93575000Y-41500000D01*
X92500000Y-41500000D02*
X94589501Y-43589501D01*
%TO.N,middle_bottom*%
X111575000Y-70400000D02*
X110500000Y-70400000D01*
X113775000Y-68200000D02*
X111575000Y-70400000D01*
X112589501Y-72489501D02*
X112589501Y-77970499D01*
X110500000Y-70400000D02*
X112589501Y-72489501D01*
%TO.N,P6*%
X105815901Y-55924099D02*
X107090000Y-54650000D01*
X107090000Y-54650000D02*
X110500000Y-54650000D01*
X164468000Y-80970000D02*
X165738000Y-79700000D01*
X102225000Y-36400000D02*
X104749099Y-38924099D01*
X109900000Y-91250000D02*
X150727208Y-91250000D01*
X150727208Y-91250000D02*
X156550000Y-85427208D01*
X156550000Y-85427208D02*
X156550000Y-81897134D01*
X102225000Y-83575000D02*
X109900000Y-91250000D01*
X109060499Y-72500000D02*
X109910499Y-71650000D01*
X102225000Y-70400000D02*
X102225000Y-83575000D01*
X109448198Y-37650000D02*
X110500000Y-37650000D01*
X104749099Y-38924099D02*
X108174099Y-38924099D01*
X150208640Y-105958640D02*
X153634937Y-109384937D01*
X102225000Y-70400000D02*
X102225000Y-53400000D01*
X102225000Y-53400000D02*
X104749099Y-55924099D01*
X150208640Y-104164905D02*
X150208640Y-105958640D01*
X108174099Y-38924099D02*
X109448198Y-37650000D01*
X102225000Y-70400000D02*
X104325000Y-72500000D01*
X156550000Y-81897134D02*
X157477134Y-80970000D01*
X104325000Y-72500000D02*
X109060499Y-72500000D01*
X104749099Y-55924099D02*
X105815901Y-55924099D01*
X153634937Y-109384937D02*
X156750000Y-109384937D01*
X102225000Y-36400000D02*
X102225000Y-53400000D01*
X157477134Y-80970000D02*
X164468000Y-80970000D01*
X109910499Y-71650000D02*
X110500000Y-71650000D01*
%TO.N,middle_home*%
X110500000Y-53400000D02*
X112589501Y-55489501D01*
X112589501Y-55489501D02*
X112589501Y-60970499D01*
X113775000Y-51200000D02*
X111575000Y-53400000D01*
X111575000Y-53400000D02*
X110500000Y-53400000D01*
%TO.N,middle_top*%
X110500000Y-36400000D02*
X112589501Y-38489501D01*
X112589501Y-38489501D02*
X112589501Y-43970499D01*
X113775000Y-34200000D02*
X111575000Y-36400000D01*
X111575000Y-36400000D02*
X110500000Y-36400000D01*
%TO.N,index_bottom*%
X129575000Y-75500000D02*
X128500000Y-75500000D01*
X131775000Y-73300000D02*
X129575000Y-75500000D01*
X128500000Y-75500000D02*
X130589501Y-77589501D01*
X130589501Y-77589501D02*
X130589501Y-83070499D01*
%TO.N,P5*%
X156100000Y-85240812D02*
X156100000Y-80889009D01*
X120225000Y-41500000D02*
X120225000Y-58500000D01*
X120225000Y-58500000D02*
X120225000Y-75500000D01*
X125172105Y-43375001D02*
X125797106Y-42750000D01*
X131800000Y-90800000D02*
X150540812Y-90800000D01*
X120225000Y-75500000D02*
X120225000Y-79225000D01*
X165797097Y-114797097D02*
X169384937Y-118384937D01*
X122100001Y-43375001D02*
X125172105Y-43375001D01*
X125172105Y-77375001D02*
X125797106Y-76750000D01*
X164613000Y-78285000D02*
X165738000Y-77160000D01*
X150540812Y-90800000D02*
X156100000Y-85240812D01*
X158704009Y-78285000D02*
X164613000Y-78285000D01*
X120225000Y-58500000D02*
X122100001Y-60375001D01*
X125797106Y-76750000D02*
X128500000Y-76750000D01*
X120225000Y-41500000D02*
X122100001Y-43375001D01*
X128000000Y-59750000D02*
X128500000Y-59750000D01*
X165797097Y-113164905D02*
X165797097Y-114797097D01*
X169384937Y-118384937D02*
X172338457Y-118384937D01*
X120225000Y-75500000D02*
X122100001Y-77375001D01*
X122100001Y-60375001D02*
X127374999Y-60375001D01*
X120225000Y-79225000D02*
X131800000Y-90800000D01*
X127374999Y-60375001D02*
X128000000Y-59750000D01*
X156100000Y-80889009D02*
X158704009Y-78285000D01*
X125797106Y-42750000D02*
X128500000Y-42750000D01*
X122100001Y-77375001D02*
X125172105Y-77375001D01*
%TO.N,index_home*%
X128500000Y-58500000D02*
X130589501Y-60589501D01*
X129575000Y-58500000D02*
X128500000Y-58500000D01*
X130589501Y-60589501D02*
X130589501Y-66070499D01*
X131775000Y-56300000D02*
X129575000Y-58500000D01*
%TO.N,index_top*%
X129575000Y-41500000D02*
X128500000Y-41500000D01*
X130589501Y-43589501D02*
X130589501Y-49070499D01*
X128500000Y-41500000D02*
X130589501Y-43589501D01*
X131775000Y-39300000D02*
X129575000Y-41500000D01*
%TO.N,inner_bottom*%
X146500000Y-80600000D02*
X148589501Y-82689501D01*
X149775000Y-78400000D02*
X147575000Y-80600000D01*
X147575000Y-80600000D02*
X146500000Y-80600000D01*
X148589501Y-82689501D02*
X148589501Y-88170499D01*
%TO.N,P4*%
X140100001Y-82475001D02*
X145524999Y-82475001D01*
X138225000Y-46600000D02*
X140100001Y-48475001D01*
X145524999Y-82475001D02*
X146150000Y-81850000D01*
X145524999Y-48475001D02*
X146150000Y-47850000D01*
X138225000Y-63600000D02*
X140100001Y-65475001D01*
X138225000Y-63600000D02*
X138225000Y-67425000D01*
X143172105Y-65475001D02*
X143797106Y-64850000D01*
X138225000Y-80600000D02*
X140100001Y-82475001D01*
X146150000Y-47850000D02*
X146500000Y-47850000D01*
X140100001Y-65475001D02*
X143172105Y-65475001D01*
X138225000Y-67425000D02*
X146545000Y-75745000D01*
X140100001Y-48475001D02*
X145524999Y-48475001D01*
X164613000Y-75745000D02*
X165738000Y-74620000D01*
X143797106Y-64850000D02*
X146500000Y-64850000D01*
X138225000Y-46600000D02*
X138225000Y-63600000D01*
X146545000Y-75745000D02*
X164613000Y-75745000D01*
X138225000Y-63600000D02*
X138225000Y-80600000D01*
X146150000Y-81850000D02*
X146500000Y-81850000D01*
%TO.N,inner_home*%
X146500000Y-63600000D02*
X148589501Y-65689501D01*
X148589501Y-65689501D02*
X148589501Y-71170499D01*
X149775000Y-61400000D02*
X147575000Y-63600000D01*
X147575000Y-63600000D02*
X146500000Y-63600000D01*
%TO.N,inner_top*%
X146500000Y-46600000D02*
X148589501Y-48689501D01*
X149775000Y-44400000D02*
X147575000Y-46600000D01*
X148589501Y-48689501D02*
X148589501Y-54170499D01*
X147575000Y-46600000D02*
X146500000Y-46600000D01*
%TO.N,near_thumb*%
X157375000Y-108302405D02*
X157675000Y-108602405D01*
X157675000Y-108602405D02*
X157675000Y-113502852D01*
X161043477Y-108302405D02*
X157375000Y-108302405D01*
X157675000Y-113502852D02*
X155188750Y-115989102D01*
X161311233Y-108034649D02*
X161043477Y-108302405D01*
%TO.N,P9*%
X151789102Y-114039102D02*
X151811250Y-114039102D01*
X147500000Y-109750000D02*
X151789102Y-114039102D01*
X147500000Y-97750000D02*
X147500000Y-109750000D01*
X158558000Y-94500000D02*
X150750000Y-94500000D01*
X165738000Y-87320000D02*
X158558000Y-94500000D01*
X150750000Y-94500000D02*
X147500000Y-97750000D01*
%TO.N,home_thumb*%
X176899690Y-117034649D02*
X176631934Y-117302405D01*
X172963457Y-117302405D02*
X173263457Y-117602405D01*
X173263457Y-117602405D02*
X173263457Y-122502852D01*
X173263457Y-122502852D02*
X170777207Y-124989102D01*
X176631934Y-117302405D02*
X172963457Y-117302405D01*
%TO.N,GND*%
X166948000Y-63250000D02*
X165738000Y-64460000D01*
X176823840Y-63823840D02*
X176250000Y-63250000D01*
X176250000Y-63250000D02*
X166948000Y-63250000D01*
X176823840Y-88226160D02*
X176823840Y-63823840D01*
X170300000Y-94750000D02*
X170300000Y-99350000D01*
X170300000Y-94750000D02*
X176823840Y-88226160D01*
%TO.N,VCC*%
X166300000Y-94750000D02*
X166300000Y-99350000D01*
X175248840Y-65875000D02*
X168387000Y-65875000D01*
X166300000Y-94750000D02*
X167500000Y-94750000D01*
X167500000Y-94750000D02*
X169250000Y-93000000D01*
X169250000Y-93000000D02*
X171413604Y-93000000D01*
X176373840Y-88039764D02*
X176373840Y-67000000D01*
X176373840Y-67000000D02*
X175248840Y-65875000D01*
X171413604Y-93000000D02*
X176373840Y-88039764D01*
X168387000Y-65875000D02*
X167262000Y-67000000D01*
%TO.N,P0*%
X173300000Y-93223840D02*
X177273840Y-89250000D01*
X173300000Y-94750000D02*
X173300000Y-99350000D01*
X166863000Y-60795000D02*
X165738000Y-61920000D01*
X177273840Y-89250000D02*
X177273840Y-63000000D01*
X175068840Y-60795000D02*
X166863000Y-60795000D01*
X173300000Y-94750000D02*
X173300000Y-93223840D01*
X177273840Y-63000000D02*
X175068840Y-60795000D01*
%TD*%
M02*
