0
SECTION
2
HEADER
9
$INSUNITS
70
4
0
ENDSEC
0
SECTION
2
TABLES
0
TABLE
2
LTYPE
0
LTYPE
72
65
70
64
2
CONTINUOUS
3
______
73
0
40
0
0
ENDTAB
0
TABLE
2
LAYER
0
ENDTAB
0
ENDSEC
0
SECTION
2
ENTITIES
0
LINE
8
0
10
-6.9
20
-6.9
11
6.9
21
-6.9
0
LINE
8
0
10
6.9
20
-6.9
11
6.9
21
6.9
0
LINE
8
0
10
6.9
20
6.9
11
-6.9
21
6.9
0
LINE
8
0
10
-6.9
20
6.9
11
-6.9
21
-6.9
0
LINE
8
0
10
-6.9
20
12.1
11
6.9
21
12.1
0
LINE
8
0
10
6.9
20
12.1
11
6.9
21
25.9
0
LINE
8
0
10
6.9
20
25.9
11
-6.9
21
25.9
0
LINE
8
0
10
-6.9
20
25.9
11
-6.9
21
12.1
0
LINE
8
0
10
-6.9
20
31.1
11
6.9
21
31.1
0
LINE
8
0
10
6.9
20
31.1
11
6.9
21
44.9
0
LINE
8
0
10
6.9
20
44.9
11
-6.9
21
44.9
0
LINE
8
0
10
-6.9
20
44.9
11
-6.9
21
31.1
0
LINE
8
0
10
-6.9
20
50.1
11
6.9
21
50.1
0
LINE
8
0
10
6.9
20
50.1
11
6.9
21
63.9
0
LINE
8
0
10
6.9
20
63.9
11
-6.9
21
63.9
0
LINE
8
0
10
-6.9
20
63.9
11
-6.9
21
50.1
0
LINE
8
0
10
13.1
20
-6.9
11
26.9
21
-6.9
0
LINE
8
0
10
26.9
20
-6.9
11
26.9
21
6.9
0
LINE
8
0
10
26.9
20
6.9
11
13.1
21
6.9
0
LINE
8
0
10
13.1
20
6.9
11
13.1
21
-6.9
0
LINE
8
0
10
13.1
20
12.1
11
26.9
21
12.1
0
LINE
8
0
10
26.9
20
12.1
11
26.9
21
25.9
0
LINE
8
0
10
26.9
20
25.9
11
13.1
21
25.9
0
LINE
8
0
10
13.1
20
25.9
11
13.1
21
12.1
0
LINE
8
0
10
13.1
20
31.1
11
26.9
21
31.1
0
LINE
8
0
10
26.9
20
31.1
11
26.9
21
44.9
0
LINE
8
0
10
26.9
20
44.9
11
13.1
21
44.9
0
LINE
8
0
10
13.1
20
44.9
11
13.1
21
31.1
0
LINE
8
0
10
13.1
20
50.1
11
26.9
21
50.1
0
LINE
8
0
10
26.9
20
50.1
11
26.9
21
63.9
0
LINE
8
0
10
26.9
20
63.9
11
13.1
21
63.9
0
LINE
8
0
10
13.1
20
63.9
11
13.1
21
50.1
0
LINE
8
0
10
33.1
20
-6.9
11
46.9
21
-6.9
0
LINE
8
0
10
46.9
20
-6.9
11
46.9
21
6.9
0
LINE
8
0
10
46.9
20
6.9
11
33.1
21
6.9
0
LINE
8
0
10
33.1
20
6.9
11
33.1
21
-6.9
0
LINE
8
0
10
33.1
20
12.1
11
46.9
21
12.1
0
LINE
8
0
10
46.9
20
12.1
11
46.9
21
25.9
0
LINE
8
0
10
46.9
20
25.9
11
33.1
21
25.9
0
LINE
8
0
10
33.1
20
25.9
11
33.1
21
12.1
0
LINE
8
0
10
33.1
20
31.1
11
46.9
21
31.1
0
LINE
8
0
10
46.9
20
31.1
11
46.9
21
44.9
0
LINE
8
0
10
46.9
20
44.9
11
33.1
21
44.9
0
LINE
8
0
10
33.1
20
44.9
11
33.1
21
31.1
0
LINE
8
0
10
33.1
20
50.1
11
46.9
21
50.1
0
LINE
8
0
10
46.9
20
50.1
11
46.9
21
63.9
0
LINE
8
0
10
46.9
20
63.9
11
33.1
21
63.9
0
LINE
8
0
10
33.1
20
63.9
11
33.1
21
50.1
0
LINE
8
0
10
53.1
20
-6.9
11
66.9
21
-6.9
0
LINE
8
0
10
66.9
20
-6.9
11
66.9
21
6.9
0
LINE
8
0
10
66.9
20
6.9
11
53.1
21
6.9
0
LINE
8
0
10
53.1
20
6.9
11
53.1
21
-6.9
0
LINE
8
0
10
53.1
20
12.1
11
66.9
21
12.1
0
LINE
8
0
10
66.9
20
12.1
11
66.9
21
25.9
0
LINE
8
0
10
66.9
20
25.9
11
53.1
21
25.9
0
LINE
8
0
10
53.1
20
25.9
11
53.1
21
12.1
0
LINE
8
0
10
53.1
20
31.1
11
66.9
21
31.1
0
LINE
8
0
10
66.9
20
31.1
11
66.9
21
44.9
0
LINE
8
0
10
66.9
20
44.9
11
53.1
21
44.9
0
LINE
8
0
10
53.1
20
44.9
11
53.1
21
31.1
0
LINE
8
0
10
53.1
20
50.1
11
66.9
21
50.1
0
LINE
8
0
10
66.9
20
50.1
11
66.9
21
63.9
0
LINE
8
0
10
66.9
20
63.9
11
53.1
21
63.9
0
LINE
8
0
10
53.1
20
63.9
11
53.1
21
50.1
0
LINE
8
0
10
73.1
20
-6.9
11
86.9
21
-6.9
0
LINE
8
0
10
86.9
20
-6.9
11
86.9
21
6.9
0
LINE
8
0
10
86.9
20
6.9
11
73.1
21
6.9
0
LINE
8
0
10
73.1
20
6.9
11
73.1
21
-6.9
0
LINE
8
0
10
73.1
20
12.1
11
86.9
21
12.1
0
LINE
8
0
10
86.9
20
12.1
11
86.9
21
25.9
0
LINE
8
0
10
86.9
20
25.9
11
73.1
21
25.9
0
LINE
8
0
10
73.1
20
25.9
11
73.1
21
12.1
0
LINE
8
0
10
73.1
20
31.1
11
86.9
21
31.1
0
LINE
8
0
10
86.9
20
31.1
11
86.9
21
44.9
0
LINE
8
0
10
86.9
20
44.9
11
73.1
21
44.9
0
LINE
8
0
10
73.1
20
44.9
11
73.1
21
31.1
0
LINE
8
0
10
73.1
20
50.1
11
86.9
21
50.1
0
LINE
8
0
10
86.9
20
50.1
11
86.9
21
63.9
0
LINE
8
0
10
86.9
20
63.9
11
73.1
21
63.9
0
LINE
8
0
10
73.1
20
63.9
11
73.1
21
50.1
0
LINE
8
0
10
93.1
20
-6.9
11
106.9
21
-6.9
0
LINE
8
0
10
106.9
20
-6.9
11
106.9
21
6.9
0
LINE
8
0
10
106.9
20
6.9
11
93.1
21
6.9
0
LINE
8
0
10
93.1
20
6.9
11
93.1
21
-6.9
0
LINE
8
0
10
93.1
20
12.1
11
106.9
21
12.1
0
LINE
8
0
10
106.9
20
12.1
11
106.9
21
25.9
0
LINE
8
0
10
106.9
20
25.9
11
93.1
21
25.9
0
LINE
8
0
10
93.1
20
25.9
11
93.1
21
12.1
0
LINE
8
0
10
93.1
20
31.1
11
106.9
21
31.1
0
LINE
8
0
10
106.9
20
31.1
11
106.9
21
44.9
0
LINE
8
0
10
106.9
20
44.9
11
93.1
21
44.9
0
LINE
8
0
10
93.1
20
44.9
11
93.1
21
31.1
0
LINE
8
0
10
93.1
20
50.1
11
106.9
21
50.1
0
LINE
8
0
10
106.9
20
50.1
11
106.9
21
63.9
0
LINE
8
0
10
106.9
20
63.9
11
93.1
21
63.9
0
LINE
8
0
10
93.1
20
63.9
11
93.1
21
50.1
0
LINE
8
0
10
113.1
20
-6.9
11
126.9
21
-6.9
0
LINE
8
0
10
126.9
20
-6.9
11
126.9
21
6.9
0
LINE
8
0
10
126.9
20
6.9
11
113.1
21
6.9
0
LINE
8
0
10
113.1
20
6.9
11
113.1
21
-6.9
0
LINE
8
0
10
113.1
20
12.1
11
126.9
21
12.1
0
LINE
8
0
10
126.9
20
12.1
11
126.9
21
25.9
0
LINE
8
0
10
126.9
20
25.9
11
113.1
21
25.9
0
LINE
8
0
10
113.1
20
25.9
11
113.1
21
12.1
0
LINE
8
0
10
113.1
20
31.1
11
126.9
21
31.1
0
LINE
8
0
10
126.9
20
31.1
11
126.9
21
44.9
0
LINE
8
0
10
126.9
20
44.9
11
113.1
21
44.9
0
LINE
8
0
10
113.1
20
44.9
11
113.1
21
31.1
0
LINE
8
0
10
113.1
20
50.1
11
126.9
21
50.1
0
LINE
8
0
10
126.9
20
50.1
11
126.9
21
63.9
0
LINE
8
0
10
126.9
20
63.9
11
113.1
21
63.9
0
LINE
8
0
10
113.1
20
63.9
11
113.1
21
50.1
0
LINE
8
0
10
133.1
20
-6.9
11
146.9
21
-6.9
0
LINE
8
0
10
146.9
20
-6.9
11
146.9
21
6.9
0
LINE
8
0
10
146.9
20
6.9
11
133.1
21
6.9
0
LINE
8
0
10
133.1
20
6.9
11
133.1
21
-6.9
0
LINE
8
0
10
133.1
20
12.1
11
146.9
21
12.1
0
LINE
8
0
10
146.9
20
12.1
11
146.9
21
25.9
0
LINE
8
0
10
146.9
20
25.9
11
133.1
21
25.9
0
LINE
8
0
10
133.1
20
25.9
11
133.1
21
12.1
0
LINE
8
0
10
133.1
20
31.1
11
146.9
21
31.1
0
LINE
8
0
10
146.9
20
31.1
11
146.9
21
44.9
0
LINE
8
0
10
146.9
20
44.9
11
133.1
21
44.9
0
LINE
8
0
10
133.1
20
44.9
11
133.1
21
31.1
0
LINE
8
0
10
133.1
20
50.1
11
146.9
21
50.1
0
LINE
8
0
10
146.9
20
50.1
11
146.9
21
63.9
0
LINE
8
0
10
146.9
20
63.9
11
133.1
21
63.9
0
LINE
8
0
10
133.1
20
63.9
11
133.1
21
50.1
0
LINE
8
0
10
153.1
20
-6.9
11
166.9
21
-6.9
0
LINE
8
0
10
166.9
20
-6.9
11
166.9
21
6.9
0
LINE
8
0
10
166.9
20
6.9
11
153.1
21
6.9
0
LINE
8
0
10
153.1
20
6.9
11
153.1
21
-6.9
0
LINE
8
0
10
153.1
20
12.1
11
166.9
21
12.1
0
LINE
8
0
10
166.9
20
12.1
11
166.9
21
25.9
0
LINE
8
0
10
166.9
20
25.9
11
153.1
21
25.9
0
LINE
8
0
10
153.1
20
25.9
11
153.1
21
12.1
0
LINE
8
0
10
153.1
20
31.1
11
166.9
21
31.1
0
LINE
8
0
10
166.9
20
31.1
11
166.9
21
44.9
0
LINE
8
0
10
166.9
20
44.9
11
153.1
21
44.9
0
LINE
8
0
10
153.1
20
44.9
11
153.1
21
31.1
0
LINE
8
0
10
153.1
20
50.1
11
166.9
21
50.1
0
LINE
8
0
10
166.9
20
50.1
11
166.9
21
63.9
0
LINE
8
0
10
166.9
20
63.9
11
153.1
21
63.9
0
LINE
8
0
10
153.1
20
63.9
11
153.1
21
50.1
0
LINE
8
0
10
173.1
20
-6.9
11
186.9
21
-6.9
0
LINE
8
0
10
186.9
20
-6.9
11
186.9
21
6.9
0
LINE
8
0
10
186.9
20
6.9
11
173.1
21
6.9
0
LINE
8
0
10
173.1
20
6.9
11
173.1
21
-6.9
0
LINE
8
0
10
173.1
20
12.1
11
186.9
21
12.1
0
LINE
8
0
10
186.9
20
12.1
11
186.9
21
25.9
0
LINE
8
0
10
186.9
20
25.9
11
173.1
21
25.9
0
LINE
8
0
10
173.1
20
25.9
11
173.1
21
12.1
0
LINE
8
0
10
173.1
20
31.1
11
186.9
21
31.1
0
LINE
8
0
10
186.9
20
31.1
11
186.9
21
44.9
0
LINE
8
0
10
186.9
20
44.9
11
173.1
21
44.9
0
LINE
8
0
10
173.1
20
44.9
11
173.1
21
31.1
0
LINE
8
0
10
173.1
20
50.1
11
186.9
21
50.1
0
LINE
8
0
10
186.9
20
50.1
11
186.9
21
63.9
0
LINE
8
0
10
186.9
20
63.9
11
173.1
21
63.9
0
LINE
8
0
10
173.1
20
63.9
11
173.1
21
50.1
0
ENDSEC
0
EOF