0
SECTION
2
HEADER
9
$INSUNITS
70
4
0
ENDSEC
0
SECTION
2
TABLES
0
TABLE
2
LTYPE
0
LTYPE
72
65
70
64
2
CONTINUOUS
3
______
73
0
40
0
0
ENDTAB
0
TABLE
2
LAYER
0
ENDTAB
0
ENDSEC
0
SECTION
2
ENTITIES
0
LINE
8
0
10
-10
20
-6.5
11
-10
21
63.5
0
LINE
8
0
10
-7
20
66.5
11
187
21
66.5
0
LINE
8
0
10
190
20
63.5
11
190
21
-6.5
0
LINE
8
0
10
187
20
-9.5
11
-7
21
-9.5
0
ARC
8
0
10
-7
20
63.5
40
3
50
90
51
180
0
ARC
8
0
10
187
20
63.5
40
3
50
0
51
90
0
ARC
8
0
10
187
20
-6.5
40
3
50
270
51
0
0
ARC
8
0
10
-7
20
-6.5
40
3
50
180
51
270
0
LINE
8
0
10
-8.75
20
-8.25
11
8.75
21
-8.25
0
LINE
8
0
10
8.75
20
-8.25
11
8.75
21
8.25
0
LINE
8
0
10
8.75
20
8.25
11
-8.75
21
8.25
0
LINE
8
0
10
-8.75
20
8.25
11
-8.75
21
-8.25
0
LINE
8
0
10
-8.75
20
10.75
11
8.75
21
10.75
0
LINE
8
0
10
8.75
20
10.75
11
8.75
21
27.25
0
LINE
8
0
10
8.75
20
27.25
11
-8.75
21
27.25
0
LINE
8
0
10
-8.75
20
27.25
11
-8.75
21
10.75
0
LINE
8
0
10
-8.75
20
29.75
11
8.75
21
29.75
0
LINE
8
0
10
8.75
20
29.75
11
8.75
21
46.25
0
LINE
8
0
10
8.75
20
46.25
11
-8.75
21
46.25
0
LINE
8
0
10
-8.75
20
46.25
11
-8.75
21
29.75
0
LINE
8
0
10
-8.75
20
48.75
11
8.75
21
48.75
0
LINE
8
0
10
8.75
20
48.75
11
8.75
21
65.25
0
LINE
8
0
10
8.75
20
65.25
11
-8.75
21
65.25
0
LINE
8
0
10
-8.75
20
65.25
11
-8.75
21
48.75
0
LINE
8
0
10
11.25
20
-8.25
11
28.75
21
-8.25
0
LINE
8
0
10
28.75
20
-8.25
11
28.75
21
8.25
0
LINE
8
0
10
28.75
20
8.25
11
11.25
21
8.25
0
LINE
8
0
10
11.25
20
8.25
11
11.25
21
-8.25
0
LINE
8
0
10
11.25
20
10.75
11
28.75
21
10.75
0
LINE
8
0
10
28.75
20
10.75
11
28.75
21
27.25
0
LINE
8
0
10
28.75
20
27.25
11
11.25
21
27.25
0
LINE
8
0
10
11.25
20
27.25
11
11.25
21
10.75
0
LINE
8
0
10
11.25
20
29.75
11
28.75
21
29.75
0
LINE
8
0
10
28.75
20
29.75
11
28.75
21
46.25
0
LINE
8
0
10
28.75
20
46.25
11
11.25
21
46.25
0
LINE
8
0
10
11.25
20
46.25
11
11.25
21
29.75
0
LINE
8
0
10
11.25
20
48.75
11
28.75
21
48.75
0
LINE
8
0
10
28.75
20
48.75
11
28.75
21
65.25
0
LINE
8
0
10
28.75
20
65.25
11
11.25
21
65.25
0
LINE
8
0
10
11.25
20
65.25
11
11.25
21
48.75
0
LINE
8
0
10
31.25
20
-8.25
11
48.75
21
-8.25
0
LINE
8
0
10
48.75
20
-8.25
11
48.75
21
8.25
0
LINE
8
0
10
48.75
20
8.25
11
31.25
21
8.25
0
LINE
8
0
10
31.25
20
8.25
11
31.25
21
-8.25
0
LINE
8
0
10
31.25
20
10.75
11
48.75
21
10.75
0
LINE
8
0
10
48.75
20
10.75
11
48.75
21
27.25
0
LINE
8
0
10
48.75
20
27.25
11
31.25
21
27.25
0
LINE
8
0
10
31.25
20
27.25
11
31.25
21
10.75
0
LINE
8
0
10
31.25
20
29.75
11
48.75
21
29.75
0
LINE
8
0
10
48.75
20
29.75
11
48.75
21
46.25
0
LINE
8
0
10
48.75
20
46.25
11
31.25
21
46.25
0
LINE
8
0
10
31.25
20
46.25
11
31.25
21
29.75
0
LINE
8
0
10
31.25
20
48.75
11
48.75
21
48.75
0
LINE
8
0
10
48.75
20
48.75
11
48.75
21
65.25
0
LINE
8
0
10
48.75
20
65.25
11
31.25
21
65.25
0
LINE
8
0
10
31.25
20
65.25
11
31.25
21
48.75
0
LINE
8
0
10
51.25
20
-8.25
11
68.75
21
-8.25
0
LINE
8
0
10
68.75
20
-8.25
11
68.75
21
8.25
0
LINE
8
0
10
68.75
20
8.25
11
51.25
21
8.25
0
LINE
8
0
10
51.25
20
8.25
11
51.25
21
-8.25
0
LINE
8
0
10
51.25
20
10.75
11
68.75
21
10.75
0
LINE
8
0
10
68.75
20
10.75
11
68.75
21
27.25
0
LINE
8
0
10
68.75
20
27.25
11
51.25
21
27.25
0
LINE
8
0
10
51.25
20
27.25
11
51.25
21
10.75
0
LINE
8
0
10
51.25
20
29.75
11
68.75
21
29.75
0
LINE
8
0
10
68.75
20
29.75
11
68.75
21
46.25
0
LINE
8
0
10
68.75
20
46.25
11
51.25
21
46.25
0
LINE
8
0
10
51.25
20
46.25
11
51.25
21
29.75
0
LINE
8
0
10
51.25
20
48.75
11
68.75
21
48.75
0
LINE
8
0
10
68.75
20
48.75
11
68.75
21
65.25
0
LINE
8
0
10
68.75
20
65.25
11
51.25
21
65.25
0
LINE
8
0
10
51.25
20
65.25
11
51.25
21
48.75
0
LINE
8
0
10
71.25
20
-8.25
11
88.75
21
-8.25
0
LINE
8
0
10
88.75
20
-8.25
11
88.75
21
8.25
0
LINE
8
0
10
88.75
20
8.25
11
71.25
21
8.25
0
LINE
8
0
10
71.25
20
8.25
11
71.25
21
-8.25
0
LINE
8
0
10
71.25
20
10.75
11
88.75
21
10.75
0
LINE
8
0
10
88.75
20
10.75
11
88.75
21
27.25
0
LINE
8
0
10
88.75
20
27.25
11
71.25
21
27.25
0
LINE
8
0
10
71.25
20
27.25
11
71.25
21
10.75
0
LINE
8
0
10
71.25
20
29.75
11
88.75
21
29.75
0
LINE
8
0
10
88.75
20
29.75
11
88.75
21
46.25
0
LINE
8
0
10
88.75
20
46.25
11
71.25
21
46.25
0
LINE
8
0
10
71.25
20
46.25
11
71.25
21
29.75
0
LINE
8
0
10
71.25
20
48.75
11
88.75
21
48.75
0
LINE
8
0
10
88.75
20
48.75
11
88.75
21
65.25
0
LINE
8
0
10
88.75
20
65.25
11
71.25
21
65.25
0
LINE
8
0
10
71.25
20
65.25
11
71.25
21
48.75
0
LINE
8
0
10
91.25
20
-8.25
11
108.75
21
-8.25
0
LINE
8
0
10
108.75
20
-8.25
11
108.75
21
8.25
0
LINE
8
0
10
108.75
20
8.25
11
91.25
21
8.25
0
LINE
8
0
10
91.25
20
8.25
11
91.25
21
-8.25
0
LINE
8
0
10
91.25
20
10.75
11
108.75
21
10.75
0
LINE
8
0
10
108.75
20
10.75
11
108.75
21
27.25
0
LINE
8
0
10
108.75
20
27.25
11
91.25
21
27.25
0
LINE
8
0
10
91.25
20
27.25
11
91.25
21
10.75
0
LINE
8
0
10
91.25
20
29.75
11
108.75
21
29.75
0
LINE
8
0
10
108.75
20
29.75
11
108.75
21
46.25
0
LINE
8
0
10
108.75
20
46.25
11
91.25
21
46.25
0
LINE
8
0
10
91.25
20
46.25
11
91.25
21
29.75
0
LINE
8
0
10
91.25
20
48.75
11
108.75
21
48.75
0
LINE
8
0
10
108.75
20
48.75
11
108.75
21
65.25
0
LINE
8
0
10
108.75
20
65.25
11
91.25
21
65.25
0
LINE
8
0
10
91.25
20
65.25
11
91.25
21
48.75
0
LINE
8
0
10
111.25
20
-8.25
11
128.75
21
-8.25
0
LINE
8
0
10
128.75
20
-8.25
11
128.75
21
8.25
0
LINE
8
0
10
128.75
20
8.25
11
111.25
21
8.25
0
LINE
8
0
10
111.25
20
8.25
11
111.25
21
-8.25
0
LINE
8
0
10
111.25
20
10.75
11
128.75
21
10.75
0
LINE
8
0
10
128.75
20
10.75
11
128.75
21
27.25
0
LINE
8
0
10
128.75
20
27.25
11
111.25
21
27.25
0
LINE
8
0
10
111.25
20
27.25
11
111.25
21
10.75
0
LINE
8
0
10
111.25
20
29.75
11
128.75
21
29.75
0
LINE
8
0
10
128.75
20
29.75
11
128.75
21
46.25
0
LINE
8
0
10
128.75
20
46.25
11
111.25
21
46.25
0
LINE
8
0
10
111.25
20
46.25
11
111.25
21
29.75
0
LINE
8
0
10
111.25
20
48.75
11
128.75
21
48.75
0
LINE
8
0
10
128.75
20
48.75
11
128.75
21
65.25
0
LINE
8
0
10
128.75
20
65.25
11
111.25
21
65.25
0
LINE
8
0
10
111.25
20
65.25
11
111.25
21
48.75
0
LINE
8
0
10
131.25
20
-8.25
11
148.75
21
-8.25
0
LINE
8
0
10
148.75
20
-8.25
11
148.75
21
8.25
0
LINE
8
0
10
148.75
20
8.25
11
131.25
21
8.25
0
LINE
8
0
10
131.25
20
8.25
11
131.25
21
-8.25
0
LINE
8
0
10
131.25
20
10.75
11
148.75
21
10.75
0
LINE
8
0
10
148.75
20
10.75
11
148.75
21
27.25
0
LINE
8
0
10
148.75
20
27.25
11
131.25
21
27.25
0
LINE
8
0
10
131.25
20
27.25
11
131.25
21
10.75
0
LINE
8
0
10
131.25
20
29.75
11
148.75
21
29.75
0
LINE
8
0
10
148.75
20
29.75
11
148.75
21
46.25
0
LINE
8
0
10
148.75
20
46.25
11
131.25
21
46.25
0
LINE
8
0
10
131.25
20
46.25
11
131.25
21
29.75
0
LINE
8
0
10
131.25
20
48.75
11
148.75
21
48.75
0
LINE
8
0
10
148.75
20
48.75
11
148.75
21
65.25
0
LINE
8
0
10
148.75
20
65.25
11
131.25
21
65.25
0
LINE
8
0
10
131.25
20
65.25
11
131.25
21
48.75
0
LINE
8
0
10
151.25
20
-8.25
11
168.75
21
-8.25
0
LINE
8
0
10
168.75
20
-8.25
11
168.75
21
8.25
0
LINE
8
0
10
168.75
20
8.25
11
151.25
21
8.25
0
LINE
8
0
10
151.25
20
8.25
11
151.25
21
-8.25
0
LINE
8
0
10
151.25
20
10.75
11
168.75
21
10.75
0
LINE
8
0
10
168.75
20
10.75
11
168.75
21
27.25
0
LINE
8
0
10
168.75
20
27.25
11
151.25
21
27.25
0
LINE
8
0
10
151.25
20
27.25
11
151.25
21
10.75
0
LINE
8
0
10
151.25
20
29.75
11
168.75
21
29.75
0
LINE
8
0
10
168.75
20
29.75
11
168.75
21
46.25
0
LINE
8
0
10
168.75
20
46.25
11
151.25
21
46.25
0
LINE
8
0
10
151.25
20
46.25
11
151.25
21
29.75
0
LINE
8
0
10
151.25
20
48.75
11
168.75
21
48.75
0
LINE
8
0
10
168.75
20
48.75
11
168.75
21
65.25
0
LINE
8
0
10
168.75
20
65.25
11
151.25
21
65.25
0
LINE
8
0
10
151.25
20
65.25
11
151.25
21
48.75
0
LINE
8
0
10
171.25
20
-8.25
11
188.75
21
-8.25
0
LINE
8
0
10
188.75
20
-8.25
11
188.75
21
8.25
0
LINE
8
0
10
188.75
20
8.25
11
171.25
21
8.25
0
LINE
8
0
10
171.25
20
8.25
11
171.25
21
-8.25
0
LINE
8
0
10
171.25
20
10.75
11
188.75
21
10.75
0
LINE
8
0
10
188.75
20
10.75
11
188.75
21
27.25
0
LINE
8
0
10
188.75
20
27.25
11
171.25
21
27.25
0
LINE
8
0
10
171.25
20
27.25
11
171.25
21
10.75
0
LINE
8
0
10
171.25
20
29.75
11
188.75
21
29.75
0
LINE
8
0
10
188.75
20
29.75
11
188.75
21
46.25
0
LINE
8
0
10
188.75
20
46.25
11
171.25
21
46.25
0
LINE
8
0
10
171.25
20
46.25
11
171.25
21
29.75
0
LINE
8
0
10
171.25
20
48.75
11
188.75
21
48.75
0
LINE
8
0
10
188.75
20
48.75
11
188.75
21
65.25
0
LINE
8
0
10
188.75
20
65.25
11
171.25
21
65.25
0
LINE
8
0
10
171.25
20
65.25
11
171.25
21
48.75
0
ENDSEC
0
EOF