0
SECTION
2
HEADER
9
$INSUNITS
70
4
0
ENDSEC
0
SECTION
2
TABLES
0
TABLE
2
LTYPE
0
LTYPE
72
65
70
64
2
CONTINUOUS
3
______
73
0
40
0
0
ENDTAB
0
TABLE
2
LAYER
0
ENDTAB
0
ENDSEC
0
SECTION
2
ENTITIES
0
LINE
8
0
10
225.25
20
-8.25
11
242.75
21
-8.25
0
LINE
8
0
10
242.75
20
-8.25
11
242.75
21
8.25
0
LINE
8
0
10
242.75
20
8.25
11
225.25
21
8.25
0
LINE
8
0
10
225.25
20
8.25
11
225.25
21
-8.25
0
LINE
8
0
10
225.25
20
8.75
11
242.75
21
8.75
0
LINE
8
0
10
242.75
20
8.75
11
242.75
21
25.25
0
LINE
8
0
10
242.75
20
25.25
11
225.25
21
25.25
0
LINE
8
0
10
225.25
20
25.25
11
225.25
21
8.75
0
LINE
8
0
10
225.25
20
25.75
11
242.75
21
25.75
0
LINE
8
0
10
242.75
20
25.75
11
242.75
21
42.25
0
LINE
8
0
10
242.75
20
42.25
11
225.25
21
42.25
0
LINE
8
0
10
225.25
20
42.25
11
225.25
21
25.75
0
LINE
8
0
10
207.25
20
3.65
11
224.75
21
3.65
0
LINE
8
0
10
224.75
20
3.65
11
224.75
21
20.15
0
LINE
8
0
10
224.75
20
20.15
11
207.25
21
20.15
0
LINE
8
0
10
207.25
20
20.15
11
207.25
21
3.65
0
LINE
8
0
10
207.25
20
20.65
11
224.75
21
20.65
0
LINE
8
0
10
224.75
20
20.65
11
224.75
21
37.15
0
LINE
8
0
10
224.75
20
37.15
11
207.25
21
37.15
0
LINE
8
0
10
207.25
20
37.15
11
207.25
21
20.65
0
LINE
8
0
10
207.25
20
37.65
11
224.75
21
37.65
0
LINE
8
0
10
224.75
20
37.65
11
224.75
21
54.15
0
LINE
8
0
10
224.75
20
54.15
11
207.25
21
54.15
0
LINE
8
0
10
207.25
20
54.15
11
207.25
21
37.65
0
LINE
8
0
10
189.25
20
8.75
11
206.75
21
8.75
0
LINE
8
0
10
206.75
20
8.75
11
206.75
21
25.25
0
LINE
8
0
10
206.75
20
25.25
11
189.25
21
25.25
0
LINE
8
0
10
189.25
20
25.25
11
189.25
21
8.75
0
LINE
8
0
10
189.25
20
25.75
11
206.75
21
25.75
0
LINE
8
0
10
206.75
20
25.75
11
206.75
21
42.25
0
LINE
8
0
10
206.75
20
42.25
11
189.25
21
42.25
0
LINE
8
0
10
189.25
20
42.25
11
189.25
21
25.75
0
LINE
8
0
10
189.25
20
42.75
11
206.75
21
42.75
0
LINE
8
0
10
206.75
20
42.75
11
206.75
21
59.25
0
LINE
8
0
10
206.75
20
59.25
11
189.25
21
59.25
0
LINE
8
0
10
189.25
20
59.25
11
189.25
21
42.75
0
LINE
8
0
10
171.25
20
3.65
11
188.75
21
3.65
0
LINE
8
0
10
188.75
20
3.65
11
188.75
21
20.15
0
LINE
8
0
10
188.75
20
20.15
11
171.25
21
20.15
0
LINE
8
0
10
171.25
20
20.15
11
171.25
21
3.65
0
LINE
8
0
10
171.25
20
20.65
11
188.75
21
20.65
0
LINE
8
0
10
188.75
20
20.65
11
188.75
21
37.15
0
LINE
8
0
10
188.75
20
37.15
11
171.25
21
37.15
0
LINE
8
0
10
171.25
20
37.15
11
171.25
21
20.65
0
LINE
8
0
10
171.25
20
37.65
11
188.75
21
37.65
0
LINE
8
0
10
188.75
20
37.65
11
188.75
21
54.15
0
LINE
8
0
10
188.75
20
54.15
11
171.25
21
54.15
0
LINE
8
0
10
171.25
20
54.15
11
171.25
21
37.65
0
LINE
8
0
10
153.25
20
-1.45
11
170.75
21
-1.45
0
LINE
8
0
10
170.75
20
-1.45
11
170.75
21
15.05
0
LINE
8
0
10
170.75
20
15.05
11
153.25
21
15.05
0
LINE
8
0
10
153.25
20
15.05
11
153.25
21
-1.45
0
LINE
8
0
10
153.25
20
15.55
11
170.75
21
15.55
0
LINE
8
0
10
170.75
20
15.55
11
170.75
21
32.05
0
LINE
8
0
10
170.75
20
32.05
11
153.25
21
32.05
0
LINE
8
0
10
153.25
20
32.05
11
153.25
21
15.55
0
LINE
8
0
10
153.25
20
32.55
11
170.75
21
32.55
0
LINE
8
0
10
170.75
20
32.55
11
170.75
21
49.05
0
LINE
8
0
10
170.75
20
49.05
11
153.25
21
49.05
0
LINE
8
0
10
153.25
20
49.05
11
153.25
21
32.55
0
LINE
8
0
10
156.8155296
20
-23.8440855
11
174.0496653
21
-20.8052424
0
LINE
8
0
10
174.0496653
20
-20.8052424
11
171.1844704
21
-4.5559145
0
LINE
8
0
10
171.1844704
20
-4.5559145
11
153.9503347
21
-7.5947576
0
LINE
8
0
10
153.9503347
20
-7.5947576
11
156.8155296
21
-23.8440855
0
LINE
8
0
10
140.0172523
20
-29.3458527
11
155.8776386
21
-21.9500332
0
LINE
8
0
10
155.8776386
20
-21.9500332
11
148.9044373
21
-6.9959547
0
LINE
8
0
10
148.9044373
20
-6.9959547
11
133.044051
21
-14.3917742
0
LINE
8
0
10
133.044051
20
-14.3917742
11
140.0172523
21
-29.3458527
0
ENDSEC
0
EOF