0
SECTION
2
HEADER
9
$INSUNITS
70
4
0
ENDSEC
0
SECTION
2
TABLES
0
TABLE
2
LTYPE
0
LTYPE
72
65
70
64
2
CONTINUOUS
3
______
73
0
40
0
0
ENDTAB
0
TABLE
2
LAYER
0
ENDTAB
0
ENDSEC
0
SECTION
2
ENTITIES
0
LINE
8
0
10
10.25
20
-8.75
11
66.6746824
21
-8.75
0
LINE
8
0
10
8.25
20
-6.75
11
8.25
21
40.75
0
LINE
8
0
10
10.25
20
42.75
11
24.25
21
42.75
0
LINE
8
0
10
99.75
20
41.2
11
99.75
21
50.95
0
LINE
8
0
10
28.25
20
58.05
11
42.25
21
58.05
0
LINE
8
0
10
26.25
20
44.75
11
26.25
21
56.05
0
LINE
8
0
10
46.25
20
63.15
11
61.75
21
63.15
0
LINE
8
0
10
63.75
20
61.15
11
63.75
21
60.05
0
LINE
8
0
10
44.25
20
60.05
11
44.25
21
61.15
0
LINE
8
0
10
65.75
20
58.05
11
79.75
21
58.05
0
LINE
8
0
10
81.75
20
56.05
11
81.75
21
54.95
0
LINE
8
0
10
83.75
20
52.95
11
97.75
21
52.95
0
LINE
8
0
10
67.6746824
20
-9.0179492
11
116.9251542
21
-37.4527223
0
LINE
8
0
10
122
20
-20.1754264
11
125.6751542
21
-22.2972777
0
LINE
8
0
10
119.657205
20
-36.7206715
11
126.407205
21
-25.0293285
0
LINE
8
0
10
121
20
-18.4433756
11
121
21
37.2
0
LINE
8
0
10
119
20
39.2
11
101.75
21
39.2
0
ARC
8
0
10
66.6746824
20
-10.75
40
2
50
59.9999999
51
90
0
ARC
8
0
10
117.9251542
20
-35.7206715
40
2
50
239.9999999
51
329.9999999
0
ARC
8
0
10
124.6751542
20
-24.0293285
40
2
50
329.9999999
51
59.9999999
0
ARC
8
0
10
123
20
-18.4433756
40
2
50
180
51
239.9999999
0
ARC
8
0
10
119
20
37.2
40
2
50
0
51
90
0
ARC
8
0
10
101.75
20
41.2
40
2
50
180
51
270
0
ARC
8
0
10
97.75
20
50.95
40
2
50
0
51
90
0
ARC
8
0
10
83.75
20
54.95
40
2
50
180
51
270
0
ARC
8
0
10
79.75
20
56.05
40
2
50
0
51
90
0
ARC
8
0
10
65.75
20
60.05
40
2
50
180
51
270
0
ARC
8
0
10
61.75
20
61.15
40
2
50
0
51
90
0
ARC
8
0
10
46.25
20
61.15
40
2
50
90
51
180
0
ARC
8
0
10
42.25
20
60.05
40
2
50
270
51
0
0
ARC
8
0
10
28.25
20
56.05
40
2
50
90
51
180
0
ARC
8
0
10
24.25
20
44.75
40
2
50
270
51
0
0
ARC
8
0
10
10.25
20
40.75
40
2
50
90
51
180
0
ARC
8
0
10
10.25
20
-6.75
40
2
50
180
51
270
0
ENDSEC
0
EOF