0
SECTION
2
HEADER
9
$INSUNITS
70
4
0
ENDSEC
0
SECTION
2
TABLES
0
TABLE
2
LTYPE
0
LTYPE
72
65
70
64
2
CONTINUOUS
3
______
73
0
40
0
0
ENDTAB
0
TABLE
2
LAYER
0
ENDTAB
0
ENDSEC
0
SECTION
2
ENTITIES
0
LINE
8
0
10
9.25
20
-8.25
11
26.75
21
-8.25
0
LINE
8
0
10
26.75
20
-8.25
11
26.75
21
8.25
0
LINE
8
0
10
26.75
20
8.25
11
9.25
21
8.25
0
LINE
8
0
10
9.25
20
8.25
11
9.25
21
-8.25
0
LINE
8
0
10
9.25
20
8.75
11
26.75
21
8.75
0
LINE
8
0
10
26.75
20
8.75
11
26.75
21
25.25
0
LINE
8
0
10
26.75
20
25.25
11
9.25
21
25.25
0
LINE
8
0
10
9.25
20
25.25
11
9.25
21
8.75
0
LINE
8
0
10
9.25
20
25.75
11
26.75
21
25.75
0
LINE
8
0
10
26.75
20
25.75
11
26.75
21
42.25
0
LINE
8
0
10
26.75
20
42.25
11
9.25
21
42.25
0
LINE
8
0
10
9.25
20
42.25
11
9.25
21
25.75
0
LINE
8
0
10
27.25
20
7.05
11
44.75
21
7.05
0
LINE
8
0
10
44.75
20
7.05
11
44.75
21
23.55
0
LINE
8
0
10
44.75
20
23.55
11
27.25
21
23.55
0
LINE
8
0
10
27.25
20
23.55
11
27.25
21
7.05
0
LINE
8
0
10
27.25
20
24.05
11
44.75
21
24.05
0
LINE
8
0
10
44.75
20
24.05
11
44.75
21
40.55
0
LINE
8
0
10
44.75
20
40.55
11
27.25
21
40.55
0
LINE
8
0
10
27.25
20
40.55
11
27.25
21
24.05
0
LINE
8
0
10
27.25
20
41.05
11
44.75
21
41.05
0
LINE
8
0
10
44.75
20
41.05
11
44.75
21
57.55
0
LINE
8
0
10
44.75
20
57.55
11
27.25
21
57.55
0
LINE
8
0
10
27.25
20
57.55
11
27.25
21
41.05
0
LINE
8
0
10
45.25
20
12.15
11
62.75
21
12.15
0
LINE
8
0
10
62.75
20
12.15
11
62.75
21
28.65
0
LINE
8
0
10
62.75
20
28.65
11
45.25
21
28.65
0
LINE
8
0
10
45.25
20
28.65
11
45.25
21
12.15
0
LINE
8
0
10
45.25
20
29.15
11
62.75
21
29.15
0
LINE
8
0
10
62.75
20
29.15
11
62.75
21
45.65
0
LINE
8
0
10
62.75
20
45.65
11
45.25
21
45.65
0
LINE
8
0
10
45.25
20
45.65
11
45.25
21
29.15
0
LINE
8
0
10
45.25
20
46.15
11
62.75
21
46.15
0
LINE
8
0
10
62.75
20
46.15
11
62.75
21
62.65
0
LINE
8
0
10
62.75
20
62.65
11
45.25
21
62.65
0
LINE
8
0
10
45.25
20
62.65
11
45.25
21
46.15
0
LINE
8
0
10
63.25
20
7.05
11
80.75
21
7.05
0
LINE
8
0
10
80.75
20
7.05
11
80.75
21
23.55
0
LINE
8
0
10
80.75
20
23.55
11
63.25
21
23.55
0
LINE
8
0
10
63.25
20
23.55
11
63.25
21
7.05
0
LINE
8
0
10
63.25
20
24.05
11
80.75
21
24.05
0
LINE
8
0
10
80.75
20
24.05
11
80.75
21
40.55
0
LINE
8
0
10
80.75
20
40.55
11
63.25
21
40.55
0
LINE
8
0
10
63.25
20
40.55
11
63.25
21
24.05
0
LINE
8
0
10
63.25
20
41.05
11
80.75
21
41.05
0
LINE
8
0
10
80.75
20
41.05
11
80.75
21
57.55
0
LINE
8
0
10
80.75
20
57.55
11
63.25
21
57.55
0
LINE
8
0
10
63.25
20
57.55
11
63.25
21
41.05
0
LINE
8
0
10
81.25
20
1.95
11
98.75
21
1.95
0
LINE
8
0
10
98.75
20
1.95
11
98.75
21
18.45
0
LINE
8
0
10
98.75
20
18.45
11
81.25
21
18.45
0
LINE
8
0
10
81.25
20
18.45
11
81.25
21
1.95
0
LINE
8
0
10
81.25
20
18.95
11
98.75
21
18.95
0
LINE
8
0
10
98.75
20
18.95
11
98.75
21
35.45
0
LINE
8
0
10
98.75
20
35.45
11
81.25
21
35.45
0
LINE
8
0
10
81.25
20
35.45
11
81.25
21
18.95
0
LINE
8
0
10
81.25
20
35.95
11
98.75
21
35.95
0
LINE
8
0
10
98.75
20
35.95
11
98.75
21
52.45
0
LINE
8
0
10
98.75
20
52.45
11
81.25
21
52.45
0
LINE
8
0
10
81.25
20
52.45
11
81.25
21
35.95
0
LINE
8
0
10
87.2972777
20
-19.7697096
11
102.4527223
21
-28.5197096
0
LINE
8
0
10
102.4527223
20
-28.5197096
11
110.7027223
21
-14.2302904
0
LINE
8
0
10
110.7027223
20
-14.2302904
11
95.5472777
21
-5.4802904
0
LINE
8
0
10
95.5472777
20
-5.4802904
11
87.2972777
21
-19.7697096
0
LINE
8
0
10
102.885735
20
-28.7697096
11
118.0411796
21
-37.5197096
0
LINE
8
0
10
118.0411796
20
-37.5197096
11
126.2911796
21
-23.2302904
0
LINE
8
0
10
126.2911796
20
-23.2302904
11
111.135735
21
-14.4802904
0
LINE
8
0
10
111.135735
20
-14.4802904
11
102.885735
21
-28.7697096
0
ENDSEC
0
EOF