M48
; DRILL file {KiCad (6.0.6-1)-1} date Monday, August 08, 2022 at 10:13:03 AM
; FORMAT={-:-/ absolute / inch / decimal}
; #@! TF.CreationDate,2022-08-08T10:13:03-05:00
; #@! TF.GenerationSoftware,Kicad,Pcbnew,(6.0.6-1)-1
; #@! TF.FileFunction,Plated,1,2,PTH
FMAT,2
INCH
; #@! TA.AperFunction,Plated,PTH,ComponentDrill
T1C0.0118
; #@! TA.AperFunction,Plated,PTH,ComponentDrill
T2C0.0157
; #@! TA.AperFunction,Plated,PTH,ComponentDrill
T3C0.0354
; #@! TA.AperFunction,Plated,PTH,ComponentDrill
T4C0.0433
%
G90
G05
T1
X3.9547Y-2.8976
X3.9547Y-3.5669
X3.9547Y-4.2362
X4.0315Y-2.5925
X4.0315Y-2.6417
X4.0315Y-3.2618
X4.0315Y-3.311
X4.0315Y-3.9311
X4.0315Y-3.9803
X4.1083Y-2.8976
X4.1083Y-3.5669
X4.1083Y-4.2362
X4.6634Y-2.2953
X4.6634Y-2.9646
X4.6634Y-3.6339
X4.7402Y-1.9902
X4.7402Y-2.0394
X4.7402Y-2.6594
X4.7402Y-2.7087
X4.7402Y-3.3287
X4.7402Y-3.378
X4.8169Y-2.2953
X4.8169Y-2.9646
X4.8169Y-3.6339
X5.372Y-2.0945
X5.372Y-2.7638
X5.372Y-3.4331
X5.4488Y-1.7894
X5.4488Y-1.8386
X5.4488Y-2.4587
X5.4488Y-2.5079
X5.4488Y-3.128
X5.4488Y-3.1772
X5.5256Y-2.0945
X5.5256Y-2.7638
X5.5256Y-3.4331
X6.0807Y-2.2953
X6.0807Y-2.9646
X6.0807Y-3.6339
X6.1575Y-1.9902
X6.1575Y-2.0394
X6.1575Y-2.6594
X6.1575Y-2.7087
X6.1575Y-3.3287
X6.1575Y-3.378
X6.2343Y-2.2953
X6.2343Y-2.9646
X6.2343Y-3.6339
X6.7894Y-2.4961
X6.7894Y-3.1654
X6.7894Y-3.8346
X6.8661Y-2.1909
X6.8661Y-2.2402
X6.8661Y-2.8602
X6.8661Y-2.9094
X6.8661Y-3.5295
X6.8661Y-3.5787
X6.9429Y-2.4961
X6.9429Y-3.1654
X6.9429Y-3.8346
X7.0752Y-4.846
X7.2082Y-4.9228
X7.2697Y-4.6628
X7.2943Y-4.6202
X7.689Y-5.2004
X7.8219Y-5.2771
X7.8834Y-5.0171
X7.908Y-4.9745
T2
X7.6235Y-2.6941
X7.6235Y-2.7941
X7.6235Y-2.8941
X7.6235Y-2.9941
X7.6235Y-3.0941
X7.6235Y-3.1941
X7.6235Y-3.2941
X7.6235Y-3.3941
X7.6235Y-3.4941
X7.6235Y-3.5941
X7.6235Y-3.6941
X7.6235Y-3.7941
X7.6835Y-2.6941
X7.6835Y-2.7941
X7.6835Y-2.8941
X7.6835Y-2.9941
X7.6835Y-3.0941
X7.6835Y-3.1941
X7.6835Y-3.2941
X7.6835Y-3.3941
X7.6835Y-3.4941
X7.6835Y-3.5941
X7.6835Y-3.6941
X7.6835Y-3.7941
T4
X7.3535Y-2.6941
X7.3535Y-2.6941
X7.3535Y-2.7941
X7.3535Y-2.8941
X7.3535Y-2.9941
X7.3535Y-3.0941
X7.3535Y-3.1941
X7.3535Y-3.2941
X7.3535Y-3.3941
X7.3535Y-3.4941
X7.3535Y-3.5941
X7.3535Y-3.6941
X7.3535Y-3.7941
X7.9535Y-2.6941
X7.9535Y-2.6941
X7.9535Y-2.7941
X7.9535Y-2.8941
X7.9535Y-2.9941
X7.9535Y-3.0941
X7.9535Y-3.1941
X7.9535Y-3.2941
X7.9535Y-3.3941
X7.9535Y-3.4941
X7.9535Y-3.5941
X7.9535Y-3.6941
X7.9535Y-3.7941
T3
G00X7.6142Y-4.0866
M15
G01X7.5906Y-4.0866
M16
G05
G00X7.6142Y-4.2677
M15
G01X7.5906Y-4.2677
M16
G05
G00X7.6575Y-4.0866
M15
G01X7.6339Y-4.0866
M16
G05
G00X7.6575Y-4.2677
M15
G01X7.6339Y-4.2677
M16
G05
G00X7.815Y-4.0866
M15
G01X7.7913Y-4.0866
M16
G05
G00X7.815Y-4.2677
M15
G01X7.7913Y-4.2677
M16
G05
G00X7.9331Y-4.0866
M15
G01X7.9094Y-4.0866
M16
G05
G00X7.9331Y-4.2677
M15
G01X7.9094Y-4.2677
M16
G05
T0
M30
