%TF.GenerationSoftware,KiCad,Pcbnew,(6.0.6-1)-1*%
%TF.CreationDate,2022-08-08T10:13:26-05:00*%
%TF.ProjectId,smcboard,736d6362-6f61-4726-942e-6b696361645f,v1.0.0*%
%TF.SameCoordinates,Original*%
%TF.FileFunction,Copper,L2,Bot*%
%TF.FilePolarity,Positive*%
%FSLAX46Y46*%
G04 Gerber Fmt 4.6, Leading zero omitted, Abs format (unit mm)*
G04 Created by KiCad (PCBNEW (6.0.6-1)-1) date 2022-08-08 10:13:26*
%MOMM*%
%LPD*%
G01*
G04 APERTURE LIST*
G04 Aperture macros list*
%AMRotRect*
0 Rectangle, with rotation*
0 The origin of the aperture is its center*
0 $1 length*
0 $2 width*
0 $3 Rotation angle, in degrees counterclockwise*
0 Add horizontal line*
21,1,$1,$2,0,0,$3*%
%AMFreePoly0*
4,1,6,0.600000,0.200000,0.000000,-0.400000,-0.600000,0.200000,-0.600000,0.400000,0.600000,0.400000,0.600000,0.200000,0.600000,0.200000,$1*%
%AMFreePoly1*
4,1,5,0.125000,-0.500000,-0.125000,-0.500000,-0.125000,0.500000,0.125000,0.500000,0.125000,-0.500000,0.125000,-0.500000,$1*%
%AMFreePoly2*
4,1,49,0.004773,0.123721,0.009154,0.124665,0.028961,0.117240,0.062500,0.108253,0.068237,0.102516,0.075053,0.099961,0.087617,0.083136,0.108253,0.062500,0.111178,0.051584,0.117161,0.043572,0.118539,0.024114,0.125000,0.000000,0.121239,-0.014035,0.122131,-0.026629,0.113759,-0.041951,0.108253,-0.062500,0.095644,-0.075109,0.088389,-0.088388,-0.641000,-0.817776,-0.641000,-4.770224,
0.088389,-5.499612,0.109852,-5.528356,0.124665,-5.597154,0.099961,-5.663053,0.043572,-5.705161,-0.026629,-5.710131,-0.088388,-5.676389,-0.854388,-4.910388,-0.867707,-4.892552,-0.871189,-4.889530,-0.871982,-4.886826,-0.875852,-4.881644,-0.882331,-4.851549,-0.891000,-4.822000,-0.891000,-0.766000,-0.887805,-0.743969,-0.888131,-0.739371,-0.886780,-0.736898,-0.885852,-0.730498,-0.869151,-0.704632,
-0.854388,-0.677612,-0.088388,0.088389,-0.064606,0.106147,-0.062500,0.108253,-0.061385,0.108552,-0.059644,0.109852,-0.043806,0.113262,0.000000,0.125000,0.004773,0.123721,0.004773,0.123721,$1*%
%AMFreePoly3*
4,1,6,0.600000,-0.250000,-0.600000,-0.250000,-0.600000,1.000000,0.000000,0.400000,0.600000,1.000000,0.600000,-0.250000,0.600000,-0.250000,$1*%
G04 Aperture macros list end*
%TA.AperFunction,SMDPad,CuDef*%
%ADD10R,2.600000X2.600000*%
%TD*%
%TA.AperFunction,ComponentPad*%
%ADD11R,1.650000X1.650000*%
%TD*%
%TA.AperFunction,ComponentPad*%
%ADD12C,0.600000*%
%TD*%
%TA.AperFunction,SMDPad,CuDef*%
%ADD13RotRect,2.600000X2.600000X330.000000*%
%TD*%
%TA.AperFunction,ComponentPad*%
%ADD14RotRect,1.650000X1.650000X150.000000*%
%TD*%
%TA.AperFunction,ComponentPad*%
%ADD15RotRect,1.650000X1.650000X330.000000*%
%TD*%
%TA.AperFunction,ComponentPad*%
%ADD16O,2.200000X1.600000*%
%TD*%
%TA.AperFunction,SMDPad,CuDef*%
%ADD17FreePoly0,270.000000*%
%TD*%
%TA.AperFunction,ComponentPad*%
%ADD18C,1.600000*%
%TD*%
%TA.AperFunction,SMDPad,CuDef*%
%ADD19FreePoly0,90.000000*%
%TD*%
%TA.AperFunction,SMDPad,CuDef*%
%ADD20FreePoly1,90.000000*%
%TD*%
%TA.AperFunction,SMDPad,CuDef*%
%ADD21FreePoly1,270.000000*%
%TD*%
%TA.AperFunction,ComponentPad*%
%ADD22R,1.600000X1.600000*%
%TD*%
%TA.AperFunction,ComponentPad*%
%ADD23C,0.800000*%
%TD*%
%TA.AperFunction,SMDPad,CuDef*%
%ADD24FreePoly2,270.000000*%
%TD*%
%TA.AperFunction,SMDPad,CuDef*%
%ADD25FreePoly3,90.000000*%
%TD*%
%TA.AperFunction,SMDPad,CuDef*%
%ADD26FreePoly2,90.000000*%
%TD*%
%TA.AperFunction,SMDPad,CuDef*%
%ADD27FreePoly3,270.000000*%
%TD*%
%TA.AperFunction,Conductor*%
%ADD28C,0.250000*%
%TD*%
G04 APERTURE END LIST*
D10*
%TO.P,S7,1*%
%TO.N,middle_bottom*%
X135125000Y-77250000D03*
%TO.P,S7,2*%
%TO.N,P5*%
X146675000Y-79450000D03*
%TD*%
%TO.P,S1,1*%
%TO.N,pinky_bottom*%
X99125000Y-97650000D03*
%TO.P,S1,2*%
%TO.N,P7*%
X110675000Y-99850000D03*
%TD*%
D11*
%TO.P,D6,1*%
%TO.N,P1*%
X118050000Y-58300000D03*
%TO.P,D6,2*%
%TO.N,ring_top*%
X122750000Y-58300000D03*
%TD*%
%TO.P,D7,1*%
%TO.N,P2*%
X136050000Y-87200000D03*
%TO.P,D7,2*%
%TO.N,middle_bottom*%
X140750000Y-87200000D03*
%TD*%
%TO.P,D11,1*%
%TO.N,P0*%
X154050000Y-75300000D03*
%TO.P,D11,2*%
%TO.N,index_home*%
X158750000Y-75300000D03*
%TD*%
D12*
%TO.P,REF\u002A\u002A,1*%
%TO.N,inner_bottom*%
X174400000Y-89650000D03*
%TD*%
D13*
%TO.P,S16,1*%
%TO.N,near_thumb*%
X183538767Y-113809649D03*
%TO.P,S16,2*%
%TO.N,P5*%
X192441360Y-121489905D03*
%TD*%
D11*
%TO.P,D13,1*%
%TO.N,P2*%
X172050000Y-97400000D03*
%TO.P,D13,2*%
%TO.N,inner_bottom*%
X176750000Y-97400000D03*
%TD*%
%TO.P,D3,1*%
%TO.N,P1*%
X100050000Y-73600000D03*
%TO.P,D3,2*%
%TO.N,pinky_top*%
X104750000Y-73600000D03*
%TD*%
D14*
%TO.P,D16,1*%
%TO.N,P9*%
X179364840Y-122889102D03*
D15*
%TO.P,D16,2*%
%TO.N,near_thumb*%
X183435160Y-125239102D03*
%TD*%
D12*
%TO.P,REF\u002A\u002A,1*%
%TO.N,P4*%
X156400000Y-85800000D03*
%TD*%
%TO.P,REF\u002A\u002A,1*%
%TO.N,P3*%
X174400000Y-90900000D03*
%TD*%
%TO.P,REF\u002A\u002A,1*%
%TO.N,P6*%
X120400000Y-85800000D03*
%TD*%
D11*
%TO.P,D12,1*%
%TO.N,P1*%
X154050000Y-58300000D03*
%TO.P,D12,2*%
%TO.N,index_top*%
X158750000Y-58300000D03*
%TD*%
D12*
%TO.P,REF\u002A\u002A,1*%
%TO.N,pinky_bottom*%
X102400000Y-99850000D03*
%TD*%
%TO.P,REF\u002A\u002A,1*%
%TO.N,inner_top*%
X174400000Y-55650000D03*
%TD*%
%TO.P,REF\u002A\u002A,1*%
%TO.N,ring_bottom*%
X120400000Y-84550000D03*
%TD*%
%TO.P,REF\u002A\u002A,1*%
%TO.N,P6*%
X120400000Y-51800000D03*
%TD*%
%TO.P,REF\u002A\u002A,1*%
%TO.N,index_home*%
X156400000Y-67550000D03*
%TD*%
D10*
%TO.P,S3,1*%
%TO.N,pinky_top*%
X99125000Y-63650000D03*
%TO.P,S3,2*%
%TO.N,P7*%
X110675000Y-65850000D03*
%TD*%
D12*
%TO.P,REF\u002A\u002A,1*%
%TO.N,index_bottom*%
X156400000Y-84550000D03*
%TD*%
D11*
%TO.P,D2,1*%
%TO.N,P0*%
X100050000Y-90600000D03*
%TO.P,D2,2*%
%TO.N,pinky_home*%
X104750000Y-90600000D03*
%TD*%
D12*
%TO.P,REF\u002A\u002A,1*%
%TO.N,P4*%
X156400000Y-51800000D03*
%TD*%
%TO.P,REF\u002A\u002A,1*%
%TO.N,pinky_home*%
X102400000Y-82850000D03*
%TD*%
D10*
%TO.P,S15,1*%
%TO.N,inner_top*%
X171125000Y-53450000D03*
%TO.P,S15,2*%
%TO.N,P3*%
X182675000Y-55650000D03*
%TD*%
%TO.P,S5,1*%
%TO.N,ring_home*%
X117125000Y-65350000D03*
%TO.P,S5,2*%
%TO.N,P6*%
X128675000Y-67550000D03*
%TD*%
D12*
%TO.P,REF\u002A\u002A,1*%
%TO.N,home_thumb*%
X200863457Y-126352405D03*
%TD*%
D10*
%TO.P,S10,1*%
%TO.N,index_bottom*%
X153125000Y-82350000D03*
%TO.P,S10,2*%
%TO.N,P4*%
X164675000Y-84550000D03*
%TD*%
D12*
%TO.P,REF\u002A\u002A,1*%
%TO.N,P3*%
X174400000Y-56900000D03*
%TD*%
%TO.P,REF\u002A\u002A,1*%
%TO.N,ring_top*%
X120400000Y-50550000D03*
%TD*%
D11*
%TO.P,D14,1*%
%TO.N,P0*%
X172050000Y-80400000D03*
%TO.P,D14,2*%
%TO.N,inner_home*%
X176750000Y-80400000D03*
%TD*%
D12*
%TO.P,REF\u002A\u002A,1*%
%TO.N,P5*%
X138400000Y-46700000D03*
%TD*%
D13*
%TO.P,S17,1*%
%TO.N,home_thumb*%
X199127224Y-122809649D03*
%TO.P,S17,2*%
%TO.N,P4*%
X208029817Y-130489905D03*
%TD*%
D12*
%TO.P,REF\u002A\u002A,1*%
%TO.N,middle_bottom*%
X138400000Y-79450000D03*
%TD*%
D11*
%TO.P,D5,1*%
%TO.N,P0*%
X118050000Y-75300000D03*
%TO.P,D5,2*%
%TO.N,ring_home*%
X122750000Y-75300000D03*
%TD*%
D12*
%TO.P,REF\u002A\u002A,1*%
%TO.N,P5*%
X138400000Y-63700000D03*
%TD*%
%TO.P,REF\u002A\u002A,1*%
%TO.N,inner_home*%
X174400000Y-72650000D03*
%TD*%
%TO.P,REF\u002A\u002A,1*%
%TO.N,pinky_top*%
X102400000Y-65850000D03*
%TD*%
%TO.P,REF\u002A\u002A,1*%
%TO.N,P4*%
X200238457Y-127434937D03*
%TD*%
%TO.P,REF\u002A\u002A,1*%
%TO.N,P6*%
X120400000Y-68800000D03*
%TD*%
%TO.P,REF\u002A\u002A,1*%
%TO.N,index_top*%
X156400000Y-50550000D03*
%TD*%
%TO.P,REF\u002A\u002A,1*%
%TO.N,P7*%
X102400000Y-101100000D03*
%TD*%
D11*
%TO.P,D15,1*%
%TO.N,P1*%
X172050000Y-63400000D03*
%TO.P,D15,2*%
%TO.N,inner_top*%
X176750000Y-63400000D03*
%TD*%
%TO.P,D9,1*%
%TO.N,P1*%
X136050000Y-53200000D03*
%TO.P,D9,2*%
%TO.N,middle_top*%
X140750000Y-53200000D03*
%TD*%
D10*
%TO.P,S2,1*%
%TO.N,pinky_home*%
X99125000Y-80650000D03*
%TO.P,S2,2*%
%TO.N,P7*%
X110675000Y-82850000D03*
%TD*%
%TO.P,S14,1*%
%TO.N,inner_home*%
X171125000Y-70450000D03*
%TO.P,S14,2*%
%TO.N,P3*%
X182675000Y-72650000D03*
%TD*%
D12*
%TO.P,REF\u002A\u002A,1*%
%TO.N,middle_home*%
X138400000Y-62450000D03*
%TD*%
%TO.P,REF\u002A\u002A,1*%
%TO.N,P7*%
X102400000Y-84100000D03*
%TD*%
D10*
%TO.P,S13,1*%
%TO.N,inner_bottom*%
X171125000Y-87450000D03*
%TO.P,S13,2*%
%TO.N,P3*%
X182675000Y-89650000D03*
%TD*%
D11*
%TO.P,D8,1*%
%TO.N,P0*%
X136050000Y-70200000D03*
%TO.P,D8,2*%
%TO.N,middle_home*%
X140750000Y-70200000D03*
%TD*%
D16*
%TO.P,REF\u002A\u002A,1*%
%TO.N,VCC*%
X193100000Y-103800000D03*
X193100000Y-108400000D03*
%TO.P,REF\u002A\u002A,2*%
X194200000Y-108400000D03*
X194200000Y-103800000D03*
%TO.P,REF\u002A\u002A,3*%
%TO.N,GND*%
X198200000Y-108400000D03*
X198200000Y-103800000D03*
%TO.P,REF\u002A\u002A,4*%
%TO.N,P0*%
X201200000Y-108400000D03*
X201200000Y-103800000D03*
%TD*%
D12*
%TO.P,REF\u002A\u002A,1*%
%TO.N,P5*%
X184650000Y-118434937D03*
%TD*%
D10*
%TO.P,S8,1*%
%TO.N,middle_home*%
X135125000Y-60250000D03*
%TO.P,S8,2*%
%TO.N,P5*%
X146675000Y-62450000D03*
%TD*%
%TO.P,S6,1*%
%TO.N,ring_top*%
X117125000Y-48350000D03*
%TO.P,S6,2*%
%TO.N,P6*%
X128675000Y-50550000D03*
%TD*%
%TO.P,S4,1*%
%TO.N,ring_bottom*%
X117125000Y-82350000D03*
%TO.P,S4,2*%
%TO.N,P6*%
X128675000Y-84550000D03*
%TD*%
%TO.P,S12,1*%
%TO.N,index_top*%
X153125000Y-48350000D03*
%TO.P,S12,2*%
%TO.N,P4*%
X164675000Y-50550000D03*
%TD*%
D11*
%TO.P,D1,1*%
%TO.N,P2*%
X100050000Y-107600000D03*
%TO.P,D1,2*%
%TO.N,pinky_bottom*%
X104750000Y-107600000D03*
%TD*%
D12*
%TO.P,REF\u002A\u002A,1*%
%TO.N,P4*%
X156400000Y-68800000D03*
%TD*%
%TO.P,REF\u002A\u002A,1*%
%TO.N,middle_top*%
X138400000Y-45450000D03*
%TD*%
D10*
%TO.P,S9,1*%
%TO.N,middle_top*%
X135125000Y-43250000D03*
%TO.P,S9,2*%
%TO.N,P5*%
X146675000Y-45450000D03*
%TD*%
D12*
%TO.P,REF\u002A\u002A,1*%
%TO.N,P3*%
X174400000Y-73900000D03*
%TD*%
%TO.P,REF\u002A\u002A,1*%
%TO.N,near_thumb*%
X185275000Y-117352405D03*
%TD*%
%TO.P,REF\u002A\u002A,1*%
%TO.N,ring_home*%
X120400000Y-67550000D03*
%TD*%
%TO.P,REF\u002A\u002A,1*%
%TO.N,P7*%
X102400000Y-67100000D03*
%TD*%
%TO.P,REF\u002A\u002A,1*%
%TO.N,P5*%
X138400000Y-80700000D03*
%TD*%
D14*
%TO.P,D17,1*%
%TO.N,P9*%
X194953297Y-131889102D03*
D15*
%TO.P,D17,2*%
%TO.N,home_thumb*%
X199023617Y-134239102D03*
%TD*%
D17*
%TO.P,MCU1,*%
%TO.N,*%
X200242000Y-76050000D03*
D18*
X202020000Y-86210000D03*
X186780000Y-88750000D03*
X186780000Y-86210000D03*
X202020000Y-73510000D03*
D19*
X188558000Y-83670000D03*
D18*
X202020000Y-78590000D03*
D20*
X188050000Y-88750000D03*
D17*
X200242000Y-68430000D03*
D18*
X186780000Y-93830000D03*
D21*
X200750000Y-91290000D03*
D18*
X186780000Y-68430000D03*
X202020000Y-76050000D03*
D21*
X200750000Y-81130000D03*
D19*
X188558000Y-73510000D03*
D20*
X188050000Y-81130000D03*
X188050000Y-73510000D03*
D18*
X186780000Y-73510000D03*
D21*
X200750000Y-83670000D03*
D19*
X188558000Y-96370000D03*
D18*
X186780000Y-78590000D03*
X186780000Y-76050000D03*
D20*
X188050000Y-83670000D03*
D21*
X200750000Y-88750000D03*
D19*
X188558000Y-91290000D03*
X188558000Y-76050000D03*
D21*
X200750000Y-70970000D03*
D17*
X200242000Y-91290000D03*
D18*
X186780000Y-96370000D03*
D17*
X200242000Y-93830000D03*
D21*
X200750000Y-78590000D03*
D22*
X202020000Y-68430000D03*
D18*
X202020000Y-83670000D03*
D17*
X200242000Y-78590000D03*
D20*
X188050000Y-76050000D03*
D21*
X200750000Y-76050000D03*
D19*
X188558000Y-70970000D03*
D18*
X202020000Y-81130000D03*
D17*
X200242000Y-73510000D03*
D19*
X188558000Y-93830000D03*
D20*
X188050000Y-70970000D03*
X188050000Y-86210000D03*
D18*
X202020000Y-93830000D03*
D17*
X200242000Y-88750000D03*
D18*
X202020000Y-88750000D03*
D21*
X200750000Y-96370000D03*
D20*
X188050000Y-93830000D03*
D19*
X188558000Y-78590000D03*
D17*
X200242000Y-70970000D03*
D18*
X202020000Y-70970000D03*
D21*
X200750000Y-73510000D03*
D18*
X202020000Y-96370000D03*
X186780000Y-81130000D03*
D19*
X188558000Y-86210000D03*
D18*
X186780000Y-70970000D03*
D21*
X200750000Y-86210000D03*
X200750000Y-93830000D03*
D19*
X188558000Y-81130000D03*
D18*
X186780000Y-83670000D03*
X202020000Y-68430000D03*
X186780000Y-91290000D03*
D20*
X188050000Y-91290000D03*
D17*
X200242000Y-86210000D03*
D19*
X188558000Y-88750000D03*
D17*
X200242000Y-81130000D03*
X200242000Y-83670000D03*
D20*
X188050000Y-78590000D03*
D17*
X200242000Y-96370000D03*
D20*
X188050000Y-96370000D03*
D19*
X188558000Y-68430000D03*
D21*
X200750000Y-68430000D03*
D20*
X188050000Y-68430000D03*
D18*
X202020000Y-91290000D03*
D23*
%TO.P,MCU1,1*%
%TO.N,RAW*%
X195162000Y-68430000D03*
D24*
X195162000Y-68430000D03*
D25*
X189574000Y-68430000D03*
%TO.P,MCU1,2*%
%TO.N,N/C*%
X189574000Y-70970000D03*
D23*
%TO.N,GND*%
X195162000Y-70970000D03*
D24*
X195162000Y-70970000D03*
%TO.P,MCU1,3*%
%TO.N,RST*%
X195162000Y-73510000D03*
D25*
X189574000Y-73510000D03*
D23*
X195162000Y-73510000D03*
%TO.P,MCU1,4*%
%TO.N,VCC*%
X195162000Y-76050000D03*
D24*
X195162000Y-76050000D03*
D25*
X189574000Y-76050000D03*
D24*
%TO.P,MCU1,5*%
%TO.N,P21*%
X195162000Y-78590000D03*
D23*
X195162000Y-78590000D03*
D25*
X189574000Y-78590000D03*
%TO.P,MCU1,6*%
%TO.N,P20*%
X189574000Y-81130000D03*
D24*
X195162000Y-81130000D03*
D23*
X195162000Y-81130000D03*
D24*
%TO.P,MCU1,7*%
%TO.N,P19*%
X195162000Y-83670000D03*
D25*
X189574000Y-83670000D03*
D23*
X195162000Y-83670000D03*
D25*
%TO.P,MCU1,8*%
%TO.N,P18*%
X189574000Y-86210000D03*
D23*
X195162000Y-86210000D03*
D24*
X195162000Y-86210000D03*
D25*
%TO.P,MCU1,9*%
%TO.N,P15*%
X189574000Y-88750000D03*
D23*
X195162000Y-88750000D03*
D24*
X195162000Y-88750000D03*
D25*
%TO.P,MCU1,10*%
%TO.N,P14*%
X189574000Y-91290000D03*
D23*
X195162000Y-91290000D03*
D24*
X195162000Y-91290000D03*
D25*
%TO.P,MCU1,11*%
%TO.N,P16*%
X189574000Y-93830000D03*
D24*
X195162000Y-93830000D03*
D23*
X195162000Y-93830000D03*
D24*
%TO.P,MCU1,12*%
%TO.N,P10*%
X195162000Y-96370000D03*
D23*
X195162000Y-96370000D03*
D25*
X189574000Y-96370000D03*
D23*
%TO.P,MCU1,13*%
%TO.N,P9*%
X193638000Y-96370000D03*
D26*
X193638000Y-96370000D03*
D27*
X199226000Y-96370000D03*
D26*
%TO.P,MCU1,14*%
%TO.N,P8*%
X193638000Y-93830000D03*
D23*
X193638000Y-93830000D03*
D27*
X199226000Y-93830000D03*
%TO.P,MCU1,15*%
%TO.N,P7*%
X199226000Y-91290000D03*
D26*
X193638000Y-91290000D03*
D23*
X193638000Y-91290000D03*
%TO.P,MCU1,16*%
%TO.N,P6*%
X193638000Y-88750000D03*
D27*
X199226000Y-88750000D03*
D26*
X193638000Y-88750000D03*
D27*
%TO.P,MCU1,17*%
%TO.N,P5*%
X199226000Y-86210000D03*
D26*
X193638000Y-86210000D03*
D23*
X193638000Y-86210000D03*
%TO.P,MCU1,18*%
%TO.N,P4*%
X193638000Y-83670000D03*
D26*
X193638000Y-83670000D03*
D27*
X199226000Y-83670000D03*
D23*
%TO.P,MCU1,19*%
%TO.N,P3*%
X193638000Y-81130000D03*
D26*
X193638000Y-81130000D03*
D27*
X199226000Y-81130000D03*
D23*
%TO.P,MCU1,20*%
%TO.N,P2*%
X193638000Y-78590000D03*
D26*
X193638000Y-78590000D03*
D27*
X199226000Y-78590000D03*
D23*
%TO.P,MCU1,21*%
%TO.N,GND*%
X193638000Y-76050000D03*
D26*
X193638000Y-76050000D03*
D27*
X199226000Y-76050000D03*
%TO.P,MCU1,22*%
X199226000Y-73510000D03*
D26*
X193638000Y-73510000D03*
D23*
X193638000Y-73510000D03*
D27*
%TO.P,MCU1,23*%
%TO.N,P0*%
X199226000Y-70970000D03*
D23*
X193638000Y-70970000D03*
D26*
X193638000Y-70970000D03*
D23*
%TO.P,MCU1,24*%
%TO.N,P1*%
X193638000Y-68430000D03*
D27*
X199226000Y-68430000D03*
D26*
X193638000Y-68430000D03*
%TD*%
D10*
%TO.P,S11,1*%
%TO.N,index_home*%
X153125000Y-65350000D03*
%TO.P,S11,2*%
%TO.N,P4*%
X164675000Y-67550000D03*
%TD*%
D11*
%TO.P,D4,1*%
%TO.N,P2*%
X118050000Y-92300000D03*
%TO.P,D4,2*%
%TO.N,ring_bottom*%
X122750000Y-92300000D03*
%TD*%
%TO.P,D10,1*%
%TO.N,P2*%
X154050000Y-92300000D03*
%TO.P,D10,2*%
%TO.N,index_bottom*%
X158750000Y-92300000D03*
%TD*%
D28*
%TO.N,pinky_bottom*%
X99125000Y-97650000D02*
X99125000Y-98200001D01*
X99125000Y-97650000D02*
X101325000Y-99850000D01*
X101325000Y-99850000D02*
X102400000Y-99850000D01*
%TO.N,P7*%
X108799999Y-101725001D02*
X105727895Y-101725001D01*
X105727895Y-84725001D02*
X105102894Y-84100000D01*
X108799999Y-67725001D02*
X105727895Y-67725001D01*
X110675000Y-65850000D02*
X108799999Y-67725001D01*
X105727895Y-67725001D02*
X105102894Y-67100000D01*
X110675000Y-82850000D02*
X108799999Y-84725001D01*
X110675000Y-99850000D02*
X108799999Y-101725001D01*
X105102894Y-67100000D02*
X102400000Y-67100000D01*
X105102894Y-101100000D02*
X102400000Y-101100000D01*
X105102894Y-84100000D02*
X102400000Y-84100000D01*
X108799999Y-84725001D02*
X105727895Y-84725001D01*
X105727895Y-101725001D02*
X105102894Y-101100000D01*
%TO.N,P2*%
X172450000Y-97400000D02*
X173600000Y-98550000D01*
X159550000Y-97400000D02*
X172450000Y-97400000D01*
X130200000Y-93450000D02*
X136450000Y-87200000D01*
X154450000Y-92300000D02*
X159550000Y-97400000D01*
X107925000Y-105850000D02*
X118450000Y-95325000D01*
X118450000Y-92300000D02*
X119600000Y-93450000D01*
X184500000Y-92000000D02*
X184500000Y-81750000D01*
X100450000Y-107600000D02*
X102200000Y-105850000D01*
X119600000Y-93450000D02*
X130200000Y-93450000D01*
X118450000Y-95325000D02*
X118450000Y-92300000D01*
X192378000Y-79850000D02*
X193638000Y-78590000D01*
X184500000Y-81750000D02*
X186400000Y-79850000D01*
X141550000Y-92300000D02*
X154450000Y-92300000D01*
X177950000Y-98550000D02*
X184500000Y-92000000D01*
X186400000Y-79850000D02*
X192378000Y-79850000D01*
X102200000Y-105850000D02*
X107925000Y-105850000D01*
X136450000Y-87200000D02*
X141550000Y-92300000D01*
X173600000Y-98550000D02*
X177950000Y-98550000D01*
%TO.N,pinky_home*%
X99125000Y-80650000D02*
X101325000Y-82850000D01*
X101325000Y-82850000D02*
X102400000Y-82850000D01*
%TO.N,P0*%
X172450000Y-80400000D02*
X174360499Y-78489501D01*
X105550000Y-92100000D02*
X101950000Y-92100000D01*
X112400000Y-85250000D02*
X105550000Y-92100000D01*
X159550000Y-80400000D02*
X154450000Y-75300000D01*
X186599009Y-72100000D02*
X192508000Y-72100000D01*
X154450000Y-75300000D02*
X141550000Y-75300000D01*
X136450000Y-70200000D02*
X129800000Y-76850000D01*
X120000000Y-76850000D02*
X118450000Y-75300000D01*
X174360499Y-78489501D02*
X180209508Y-78489501D01*
X180209508Y-78489501D02*
X186599009Y-72100000D01*
X112400000Y-81350000D02*
X112400000Y-85250000D01*
X141550000Y-75300000D02*
X136450000Y-70200000D01*
X101950000Y-92100000D02*
X100450000Y-90600000D01*
X192508000Y-72100000D02*
X193638000Y-70970000D01*
X118450000Y-75300000D02*
X112400000Y-81350000D01*
X172450000Y-80400000D02*
X159550000Y-80400000D01*
X129800000Y-76850000D02*
X120000000Y-76850000D01*
%TO.N,pinky_top*%
X99125000Y-63650000D02*
X101325000Y-65850000D01*
X101325000Y-65850000D02*
X102400000Y-65850000D01*
%TO.N,P1*%
X118450000Y-58300000D02*
X119600000Y-59450000D01*
X113524999Y-63225001D02*
X118450000Y-58300000D01*
X113524999Y-66975001D02*
X113524999Y-63225001D01*
X130200000Y-59450000D02*
X136450000Y-53200000D01*
X101600000Y-74750000D02*
X105750000Y-74750000D01*
X136450000Y-53200000D02*
X141550000Y-58300000D01*
X100450000Y-73600000D02*
X101600000Y-74750000D01*
X119600000Y-59450000D02*
X130200000Y-59450000D01*
X154450000Y-58300000D02*
X159550000Y-63400000D01*
X141550000Y-58300000D02*
X154450000Y-58300000D01*
X178605000Y-69555000D02*
X192513000Y-69555000D01*
X159550000Y-63400000D02*
X172450000Y-63400000D01*
X192513000Y-69555000D02*
X193638000Y-68430000D01*
X172450000Y-63400000D02*
X178605000Y-69555000D01*
X105750000Y-74750000D02*
X113524999Y-66975001D01*
%TO.N,ring_bottom*%
X119325000Y-84550000D02*
X120400000Y-84550000D01*
X117125000Y-82350000D02*
X119325000Y-84550000D01*
%TO.N,P6*%
X123727895Y-86425001D02*
X123102894Y-85800000D01*
X128675000Y-84550000D02*
X126799999Y-86425001D01*
X123102894Y-85800000D02*
X120400000Y-85800000D01*
X128675000Y-67550000D02*
X126799999Y-69425001D01*
X123727895Y-69425001D02*
X123102894Y-68800000D01*
X126799999Y-86425001D02*
X123727895Y-86425001D01*
X128675000Y-50550000D02*
X126799999Y-52425001D01*
X126799999Y-52425001D02*
X123727895Y-52425001D01*
X126799999Y-69425001D02*
X123727895Y-69425001D01*
X123727895Y-52425001D02*
X123102894Y-51800000D01*
X123102894Y-51800000D02*
X120400000Y-51800000D01*
X123102894Y-68800000D02*
X120400000Y-68800000D01*
%TO.N,ring_home*%
X119325000Y-67550000D02*
X120400000Y-67550000D01*
X117125000Y-65350000D02*
X119325000Y-67550000D01*
%TO.N,ring_top*%
X117125000Y-48350000D02*
X119325000Y-50550000D01*
X119325000Y-50550000D02*
X120400000Y-50550000D01*
%TO.N,middle_bottom*%
X135125000Y-77250000D02*
X137325000Y-79450000D01*
X137325000Y-79450000D02*
X138400000Y-79450000D01*
%TO.N,P5*%
X192441360Y-121489905D02*
X192203859Y-121727406D01*
X146675000Y-45450000D02*
X146675000Y-47000000D01*
X187750000Y-121500000D02*
X187715063Y-121500000D01*
X141102894Y-63700000D02*
X138400000Y-63700000D01*
X192203859Y-121727406D02*
X187977406Y-121727406D01*
X141102894Y-80700000D02*
X138400000Y-80700000D01*
X187715063Y-121500000D02*
X184650000Y-118434937D01*
X146349999Y-47325001D02*
X141727895Y-47325001D01*
X190250000Y-109250000D02*
X190250000Y-100750000D01*
X146675000Y-79450000D02*
X144799999Y-81325001D01*
X144799999Y-81325001D02*
X141727895Y-81325001D01*
X202750000Y-98250000D02*
X203747865Y-97252135D01*
X202750000Y-87500000D02*
X194928000Y-87500000D01*
X192441360Y-111441360D02*
X190250000Y-109250000D01*
X192750000Y-98250000D02*
X202750000Y-98250000D01*
X141727895Y-64325001D02*
X141102894Y-63700000D01*
X144799999Y-64325001D02*
X141727895Y-64325001D01*
X190250000Y-100750000D02*
X192750000Y-98250000D01*
X141727895Y-81325001D02*
X141102894Y-80700000D01*
X141727895Y-47325001D02*
X141102894Y-46700000D01*
X203747865Y-97252135D02*
X203747865Y-88497865D01*
X146675000Y-62450000D02*
X144799999Y-64325001D01*
X141102894Y-46700000D02*
X138400000Y-46700000D01*
X194928000Y-87500000D02*
X193638000Y-86210000D01*
X192441360Y-121489905D02*
X192441360Y-111441360D01*
X203747865Y-88497865D02*
X202750000Y-87500000D01*
X187977406Y-121727406D02*
X187750000Y-121500000D01*
X146675000Y-47000000D02*
X146349999Y-47325001D01*
%TO.N,middle_home*%
X135125000Y-60250000D02*
X137325000Y-62450000D01*
X137325000Y-62450000D02*
X138400000Y-62450000D01*
%TO.N,middle_top*%
X135125000Y-43250000D02*
X137325000Y-45450000D01*
X137325000Y-45450000D02*
X138400000Y-45450000D01*
%TO.N,index_bottom*%
X155325000Y-84550000D02*
X156400000Y-84550000D01*
X153125000Y-82350000D02*
X155325000Y-84550000D01*
%TO.N,P4*%
X208029817Y-127779817D02*
X192891360Y-112641360D01*
X162799999Y-52425001D02*
X159727895Y-52425001D01*
X203750000Y-131000000D02*
X203750000Y-130946480D01*
X204045000Y-84795000D02*
X194763000Y-84795000D01*
X164675000Y-50550000D02*
X162799999Y-52425001D01*
X208029817Y-130489905D02*
X207519722Y-131000000D01*
X190700000Y-100936396D02*
X192936396Y-98700000D01*
X192891360Y-112641360D02*
X192891360Y-111254964D01*
X159727895Y-52425001D02*
X159102894Y-51800000D01*
X192936396Y-98700000D02*
X202936396Y-98700000D01*
X162799999Y-86425001D02*
X159727895Y-86425001D01*
X159102894Y-68800000D02*
X156400000Y-68800000D01*
X204250000Y-97386396D02*
X204250000Y-85000000D01*
X159102894Y-51800000D02*
X156400000Y-51800000D01*
X162799999Y-69425001D02*
X159727895Y-69425001D01*
X202936396Y-98700000D02*
X204250000Y-97386396D01*
X207519722Y-131000000D02*
X203750000Y-131000000D01*
X203750000Y-130946480D02*
X200238457Y-127434937D01*
X190700000Y-109063604D02*
X190700000Y-100936396D01*
X164675000Y-84550000D02*
X162799999Y-86425001D01*
X194763000Y-84795000D02*
X193638000Y-83670000D01*
X159727895Y-69425001D02*
X159102894Y-68800000D01*
X164675000Y-67550000D02*
X162799999Y-69425001D01*
X159102894Y-85800000D02*
X156400000Y-85800000D01*
X208029817Y-130489905D02*
X208029817Y-127779817D01*
X204250000Y-85000000D02*
X204045000Y-84795000D01*
X159727895Y-86425001D02*
X159102894Y-85800000D01*
X192891360Y-111254964D02*
X190700000Y-109063604D01*
%TO.N,index_home*%
X155325000Y-67550000D02*
X156400000Y-67550000D01*
X153125000Y-65350000D02*
X155325000Y-67550000D01*
%TO.N,index_top*%
X155325000Y-50550000D02*
X156400000Y-50550000D01*
X153125000Y-48350000D02*
X155325000Y-50550000D01*
%TO.N,inner_bottom*%
X171125000Y-87450000D02*
X173325000Y-89650000D01*
X173325000Y-89650000D02*
X174400000Y-89650000D01*
%TO.N,P3*%
X182675000Y-89650000D02*
X180799999Y-91525001D01*
X180799999Y-91525001D02*
X177727895Y-91525001D01*
X180799999Y-74525001D02*
X177727895Y-74525001D01*
X180799999Y-57525001D02*
X175325001Y-57525001D01*
X177727895Y-91525001D02*
X177102894Y-90900000D01*
X182675000Y-55650000D02*
X180799999Y-57525001D01*
X177102894Y-90900000D02*
X174400000Y-90900000D01*
X177727895Y-74525001D02*
X177102894Y-73900000D01*
X175325001Y-57525001D02*
X174700000Y-56900000D01*
X174700000Y-56900000D02*
X174400000Y-56900000D01*
X177102894Y-73900000D02*
X174400000Y-73900000D01*
X182675000Y-72650000D02*
X180799999Y-74525001D01*
%TO.N,inner_home*%
X173325000Y-72650000D02*
X174400000Y-72650000D01*
X171125000Y-70450000D02*
X173325000Y-72650000D01*
%TO.N,inner_top*%
X171125000Y-53450000D02*
X173325000Y-55650000D01*
X173325000Y-55650000D02*
X174400000Y-55650000D01*
%TO.N,near_thumb*%
X183538767Y-115616172D02*
X185275000Y-117352405D01*
X183538767Y-113809649D02*
X183538767Y-115616172D01*
%TO.N,P9*%
X179711250Y-123403754D02*
X179711250Y-123089102D01*
X188396598Y-132089102D02*
X179711250Y-123403754D01*
X179711250Y-123089102D02*
X179711250Y-121461250D01*
X179711250Y-121461250D02*
X176500000Y-118250000D01*
X195299707Y-132089102D02*
X188396598Y-132089102D01*
X176500000Y-113508000D02*
X193638000Y-96370000D01*
X176500000Y-118250000D02*
X176500000Y-113508000D01*
%TO.N,home_thumb*%
X199127224Y-122809649D02*
X199127224Y-124616172D01*
X199127224Y-124616172D02*
X200863457Y-126352405D01*
%TD*%
M02*
