%TF.GenerationSoftware,KiCad,Pcbnew,(6.0.6-1)-1*%
%TF.CreationDate,2022-08-08T10:13:26-05:00*%
%TF.ProjectId,smcboard,736d6362-6f61-4726-942e-6b696361645f,v1.0.0*%
%TF.SameCoordinates,Original*%
%TF.FileFunction,Legend,Bot*%
%TF.FilePolarity,Positive*%
%FSLAX46Y46*%
G04 Gerber Fmt 4.6, Leading zero omitted, Abs format (unit mm)*
G04 Created by KiCad (PCBNEW (6.0.6-1)-1) date 2022-08-08 10:13:26*
%MOMM*%
%LPD*%
G01*
G04 APERTURE LIST*
%ADD10C,0.200000*%
%ADD11C,0.100000*%
%ADD12C,0.150000*%
G04 APERTURE END LIST*
D10*
X138863904Y-101519523D02*
X138506761Y-101614761D01*
X137911523Y-101614761D01*
X137673428Y-101519523D01*
X137554380Y-101424285D01*
X137435333Y-101233809D01*
X137435333Y-101043333D01*
X137554380Y-100852857D01*
X137673428Y-100757619D01*
X137911523Y-100662380D01*
X138387714Y-100567142D01*
X138625809Y-100471904D01*
X138744857Y-100376666D01*
X138863904Y-100186190D01*
X138863904Y-99995714D01*
X138744857Y-99805238D01*
X138625809Y-99710000D01*
X138387714Y-99614761D01*
X137792476Y-99614761D01*
X137435333Y-99710000D01*
X136363904Y-101614761D02*
X136363904Y-99614761D01*
X135530571Y-101043333D01*
X134697238Y-99614761D01*
X134697238Y-101614761D01*
X132078190Y-101424285D02*
X132197238Y-101519523D01*
X132554380Y-101614761D01*
X132792476Y-101614761D01*
X133149619Y-101519523D01*
X133387714Y-101329047D01*
X133506761Y-101138571D01*
X133625809Y-100757619D01*
X133625809Y-100471904D01*
X133506761Y-100090952D01*
X133387714Y-99900476D01*
X133149619Y-99710000D01*
X132792476Y-99614761D01*
X132554380Y-99614761D01*
X132197238Y-99710000D01*
X132078190Y-99805238D01*
X131006761Y-101614761D02*
X131006761Y-99614761D01*
X131006761Y-100567142D02*
X129578190Y-100567142D01*
X129578190Y-101614761D02*
X129578190Y-99614761D01*
X128387714Y-99614761D02*
X128387714Y-101233809D01*
X128268666Y-101424285D01*
X128149619Y-101519523D01*
X127911523Y-101614761D01*
X127435333Y-101614761D01*
X127197238Y-101519523D01*
X127078190Y-101424285D01*
X126959142Y-101233809D01*
X126959142Y-99614761D01*
X125768666Y-101614761D02*
X125768666Y-99614761D01*
X124340095Y-101614761D01*
X124340095Y-99614761D01*
X123149619Y-101614761D02*
X123149619Y-99614761D01*
X121721047Y-101614761D01*
X121721047Y-99614761D01*
X119221047Y-101614761D02*
X120649619Y-101614761D01*
X119935333Y-101614761D02*
X119935333Y-99614761D01*
X120173428Y-99900476D01*
X120411523Y-100090952D01*
X120649619Y-100186190D01*
X116840095Y-101614761D02*
X118268666Y-101614761D01*
X117554380Y-101614761D02*
X117554380Y-99614761D01*
X117792476Y-99900476D01*
X118030571Y-100090952D01*
X118268666Y-100186190D01*
X138678571Y-103035714D02*
X138440476Y-103702380D01*
X138202380Y-103035714D01*
X137630952Y-102702380D02*
X137535714Y-102702380D01*
X137440476Y-102750000D01*
X137392857Y-102797619D01*
X137345238Y-102892857D01*
X137297619Y-103083333D01*
X137297619Y-103321428D01*
X137345238Y-103511904D01*
X137392857Y-103607142D01*
X137440476Y-103654761D01*
X137535714Y-103702380D01*
X137630952Y-103702380D01*
X137726190Y-103654761D01*
X137773809Y-103607142D01*
X137821428Y-103511904D01*
X137869047Y-103321428D01*
X137869047Y-103083333D01*
X137821428Y-102892857D01*
X137773809Y-102797619D01*
X137726190Y-102750000D01*
X137630952Y-102702380D01*
X136869047Y-103607142D02*
X136821428Y-103654761D01*
X136869047Y-103702380D01*
X136916666Y-103654761D01*
X136869047Y-103607142D01*
X136869047Y-103702380D01*
X136440476Y-102797619D02*
X136392857Y-102750000D01*
X136297619Y-102702380D01*
X136059523Y-102702380D01*
X135964285Y-102750000D01*
X135916666Y-102797619D01*
X135869047Y-102892857D01*
X135869047Y-102988095D01*
X135916666Y-103130952D01*
X136488095Y-103702380D01*
X135869047Y-103702380D01*
D11*
%TO.C,D6*%
X120050000Y-58300000D02*
X120050000Y-57750000D01*
X120650000Y-57900000D02*
X120650000Y-58700000D01*
X120650000Y-58700000D02*
X120050000Y-58300000D01*
X120050000Y-58300000D02*
X120050000Y-58850000D01*
X120650000Y-58300000D02*
X121150000Y-58300000D01*
X120050000Y-58300000D02*
X120650000Y-57900000D01*
X119650000Y-58300000D02*
X120050000Y-58300000D01*
%TO.C,D7*%
X138650000Y-86800000D02*
X138650000Y-87600000D01*
X138650000Y-87600000D02*
X138050000Y-87200000D01*
X138650000Y-87200000D02*
X139150000Y-87200000D01*
X138050000Y-87200000D02*
X138050000Y-87750000D01*
X137650000Y-87200000D02*
X138050000Y-87200000D01*
X138050000Y-87200000D02*
X138650000Y-86800000D01*
X138050000Y-87200000D02*
X138050000Y-86650000D01*
%TO.C,D11*%
X156050000Y-75300000D02*
X156050000Y-74750000D01*
X156650000Y-75300000D02*
X157150000Y-75300000D01*
X156650000Y-75700000D02*
X156050000Y-75300000D01*
X155650000Y-75300000D02*
X156050000Y-75300000D01*
X156650000Y-74900000D02*
X156650000Y-75700000D01*
X156050000Y-75300000D02*
X156650000Y-74900000D01*
X156050000Y-75300000D02*
X156050000Y-75850000D01*
%TO.C,D13*%
X174650000Y-97400000D02*
X175150000Y-97400000D01*
X174050000Y-97400000D02*
X174050000Y-97950000D01*
X174650000Y-97800000D02*
X174050000Y-97400000D01*
X174650000Y-97000000D02*
X174650000Y-97800000D01*
X174050000Y-97400000D02*
X174050000Y-96850000D01*
X173650000Y-97400000D02*
X174050000Y-97400000D01*
X174050000Y-97400000D02*
X174650000Y-97000000D01*
%TO.C,D3*%
X102650000Y-73200000D02*
X102650000Y-74000000D01*
X102050000Y-73600000D02*
X102050000Y-73050000D01*
X102050000Y-73600000D02*
X102050000Y-74150000D01*
X102650000Y-73600000D02*
X103150000Y-73600000D01*
X101650000Y-73600000D02*
X102050000Y-73600000D01*
X102650000Y-74000000D02*
X102050000Y-73600000D01*
X102050000Y-73600000D02*
X102650000Y-73200000D01*
%TO.C,D16*%
X181096891Y-123889102D02*
X181371891Y-123412788D01*
X181416506Y-124535512D02*
X181096891Y-123889102D01*
X181816506Y-123842692D02*
X181416506Y-124535512D01*
X181096891Y-123889102D02*
X180821891Y-124365416D01*
X180750481Y-123689102D02*
X181096891Y-123889102D01*
X181616506Y-124189102D02*
X182049519Y-124439102D01*
X181096891Y-123889102D02*
X181816506Y-123842692D01*
%TO.C,D12*%
X155650000Y-58300000D02*
X156050000Y-58300000D01*
X156050000Y-58300000D02*
X156050000Y-57750000D01*
X156650000Y-58300000D02*
X157150000Y-58300000D01*
X156050000Y-58300000D02*
X156650000Y-57900000D01*
X156650000Y-57900000D02*
X156650000Y-58700000D01*
X156050000Y-58300000D02*
X156050000Y-58850000D01*
X156650000Y-58700000D02*
X156050000Y-58300000D01*
%TO.C,D2*%
X102650000Y-90600000D02*
X103150000Y-90600000D01*
X102650000Y-90200000D02*
X102650000Y-91000000D01*
X102650000Y-91000000D02*
X102050000Y-90600000D01*
X102050000Y-90600000D02*
X102050000Y-91150000D01*
X102050000Y-90600000D02*
X102650000Y-90200000D01*
X102050000Y-90600000D02*
X102050000Y-90050000D01*
X101650000Y-90600000D02*
X102050000Y-90600000D01*
%TO.C,D14*%
X174650000Y-80400000D02*
X175150000Y-80400000D01*
X174650000Y-80800000D02*
X174050000Y-80400000D01*
X174650000Y-80000000D02*
X174650000Y-80800000D01*
X174050000Y-80400000D02*
X174050000Y-79850000D01*
X173650000Y-80400000D02*
X174050000Y-80400000D01*
X174050000Y-80400000D02*
X174650000Y-80000000D01*
X174050000Y-80400000D02*
X174050000Y-80950000D01*
%TO.C,D5*%
X120050000Y-75300000D02*
X120050000Y-75850000D01*
X120050000Y-75300000D02*
X120050000Y-74750000D01*
X120650000Y-74900000D02*
X120650000Y-75700000D01*
X120050000Y-75300000D02*
X120650000Y-74900000D01*
X119650000Y-75300000D02*
X120050000Y-75300000D01*
X120650000Y-75700000D02*
X120050000Y-75300000D01*
X120650000Y-75300000D02*
X121150000Y-75300000D01*
%TO.C,D15*%
X174050000Y-63400000D02*
X174050000Y-62850000D01*
X174650000Y-63000000D02*
X174650000Y-63800000D01*
X174050000Y-63400000D02*
X174050000Y-63950000D01*
X174050000Y-63400000D02*
X174650000Y-63000000D01*
X174650000Y-63800000D02*
X174050000Y-63400000D01*
X173650000Y-63400000D02*
X174050000Y-63400000D01*
X174650000Y-63400000D02*
X175150000Y-63400000D01*
%TO.C,D9*%
X138050000Y-53200000D02*
X138650000Y-52800000D01*
X138650000Y-53600000D02*
X138050000Y-53200000D01*
X137650000Y-53200000D02*
X138050000Y-53200000D01*
X138050000Y-53200000D02*
X138050000Y-53750000D01*
X138650000Y-53200000D02*
X139150000Y-53200000D01*
X138050000Y-53200000D02*
X138050000Y-52650000D01*
X138650000Y-52800000D02*
X138650000Y-53600000D01*
%TO.C,D8*%
X138050000Y-70200000D02*
X138050000Y-70750000D01*
X138650000Y-70200000D02*
X139150000Y-70200000D01*
X138050000Y-70200000D02*
X138050000Y-69650000D01*
X138650000Y-70600000D02*
X138050000Y-70200000D01*
X138650000Y-69800000D02*
X138650000Y-70600000D01*
X138050000Y-70200000D02*
X138650000Y-69800000D01*
X137650000Y-70200000D02*
X138050000Y-70200000D01*
%TO.C,D1*%
X102650000Y-108000000D02*
X102050000Y-107600000D01*
X102650000Y-107600000D02*
X103150000Y-107600000D01*
X102050000Y-107600000D02*
X102050000Y-108150000D01*
X101650000Y-107600000D02*
X102050000Y-107600000D01*
X102050000Y-107600000D02*
X102650000Y-107200000D01*
X102050000Y-107600000D02*
X102050000Y-107050000D01*
X102650000Y-107200000D02*
X102650000Y-108000000D01*
%TO.C,D17*%
X197404963Y-132842692D02*
X197004963Y-133535512D01*
X197204963Y-133189102D02*
X197637976Y-133439102D01*
X197004963Y-133535512D02*
X196685348Y-132889102D01*
X196685348Y-132889102D02*
X196960348Y-132412788D01*
X196685348Y-132889102D02*
X196410348Y-133365416D01*
X196338938Y-132689102D02*
X196685348Y-132889102D01*
X196685348Y-132889102D02*
X197404963Y-132842692D01*
D12*
%TO.C,MCU1*%
X200750000Y-69700000D02*
X203290000Y-69700000D01*
X200750000Y-67160000D02*
X200750000Y-69700000D01*
X200750000Y-67160000D02*
X203290000Y-67160000D01*
X203290000Y-69700000D02*
X203290000Y-67160000D01*
D11*
%TO.C,D4*%
X120650000Y-92700000D02*
X120050000Y-92300000D01*
X119650000Y-92300000D02*
X120050000Y-92300000D01*
X120650000Y-91900000D02*
X120650000Y-92700000D01*
X120050000Y-92300000D02*
X120050000Y-91750000D01*
X120650000Y-92300000D02*
X121150000Y-92300000D01*
X120050000Y-92300000D02*
X120050000Y-92850000D01*
X120050000Y-92300000D02*
X120650000Y-91900000D01*
%TO.C,D10*%
X156050000Y-92300000D02*
X156050000Y-92850000D01*
X156650000Y-91900000D02*
X156650000Y-92700000D01*
X156050000Y-92300000D02*
X156650000Y-91900000D01*
X156650000Y-92300000D02*
X157150000Y-92300000D01*
X156050000Y-92300000D02*
X156050000Y-91750000D01*
X156650000Y-92700000D02*
X156050000Y-92300000D01*
X155650000Y-92300000D02*
X156050000Y-92300000D01*
%TD*%
M02*
