M48
; DRILL file {KiCad (6.0.6-1)-1} date Monday, August 08, 2022 at 10:13:03 AM
; FORMAT={-:-/ absolute / inch / decimal}
; #@! TF.CreationDate,2022-08-08T10:13:03-05:00
; #@! TF.GenerationSoftware,Kicad,Pcbnew,(6.0.6-1)-1
; #@! TF.FileFunction,NonPlated,1,2,NPTH
FMAT,2
INCH
; #@! TA.AperFunction,NonPlated,NPTH,ComponentDrill
T1C0.0591
; #@! TA.AperFunction,NonPlated,NPTH,ComponentDrill
T2C0.0670
; #@! TA.AperFunction,NonPlated,NPTH,ComponentDrill
T3C0.1181
; #@! TA.AperFunction,NonPlated,NPTH,ComponentDrill
T4C0.1350
%
G90
G05
T1
X7.7087Y-4.1772
X7.9843Y-4.1772
T2
X3.815Y-2.7402
X3.815Y-3.4094
X3.815Y-4.0787
X4.248Y-2.7402
X4.248Y-3.4094
X4.248Y-4.0787
X4.5236Y-2.1378
X4.5236Y-2.8071
X4.5236Y-3.4764
X4.9567Y-2.1378
X4.9567Y-2.8071
X4.9567Y-3.4764
X5.2323Y-1.937
X5.2323Y-2.6063
X5.2323Y-3.2756
X5.6654Y-1.937
X5.6654Y-2.6063
X5.6654Y-3.2756
X5.9409Y-2.1378
X5.9409Y-2.8071
X5.9409Y-3.4764
X6.374Y-2.1378
X6.374Y-2.8071
X6.374Y-3.4764
X6.6496Y-2.3386
X6.6496Y-3.0079
X6.6496Y-3.6772
X7.0329Y-4.6398
X7.0827Y-2.3386
X7.0827Y-3.0079
X7.0827Y-3.6772
X7.408Y-4.8563
X7.6467Y-4.9941
X8.0217Y-5.2106
T3
X3.8346Y-2.5925
X3.8346Y-3.2618
X3.8346Y-3.9311
X4.0315Y-2.5059
X4.0315Y-2.5059
X4.0315Y-3.1752
X4.0315Y-3.1752
X4.0315Y-3.8445
X4.0315Y-3.8445
X4.2283Y-2.5925
X4.2283Y-3.2618
X4.2283Y-3.9311
X4.5433Y-1.9902
X4.5433Y-2.6594
X4.5433Y-3.3287
X4.7402Y-1.9035
X4.7402Y-1.9035
X4.7402Y-2.5728
X4.7402Y-2.5728
X4.7402Y-3.2421
X4.7402Y-3.2421
X4.937Y-1.9902
X4.937Y-2.6594
X4.937Y-3.3287
X5.252Y-1.7894
X5.252Y-2.4587
X5.252Y-3.128
X5.4488Y-1.7028
X5.4488Y-1.7028
X5.4488Y-2.372
X5.4488Y-2.372
X5.4488Y-3.0413
X5.4488Y-3.0413
X5.6457Y-1.7894
X5.6457Y-2.4587
X5.6457Y-3.128
X5.9606Y-1.9902
X5.9606Y-2.6594
X5.9606Y-3.3287
X6.1575Y-1.9035
X6.1575Y-1.9035
X6.1575Y-2.5728
X6.1575Y-2.5728
X6.1575Y-3.2421
X6.1575Y-3.2421
X6.3543Y-1.9902
X6.3543Y-2.6594
X6.3543Y-3.3287
X6.6693Y-2.1909
X6.6693Y-2.8602
X6.6693Y-3.5295
X6.8661Y-2.1043
X6.8661Y-2.1043
X6.8661Y-2.7736
X6.8661Y-2.7736
X6.8661Y-3.4429
X6.8661Y-3.4429
X7.063Y-2.1909
X7.063Y-2.8602
X7.063Y-3.5295
X7.1238Y-4.5217
X7.3376Y-4.5452
X7.3376Y-4.5452
X7.4648Y-4.7186
X7.7375Y-4.8761
X7.9513Y-4.8995
X7.9513Y-4.8995
X8.0785Y-5.0729
T4
X4.0315Y-2.7402
X4.0315Y-3.4094
X4.0315Y-4.0787
X4.7402Y-2.1378
X4.7402Y-2.8071
X4.7402Y-3.4764
X5.4488Y-1.937
X5.4488Y-2.6063
X5.4488Y-3.2756
X6.1575Y-2.1378
X6.1575Y-2.8071
X6.1575Y-3.4764
X6.8661Y-2.3386
X6.8661Y-3.0079
X6.8661Y-3.6772
X7.2205Y-4.748
X7.8342Y-5.1024
T0
M30
