M48
; DRILL file {KiCad (6.0.6-1)-1} date Tuesday, August 23, 2022 at 03:23:58 PM
; FORMAT={-:-/ absolute / inch / decimal}
; #@! TF.CreationDate,2022-08-23T15:23:58-05:00
; #@! TF.GenerationSoftware,Kicad,Pcbnew,(6.0.6-1)-1
; #@! TF.FileFunction,NonPlated,1,2,NPTH
FMAT,2
INCH
; #@! TA.AperFunction,NonPlated,NPTH,ComponentDrill
T1C0.0315
; #@! TA.AperFunction,NonPlated,NPTH,ComponentDrill
T2C0.0670
; #@! TA.AperFunction,NonPlated,NPTH,ComponentDrill
T3C0.1181
; #@! TA.AperFunction,NonPlated,NPTH,ComponentDrill
T4C0.1350
%
G90
G05
T1
X6.6102Y-3.8209
X6.8858Y-3.8209
T2
X2.7165Y-2.3839
X2.7165Y-3.0531
X2.7165Y-3.7224
X3.1496Y-2.3839
X3.1496Y-3.0531
X3.1496Y-3.7224
X3.4252Y-1.7815
X3.4252Y-2.4508
X3.4252Y-3.1201
X3.8583Y-1.7815
X3.8583Y-2.4508
X3.8583Y-3.1201
X4.1339Y-1.5807
X4.1339Y-2.25
X4.1339Y-2.9193
X4.5669Y-1.5807
X4.5669Y-2.25
X4.5669Y-2.9193
X4.8425Y-1.7815
X4.8425Y-2.4508
X4.8425Y-3.1201
X5.2756Y-1.7815
X5.2756Y-2.4508
X5.2756Y-3.1201
X5.5512Y-1.9823
X5.5512Y-2.6516
X5.5512Y-3.3209
X5.9345Y-4.2835
X5.9843Y-1.9823
X5.9843Y-2.6516
X5.9843Y-3.3209
X6.3096Y-4.5
X6.5482Y-4.6378
X6.9233Y-4.8543
T3
X2.7362Y-2.2362
X2.7362Y-2.9055
X2.7362Y-3.5748
X2.9331Y-2.1496
X2.9331Y-2.1496
X2.9331Y-2.8189
X2.9331Y-2.8189
X2.9331Y-3.4882
X2.9331Y-3.4882
X3.1299Y-2.2362
X3.1299Y-2.9055
X3.1299Y-3.5748
X3.4449Y-1.6339
X3.4449Y-2.3031
X3.4449Y-2.9724
X3.6417Y-1.5472
X3.6417Y-1.5472
X3.6417Y-2.2165
X3.6417Y-2.2165
X3.6417Y-2.8858
X3.6417Y-2.8858
X3.8386Y-1.6339
X3.8386Y-2.3031
X3.8386Y-2.9724
X4.1535Y-1.4331
X4.1535Y-2.1024
X4.1535Y-2.7717
X4.3504Y-1.3465
X4.3504Y-1.3465
X4.3504Y-2.0157
X4.3504Y-2.0157
X4.3504Y-2.685
X4.3504Y-2.685
X4.5472Y-1.4331
X4.5472Y-2.1024
X4.5472Y-2.7717
X4.8622Y-1.6339
X4.8622Y-2.3031
X4.8622Y-2.9724
X5.0591Y-1.5472
X5.0591Y-1.5472
X5.0591Y-2.2165
X5.0591Y-2.2165
X5.0591Y-2.8858
X5.0591Y-2.8858
X5.2559Y-1.6339
X5.2559Y-2.3031
X5.2559Y-2.9724
X5.5709Y-1.8346
X5.5709Y-2.5039
X5.5709Y-3.1732
X5.7677Y-1.748
X5.7677Y-1.748
X5.7677Y-2.4173
X5.7677Y-2.4173
X5.7677Y-3.0866
X5.7677Y-3.0866
X5.9646Y-1.8346
X5.9646Y-2.5039
X5.9646Y-3.1732
X6.0254Y-4.1654
X6.2392Y-4.1889
X6.2392Y-4.1889
X6.3663Y-4.3623
X6.6391Y-4.5198
X6.8529Y-4.5432
X6.8529Y-4.5432
X6.9801Y-4.7166
T4
X2.9331Y-2.3839
X2.9331Y-3.0531
X2.9331Y-3.7224
X3.6417Y-1.7815
X3.6417Y-2.4508
X3.6417Y-3.1201
X4.3504Y-1.5807
X4.3504Y-2.25
X4.3504Y-2.9193
X5.0591Y-1.7815
X5.0591Y-2.4508
X5.0591Y-3.1201
X5.7677Y-1.9823
X5.7677Y-2.6516
X5.7677Y-3.3209
X6.122Y-4.3917
X6.7358Y-4.7461
T0
M30
