%TF.GenerationSoftware,KiCad,Pcbnew,(6.0.6-1)-1*%
%TF.CreationDate,2022-08-23T15:24:18-05:00*%
%TF.ProjectId,smcboard,736d6362-6f61-4726-942e-6b696361645f,v1.0.0*%
%TF.SameCoordinates,Original*%
%TF.FileFunction,Legend,Bot*%
%TF.FilePolarity,Positive*%
%FSLAX46Y46*%
G04 Gerber Fmt 4.6, Leading zero omitted, Abs format (unit mm)*
G04 Created by KiCad (PCBNEW (6.0.6-1)-1) date 2022-08-23 15:24:18*
%MOMM*%
%LPD*%
G01*
G04 APERTURE LIST*
%ADD10C,0.200000*%
%ADD11C,0.100000*%
%ADD12C,0.150000*%
G04 APERTURE END LIST*
D10*
X113113904Y-94019523D02*
X112756761Y-94114761D01*
X112161523Y-94114761D01*
X111923428Y-94019523D01*
X111804380Y-93924285D01*
X111685333Y-93733809D01*
X111685333Y-93543333D01*
X111804380Y-93352857D01*
X111923428Y-93257619D01*
X112161523Y-93162380D01*
X112637714Y-93067142D01*
X112875809Y-92971904D01*
X112994857Y-92876666D01*
X113113904Y-92686190D01*
X113113904Y-92495714D01*
X112994857Y-92305238D01*
X112875809Y-92210000D01*
X112637714Y-92114761D01*
X112042476Y-92114761D01*
X111685333Y-92210000D01*
X110613904Y-94114761D02*
X110613904Y-92114761D01*
X109780571Y-93543333D01*
X108947238Y-92114761D01*
X108947238Y-94114761D01*
X106328190Y-93924285D02*
X106447238Y-94019523D01*
X106804380Y-94114761D01*
X107042476Y-94114761D01*
X107399619Y-94019523D01*
X107637714Y-93829047D01*
X107756761Y-93638571D01*
X107875809Y-93257619D01*
X107875809Y-92971904D01*
X107756761Y-92590952D01*
X107637714Y-92400476D01*
X107399619Y-92210000D01*
X107042476Y-92114761D01*
X106804380Y-92114761D01*
X106447238Y-92210000D01*
X106328190Y-92305238D01*
X105256761Y-94114761D02*
X105256761Y-92114761D01*
X105256761Y-93067142D02*
X103828190Y-93067142D01*
X103828190Y-94114761D02*
X103828190Y-92114761D01*
X102637714Y-92114761D02*
X102637714Y-93733809D01*
X102518666Y-93924285D01*
X102399619Y-94019523D01*
X102161523Y-94114761D01*
X101685333Y-94114761D01*
X101447238Y-94019523D01*
X101328190Y-93924285D01*
X101209142Y-93733809D01*
X101209142Y-92114761D01*
X100018666Y-94114761D02*
X100018666Y-92114761D01*
X98590095Y-94114761D01*
X98590095Y-92114761D01*
X97399619Y-94114761D02*
X97399619Y-92114761D01*
X95971047Y-94114761D01*
X95971047Y-92114761D01*
X93471047Y-94114761D02*
X94899619Y-94114761D01*
X94185333Y-94114761D02*
X94185333Y-92114761D01*
X94423428Y-92400476D01*
X94661523Y-92590952D01*
X94899619Y-92686190D01*
X91090095Y-94114761D02*
X92518666Y-94114761D01*
X91804380Y-94114761D02*
X91804380Y-92114761D01*
X92042476Y-92400476D01*
X92280571Y-92590952D01*
X92518666Y-92686190D01*
X112928571Y-95535714D02*
X112690476Y-96202380D01*
X112452380Y-95535714D01*
X111880952Y-95202380D02*
X111785714Y-95202380D01*
X111690476Y-95250000D01*
X111642857Y-95297619D01*
X111595238Y-95392857D01*
X111547619Y-95583333D01*
X111547619Y-95821428D01*
X111595238Y-96011904D01*
X111642857Y-96107142D01*
X111690476Y-96154761D01*
X111785714Y-96202380D01*
X111880952Y-96202380D01*
X111976190Y-96154761D01*
X112023809Y-96107142D01*
X112071428Y-96011904D01*
X112119047Y-95821428D01*
X112119047Y-95583333D01*
X112071428Y-95392857D01*
X112023809Y-95297619D01*
X111976190Y-95250000D01*
X111880952Y-95202380D01*
X111119047Y-96107142D02*
X111071428Y-96154761D01*
X111119047Y-96202380D01*
X111166666Y-96154761D01*
X111119047Y-96107142D01*
X111119047Y-96202380D01*
X110738095Y-95202380D02*
X110119047Y-95202380D01*
X110452380Y-95583333D01*
X110309523Y-95583333D01*
X110214285Y-95630952D01*
X110166666Y-95678571D01*
X110119047Y-95773809D01*
X110119047Y-96011904D01*
X110166666Y-96107142D01*
X110214285Y-96154761D01*
X110309523Y-96202380D01*
X110595238Y-96202380D01*
X110690476Y-96154761D01*
X110738095Y-96107142D01*
D11*
%TO.C,D6*%
X92750000Y-49650000D02*
X92150000Y-49250000D01*
X92150000Y-49250000D02*
X92150000Y-49800000D01*
X92750000Y-49250000D02*
X93250000Y-49250000D01*
X92750000Y-48850000D02*
X92750000Y-49650000D01*
X92150000Y-49250000D02*
X92750000Y-48850000D01*
X92150000Y-49250000D02*
X92150000Y-48700000D01*
X91750000Y-49250000D02*
X92150000Y-49250000D01*
%TO.C,D14*%
X146150000Y-71350000D02*
X146750000Y-70950000D01*
X146750000Y-71750000D02*
X146150000Y-71350000D01*
X146150000Y-71350000D02*
X146150000Y-70800000D01*
X145750000Y-71350000D02*
X146150000Y-71350000D01*
X146750000Y-70950000D02*
X146750000Y-71750000D01*
X146750000Y-71350000D02*
X147250000Y-71350000D01*
X146150000Y-71350000D02*
X146150000Y-71900000D01*
%TO.C,D17*%
X168438938Y-123639102D02*
X168785348Y-123839102D01*
X168785348Y-123839102D02*
X168510348Y-124315416D01*
X169104963Y-124485512D02*
X168785348Y-123839102D01*
X169304963Y-124139102D02*
X169737976Y-124389102D01*
X168785348Y-123839102D02*
X169060348Y-123362788D01*
X168785348Y-123839102D02*
X169504963Y-123792692D01*
X169504963Y-123792692D02*
X169104963Y-124485512D01*
%TO.C,D12*%
X128750000Y-49250000D02*
X129250000Y-49250000D01*
X128750000Y-48850000D02*
X128750000Y-49650000D01*
X128150000Y-49250000D02*
X128150000Y-49800000D01*
X128750000Y-49650000D02*
X128150000Y-49250000D01*
X128150000Y-49250000D02*
X128150000Y-48700000D01*
X128150000Y-49250000D02*
X128750000Y-48850000D01*
X127750000Y-49250000D02*
X128150000Y-49250000D01*
%TO.C,D5*%
X92750000Y-66250000D02*
X93250000Y-66250000D01*
X91750000Y-66250000D02*
X92150000Y-66250000D01*
X92150000Y-66250000D02*
X92750000Y-65850000D01*
X92150000Y-66250000D02*
X92150000Y-65700000D01*
X92750000Y-65850000D02*
X92750000Y-66650000D01*
X92750000Y-66650000D02*
X92150000Y-66250000D01*
X92150000Y-66250000D02*
X92150000Y-66800000D01*
%TO.C,D2*%
X74750000Y-81150000D02*
X74750000Y-81950000D01*
X74750000Y-81950000D02*
X74150000Y-81550000D01*
X74150000Y-81550000D02*
X74750000Y-81150000D01*
X74750000Y-81550000D02*
X75250000Y-81550000D01*
X74150000Y-81550000D02*
X74150000Y-82100000D01*
X73750000Y-81550000D02*
X74150000Y-81550000D01*
X74150000Y-81550000D02*
X74150000Y-81000000D01*
%TO.C,D9*%
X110150000Y-44150000D02*
X110150000Y-43600000D01*
X110750000Y-44150000D02*
X111250000Y-44150000D01*
X109750000Y-44150000D02*
X110150000Y-44150000D01*
X110750000Y-43750000D02*
X110750000Y-44550000D01*
X110750000Y-44550000D02*
X110150000Y-44150000D01*
X110150000Y-44150000D02*
X110750000Y-43750000D01*
X110150000Y-44150000D02*
X110150000Y-44700000D01*
%TO.C,D16*%
X153196891Y-114839102D02*
X152921891Y-115315416D01*
X152850481Y-114639102D02*
X153196891Y-114839102D01*
X153516506Y-115485512D02*
X153196891Y-114839102D01*
X153916506Y-114792692D02*
X153516506Y-115485512D01*
X153716506Y-115139102D02*
X154149519Y-115389102D01*
X153196891Y-114839102D02*
X153471891Y-114362788D01*
X153196891Y-114839102D02*
X153916506Y-114792692D01*
%TO.C,D13*%
X146150000Y-88350000D02*
X146150000Y-88900000D01*
X146750000Y-88750000D02*
X146150000Y-88350000D01*
X146150000Y-88350000D02*
X146750000Y-87950000D01*
X145750000Y-88350000D02*
X146150000Y-88350000D01*
X146750000Y-87950000D02*
X146750000Y-88750000D01*
X146750000Y-88350000D02*
X147250000Y-88350000D01*
X146150000Y-88350000D02*
X146150000Y-87800000D01*
%TO.C,D10*%
X128150000Y-83250000D02*
X128150000Y-83800000D01*
X127750000Y-83250000D02*
X128150000Y-83250000D01*
X128750000Y-83250000D02*
X129250000Y-83250000D01*
X128150000Y-83250000D02*
X128150000Y-82700000D01*
X128750000Y-83650000D02*
X128150000Y-83250000D01*
X128150000Y-83250000D02*
X128750000Y-82850000D01*
X128750000Y-82850000D02*
X128750000Y-83650000D01*
D12*
%TO.C,MCU1*%
X172850000Y-58110000D02*
X175390000Y-58110000D01*
X172850000Y-58110000D02*
X172850000Y-60650000D01*
X175390000Y-60650000D02*
X175390000Y-58110000D01*
X172850000Y-60650000D02*
X175390000Y-60650000D01*
D11*
%TO.C,D7*%
X110750000Y-78150000D02*
X111250000Y-78150000D01*
X110150000Y-78150000D02*
X110150000Y-78700000D01*
X110150000Y-78150000D02*
X110750000Y-77750000D01*
X109750000Y-78150000D02*
X110150000Y-78150000D01*
X110150000Y-78150000D02*
X110150000Y-77600000D01*
X110750000Y-77750000D02*
X110750000Y-78550000D01*
X110750000Y-78550000D02*
X110150000Y-78150000D01*
%TO.C,D15*%
X146150000Y-54350000D02*
X146750000Y-53950000D01*
X146750000Y-54350000D02*
X147250000Y-54350000D01*
X146150000Y-54350000D02*
X146150000Y-53800000D01*
X145750000Y-54350000D02*
X146150000Y-54350000D01*
X146750000Y-53950000D02*
X146750000Y-54750000D01*
X146150000Y-54350000D02*
X146150000Y-54900000D01*
X146750000Y-54750000D02*
X146150000Y-54350000D01*
%TO.C,D11*%
X128750000Y-66650000D02*
X128150000Y-66250000D01*
X128150000Y-66250000D02*
X128150000Y-66800000D01*
X127750000Y-66250000D02*
X128150000Y-66250000D01*
X128150000Y-66250000D02*
X128150000Y-65700000D01*
X128750000Y-65850000D02*
X128750000Y-66650000D01*
X128750000Y-66250000D02*
X129250000Y-66250000D01*
X128150000Y-66250000D02*
X128750000Y-65850000D01*
%TO.C,D4*%
X92750000Y-83250000D02*
X93250000Y-83250000D01*
X92150000Y-83250000D02*
X92150000Y-82700000D01*
X91750000Y-83250000D02*
X92150000Y-83250000D01*
X92750000Y-83650000D02*
X92150000Y-83250000D01*
X92150000Y-83250000D02*
X92750000Y-82850000D01*
X92750000Y-82850000D02*
X92750000Y-83650000D01*
X92150000Y-83250000D02*
X92150000Y-83800000D01*
%TO.C,D3*%
X73750000Y-64550000D02*
X74150000Y-64550000D01*
X74150000Y-64550000D02*
X74750000Y-64150000D01*
X74150000Y-64550000D02*
X74150000Y-65100000D01*
X74750000Y-64550000D02*
X75250000Y-64550000D01*
X74750000Y-64150000D02*
X74750000Y-64950000D01*
X74750000Y-64950000D02*
X74150000Y-64550000D01*
X74150000Y-64550000D02*
X74150000Y-64000000D01*
%TO.C,D8*%
X110750000Y-60750000D02*
X110750000Y-61550000D01*
X109750000Y-61150000D02*
X110150000Y-61150000D01*
X110750000Y-61150000D02*
X111250000Y-61150000D01*
X110150000Y-61150000D02*
X110150000Y-60600000D01*
X110750000Y-61550000D02*
X110150000Y-61150000D01*
X110150000Y-61150000D02*
X110150000Y-61700000D01*
X110150000Y-61150000D02*
X110750000Y-60750000D01*
%TO.C,D1*%
X74150000Y-98550000D02*
X74150000Y-99100000D01*
X74750000Y-98550000D02*
X75250000Y-98550000D01*
X74150000Y-98550000D02*
X74750000Y-98150000D01*
X74750000Y-98950000D02*
X74150000Y-98550000D01*
X74150000Y-98550000D02*
X74150000Y-98000000D01*
X74750000Y-98150000D02*
X74750000Y-98950000D01*
X73750000Y-98550000D02*
X74150000Y-98550000D01*
%TD*%
M02*
