M48
; DRILL file {KiCad (6.0.6-1)-1} date Tuesday, August 23, 2022 at 03:23:58 PM
; FORMAT={-:-/ absolute / inch / decimal}
; #@! TF.CreationDate,2022-08-23T15:23:58-05:00
; #@! TF.GenerationSoftware,Kicad,Pcbnew,(6.0.6-1)-1
; #@! TF.FileFunction,Plated,1,2,PTH
FMAT,2
INCH
; #@! TA.AperFunction,Plated,PTH,ComponentDrill
T1C0.0118
; #@! TA.AperFunction,Plated,PTH,ComponentDrill
T2C0.0157
; #@! TA.AperFunction,Plated,PTH,ComponentDrill
T3C0.0354
; #@! TA.AperFunction,Plated,PTH,ComponentDrill
T4C0.0433
%
G90
G05
T1
X2.8563Y-2.5413
X2.8563Y-3.2106
X2.8563Y-3.8799
X2.9331Y-2.2362
X2.9331Y-2.2854
X2.9331Y-2.9055
X2.9331Y-2.9547
X2.9331Y-3.5748
X2.9331Y-3.624
X3.0098Y-2.5413
X3.0098Y-3.2106
X3.0098Y-3.8799
X3.565Y-1.939
X3.565Y-2.6083
X3.565Y-3.2776
X3.6417Y-1.6339
X3.6417Y-1.6831
X3.6417Y-2.3031
X3.6417Y-2.3524
X3.6417Y-2.9724
X3.6417Y-3.0217
X3.7185Y-1.939
X3.7185Y-2.6083
X3.7185Y-3.2776
X4.2736Y-1.7382
X4.2736Y-2.4075
X4.2736Y-3.0768
X4.3504Y-1.4331
X4.3504Y-1.4823
X4.3504Y-2.1024
X4.3504Y-2.1516
X4.3504Y-2.7717
X4.3504Y-2.8209
X4.4272Y-1.7382
X4.4272Y-2.4075
X4.4272Y-3.0768
X4.9823Y-1.939
X4.9823Y-2.6083
X4.9823Y-3.2776
X5.0591Y-1.6339
X5.0591Y-1.6831
X5.0591Y-2.3031
X5.0591Y-2.3524
X5.0591Y-2.9724
X5.0591Y-3.0217
X5.1358Y-1.939
X5.1358Y-2.6083
X5.1358Y-3.2776
X5.6909Y-2.1398
X5.6909Y-2.8091
X5.6909Y-3.4783
X5.7677Y-1.8346
X5.7677Y-1.8839
X5.7677Y-2.5039
X5.7677Y-2.5531
X5.7677Y-3.1732
X5.7677Y-3.2224
X5.8445Y-2.1398
X5.8445Y-2.8091
X5.8445Y-3.4783
X5.9768Y-4.4897
X6.1098Y-4.5665
X6.1713Y-4.3065
X6.1959Y-4.2639
X6.5905Y-4.8441
X6.7235Y-4.9208
X6.785Y-4.6608
X6.8096Y-4.6182
T2
X6.5251Y-2.3378
X6.5251Y-2.4378
X6.5251Y-2.5378
X6.5251Y-2.6378
X6.5251Y-2.7378
X6.5251Y-2.8378
X6.5251Y-2.9378
X6.5251Y-3.0378
X6.5251Y-3.1378
X6.5251Y-3.2378
X6.5251Y-3.3378
X6.5251Y-3.4378
X6.5851Y-2.3378
X6.5851Y-2.4378
X6.5851Y-2.5378
X6.5851Y-2.6378
X6.5851Y-2.7378
X6.5851Y-2.8378
X6.5851Y-2.9378
X6.5851Y-3.0378
X6.5851Y-3.1378
X6.5851Y-3.2378
X6.5851Y-3.3378
X6.5851Y-3.4378
T4
X6.2551Y-2.3378
X6.2551Y-2.3378
X6.2551Y-2.4378
X6.2551Y-2.5378
X6.2551Y-2.6378
X6.2551Y-2.7378
X6.2551Y-2.8378
X6.2551Y-2.9378
X6.2551Y-3.0378
X6.2551Y-3.1378
X6.2551Y-3.2378
X6.2551Y-3.3378
X6.2551Y-3.4378
X6.8551Y-2.3378
X6.8551Y-2.3378
X6.8551Y-2.4378
X6.8551Y-2.5378
X6.8551Y-2.6378
X6.8551Y-2.7378
X6.8551Y-2.8378
X6.8551Y-2.9378
X6.8551Y-3.0378
X6.8551Y-3.1378
X6.8551Y-3.2378
X6.8551Y-3.3378
X6.8551Y-3.4378
T3
G00X6.5157Y-3.7303
M15
G01X6.4921Y-3.7303
M16
G05
G00X6.5157Y-3.9114
M15
G01X6.4921Y-3.9114
M16
G05
G00X6.5591Y-3.7303
M15
G01X6.5354Y-3.7303
M16
G05
G00X6.5591Y-3.9114
M15
G01X6.5354Y-3.9114
M16
G05
G00X6.7165Y-3.7303
M15
G01X6.6929Y-3.7303
M16
G05
G00X6.7165Y-3.9114
M15
G01X6.6929Y-3.9114
M16
G05
G00X6.8346Y-3.7303
M15
G01X6.811Y-3.7303
M16
G05
G00X6.8346Y-3.9114
M15
G01X6.811Y-3.9114
M16
G05
T0
M30
