%TF.GenerationSoftware,KiCad,Pcbnew,(6.0.6-1)-1*%
%TF.CreationDate,2023-03-28T00:01:58-05:00*%
%TF.ProjectId,smcboard,736d6362-6f61-4726-942e-6b696361645f,v1.0.0*%
%TF.SameCoordinates,Original*%
%TF.FileFunction,Profile,NP*%
%FSLAX46Y46*%
G04 Gerber Fmt 4.6, Leading zero omitted, Abs format (unit mm)*
G04 Created by KiCad (PCBNEW (6.0.6-1)-1) date 2023-03-28 00:01:58*
%MOMM*%
%LPD*%
G01*
G04 APERTURE LIST*
%TA.AperFunction,Profile*%
%ADD10C,0.150000*%
%TD*%
G04 APERTURE END LIST*
D10*
X142275000Y-175500000D02*
X197480771Y-175500000D01*
X139275000Y-172500000D02*
X139275000Y-123887322D01*
X194858203Y-102100000D02*
X175691797Y-102100000D01*
X231275000Y-123800000D02*
X231275000Y-114568092D01*
X198980771Y-175901924D02*
X247175635Y-203727241D01*
X251273711Y-202629165D02*
X257773711Y-191370835D01*
X256675635Y-187272759D02*
X253775000Y-185598076D01*
X252275000Y-183000000D02*
X252275000Y-129800000D01*
X249275000Y-126800000D02*
X234275000Y-126800000D01*
X140332055Y-121601503D02*
X156777753Y-107622660D01*
X157902891Y-107022098D02*
X174873989Y-102213620D01*
X195676011Y-102213620D02*
X229092808Y-111681712D01*
X198980771Y-175901924D02*
G75*
G03*
X197480771Y-175500000I-1500000J-2598076D01*
G01*
X247175635Y-203727241D02*
G75*
G03*
X251273711Y-202629165I1500000J2598076D01*
G01*
X257773711Y-191370835D02*
G75*
G03*
X256675635Y-187272759I-2598076J1500000D01*
G01*
X252275000Y-183000000D02*
G75*
G03*
X253775000Y-185598076I3000000J0D01*
G01*
X252275000Y-129800000D02*
G75*
G03*
X249275000Y-126800000I-3000000J0D01*
G01*
X231275000Y-123800000D02*
G75*
G03*
X234275000Y-126800000I3000000J0D01*
G01*
X231275000Y-114568092D02*
G75*
G03*
X229092808Y-111681712I-3000000J0D01*
G01*
X195676011Y-102213620D02*
G75*
G03*
X194858203Y-102100000I-817808J-2886380D01*
G01*
X175691797Y-102100000D02*
G75*
G03*
X174873989Y-102213620I0J-3000000D01*
G01*
X157902891Y-107022099D02*
G75*
G03*
X156777754Y-107622660I817807J-2886379D01*
G01*
X140332055Y-121601504D02*
G75*
G03*
X139275000Y-123887322I1942945J-2285818D01*
G01*
X139275000Y-172500000D02*
G75*
G03*
X142275000Y-175500000I3000000J0D01*
G01*
M02*
