%TF.GenerationSoftware,KiCad,Pcbnew,(6.0.6-1)-1*%
%TF.CreationDate,2023-03-28T00:01:58-05:00*%
%TF.ProjectId,smcboard,736d6362-6f61-4726-942e-6b696361645f,v1.0.0*%
%TF.SameCoordinates,Original*%
%TF.FileFunction,Copper,L2,Bot*%
%TF.FilePolarity,Positive*%
%FSLAX46Y46*%
G04 Gerber Fmt 4.6, Leading zero omitted, Abs format (unit mm)*
G04 Created by KiCad (PCBNEW (6.0.6-1)-1) date 2023-03-28 00:01:58*
%MOMM*%
%LPD*%
G01*
G04 APERTURE LIST*
G04 Aperture macros list*
%AMRotRect*
0 Rectangle, with rotation*
0 The origin of the aperture is its center*
0 $1 length*
0 $2 width*
0 $3 Rotation angle, in degrees counterclockwise*
0 Add horizontal line*
21,1,$1,$2,0,0,$3*%
%AMFreePoly0*
4,1,5,0.125000,-0.500000,-0.125000,-0.500000,-0.125000,0.500000,0.125000,0.500000,0.125000,-0.500000,0.125000,-0.500000,$1*%
%AMFreePoly1*
4,1,6,0.600000,-0.250000,-0.600000,-0.250000,-0.600000,1.000000,0.000000,0.400000,0.600000,1.000000,0.600000,-0.250000,0.600000,-0.250000,$1*%
%AMFreePoly2*
4,1,6,0.600000,0.200000,0.000000,-0.400000,-0.600000,0.200000,-0.600000,0.400000,0.600000,0.400000,0.600000,0.200000,0.600000,0.200000,$1*%
%AMFreePoly3*
4,1,49,0.004773,0.123721,0.009154,0.124665,0.028961,0.117240,0.062500,0.108253,0.068237,0.102516,0.075053,0.099961,0.087617,0.083136,0.108253,0.062500,0.111178,0.051584,0.117161,0.043572,0.118539,0.024114,0.125000,0.000000,0.121239,-0.014035,0.122131,-0.026629,0.113759,-0.041951,0.108253,-0.062500,0.095644,-0.075109,0.088389,-0.088388,-0.641000,-0.817776,-0.641000,-4.770224,
0.088389,-5.499612,0.109852,-5.528356,0.124665,-5.597154,0.099961,-5.663053,0.043572,-5.705161,-0.026629,-5.710131,-0.088388,-5.676389,-0.854388,-4.910388,-0.867707,-4.892552,-0.871189,-4.889530,-0.871982,-4.886826,-0.875852,-4.881644,-0.882331,-4.851549,-0.891000,-4.822000,-0.891000,-0.766000,-0.887805,-0.743969,-0.888131,-0.739371,-0.886780,-0.736898,-0.885852,-0.730498,-0.869151,-0.704632,
-0.854388,-0.677612,-0.088388,0.088389,-0.064606,0.106147,-0.062500,0.108253,-0.061385,0.108552,-0.059644,0.109852,-0.043806,0.113262,0.000000,0.125000,0.004773,0.123721,0.004773,0.123721,$1*%
G04 Aperture macros list end*
%TA.AperFunction,ComponentPad*%
%ADD10C,1.600000*%
%TD*%
%TA.AperFunction,ComponentPad*%
%ADD11R,1.600000X1.600000*%
%TD*%
%TA.AperFunction,SMDPad,CuDef*%
%ADD12FreePoly0,90.000000*%
%TD*%
%TA.AperFunction,SMDPad,CuDef*%
%ADD13FreePoly1,90.000000*%
%TD*%
%TA.AperFunction,SMDPad,CuDef*%
%ADD14FreePoly2,90.000000*%
%TD*%
%TA.AperFunction,SMDPad,CuDef*%
%ADD15FreePoly0,270.000000*%
%TD*%
%TA.AperFunction,SMDPad,CuDef*%
%ADD16FreePoly2,270.000000*%
%TD*%
%TA.AperFunction,SMDPad,CuDef*%
%ADD17FreePoly1,270.000000*%
%TD*%
%TA.AperFunction,SMDPad,CuDef*%
%ADD18FreePoly3,90.000000*%
%TD*%
%TA.AperFunction,SMDPad,CuDef*%
%ADD19FreePoly3,270.000000*%
%TD*%
%TA.AperFunction,ComponentPad*%
%ADD20C,0.800000*%
%TD*%
%TA.AperFunction,ComponentPad*%
%ADD21R,0.900000X1.700000*%
%TD*%
%TA.AperFunction,SMDPad,CuDef*%
%ADD22R,0.700000X1.500000*%
%TD*%
%TA.AperFunction,SMDPad,CuDef*%
%ADD23R,1.000000X0.800000*%
%TD*%
%TA.AperFunction,ComponentPad*%
%ADD24C,1.000000*%
%TD*%
%TA.AperFunction,SMDPad,CuDef*%
%ADD25R,2.600000X2.600000*%
%TD*%
%TA.AperFunction,SMDPad,CuDef*%
%ADD26RotRect,2.600000X2.600000X330.000000*%
%TD*%
%TA.AperFunction,ComponentPad*%
%ADD27R,1.650000X1.650000*%
%TD*%
%TA.AperFunction,ComponentPad*%
%ADD28RotRect,1.650000X1.650000X150.000000*%
%TD*%
%TA.AperFunction,ComponentPad*%
%ADD29RotRect,1.650000X1.650000X330.000000*%
%TD*%
%TA.AperFunction,ComponentPad*%
%ADD30C,0.600000*%
%TD*%
%TA.AperFunction,ViaPad*%
%ADD31C,0.500000*%
%TD*%
%TA.AperFunction,Conductor*%
%ADD32C,0.200000*%
%TD*%
%TA.AperFunction,Conductor*%
%ADD33C,0.180000*%
%TD*%
G04 APERTURE END LIST*
D10*
%TO.P,MCU1,*%
%TO.N,*%
X233655000Y-130830000D03*
X233655000Y-133370000D03*
X233655000Y-135910000D03*
X233655000Y-138450000D03*
X233655000Y-140990000D03*
X233655000Y-143530000D03*
X233655000Y-146070000D03*
X233655000Y-148610000D03*
X233655000Y-151150000D03*
X233655000Y-153690000D03*
X233655000Y-156230000D03*
X233655000Y-158770000D03*
X248895000Y-158770000D03*
X248895000Y-156230000D03*
X248895000Y-153690000D03*
X248895000Y-151150000D03*
X248895000Y-148610000D03*
X248895000Y-146070000D03*
X248895000Y-143530000D03*
X248895000Y-140990000D03*
X248895000Y-138450000D03*
X248895000Y-135910000D03*
X248895000Y-133370000D03*
X248895000Y-130830000D03*
D11*
X248895000Y-130830000D03*
D12*
X234925000Y-130830000D03*
D13*
%TO.P,MCU1,1*%
%TO.N,RAW*%
X236449000Y-130830000D03*
D14*
%TO.P,MCU1,*%
%TO.N,*%
X235433000Y-130830000D03*
D12*
X234925000Y-133370000D03*
D14*
X235433000Y-133370000D03*
D13*
%TO.P,MCU1,2*%
%TO.N,N/C*%
X236449000Y-133370000D03*
D12*
%TO.P,MCU1,*%
%TO.N,*%
X234925000Y-135910000D03*
D14*
X235433000Y-135910000D03*
D13*
%TO.P,MCU1,3*%
%TO.N,RST*%
X236449000Y-135910000D03*
D12*
%TO.P,MCU1,*%
%TO.N,*%
X234925000Y-138450000D03*
D14*
X235433000Y-138450000D03*
D13*
%TO.P,MCU1,4*%
%TO.N,VCC*%
X236449000Y-138450000D03*
D12*
%TO.P,MCU1,*%
%TO.N,*%
X234925000Y-140990000D03*
D14*
X235433000Y-140990000D03*
D13*
%TO.P,MCU1,5*%
%TO.N,P21*%
X236449000Y-140990000D03*
D12*
%TO.P,MCU1,*%
%TO.N,*%
X234925000Y-143530000D03*
D14*
X235433000Y-143530000D03*
D13*
%TO.P,MCU1,6*%
%TO.N,P20*%
X236449000Y-143530000D03*
D12*
%TO.P,MCU1,*%
%TO.N,*%
X234925000Y-146070000D03*
D14*
X235433000Y-146070000D03*
D13*
%TO.P,MCU1,7*%
%TO.N,P19*%
X236449000Y-146070000D03*
D12*
%TO.P,MCU1,*%
%TO.N,*%
X234925000Y-148610000D03*
D14*
X235433000Y-148610000D03*
D13*
%TO.P,MCU1,8*%
%TO.N,P18*%
X236449000Y-148610000D03*
D12*
%TO.P,MCU1,*%
%TO.N,*%
X234925000Y-151150000D03*
D14*
X235433000Y-151150000D03*
D13*
%TO.P,MCU1,9*%
%TO.N,P15*%
X236449000Y-151150000D03*
D12*
%TO.P,MCU1,*%
%TO.N,*%
X234925000Y-153690000D03*
D14*
X235433000Y-153690000D03*
D13*
%TO.P,MCU1,10*%
%TO.N,P14*%
X236449000Y-153690000D03*
D12*
%TO.P,MCU1,*%
%TO.N,*%
X234925000Y-156230000D03*
D14*
X235433000Y-156230000D03*
D13*
%TO.P,MCU1,11*%
%TO.N,P16*%
X236449000Y-156230000D03*
D12*
%TO.P,MCU1,*%
%TO.N,*%
X234925000Y-158770000D03*
D14*
X235433000Y-158770000D03*
D13*
%TO.P,MCU1,12*%
%TO.N,P10*%
X236449000Y-158770000D03*
D15*
%TO.P,MCU1,*%
%TO.N,*%
X247625000Y-130830000D03*
D16*
X247117000Y-130830000D03*
D17*
%TO.P,MCU1,24*%
%TO.N,P1*%
X246101000Y-130830000D03*
%TO.P,MCU1,23*%
%TO.N,P0*%
X246101000Y-133370000D03*
D15*
%TO.P,MCU1,*%
%TO.N,*%
X247625000Y-133370000D03*
D16*
X247117000Y-133370000D03*
D17*
%TO.P,MCU1,22*%
%TO.N,GND*%
X246101000Y-135910000D03*
D15*
%TO.P,MCU1,*%
%TO.N,*%
X247625000Y-135910000D03*
D16*
X247117000Y-135910000D03*
D17*
%TO.P,MCU1,21*%
%TO.N,GND*%
X246101000Y-138450000D03*
D15*
%TO.P,MCU1,*%
%TO.N,*%
X247625000Y-138450000D03*
D16*
X247117000Y-138450000D03*
D17*
%TO.P,MCU1,20*%
%TO.N,P2*%
X246101000Y-140990000D03*
D15*
%TO.P,MCU1,*%
%TO.N,*%
X247625000Y-140990000D03*
D16*
X247117000Y-140990000D03*
D17*
%TO.P,MCU1,19*%
%TO.N,P3*%
X246101000Y-143530000D03*
D15*
%TO.P,MCU1,*%
%TO.N,*%
X247625000Y-143530000D03*
D16*
X247117000Y-143530000D03*
D17*
%TO.P,MCU1,18*%
%TO.N,P4*%
X246101000Y-146070000D03*
D15*
%TO.P,MCU1,*%
%TO.N,*%
X247625000Y-146070000D03*
D16*
X247117000Y-146070000D03*
D17*
%TO.P,MCU1,17*%
%TO.N,P5*%
X246101000Y-148610000D03*
D15*
%TO.P,MCU1,*%
%TO.N,*%
X247625000Y-148610000D03*
D16*
X247117000Y-148610000D03*
D17*
%TO.P,MCU1,16*%
%TO.N,P6*%
X246101000Y-151150000D03*
D15*
%TO.P,MCU1,*%
%TO.N,*%
X247625000Y-151150000D03*
D16*
X247117000Y-151150000D03*
D17*
%TO.P,MCU1,15*%
%TO.N,P7*%
X246101000Y-153690000D03*
D15*
%TO.P,MCU1,*%
%TO.N,*%
X247625000Y-153690000D03*
D16*
X247117000Y-153690000D03*
D17*
%TO.P,MCU1,14*%
%TO.N,P8*%
X246101000Y-156230000D03*
D15*
%TO.P,MCU1,*%
%TO.N,*%
X247625000Y-156230000D03*
D16*
X247117000Y-156230000D03*
D17*
%TO.P,MCU1,13*%
%TO.N,P9*%
X246101000Y-158770000D03*
D15*
%TO.P,MCU1,*%
%TO.N,*%
X247625000Y-158770000D03*
D16*
X247117000Y-158770000D03*
D18*
%TO.P,MCU1,23*%
%TO.N,P0*%
X240513000Y-133370000D03*
D19*
%TO.P,MCU1,2*%
%TO.N,GND*%
X242037000Y-133370000D03*
D20*
X242037000Y-133370000D03*
%TO.P,MCU1,23*%
%TO.N,P0*%
X240513000Y-133370000D03*
%TO.P,MCU1,24*%
%TO.N,P1*%
X240513000Y-130830000D03*
%TO.P,MCU1,1*%
%TO.N,RAW*%
X242037000Y-130830000D03*
D18*
%TO.P,MCU1,24*%
%TO.N,P1*%
X240513000Y-130830000D03*
D19*
%TO.P,MCU1,1*%
%TO.N,RAW*%
X242037000Y-130830000D03*
D20*
%TO.P,MCU1,22*%
%TO.N,GND*%
X240513000Y-135910000D03*
%TO.P,MCU1,3*%
%TO.N,RST*%
X242037000Y-135910000D03*
D18*
%TO.P,MCU1,22*%
%TO.N,GND*%
X240513000Y-135910000D03*
D19*
%TO.P,MCU1,3*%
%TO.N,RST*%
X242037000Y-135910000D03*
D20*
%TO.P,MCU1,21*%
%TO.N,GND*%
X240513000Y-138450000D03*
%TO.P,MCU1,4*%
%TO.N,VCC*%
X242037000Y-138450000D03*
D18*
%TO.P,MCU1,21*%
%TO.N,GND*%
X240513000Y-138450000D03*
D19*
%TO.P,MCU1,4*%
%TO.N,VCC*%
X242037000Y-138450000D03*
D20*
%TO.P,MCU1,20*%
%TO.N,P2*%
X240513000Y-140990000D03*
%TO.P,MCU1,5*%
%TO.N,P21*%
X242037000Y-140990000D03*
D18*
%TO.P,MCU1,20*%
%TO.N,P2*%
X240513000Y-140990000D03*
D19*
%TO.P,MCU1,5*%
%TO.N,P21*%
X242037000Y-140990000D03*
D20*
%TO.P,MCU1,19*%
%TO.N,P3*%
X240513000Y-143530000D03*
%TO.P,MCU1,6*%
%TO.N,P20*%
X242037000Y-143530000D03*
D18*
%TO.P,MCU1,19*%
%TO.N,P3*%
X240513000Y-143530000D03*
D19*
%TO.P,MCU1,6*%
%TO.N,P20*%
X242037000Y-143530000D03*
D20*
%TO.P,MCU1,18*%
%TO.N,P4*%
X240513000Y-146070000D03*
%TO.P,MCU1,7*%
%TO.N,P19*%
X242037000Y-146070000D03*
D18*
%TO.P,MCU1,18*%
%TO.N,P4*%
X240513000Y-146070000D03*
D19*
%TO.P,MCU1,7*%
%TO.N,P19*%
X242037000Y-146070000D03*
D20*
%TO.P,MCU1,17*%
%TO.N,P5*%
X240513000Y-148610000D03*
%TO.P,MCU1,8*%
%TO.N,P18*%
X242037000Y-148610000D03*
D18*
%TO.P,MCU1,17*%
%TO.N,P5*%
X240513000Y-148610000D03*
D19*
%TO.P,MCU1,8*%
%TO.N,P18*%
X242037000Y-148610000D03*
D20*
%TO.P,MCU1,16*%
%TO.N,P6*%
X240513000Y-151150000D03*
%TO.P,MCU1,9*%
%TO.N,P15*%
X242037000Y-151150000D03*
D18*
%TO.P,MCU1,16*%
%TO.N,P6*%
X240513000Y-151150000D03*
D19*
%TO.P,MCU1,9*%
%TO.N,P15*%
X242037000Y-151150000D03*
D20*
%TO.P,MCU1,15*%
%TO.N,P7*%
X240513000Y-153690000D03*
%TO.P,MCU1,10*%
%TO.N,P14*%
X242037000Y-153690000D03*
D18*
%TO.P,MCU1,15*%
%TO.N,P7*%
X240513000Y-153690000D03*
D19*
%TO.P,MCU1,10*%
%TO.N,P14*%
X242037000Y-153690000D03*
D20*
%TO.P,MCU1,14*%
%TO.N,P8*%
X240513000Y-156230000D03*
%TO.P,MCU1,11*%
%TO.N,P16*%
X242037000Y-156230000D03*
D18*
%TO.P,MCU1,14*%
%TO.N,P8*%
X240513000Y-156230000D03*
D19*
%TO.P,MCU1,11*%
%TO.N,P16*%
X242037000Y-156230000D03*
D20*
%TO.P,MCU1,13*%
%TO.N,P9*%
X240513000Y-158770000D03*
%TO.P,MCU1,12*%
%TO.N,P10*%
X242037000Y-158770000D03*
D18*
%TO.P,MCU1,13*%
%TO.N,P9*%
X240513000Y-158770000D03*
D19*
%TO.P,MCU1,12*%
%TO.N,P10*%
X242037000Y-158770000D03*
%TD*%
D21*
%TO.P,,1*%
%TO.N,RST*%
X217475000Y-167800000D03*
%TO.P,,2*%
%TO.N,GND*%
X221075000Y-167800000D03*
%TD*%
D22*
%TO.P,,1*%
%TO.N,pos*%
X248345000Y-172550000D03*
%TO.P,,2*%
%TO.N,RAW*%
X248345000Y-175550000D03*
%TO.P,,3*%
%TO.N,N/C*%
X248345000Y-177050000D03*
D23*
%TO.P,,*%
%TO.N,*%
X251205000Y-171150000D03*
X251205000Y-178450000D03*
X248995000Y-178450000D03*
X248995000Y-171150000D03*
%TD*%
D24*
%TO.P,,1*%
%TO.N,pos*%
X233275000Y-165050000D03*
%TO.P,,2*%
%TO.N,GND*%
X233275000Y-166550000D03*
%TD*%
D25*
%TO.P,S1,1*%
%TO.N,pinky_bottom*%
X146000000Y-160050000D03*
%TO.P,S1,2*%
%TO.N,P8*%
X157550000Y-162250000D03*
%TD*%
%TO.P,S2,1*%
%TO.N,pinky_home*%
X146000000Y-143050000D03*
%TO.P,S2,2*%
%TO.N,P8*%
X157550000Y-145250000D03*
%TD*%
%TO.P,S3,1*%
%TO.N,pinky_top*%
X146000000Y-126050000D03*
%TO.P,S3,2*%
%TO.N,P8*%
X157550000Y-128250000D03*
%TD*%
%TO.P,S4,1*%
%TO.N,ring_bottom*%
X164000000Y-144750000D03*
%TO.P,S4,2*%
%TO.N,P7*%
X175550000Y-146950000D03*
%TD*%
%TO.P,S5,1*%
%TO.N,ring_home*%
X164000000Y-127750000D03*
%TO.P,S5,2*%
%TO.N,P7*%
X175550000Y-129950000D03*
%TD*%
%TO.P,S6,1*%
%TO.N,ring_top*%
X164000000Y-110750000D03*
%TO.P,S6,2*%
%TO.N,P7*%
X175550000Y-112950000D03*
%TD*%
%TO.P,S7,1*%
%TO.N,middle_bottom*%
X182000000Y-139650000D03*
%TO.P,S7,2*%
%TO.N,P6*%
X193550000Y-141850000D03*
%TD*%
%TO.P,S8,1*%
%TO.N,middle_home*%
X182000000Y-122650000D03*
%TO.P,S8,2*%
%TO.N,P6*%
X193550000Y-124850000D03*
%TD*%
%TO.P,S9,1*%
%TO.N,middle_top*%
X182000000Y-105650000D03*
%TO.P,S9,2*%
%TO.N,P6*%
X193550000Y-107850000D03*
%TD*%
%TO.P,S10,1*%
%TO.N,index_bottom*%
X200000000Y-144750000D03*
%TO.P,S10,2*%
%TO.N,P5*%
X211550000Y-146950000D03*
%TD*%
%TO.P,S11,1*%
%TO.N,index_home*%
X200000000Y-127750000D03*
%TO.P,S11,2*%
%TO.N,P5*%
X211550000Y-129950000D03*
%TD*%
%TO.P,S12,1*%
%TO.N,index_top*%
X200000000Y-110750000D03*
%TO.P,S12,2*%
%TO.N,P5*%
X211550000Y-112950000D03*
%TD*%
%TO.P,S13,1*%
%TO.N,inner_bottom*%
X218000000Y-149850000D03*
%TO.P,S13,2*%
%TO.N,P4*%
X229550000Y-152050000D03*
%TD*%
%TO.P,S14,1*%
%TO.N,inner_home*%
X218000000Y-132850000D03*
%TO.P,S14,2*%
%TO.N,P4*%
X229550000Y-135050000D03*
%TD*%
%TO.P,S15,1*%
%TO.N,inner_top*%
X218000000Y-115850000D03*
%TO.P,S15,2*%
%TO.N,P4*%
X229550000Y-118050000D03*
%TD*%
D26*
%TO.P,S16,1*%
%TO.N,near_thumb*%
X230413767Y-176209649D03*
%TO.P,S16,2*%
%TO.N,P6*%
X239316360Y-183889905D03*
%TD*%
%TO.P,S17,1*%
%TO.N,home_thumb*%
X246002224Y-185209649D03*
%TO.P,S17,2*%
%TO.N,P5*%
X254904817Y-192889905D03*
%TD*%
D27*
%TO.P,D1,1*%
%TO.N,P3*%
X147325000Y-170000000D03*
%TO.P,D1,2*%
%TO.N,pinky_bottom*%
X151225000Y-170000000D03*
%TD*%
%TO.P,D2,1*%
%TO.N,P2*%
X147325000Y-153000000D03*
%TO.P,D2,2*%
%TO.N,pinky_home*%
X151225000Y-153000000D03*
%TD*%
%TO.P,D3,1*%
%TO.N,P1*%
X147325000Y-136000000D03*
%TO.P,D3,2*%
%TO.N,pinky_top*%
X151225000Y-136000000D03*
%TD*%
%TO.P,D4,1*%
%TO.N,P3*%
X165325000Y-154700000D03*
%TO.P,D4,2*%
%TO.N,ring_bottom*%
X169225000Y-154700000D03*
%TD*%
%TO.P,D5,1*%
%TO.N,P2*%
X165325000Y-137700000D03*
%TO.P,D5,2*%
%TO.N,ring_home*%
X169225000Y-137700000D03*
%TD*%
%TO.P,D6,1*%
%TO.N,P1*%
X165325000Y-120700000D03*
%TO.P,D6,2*%
%TO.N,ring_top*%
X169225000Y-120700000D03*
%TD*%
%TO.P,D7,1*%
%TO.N,P3*%
X183325000Y-149600000D03*
%TO.P,D7,2*%
%TO.N,middle_bottom*%
X187225000Y-149600000D03*
%TD*%
%TO.P,D8,1*%
%TO.N,P2*%
X183325000Y-132600000D03*
%TO.P,D8,2*%
%TO.N,middle_home*%
X187225000Y-132600000D03*
%TD*%
%TO.P,D9,1*%
%TO.N,P1*%
X183325000Y-115600000D03*
%TO.P,D9,2*%
%TO.N,middle_top*%
X187225000Y-115600000D03*
%TD*%
%TO.P,D10,1*%
%TO.N,P3*%
X201325000Y-154700000D03*
%TO.P,D10,2*%
%TO.N,index_bottom*%
X205225000Y-154700000D03*
%TD*%
%TO.P,D11,1*%
%TO.N,P2*%
X201325000Y-137700000D03*
%TO.P,D11,2*%
%TO.N,index_home*%
X205225000Y-137700000D03*
%TD*%
%TO.P,D12,1*%
%TO.N,P1*%
X201325000Y-120700000D03*
%TO.P,D12,2*%
%TO.N,index_top*%
X205225000Y-120700000D03*
%TD*%
%TO.P,D13,1*%
%TO.N,P3*%
X219325000Y-159800000D03*
%TO.P,D13,2*%
%TO.N,inner_bottom*%
X223225000Y-159800000D03*
%TD*%
%TO.P,D14,1*%
%TO.N,P2*%
X219325000Y-142800000D03*
%TO.P,D14,2*%
%TO.N,inner_home*%
X223225000Y-142800000D03*
%TD*%
%TO.P,D15,1*%
%TO.N,P1*%
X219325000Y-125800000D03*
%TO.P,D15,2*%
%TO.N,inner_top*%
X223225000Y-125800000D03*
%TD*%
D28*
%TO.P,D16,1*%
%TO.N,P9*%
X226586250Y-185489102D03*
D29*
%TO.P,D16,2*%
%TO.N,near_thumb*%
X229963750Y-187439102D03*
%TD*%
D28*
%TO.P,D17,1*%
%TO.N,P9*%
X242174707Y-194489102D03*
D29*
%TO.P,D17,2*%
%TO.N,home_thumb*%
X245552207Y-196439102D03*
%TD*%
D30*
%TO.P,REF\u002A\u002A,1*%
%TO.N,P8*%
X149275000Y-163500000D03*
%TD*%
%TO.P,REF\u002A\u002A,1*%
%TO.N,P8*%
X149275000Y-146500000D03*
%TD*%
%TO.P,REF\u002A\u002A,1*%
%TO.N,P8*%
X149275000Y-129500000D03*
%TD*%
%TO.P,REF\u002A\u002A,1*%
%TO.N,P7*%
X167275000Y-148200000D03*
%TD*%
%TO.P,REF\u002A\u002A,1*%
%TO.N,P7*%
X167275000Y-131200000D03*
%TD*%
%TO.P,REF\u002A\u002A,1*%
%TO.N,P7*%
X167275000Y-114200000D03*
%TD*%
%TO.P,REF\u002A\u002A,1*%
%TO.N,P6*%
X185275000Y-143100000D03*
%TD*%
%TO.P,REF\u002A\u002A,1*%
%TO.N,P6*%
X185275000Y-126100000D03*
%TD*%
%TO.P,REF\u002A\u002A,1*%
%TO.N,P6*%
X185275000Y-109100000D03*
%TD*%
%TO.P,REF\u002A\u002A,1*%
%TO.N,P5*%
X203275000Y-148200000D03*
%TD*%
%TO.P,REF\u002A\u002A,1*%
%TO.N,P5*%
X203275000Y-131200000D03*
%TD*%
%TO.P,REF\u002A\u002A,1*%
%TO.N,P5*%
X203275000Y-114200000D03*
%TD*%
%TO.P,REF\u002A\u002A,1*%
%TO.N,P4*%
X221275000Y-153300000D03*
%TD*%
%TO.P,REF\u002A\u002A,1*%
%TO.N,P4*%
X221275000Y-136300000D03*
%TD*%
%TO.P,REF\u002A\u002A,1*%
%TO.N,P4*%
X221275000Y-119300000D03*
%TD*%
%TO.P,REF\u002A\u002A,1*%
%TO.N,P6*%
X231525000Y-180834937D03*
%TD*%
%TO.P,REF\u002A\u002A,1*%
%TO.N,P5*%
X247113457Y-189834937D03*
%TD*%
%TO.P,REF\u002A\u002A,1*%
%TO.N,pinky_bottom*%
X149275000Y-162250000D03*
%TD*%
%TO.P,REF\u002A\u002A,1*%
%TO.N,pinky_home*%
X149275000Y-145250000D03*
%TD*%
%TO.P,REF\u002A\u002A,1*%
%TO.N,pinky_top*%
X149275000Y-128250000D03*
%TD*%
%TO.P,REF\u002A\u002A,1*%
%TO.N,ring_bottom*%
X167275000Y-146950000D03*
%TD*%
%TO.P,REF\u002A\u002A,1*%
%TO.N,ring_home*%
X167275000Y-129950000D03*
%TD*%
%TO.P,REF\u002A\u002A,1*%
%TO.N,ring_top*%
X167275000Y-112950000D03*
%TD*%
%TO.P,REF\u002A\u002A,1*%
%TO.N,middle_bottom*%
X185275000Y-141850000D03*
%TD*%
%TO.P,REF\u002A\u002A,1*%
%TO.N,middle_home*%
X185275000Y-124850000D03*
%TD*%
%TO.P,REF\u002A\u002A,1*%
%TO.N,middle_top*%
X185275000Y-107850000D03*
%TD*%
%TO.P,REF\u002A\u002A,1*%
%TO.N,index_bottom*%
X203275000Y-146950000D03*
%TD*%
%TO.P,REF\u002A\u002A,1*%
%TO.N,index_home*%
X203275000Y-129950000D03*
%TD*%
%TO.P,REF\u002A\u002A,1*%
%TO.N,index_top*%
X203275000Y-112950000D03*
%TD*%
%TO.P,REF\u002A\u002A,1*%
%TO.N,inner_bottom*%
X221275000Y-152050000D03*
%TD*%
%TO.P,REF\u002A\u002A,1*%
%TO.N,inner_home*%
X221275000Y-135050000D03*
%TD*%
%TO.P,REF\u002A\u002A,1*%
%TO.N,inner_top*%
X221275000Y-118050000D03*
%TD*%
%TO.P,REF\u002A\u002A,1*%
%TO.N,near_thumb*%
X232150000Y-179752405D03*
%TD*%
%TO.P,REF\u002A\u002A,1*%
%TO.N,home_thumb*%
X247738457Y-188752405D03*
%TD*%
D31*
%TO.N,RAW*%
X249500000Y-174750000D03*
%TO.N,pos*%
X250250000Y-174750000D03*
%TD*%
D32*
%TO.N,P5*%
X247113457Y-189834937D02*
X250255925Y-189834937D01*
X250255925Y-189834937D02*
X250750000Y-189340862D01*
X250750000Y-189340862D02*
X250750000Y-182000000D01*
X250250000Y-159500000D02*
X250250000Y-150750000D01*
X250750000Y-182000000D02*
X247000000Y-178250000D01*
X247000000Y-178250000D02*
X247000000Y-162750000D01*
X241653000Y-149750000D02*
X240513000Y-148610000D01*
X247000000Y-162750000D02*
X250250000Y-159500000D01*
X249250000Y-149750000D02*
X241653000Y-149750000D01*
X250250000Y-150750000D02*
X249250000Y-149750000D01*
%TO.N,P6*%
X239316360Y-183889905D02*
X239316360Y-172316360D01*
X239316360Y-172316360D02*
X234750000Y-167750000D01*
X234750000Y-167750000D02*
X234750000Y-162750000D01*
X239413000Y-152250000D02*
X240513000Y-151150000D01*
X234750000Y-162750000D02*
X232130000Y-160130000D01*
X232130000Y-160130000D02*
X232130000Y-153687649D01*
X232130000Y-153687649D02*
X233567649Y-152250000D01*
X233567649Y-152250000D02*
X239413000Y-152250000D01*
%TO.N,GND*%
X233275000Y-166550000D02*
X231750000Y-165025000D01*
X233367649Y-139750000D02*
X239213000Y-139750000D01*
X231750000Y-165025000D02*
X231750000Y-141367649D01*
X231750000Y-141367649D02*
X233367649Y-139750000D01*
X239213000Y-139750000D02*
X240513000Y-138450000D01*
%TO.N,RST*%
X217575000Y-167800000D02*
X231250000Y-154125000D01*
X231250000Y-154125000D02*
X231250000Y-136787649D01*
X231250000Y-136787649D02*
X233287649Y-134750000D01*
X233287649Y-134750000D02*
X240877000Y-134750000D01*
X240877000Y-134750000D02*
X242037000Y-135910000D01*
D33*
%TO.N,GND*%
X222225000Y-166550000D02*
X233275000Y-166550000D01*
%TO.N,pos*%
X250250000Y-174750000D02*
X250250000Y-174686827D01*
X250250000Y-174686827D02*
X248345000Y-172781827D01*
%TO.N,RAW*%
X248345000Y-175550000D02*
X248700000Y-175550000D01*
X248700000Y-175550000D02*
X249500000Y-174750000D01*
%TO.N,GND*%
X220975000Y-167800000D02*
X222225000Y-166550000D01*
%TO.N,P3*%
X183425000Y-149600000D02*
X177175000Y-155850000D01*
X177175000Y-155850000D02*
X166575000Y-155850000D01*
X166575000Y-155850000D02*
X165425000Y-154700000D01*
X188525000Y-154700000D02*
X183425000Y-149600000D01*
X201425000Y-154700000D02*
X188525000Y-154700000D01*
X160399999Y-164350001D02*
X153600000Y-171150000D01*
X148575000Y-171150000D02*
X147425000Y-170000000D01*
X165425000Y-154700000D02*
X160399999Y-159725001D01*
X153600000Y-171150000D02*
X148575000Y-171150000D01*
X160399999Y-159725001D02*
X160399999Y-164350001D01*
X206525000Y-159800000D02*
X201425000Y-154700000D01*
X219425000Y-159800000D02*
X206525000Y-159800000D01*
%TO.N,P2*%
X183425000Y-132600000D02*
X177175000Y-138850000D01*
X177175000Y-138850000D02*
X166575000Y-138850000D01*
X166575000Y-138850000D02*
X165425000Y-137700000D01*
X188525000Y-137700000D02*
X183425000Y-132600000D01*
X201425000Y-137700000D02*
X188525000Y-137700000D01*
X160399999Y-147350001D02*
X153600000Y-154150000D01*
X148575000Y-154150000D02*
X147425000Y-153000000D01*
X165425000Y-137700000D02*
X160399999Y-142725001D01*
X153600000Y-154150000D02*
X148575000Y-154150000D01*
X160399999Y-142725001D02*
X160399999Y-147350001D01*
X206525000Y-142800000D02*
X201425000Y-137700000D01*
X219425000Y-142800000D02*
X206525000Y-142800000D01*
%TO.N,P1*%
X165425000Y-120700000D02*
X160399999Y-125725001D01*
X160399999Y-130350001D02*
X153600000Y-137150000D01*
X160399999Y-125725001D02*
X160399999Y-130350001D01*
X153600000Y-137150000D02*
X148575000Y-137150000D01*
X148575000Y-137150000D02*
X147425000Y-136000000D01*
X183425000Y-115600000D02*
X177175000Y-121850000D01*
X177175000Y-121850000D02*
X166575000Y-121850000D01*
X166575000Y-121850000D02*
X165425000Y-120700000D01*
X201425000Y-120700000D02*
X188525000Y-120700000D01*
X188525000Y-120700000D02*
X183425000Y-115600000D01*
X219425000Y-125800000D02*
X206525000Y-125800000D01*
X206525000Y-125800000D02*
X201425000Y-120700000D01*
%TO.N,P9*%
X242261310Y-194539102D02*
X240690380Y-194960032D01*
X227093782Y-187110032D02*
X226672852Y-185539102D01*
X240690380Y-194960032D02*
X227093782Y-187110032D01*
%TO.N,P5*%
X252343518Y-193576203D02*
X247753585Y-190926204D01*
X247524819Y-190072437D02*
X247113457Y-189834937D01*
%TO.N,home_thumb*%
X246807480Y-188214905D02*
X247738457Y-188752405D01*
%TO.N,P5*%
X254904817Y-192889905D02*
X252343518Y-193576203D01*
X247753585Y-190926204D02*
X247524819Y-190072437D01*
%TO.N,home_thumb*%
X246002224Y-185209649D02*
X246807480Y-188214905D01*
%TO.N,P6*%
X236755061Y-184576203D02*
X232165128Y-181926204D01*
X231936362Y-181072437D02*
X231525000Y-180834937D01*
%TO.N,near_thumb*%
X231219023Y-179214905D02*
X232150000Y-179752405D01*
%TO.N,P6*%
X239316360Y-183889905D02*
X236755061Y-184576203D01*
X232165128Y-181926204D02*
X231936362Y-181072437D01*
%TO.N,near_thumb*%
X230413767Y-176209649D02*
X231219023Y-179214905D01*
%TO.N,P4*%
X222375001Y-153925001D02*
X221750000Y-153300000D01*
X221750000Y-153300000D02*
X221275000Y-153300000D01*
X227674999Y-153925001D02*
X222375001Y-153925001D01*
X229550000Y-152050000D02*
X227674999Y-153925001D01*
%TO.N,inner_bottom*%
X220200000Y-152050000D02*
X221275000Y-152050000D01*
X218000000Y-149850000D02*
X220200000Y-152050000D01*
%TO.N,P4*%
X222375001Y-136925001D02*
X221750000Y-136300000D01*
X221750000Y-136300000D02*
X221275000Y-136300000D01*
X227674999Y-136925001D02*
X222375001Y-136925001D01*
X229550000Y-135050000D02*
X227674999Y-136925001D01*
%TO.N,inner_home*%
X220200000Y-135050000D02*
X221275000Y-135050000D01*
X218000000Y-132850000D02*
X220200000Y-135050000D01*
%TO.N,P4*%
X222375001Y-119925001D02*
X221750000Y-119300000D01*
X221750000Y-119300000D02*
X221275000Y-119300000D01*
X227674999Y-119925001D02*
X222375001Y-119925001D01*
X229550000Y-118050000D02*
X227674999Y-119925001D01*
%TO.N,inner_top*%
X220200000Y-118050000D02*
X221275000Y-118050000D01*
X218000000Y-115850000D02*
X220200000Y-118050000D01*
%TO.N,P5*%
X204375001Y-148825001D02*
X203750000Y-148200000D01*
X203750000Y-148200000D02*
X203275000Y-148200000D01*
X209674999Y-148825001D02*
X204375001Y-148825001D01*
X211550000Y-146950000D02*
X209674999Y-148825001D01*
%TO.N,index_bottom*%
X202200000Y-146950000D02*
X203275000Y-146950000D01*
X200000000Y-144750000D02*
X202200000Y-146950000D01*
%TO.N,P5*%
X204375001Y-131825001D02*
X203750000Y-131200000D01*
X203750000Y-131200000D02*
X203275000Y-131200000D01*
X209674999Y-131825001D02*
X204375001Y-131825001D01*
X211550000Y-129950000D02*
X209674999Y-131825001D01*
%TO.N,index_home*%
X202200000Y-129950000D02*
X203275000Y-129950000D01*
X200000000Y-127750000D02*
X202200000Y-129950000D01*
%TO.N,P5*%
X204375001Y-114825001D02*
X203750000Y-114200000D01*
X203750000Y-114200000D02*
X203275000Y-114200000D01*
X209674999Y-114825001D02*
X204375001Y-114825001D01*
X211550000Y-112950000D02*
X209674999Y-114825001D01*
%TO.N,index_top*%
X202200000Y-112950000D02*
X203275000Y-112950000D01*
X200000000Y-110750000D02*
X202200000Y-112950000D01*
%TO.N,P6*%
X186375001Y-109725001D02*
X185750000Y-109100000D01*
X185750000Y-109100000D02*
X185275000Y-109100000D01*
X191674999Y-109725001D02*
X186375001Y-109725001D01*
X193550000Y-107850000D02*
X191674999Y-109725001D01*
%TO.N,middle_top*%
X184200000Y-107850000D02*
X185275000Y-107850000D01*
X182000000Y-105650000D02*
X184200000Y-107850000D01*
%TO.N,P6*%
X186375001Y-126725001D02*
X185750000Y-126100000D01*
X185750000Y-126100000D02*
X185275000Y-126100000D01*
X191674999Y-126725001D02*
X186375001Y-126725001D01*
X193550000Y-124850000D02*
X191674999Y-126725001D01*
%TO.N,middle_home*%
X184200000Y-124850000D02*
X185275000Y-124850000D01*
X182000000Y-122650000D02*
X184200000Y-124850000D01*
%TO.N,P6*%
X186375001Y-143725001D02*
X185750000Y-143100000D01*
X185750000Y-143100000D02*
X185275000Y-143100000D01*
X191674999Y-143725001D02*
X186375001Y-143725001D01*
X193550000Y-141850000D02*
X191674999Y-143725001D01*
%TO.N,middle_bottom*%
X184200000Y-141850000D02*
X185275000Y-141850000D01*
X182000000Y-139650000D02*
X184200000Y-141850000D01*
%TO.N,P7*%
X168375001Y-148825001D02*
X167750000Y-148200000D01*
X167750000Y-148200000D02*
X167275000Y-148200000D01*
X173674999Y-148825001D02*
X168375001Y-148825001D01*
X175550000Y-146950000D02*
X173674999Y-148825001D01*
%TO.N,ring_bottom*%
X166200000Y-146950000D02*
X167275000Y-146950000D01*
X164000000Y-144750000D02*
X166200000Y-146950000D01*
%TO.N,P7*%
X168375001Y-114825001D02*
X167750000Y-114200000D01*
X167750000Y-114200000D02*
X167275000Y-114200000D01*
X173674999Y-114825001D02*
X168375001Y-114825001D01*
X175550000Y-112950000D02*
X173674999Y-114825001D01*
%TO.N,ring_top*%
X166200000Y-112950000D02*
X167275000Y-112950000D01*
X164000000Y-110750000D02*
X166200000Y-112950000D01*
%TO.N,P7*%
X168375001Y-131825001D02*
X167750000Y-131200000D01*
X167750000Y-131200000D02*
X167275000Y-131200000D01*
X173674999Y-131825001D02*
X168375001Y-131825001D01*
X175550000Y-129950000D02*
X173674999Y-131825001D01*
%TO.N,ring_home*%
X166200000Y-129950000D02*
X167275000Y-129950000D01*
X164000000Y-127750000D02*
X166200000Y-129950000D01*
%TO.N,P8*%
X150375001Y-130125001D02*
X149750000Y-129500000D01*
X149750000Y-129500000D02*
X149275000Y-129500000D01*
X155674999Y-130125001D02*
X150375001Y-130125001D01*
X157550000Y-128250000D02*
X155674999Y-130125001D01*
%TO.N,pinky_top*%
X148200000Y-128250000D02*
X149275000Y-128250000D01*
X146000000Y-126050000D02*
X148200000Y-128250000D01*
%TO.N,P8*%
X150375001Y-147125001D02*
X149750000Y-146500000D01*
X149750000Y-146500000D02*
X149275000Y-146500000D01*
X155674999Y-147125001D02*
X150375001Y-147125001D01*
X157550000Y-145250000D02*
X155674999Y-147125001D01*
%TO.N,pinky_home*%
X148200000Y-145250000D02*
X149275000Y-145250000D01*
X146000000Y-143050000D02*
X148200000Y-145250000D01*
%TO.N,P8*%
X157550000Y-162250000D02*
X155674999Y-164125001D01*
X155674999Y-164125001D02*
X150375001Y-164125001D01*
X149750000Y-163500000D02*
X149275000Y-163500000D01*
X150375001Y-164125001D02*
X149750000Y-163500000D01*
%TO.N,pinky_bottom*%
X146000000Y-160050000D02*
X148200000Y-162250000D01*
X148200000Y-162250000D02*
X149275000Y-162250000D01*
%TD*%
M02*
