%TF.GenerationSoftware,KiCad,Pcbnew,(6.0.6-1)-1*%
%TF.CreationDate,2023-03-28T00:01:58-05:00*%
%TF.ProjectId,smcboard,736d6362-6f61-4726-942e-6b696361645f,v1.0.0*%
%TF.SameCoordinates,Original*%
%TF.FileFunction,Copper,L1,Top*%
%TF.FilePolarity,Positive*%
%FSLAX46Y46*%
G04 Gerber Fmt 4.6, Leading zero omitted, Abs format (unit mm)*
G04 Created by KiCad (PCBNEW (6.0.6-1)-1) date 2023-03-28 00:01:58*
%MOMM*%
%LPD*%
G01*
G04 APERTURE LIST*
G04 Aperture macros list*
%AMRotRect*
0 Rectangle, with rotation*
0 The origin of the aperture is its center*
0 $1 length*
0 $2 width*
0 $3 Rotation angle, in degrees counterclockwise*
0 Add horizontal line*
21,1,$1,$2,0,0,$3*%
%AMFreePoly0*
4,1,49,0.088388,4.152388,0.854389,3.386388,0.867708,3.368551,0.871189,3.365530,0.871982,3.362827,0.875852,3.357644,0.882333,3.327543,0.891000,3.298000,0.891000,0.766000,0.887805,0.743969,0.888131,0.739371,0.886780,0.736898,0.885852,0.730498,0.869154,0.704638,0.854389,0.677612,0.088388,-0.088388,0.064607,-0.106146,0.062500,-0.108253,0.061385,-0.108552,0.059644,-0.109852,
0.043810,-0.113261,0.000000,-0.125000,-0.004774,-0.123721,-0.009154,-0.124664,-0.028953,-0.117242,-0.062500,-0.108253,-0.068237,-0.102516,-0.075052,-0.099961,-0.087614,-0.083139,-0.108253,-0.062500,-0.111178,-0.051584,-0.117161,-0.043572,-0.118539,-0.024114,-0.125000,0.000000,-0.121239,0.014035,-0.122131,0.026629,-0.113759,0.041953,-0.108253,0.062500,-0.095642,0.075111,-0.088388,0.088388,
0.641000,0.817777,0.641000,3.246223,-0.088388,3.975612,-0.109852,4.004356,-0.124664,4.073154,-0.099961,4.139052,-0.043572,4.181161,0.026629,4.186131,0.088388,4.152388,0.088388,4.152388,$1*%
%AMFreePoly1*
4,1,6,0.600000,0.200000,0.000000,-0.400000,-0.600000,0.200000,-0.600000,0.400000,0.600000,0.400000,0.600000,0.200000,0.600000,0.200000,$1*%
%AMFreePoly2*
4,1,6,0.600000,-0.250000,-0.600000,-0.250000,-0.600000,1.000000,0.000000,0.400000,0.600000,1.000000,0.600000,-0.250000,0.600000,-0.250000,$1*%
%AMFreePoly3*
4,1,5,0.125000,-0.500000,-0.125000,-0.500000,-0.125000,0.500000,0.125000,0.500000,0.125000,-0.500000,0.125000,-0.500000,$1*%
%AMFreePoly4*
4,1,49,0.088388,4.152388,0.850389,3.390388,0.863708,3.372551,0.867189,3.369530,0.867982,3.366827,0.871852,3.361644,0.878333,3.331543,0.887000,3.302000,0.887000,0.762000,0.883805,0.739969,0.884131,0.735371,0.882780,0.732898,0.881852,0.726498,0.865154,0.700638,0.850389,0.673612,0.088388,-0.088388,0.064607,-0.106146,0.062500,-0.108253,0.061385,-0.108552,0.059644,-0.109852,
0.043810,-0.113261,0.000000,-0.125000,-0.004774,-0.123721,-0.009154,-0.124664,-0.028953,-0.117242,-0.062500,-0.108253,-0.068237,-0.102516,-0.075052,-0.099961,-0.087614,-0.083139,-0.108253,-0.062500,-0.111178,-0.051584,-0.117161,-0.043572,-0.118539,-0.024114,-0.125000,0.000000,-0.121239,0.014035,-0.122131,0.026629,-0.113759,0.041953,-0.108253,0.062500,-0.095642,0.075111,-0.088388,0.088388,
0.637000,0.813777,0.637000,3.250223,-0.088388,3.975612,-0.109852,4.004356,-0.124664,4.073154,-0.099961,4.139052,-0.043572,4.181161,0.026629,4.186131,0.088388,4.152388,0.088388,4.152388,$1*%
G04 Aperture macros list end*
%TA.AperFunction,SMDPad,CuDef*%
%ADD10FreePoly0,270.000000*%
%TD*%
%TA.AperFunction,ComponentPad*%
%ADD11C,1.600000*%
%TD*%
%TA.AperFunction,SMDPad,CuDef*%
%ADD12FreePoly1,90.000000*%
%TD*%
%TA.AperFunction,SMDPad,CuDef*%
%ADD13FreePoly2,90.000000*%
%TD*%
%TA.AperFunction,SMDPad,CuDef*%
%ADD14FreePoly3,90.000000*%
%TD*%
%TA.AperFunction,ComponentPad*%
%ADD15R,1.600000X1.600000*%
%TD*%
%TA.AperFunction,SMDPad,CuDef*%
%ADD16FreePoly2,270.000000*%
%TD*%
%TA.AperFunction,SMDPad,CuDef*%
%ADD17FreePoly3,270.000000*%
%TD*%
%TA.AperFunction,SMDPad,CuDef*%
%ADD18FreePoly1,270.000000*%
%TD*%
%TA.AperFunction,SMDPad,CuDef*%
%ADD19FreePoly4,90.000000*%
%TD*%
%TA.AperFunction,ComponentPad*%
%ADD20C,0.800000*%
%TD*%
%TA.AperFunction,ComponentPad*%
%ADD21R,0.900000X1.700000*%
%TD*%
%TA.AperFunction,SMDPad,CuDef*%
%ADD22R,0.700000X1.500000*%
%TD*%
%TA.AperFunction,SMDPad,CuDef*%
%ADD23R,1.000000X0.800000*%
%TD*%
%TA.AperFunction,ComponentPad*%
%ADD24C,1.000000*%
%TD*%
%TA.AperFunction,SMDPad,CuDef*%
%ADD25R,2.600000X2.600000*%
%TD*%
%TA.AperFunction,SMDPad,CuDef*%
%ADD26RotRect,2.600000X2.600000X330.000000*%
%TD*%
%TA.AperFunction,ComponentPad*%
%ADD27R,1.650000X1.650000*%
%TD*%
%TA.AperFunction,ComponentPad*%
%ADD28RotRect,1.650000X1.650000X150.000000*%
%TD*%
%TA.AperFunction,ComponentPad*%
%ADD29RotRect,1.650000X1.650000X330.000000*%
%TD*%
%TA.AperFunction,ComponentPad*%
%ADD30C,0.600000*%
%TD*%
%TA.AperFunction,ViaPad*%
%ADD31C,0.500000*%
%TD*%
%TA.AperFunction,Conductor*%
%ADD32C,0.200000*%
%TD*%
%TA.AperFunction,Conductor*%
%ADD33C,0.180000*%
%TD*%
G04 APERTURE END LIST*
D10*
%TO.P,MCU1,2*%
%TO.N,GND*%
X242037000Y-133370000D03*
D11*
%TO.P,MCU1,*%
%TO.N,*%
X233655000Y-130830000D03*
X233655000Y-133370000D03*
X233655000Y-135910000D03*
X233655000Y-138450000D03*
X233655000Y-140990000D03*
X233655000Y-143530000D03*
X233655000Y-146070000D03*
X233655000Y-148610000D03*
X233655000Y-151150000D03*
X233655000Y-153690000D03*
X233655000Y-156230000D03*
X233655000Y-158770000D03*
X248895000Y-158770000D03*
X248895000Y-156230000D03*
X248895000Y-153690000D03*
X248895000Y-151150000D03*
X248895000Y-148610000D03*
X248895000Y-146070000D03*
X248895000Y-143530000D03*
X248895000Y-140990000D03*
X248895000Y-138450000D03*
X248895000Y-135910000D03*
X248895000Y-133370000D03*
X248895000Y-130830000D03*
D12*
X235433000Y-130830000D03*
D13*
%TO.P,MCU1,24*%
%TO.N,P1*%
X236449000Y-130830000D03*
D14*
%TO.P,MCU1,*%
%TO.N,*%
X234925000Y-130830000D03*
D15*
X233655000Y-130830000D03*
D14*
X234925000Y-133370000D03*
D12*
X235433000Y-133370000D03*
D13*
%TO.P,MCU1,23*%
%TO.N,P0*%
X236449000Y-133370000D03*
D14*
%TO.P,MCU1,*%
%TO.N,*%
X234925000Y-135910000D03*
D12*
X235433000Y-135910000D03*
D13*
%TO.P,MCU1,22*%
%TO.N,GND*%
X236449000Y-135910000D03*
D14*
%TO.P,MCU1,*%
%TO.N,*%
X234925000Y-138450000D03*
D12*
X235433000Y-138450000D03*
D13*
%TO.P,MCU1,21*%
%TO.N,GND*%
X236449000Y-138450000D03*
D14*
%TO.P,MCU1,*%
%TO.N,*%
X234925000Y-140990000D03*
D12*
X235433000Y-140990000D03*
D13*
%TO.P,MCU1,20*%
%TO.N,P2*%
X236449000Y-140990000D03*
D14*
%TO.P,MCU1,*%
%TO.N,*%
X234925000Y-143530000D03*
D12*
X235433000Y-143530000D03*
D13*
%TO.P,MCU1,19*%
%TO.N,P3*%
X236449000Y-143530000D03*
D14*
%TO.P,MCU1,*%
%TO.N,*%
X234925000Y-146070000D03*
D12*
X235433000Y-146070000D03*
D13*
%TO.P,MCU1,18*%
%TO.N,P4*%
X236449000Y-146070000D03*
D14*
%TO.P,MCU1,*%
%TO.N,*%
X234925000Y-148610000D03*
D12*
X235433000Y-148610000D03*
D13*
%TO.P,MCU1,17*%
%TO.N,P5*%
X236449000Y-148610000D03*
D14*
%TO.P,MCU1,*%
%TO.N,*%
X234925000Y-151150000D03*
D12*
X235433000Y-151150000D03*
D13*
%TO.P,MCU1,16*%
%TO.N,P6*%
X236449000Y-151150000D03*
D14*
%TO.P,MCU1,*%
%TO.N,*%
X234925000Y-153690000D03*
D12*
X235433000Y-153690000D03*
D13*
%TO.P,MCU1,15*%
%TO.N,P7*%
X236449000Y-153690000D03*
D14*
%TO.P,MCU1,*%
%TO.N,*%
X234925000Y-156230000D03*
D12*
X235433000Y-156230000D03*
D13*
%TO.P,MCU1,14*%
%TO.N,P8*%
X236449000Y-156230000D03*
D14*
%TO.P,MCU1,*%
%TO.N,*%
X234925000Y-158770000D03*
D12*
X235433000Y-158770000D03*
D13*
%TO.P,MCU1,13*%
%TO.N,P9*%
X236449000Y-158770000D03*
D16*
%TO.P,MCU1,1*%
%TO.N,RAW*%
X246101000Y-130830000D03*
%TO.P,MCU1,3*%
%TO.N,RST*%
X246101000Y-135910000D03*
D17*
%TO.P,MCU1,*%
%TO.N,*%
X247625000Y-135910000D03*
D18*
X247117000Y-135910000D03*
X247117000Y-130830000D03*
D17*
X247625000Y-133370000D03*
D16*
%TO.P,MCU1,2*%
%TO.N,GND*%
X246101000Y-133370000D03*
D17*
%TO.P,MCU1,*%
%TO.N,*%
X247625000Y-130830000D03*
D16*
%TO.P,MCU1,4*%
%TO.N,VCC*%
X246101000Y-138450000D03*
D18*
%TO.P,MCU1,*%
%TO.N,*%
X247117000Y-133370000D03*
X247117000Y-138450000D03*
D16*
%TO.P,MCU1,6*%
%TO.N,P20*%
X246101000Y-143530000D03*
%TO.P,MCU1,7*%
%TO.N,P19*%
X246101000Y-146070000D03*
D17*
%TO.P,MCU1,*%
%TO.N,*%
X247625000Y-158770000D03*
D18*
X247117000Y-146070000D03*
D17*
X247625000Y-153690000D03*
D16*
%TO.P,MCU1,8*%
%TO.N,P18*%
X246101000Y-148610000D03*
D17*
%TO.P,MCU1,*%
%TO.N,*%
X247625000Y-146070000D03*
D16*
%TO.P,MCU1,12*%
%TO.N,P10*%
X246101000Y-158770000D03*
D18*
%TO.P,MCU1,*%
%TO.N,*%
X247117000Y-148610000D03*
D17*
X247625000Y-151150000D03*
D18*
X247117000Y-158770000D03*
D17*
X247625000Y-140990000D03*
X247625000Y-148610000D03*
X247625000Y-143530000D03*
D16*
%TO.P,MCU1,9*%
%TO.N,P15*%
X246101000Y-151150000D03*
D17*
%TO.P,MCU1,*%
%TO.N,*%
X247625000Y-138450000D03*
D18*
X247117000Y-140990000D03*
X247117000Y-143530000D03*
X247117000Y-151150000D03*
D16*
%TO.P,MCU1,10*%
%TO.N,P14*%
X246101000Y-153690000D03*
D18*
%TO.P,MCU1,*%
%TO.N,*%
X247117000Y-153690000D03*
X247117000Y-156230000D03*
D16*
%TO.P,MCU1,11*%
%TO.N,P16*%
X246101000Y-156230000D03*
D17*
%TO.P,MCU1,*%
%TO.N,*%
X247625000Y-156230000D03*
D16*
%TO.P,MCU1,5*%
%TO.N,P21*%
X246101000Y-140990000D03*
D19*
%TO.P,MCU1,23*%
%TO.N,P0*%
X240513000Y-133370000D03*
D20*
%TO.P,MCU1,2*%
%TO.N,GND*%
X242037000Y-133370000D03*
%TO.P,MCU1,23*%
%TO.N,P0*%
X240513000Y-133370000D03*
%TO.P,MCU1,24*%
%TO.N,P1*%
X240513000Y-130830000D03*
%TO.P,MCU1,1*%
%TO.N,RAW*%
X242037000Y-130830000D03*
D10*
X242037000Y-130830000D03*
D19*
%TO.P,MCU1,24*%
%TO.N,P1*%
X240513000Y-130830000D03*
D20*
%TO.P,MCU1,22*%
%TO.N,GND*%
X240513000Y-135910000D03*
%TO.P,MCU1,3*%
%TO.N,RST*%
X242037000Y-135910000D03*
D10*
X242037000Y-135910000D03*
D19*
%TO.P,MCU1,22*%
%TO.N,GND*%
X240513000Y-135910000D03*
D20*
%TO.P,MCU1,21*%
X240513000Y-138450000D03*
%TO.P,MCU1,4*%
%TO.N,VCC*%
X242037000Y-138450000D03*
D10*
X242037000Y-138450000D03*
D19*
%TO.P,MCU1,21*%
%TO.N,GND*%
X240513000Y-138450000D03*
D20*
%TO.P,MCU1,20*%
%TO.N,P2*%
X240513000Y-140990000D03*
%TO.P,MCU1,5*%
%TO.N,P21*%
X242037000Y-140990000D03*
D10*
X242037000Y-140990000D03*
D19*
%TO.P,MCU1,20*%
%TO.N,P2*%
X240513000Y-140990000D03*
D20*
%TO.P,MCU1,19*%
%TO.N,P3*%
X240513000Y-143530000D03*
%TO.P,MCU1,6*%
%TO.N,P20*%
X242037000Y-143530000D03*
D10*
X242037000Y-143530000D03*
D19*
%TO.P,MCU1,19*%
%TO.N,P3*%
X240513000Y-143530000D03*
D20*
%TO.P,MCU1,18*%
%TO.N,P4*%
X240513000Y-146070000D03*
%TO.P,MCU1,7*%
%TO.N,P19*%
X242037000Y-146070000D03*
D10*
X242037000Y-146070000D03*
D19*
%TO.P,MCU1,18*%
%TO.N,P4*%
X240513000Y-146070000D03*
D20*
%TO.P,MCU1,17*%
%TO.N,P5*%
X240513000Y-148610000D03*
%TO.P,MCU1,8*%
%TO.N,P18*%
X242037000Y-148610000D03*
D10*
X242037000Y-148610000D03*
D19*
%TO.P,MCU1,17*%
%TO.N,P5*%
X240513000Y-148610000D03*
D20*
%TO.P,MCU1,16*%
%TO.N,P6*%
X240513000Y-151150000D03*
%TO.P,MCU1,9*%
%TO.N,P15*%
X242037000Y-151150000D03*
D10*
X242037000Y-151150000D03*
D19*
%TO.P,MCU1,16*%
%TO.N,P6*%
X240513000Y-151150000D03*
D20*
%TO.P,MCU1,15*%
%TO.N,P7*%
X240513000Y-153690000D03*
%TO.P,MCU1,10*%
%TO.N,P14*%
X242037000Y-153690000D03*
D10*
X242037000Y-153690000D03*
D19*
%TO.P,MCU1,15*%
%TO.N,P7*%
X240513000Y-153690000D03*
D20*
%TO.P,MCU1,14*%
%TO.N,P8*%
X240513000Y-156230000D03*
%TO.P,MCU1,11*%
%TO.N,P16*%
X242037000Y-156230000D03*
D10*
X242037000Y-156230000D03*
D19*
%TO.P,MCU1,14*%
%TO.N,P8*%
X240513000Y-156230000D03*
D20*
%TO.P,MCU1,13*%
%TO.N,P9*%
X240513000Y-158770000D03*
%TO.P,MCU1,12*%
%TO.N,P10*%
X242037000Y-158770000D03*
D10*
X242037000Y-158770000D03*
D19*
%TO.P,MCU1,13*%
%TO.N,P9*%
X240513000Y-158770000D03*
%TD*%
D21*
%TO.P,,1*%
%TO.N,RST*%
X217475000Y-167800000D03*
%TO.P,,2*%
%TO.N,GND*%
X221075000Y-167800000D03*
%TD*%
D22*
%TO.P,,1*%
%TO.N,pos*%
X248345000Y-177050000D03*
%TO.P,,2*%
%TO.N,RAW*%
X248345000Y-174050000D03*
%TO.P,,3*%
%TO.N,N/C*%
X248345000Y-172550000D03*
D23*
%TO.P,,*%
%TO.N,*%
X251205000Y-178450000D03*
X251205000Y-171150000D03*
X248995000Y-171150000D03*
X248995000Y-178450000D03*
%TD*%
D24*
%TO.P,,1*%
%TO.N,pos*%
X233275000Y-165050000D03*
%TO.P,,2*%
%TO.N,GND*%
X233275000Y-166550000D03*
%TD*%
D25*
%TO.P,S1,1*%
%TO.N,pinky_bottom*%
X152550000Y-160050000D03*
%TO.P,S1,2*%
%TO.N,P8*%
X141000000Y-162250000D03*
%TD*%
%TO.P,S2,1*%
%TO.N,pinky_home*%
X152550000Y-143050000D03*
%TO.P,S2,2*%
%TO.N,P8*%
X141000000Y-145250000D03*
%TD*%
%TO.P,S3,1*%
%TO.N,pinky_top*%
X152550000Y-126050000D03*
%TO.P,S3,2*%
%TO.N,P8*%
X141000000Y-128250000D03*
%TD*%
%TO.P,S4,1*%
%TO.N,ring_bottom*%
X170550000Y-144750000D03*
%TO.P,S4,2*%
%TO.N,P7*%
X159000000Y-146950000D03*
%TD*%
%TO.P,S5,1*%
%TO.N,ring_home*%
X170550000Y-127750000D03*
%TO.P,S5,2*%
%TO.N,P7*%
X159000000Y-129950000D03*
%TD*%
%TO.P,S6,1*%
%TO.N,ring_top*%
X170550000Y-110750000D03*
%TO.P,S6,2*%
%TO.N,P7*%
X159000000Y-112950000D03*
%TD*%
%TO.P,S7,1*%
%TO.N,middle_bottom*%
X188550000Y-139650000D03*
%TO.P,S7,2*%
%TO.N,P6*%
X177000000Y-141850000D03*
%TD*%
%TO.P,S8,1*%
%TO.N,middle_home*%
X188550000Y-122650000D03*
%TO.P,S8,2*%
%TO.N,P6*%
X177000000Y-124850000D03*
%TD*%
%TO.P,S9,1*%
%TO.N,middle_top*%
X188550000Y-105650000D03*
%TO.P,S9,2*%
%TO.N,P6*%
X177000000Y-107850000D03*
%TD*%
%TO.P,S10,1*%
%TO.N,index_bottom*%
X206550000Y-144750000D03*
%TO.P,S10,2*%
%TO.N,P5*%
X195000000Y-146950000D03*
%TD*%
%TO.P,S11,1*%
%TO.N,index_home*%
X206550000Y-127750000D03*
%TO.P,S11,2*%
%TO.N,P5*%
X195000000Y-129950000D03*
%TD*%
%TO.P,S12,1*%
%TO.N,index_top*%
X206550000Y-110750000D03*
%TO.P,S12,2*%
%TO.N,P5*%
X195000000Y-112950000D03*
%TD*%
%TO.P,S13,1*%
%TO.N,inner_bottom*%
X224550000Y-149850000D03*
%TO.P,S13,2*%
%TO.N,P4*%
X213000000Y-152050000D03*
%TD*%
%TO.P,S14,1*%
%TO.N,inner_home*%
X224550000Y-132850000D03*
%TO.P,S14,2*%
%TO.N,P4*%
X213000000Y-135050000D03*
%TD*%
%TO.P,S15,1*%
%TO.N,inner_top*%
X224550000Y-115850000D03*
%TO.P,S15,2*%
%TO.N,P4*%
X213000000Y-118050000D03*
%TD*%
D26*
%TO.P,S16,1*%
%TO.N,near_thumb*%
X236086233Y-179484649D03*
%TO.P,S16,2*%
%TO.N,P6*%
X224983640Y-175614905D03*
%TD*%
%TO.P,S17,1*%
%TO.N,home_thumb*%
X251674690Y-188484649D03*
%TO.P,S17,2*%
%TO.N,P5*%
X240572097Y-184614905D03*
%TD*%
D27*
%TO.P,D1,1*%
%TO.N,P3*%
X147325000Y-170000000D03*
%TO.P,D1,2*%
%TO.N,pinky_bottom*%
X151225000Y-170000000D03*
%TD*%
%TO.P,D2,1*%
%TO.N,P2*%
X147325000Y-153000000D03*
%TO.P,D2,2*%
%TO.N,pinky_home*%
X151225000Y-153000000D03*
%TD*%
%TO.P,D3,1*%
%TO.N,P1*%
X147325000Y-136000000D03*
%TO.P,D3,2*%
%TO.N,pinky_top*%
X151225000Y-136000000D03*
%TD*%
%TO.P,D4,1*%
%TO.N,P3*%
X165325000Y-154700000D03*
%TO.P,D4,2*%
%TO.N,ring_bottom*%
X169225000Y-154700000D03*
%TD*%
%TO.P,D5,1*%
%TO.N,P2*%
X165325000Y-137700000D03*
%TO.P,D5,2*%
%TO.N,ring_home*%
X169225000Y-137700000D03*
%TD*%
%TO.P,D6,1*%
%TO.N,P1*%
X165325000Y-120700000D03*
%TO.P,D6,2*%
%TO.N,ring_top*%
X169225000Y-120700000D03*
%TD*%
%TO.P,D7,1*%
%TO.N,P3*%
X183325000Y-149600000D03*
%TO.P,D7,2*%
%TO.N,middle_bottom*%
X187225000Y-149600000D03*
%TD*%
%TO.P,D8,1*%
%TO.N,P2*%
X183325000Y-132600000D03*
%TO.P,D8,2*%
%TO.N,middle_home*%
X187225000Y-132600000D03*
%TD*%
%TO.P,D9,1*%
%TO.N,P1*%
X183325000Y-115600000D03*
%TO.P,D9,2*%
%TO.N,middle_top*%
X187225000Y-115600000D03*
%TD*%
%TO.P,D10,1*%
%TO.N,P3*%
X201325000Y-154700000D03*
%TO.P,D10,2*%
%TO.N,index_bottom*%
X205225000Y-154700000D03*
%TD*%
%TO.P,D11,1*%
%TO.N,P2*%
X201325000Y-137700000D03*
%TO.P,D11,2*%
%TO.N,index_home*%
X205225000Y-137700000D03*
%TD*%
%TO.P,D12,1*%
%TO.N,P1*%
X201325000Y-120700000D03*
%TO.P,D12,2*%
%TO.N,index_top*%
X205225000Y-120700000D03*
%TD*%
%TO.P,D13,1*%
%TO.N,P3*%
X219325000Y-159800000D03*
%TO.P,D13,2*%
%TO.N,inner_bottom*%
X223225000Y-159800000D03*
%TD*%
%TO.P,D14,1*%
%TO.N,P2*%
X219325000Y-142800000D03*
%TO.P,D14,2*%
%TO.N,inner_home*%
X223225000Y-142800000D03*
%TD*%
%TO.P,D15,1*%
%TO.N,P1*%
X219325000Y-125800000D03*
%TO.P,D15,2*%
%TO.N,inner_top*%
X223225000Y-125800000D03*
%TD*%
D28*
%TO.P,D16,1*%
%TO.N,P9*%
X226586250Y-185489102D03*
D29*
%TO.P,D16,2*%
%TO.N,near_thumb*%
X229963750Y-187439102D03*
%TD*%
D28*
%TO.P,D17,1*%
%TO.N,P9*%
X242174707Y-194489102D03*
D29*
%TO.P,D17,2*%
%TO.N,home_thumb*%
X245552207Y-196439102D03*
%TD*%
D30*
%TO.P,REF\u002A\u002A,1*%
%TO.N,P8*%
X149275000Y-163500000D03*
%TD*%
%TO.P,REF\u002A\u002A,1*%
%TO.N,P8*%
X149275000Y-146500000D03*
%TD*%
%TO.P,REF\u002A\u002A,1*%
%TO.N,P8*%
X149275000Y-129500000D03*
%TD*%
%TO.P,REF\u002A\u002A,1*%
%TO.N,P7*%
X167275000Y-148200000D03*
%TD*%
%TO.P,REF\u002A\u002A,1*%
%TO.N,P7*%
X167275000Y-131200000D03*
%TD*%
%TO.P,REF\u002A\u002A,1*%
%TO.N,P7*%
X167275000Y-114200000D03*
%TD*%
%TO.P,REF\u002A\u002A,1*%
%TO.N,P6*%
X185275000Y-143100000D03*
%TD*%
%TO.P,REF\u002A\u002A,1*%
%TO.N,P6*%
X185275000Y-126100000D03*
%TD*%
%TO.P,REF\u002A\u002A,1*%
%TO.N,P6*%
X185275000Y-109100000D03*
%TD*%
%TO.P,REF\u002A\u002A,1*%
%TO.N,P5*%
X203275000Y-148200000D03*
%TD*%
%TO.P,REF\u002A\u002A,1*%
%TO.N,P5*%
X203275000Y-131200000D03*
%TD*%
%TO.P,REF\u002A\u002A,1*%
%TO.N,P5*%
X203275000Y-114200000D03*
%TD*%
%TO.P,REF\u002A\u002A,1*%
%TO.N,P4*%
X221275000Y-153300000D03*
%TD*%
%TO.P,REF\u002A\u002A,1*%
%TO.N,P4*%
X221275000Y-136300000D03*
%TD*%
%TO.P,REF\u002A\u002A,1*%
%TO.N,P4*%
X221275000Y-119300000D03*
%TD*%
%TO.P,REF\u002A\u002A,1*%
%TO.N,P6*%
X231525000Y-180834937D03*
%TD*%
%TO.P,REF\u002A\u002A,1*%
%TO.N,P5*%
X247113457Y-189834937D03*
%TD*%
%TO.P,REF\u002A\u002A,1*%
%TO.N,pinky_bottom*%
X149275000Y-162250000D03*
%TD*%
%TO.P,REF\u002A\u002A,1*%
%TO.N,pinky_home*%
X149275000Y-145250000D03*
%TD*%
%TO.P,REF\u002A\u002A,1*%
%TO.N,pinky_top*%
X149275000Y-128250000D03*
%TD*%
%TO.P,REF\u002A\u002A,1*%
%TO.N,ring_bottom*%
X167275000Y-146950000D03*
%TD*%
%TO.P,REF\u002A\u002A,1*%
%TO.N,ring_home*%
X167275000Y-129950000D03*
%TD*%
%TO.P,REF\u002A\u002A,1*%
%TO.N,ring_top*%
X167275000Y-112950000D03*
%TD*%
%TO.P,REF\u002A\u002A,1*%
%TO.N,middle_bottom*%
X185275000Y-141850000D03*
%TD*%
%TO.P,REF\u002A\u002A,1*%
%TO.N,middle_home*%
X185275000Y-124850000D03*
%TD*%
%TO.P,REF\u002A\u002A,1*%
%TO.N,middle_top*%
X185275000Y-107850000D03*
%TD*%
%TO.P,REF\u002A\u002A,1*%
%TO.N,index_bottom*%
X203275000Y-146950000D03*
%TD*%
%TO.P,REF\u002A\u002A,1*%
%TO.N,index_home*%
X203275000Y-129950000D03*
%TD*%
%TO.P,REF\u002A\u002A,1*%
%TO.N,index_top*%
X203275000Y-112950000D03*
%TD*%
%TO.P,REF\u002A\u002A,1*%
%TO.N,inner_bottom*%
X221275000Y-152050000D03*
%TD*%
%TO.P,REF\u002A\u002A,1*%
%TO.N,inner_home*%
X221275000Y-135050000D03*
%TD*%
%TO.P,REF\u002A\u002A,1*%
%TO.N,inner_top*%
X221275000Y-118050000D03*
%TD*%
%TO.P,REF\u002A\u002A,1*%
%TO.N,near_thumb*%
X232150000Y-179752405D03*
%TD*%
%TO.P,REF\u002A\u002A,1*%
%TO.N,home_thumb*%
X247738457Y-188752405D03*
%TD*%
D31*
%TO.N,RAW*%
X249500000Y-174750000D03*
%TO.N,pos*%
X250250000Y-174750000D03*
%TD*%
D32*
%TO.N,P9*%
X226672853Y-185539102D02*
X222500000Y-181366249D01*
X222500000Y-181366249D02*
X222500000Y-169000000D01*
X239283000Y-160000000D02*
X240513000Y-158770000D01*
X222500000Y-169000000D02*
X231500000Y-160000000D01*
X231500000Y-160000000D02*
X239283000Y-160000000D01*
%TO.N,P1*%
X219425000Y-125800000D02*
X221015000Y-125800000D01*
X221015000Y-125800000D02*
X227125000Y-131910000D01*
X227125000Y-131910000D02*
X239433000Y-131910000D01*
X239433000Y-131910000D02*
X240513000Y-130830000D01*
%TO.N,P2*%
X219425000Y-142800000D02*
X220530000Y-143905000D01*
X239433000Y-142070000D02*
X240513000Y-140990000D01*
X220530000Y-143905000D02*
X231372649Y-143905000D01*
X231372649Y-143905000D02*
X233207649Y-142070000D01*
X233207649Y-142070000D02*
X239433000Y-142070000D01*
%TO.N,P3*%
X219425000Y-159800000D02*
X221680000Y-162055000D01*
X230135608Y-157614392D02*
X230135608Y-146987237D01*
X239243000Y-144800000D02*
X240513000Y-143530000D01*
X221680000Y-162055000D02*
X225695000Y-162055000D01*
X230135608Y-146987237D02*
X232322845Y-144800000D01*
X225695000Y-162055000D02*
X230135608Y-157614392D01*
X232322845Y-144800000D02*
X239243000Y-144800000D01*
D33*
%TO.N,pos*%
X250250000Y-174750000D02*
X250250000Y-174813173D01*
X250250000Y-174813173D02*
X248345000Y-176718173D01*
%TO.N,RAW*%
X248345000Y-174050000D02*
X248800000Y-174050000D01*
X248800000Y-174050000D02*
X249500000Y-174750000D01*
X248345000Y-174050000D02*
X247745000Y-174050000D01*
X247670000Y-173975000D02*
X247670000Y-161830000D01*
X247670000Y-161830000D02*
X250622865Y-158877135D01*
X243162000Y-131955000D02*
X242037000Y-130830000D01*
X247745000Y-174050000D02*
X247670000Y-173975000D01*
X250622865Y-158877135D02*
X250622865Y-133372865D01*
X250622865Y-133372865D02*
X249205000Y-131955000D01*
X249205000Y-131955000D02*
X243162000Y-131955000D01*
%TO.N,P4*%
X213000000Y-152050000D02*
X213000000Y-156000000D01*
X213000000Y-156000000D02*
X219425000Y-162425000D01*
X225863425Y-162425000D02*
X230505608Y-157782817D01*
X230505608Y-150168401D02*
X233479009Y-147195000D01*
X219425000Y-162425000D02*
X225863425Y-162425000D01*
X230505608Y-157782817D02*
X230505608Y-150168401D01*
X233479009Y-147195000D02*
X239388000Y-147195000D01*
X239388000Y-147195000D02*
X240513000Y-146070000D01*
%TO.N,P5*%
X195000000Y-146950000D02*
X195000000Y-157000000D01*
X195000000Y-157000000D02*
X200875000Y-162875000D01*
X200875000Y-162875000D02*
X226049821Y-162875000D01*
X226049821Y-162875000D02*
X230955608Y-157969213D01*
X230955608Y-157969213D02*
X230955608Y-152044392D01*
X230955608Y-152044392D02*
X233265000Y-149735000D01*
X233265000Y-149735000D02*
X239388000Y-149735000D01*
X239388000Y-149735000D02*
X240513000Y-148610000D01*
%TO.N,P6*%
X240513000Y-151150000D02*
X239275865Y-152387135D01*
X239275865Y-152387135D02*
X233072865Y-152387135D01*
X226236217Y-163325000D02*
X182500000Y-163325000D01*
X233072865Y-152387135D02*
X231405608Y-154054392D01*
X231405608Y-154054392D02*
X231405608Y-158155609D01*
X231405608Y-158155609D02*
X226236217Y-163325000D01*
X182500000Y-163325000D02*
X177000000Y-157825000D01*
X177000000Y-157825000D02*
X177000000Y-141850000D01*
%TO.N,P7*%
X159000000Y-146950000D02*
X159000000Y-155363604D01*
X167411396Y-163775000D02*
X226422613Y-163775000D01*
X159000000Y-155363604D02*
X167411396Y-163775000D01*
X226422613Y-163775000D02*
X231973807Y-158223806D01*
X231973807Y-158223806D02*
X231927135Y-158177134D01*
X231927135Y-158177134D02*
X231927135Y-156072865D01*
X231927135Y-156072865D02*
X233072865Y-154927135D01*
X233072865Y-154927135D02*
X239275865Y-154927135D01*
X239275865Y-154927135D02*
X240513000Y-153690000D01*
%TO.N,P8*%
X141000000Y-162250000D02*
X145250000Y-158000000D01*
X239243000Y-157500000D02*
X240513000Y-156230000D01*
X145250000Y-158000000D02*
X161000000Y-158000000D01*
X161000000Y-158000000D02*
X167225000Y-164225000D01*
X167225000Y-164225000D02*
X226609009Y-164225000D01*
X233334009Y-157500000D02*
X239243000Y-157500000D01*
X226609009Y-164225000D02*
X233334009Y-157500000D01*
%TO.N,pos*%
X233275000Y-165050000D02*
X236345000Y-165050000D01*
X236345000Y-165050000D02*
X248345000Y-177050000D01*
%TO.N,P4*%
X213000000Y-135050000D02*
X213000000Y-152050000D01*
X213000000Y-118050000D02*
X213000000Y-135050000D01*
%TO.N,P5*%
X195000000Y-129950000D02*
X195000000Y-146950000D01*
X195000000Y-112950000D02*
X195000000Y-129950000D01*
%TO.N,P6*%
X177000000Y-107850000D02*
X177000000Y-124850000D01*
X177000000Y-141850000D02*
X177000000Y-124850000D01*
%TO.N,P7*%
X159000000Y-129950000D02*
X159000000Y-112950000D01*
X159000000Y-146950000D02*
X159000000Y-129950000D01*
%TO.N,P8*%
X141000000Y-145250000D02*
X141000000Y-128250000D01*
X141000000Y-162250000D02*
X141000000Y-145250000D01*
%TO.N,home_thumb*%
X248669434Y-189289905D02*
X247738457Y-188752405D01*
X247738457Y-188752405D02*
X248503267Y-191606717D01*
%TO.N,P5*%
X246658794Y-189572437D02*
X247113457Y-189834937D01*
X240572097Y-184614905D02*
X241258395Y-187176204D01*
%TO.N,home_thumb*%
X251674690Y-188484649D02*
X248669434Y-189289905D01*
X248503267Y-191606717D02*
X245762768Y-196353400D01*
%TO.N,P5*%
X245805026Y-189801203D02*
X246658794Y-189572437D01*
X241258395Y-187176204D02*
X245805026Y-189801203D01*
%TO.N,near_thumb*%
X233080977Y-180289905D02*
X232150000Y-179752405D01*
X232150000Y-179752405D02*
X232914810Y-182606717D01*
%TO.N,P6*%
X231070337Y-180572437D02*
X231525000Y-180834937D01*
X224983640Y-175614905D02*
X225669938Y-178176204D01*
%TO.N,near_thumb*%
X236086233Y-179484649D02*
X233080977Y-180289905D01*
X232914810Y-182606717D02*
X230174311Y-187353400D01*
%TO.N,P6*%
X230216569Y-180801203D02*
X231070337Y-180572437D01*
X225669938Y-178176204D02*
X230216569Y-180801203D01*
%TO.N,P4*%
X214875001Y-153925001D02*
X220124999Y-153925001D01*
X220750000Y-153300000D02*
X221275000Y-153300000D01*
X220124999Y-153925001D02*
X220750000Y-153300000D01*
X213000000Y-152050000D02*
X214875001Y-153925001D01*
%TO.N,inner_bottom*%
X223364501Y-154139501D02*
X223364501Y-159620499D01*
X221275000Y-152050000D02*
X223364501Y-154139501D01*
X222350000Y-152050000D02*
X221275000Y-152050000D01*
X224550000Y-149850000D02*
X222350000Y-152050000D01*
%TO.N,P4*%
X214875001Y-136925001D02*
X220124999Y-136925001D01*
X220750000Y-136300000D02*
X221275000Y-136300000D01*
X220124999Y-136925001D02*
X220750000Y-136300000D01*
X213000000Y-135050000D02*
X214875001Y-136925001D01*
%TO.N,inner_home*%
X223364501Y-137139501D02*
X223364501Y-142620499D01*
X221275000Y-135050000D02*
X223364501Y-137139501D01*
X222350000Y-135050000D02*
X221275000Y-135050000D01*
X224550000Y-132850000D02*
X222350000Y-135050000D01*
%TO.N,P4*%
X214875001Y-119925001D02*
X220124999Y-119925001D01*
X220750000Y-119300000D02*
X221275000Y-119300000D01*
X220124999Y-119925001D02*
X220750000Y-119300000D01*
X213000000Y-118050000D02*
X214875001Y-119925001D01*
%TO.N,inner_top*%
X223364501Y-120139501D02*
X223364501Y-125620499D01*
X221275000Y-118050000D02*
X223364501Y-120139501D01*
X222350000Y-118050000D02*
X221275000Y-118050000D01*
X224550000Y-115850000D02*
X222350000Y-118050000D01*
%TO.N,P5*%
X196875001Y-148825001D02*
X202124999Y-148825001D01*
X202750000Y-148200000D02*
X203275000Y-148200000D01*
X202124999Y-148825001D02*
X202750000Y-148200000D01*
X195000000Y-146950000D02*
X196875001Y-148825001D01*
%TO.N,index_bottom*%
X205364501Y-149039501D02*
X205364501Y-154520499D01*
X203275000Y-146950000D02*
X205364501Y-149039501D01*
X204350000Y-146950000D02*
X203275000Y-146950000D01*
X206550000Y-144750000D02*
X204350000Y-146950000D01*
%TO.N,P5*%
X196875001Y-131825001D02*
X202124999Y-131825001D01*
X202750000Y-131200000D02*
X203275000Y-131200000D01*
X202124999Y-131825001D02*
X202750000Y-131200000D01*
X195000000Y-129950000D02*
X196875001Y-131825001D01*
%TO.N,index_home*%
X205364501Y-132039501D02*
X205364501Y-137520499D01*
X203275000Y-129950000D02*
X205364501Y-132039501D01*
X204350000Y-129950000D02*
X203275000Y-129950000D01*
X206550000Y-127750000D02*
X204350000Y-129950000D01*
%TO.N,P5*%
X196875001Y-114825001D02*
X202124999Y-114825001D01*
X202750000Y-114200000D02*
X203275000Y-114200000D01*
X202124999Y-114825001D02*
X202750000Y-114200000D01*
X195000000Y-112950000D02*
X196875001Y-114825001D01*
%TO.N,index_top*%
X205364501Y-115039501D02*
X205364501Y-120520499D01*
X203275000Y-112950000D02*
X205364501Y-115039501D01*
X204350000Y-112950000D02*
X203275000Y-112950000D01*
X206550000Y-110750000D02*
X204350000Y-112950000D01*
%TO.N,P6*%
X178875001Y-109725001D02*
X184124999Y-109725001D01*
X184750000Y-109100000D02*
X185275000Y-109100000D01*
X184124999Y-109725001D02*
X184750000Y-109100000D01*
X177000000Y-107850000D02*
X178875001Y-109725001D01*
%TO.N,middle_top*%
X187364501Y-109939501D02*
X187364501Y-115420499D01*
X185275000Y-107850000D02*
X187364501Y-109939501D01*
X186350000Y-107850000D02*
X185275000Y-107850000D01*
X188550000Y-105650000D02*
X186350000Y-107850000D01*
%TO.N,P6*%
X178875001Y-126725001D02*
X184124999Y-126725001D01*
X184750000Y-126100000D02*
X185275000Y-126100000D01*
X184124999Y-126725001D02*
X184750000Y-126100000D01*
X177000000Y-124850000D02*
X178875001Y-126725001D01*
%TO.N,middle_home*%
X187364501Y-126939501D02*
X187364501Y-132420499D01*
X185275000Y-124850000D02*
X187364501Y-126939501D01*
X186350000Y-124850000D02*
X185275000Y-124850000D01*
X188550000Y-122650000D02*
X186350000Y-124850000D01*
%TO.N,P6*%
X178875001Y-143725001D02*
X184124999Y-143725001D01*
X184750000Y-143100000D02*
X185275000Y-143100000D01*
X184124999Y-143725001D02*
X184750000Y-143100000D01*
X177000000Y-141850000D02*
X178875001Y-143725001D01*
%TO.N,middle_bottom*%
X187364501Y-143939501D02*
X187364501Y-149420499D01*
X185275000Y-141850000D02*
X187364501Y-143939501D01*
X186350000Y-141850000D02*
X185275000Y-141850000D01*
X188550000Y-139650000D02*
X186350000Y-141850000D01*
%TO.N,P7*%
X160875001Y-148825001D02*
X166124999Y-148825001D01*
X166750000Y-148200000D02*
X167275000Y-148200000D01*
X166124999Y-148825001D02*
X166750000Y-148200000D01*
X159000000Y-146950000D02*
X160875001Y-148825001D01*
%TO.N,ring_bottom*%
X169364501Y-149039501D02*
X169364501Y-154520499D01*
X167275000Y-146950000D02*
X169364501Y-149039501D01*
X168350000Y-146950000D02*
X167275000Y-146950000D01*
X170550000Y-144750000D02*
X168350000Y-146950000D01*
%TO.N,P7*%
X160875001Y-114825001D02*
X166124999Y-114825001D01*
X166750000Y-114200000D02*
X167275000Y-114200000D01*
X166124999Y-114825001D02*
X166750000Y-114200000D01*
X159000000Y-112950000D02*
X160875001Y-114825001D01*
%TO.N,ring_top*%
X169364501Y-115039501D02*
X169364501Y-120520499D01*
X167275000Y-112950000D02*
X169364501Y-115039501D01*
X168350000Y-112950000D02*
X167275000Y-112950000D01*
X170550000Y-110750000D02*
X168350000Y-112950000D01*
%TO.N,P7*%
X160875001Y-131825001D02*
X166124999Y-131825001D01*
X166750000Y-131200000D02*
X167275000Y-131200000D01*
X166124999Y-131825001D02*
X166750000Y-131200000D01*
X159000000Y-129950000D02*
X160875001Y-131825001D01*
%TO.N,ring_home*%
X169364501Y-132039501D02*
X169364501Y-137520499D01*
X167275000Y-129950000D02*
X169364501Y-132039501D01*
X168350000Y-129950000D02*
X167275000Y-129950000D01*
X170550000Y-127750000D02*
X168350000Y-129950000D01*
%TO.N,P8*%
X142875001Y-130125001D02*
X148124999Y-130125001D01*
X148750000Y-129500000D02*
X149275000Y-129500000D01*
X148124999Y-130125001D02*
X148750000Y-129500000D01*
X141000000Y-128250000D02*
X142875001Y-130125001D01*
%TO.N,pinky_top*%
X151364501Y-130339501D02*
X151364501Y-135820499D01*
X149275000Y-128250000D02*
X151364501Y-130339501D01*
X150350000Y-128250000D02*
X149275000Y-128250000D01*
X152550000Y-126050000D02*
X150350000Y-128250000D01*
%TO.N,P8*%
X142875001Y-147125001D02*
X148124999Y-147125001D01*
X148750000Y-146500000D02*
X149275000Y-146500000D01*
X148124999Y-147125001D02*
X148750000Y-146500000D01*
X141000000Y-145250000D02*
X142875001Y-147125001D01*
%TO.N,pinky_home*%
X151364501Y-147339501D02*
X151364501Y-152820499D01*
X149275000Y-145250000D02*
X151364501Y-147339501D01*
X150350000Y-145250000D02*
X149275000Y-145250000D01*
X152550000Y-143050000D02*
X150350000Y-145250000D01*
%TO.N,pinky_bottom*%
X149275000Y-162250000D02*
X151364501Y-164339501D01*
X151364501Y-164339501D02*
X151364501Y-169820499D01*
%TO.N,P8*%
X141000000Y-162250000D02*
X142875001Y-164125001D01*
X148124999Y-164125001D02*
X148750000Y-163500000D01*
X142875001Y-164125001D02*
X148124999Y-164125001D01*
X148750000Y-163500000D02*
X149275000Y-163500000D01*
%TO.N,pinky_bottom*%
X152550000Y-160050000D02*
X150350000Y-162250000D01*
X150350000Y-162250000D02*
X149275000Y-162250000D01*
%TD*%
M02*
