0
SECTION
2
HEADER
9
$INSUNITS
70
4
0
ENDSEC
0
SECTION
2
TABLES
0
TABLE
2
LTYPE
0
LTYPE
72
65
70
64
2
CONTINUOUS
3
______
73
0
40
0
0
ENDTAB
0
TABLE
2
LAYER
0
ENDTAB
0
ENDSEC
0
SECTION
2
ENTITIES
0
LINE
8
0
10
36.5225024
20
-23.7624034
11
-10.2555378
21
-11.2282653
0
ARC
8
0
10
-8.4438046
20
-4.4667845
40
7
50
165.0000021
51
254.9999997
0
LINE
8
0
10
-15.2052854
20
-2.6550513
11
-2.6818082
21
44.0832019
0
ARC
8
0
10
4.0796726
20
42.2714687
40
7
50
108.4691335
51
164.9999997
0
LINE
8
0
10
1.8621167
20
48.9109299
11
20.357033
21
55.0881653
0
ARC
8
0
10
22.5745889
20
48.4487041
40
7
50
90.8191914
51
108.4691312
0
LINE
8
0
10
22.474509
20
55.4479887
11
40.2986813
21
55.7028495
0
ARC
8
0
10
40.3987612
20
48.7035649
40
7
50
75.0000021
51
90.8191914
0
LINE
8
0
10
42.2104944
20
55.4650457
11
60.7238218
21
50.5044146
0
ARC
8
0
10
58.9120886
20
43.7429338
40
7
50
59.1808049
51
75.0000021
0
LINE
8
0
10
62.4984027
20
49.754452
11
92.6169066
21
31.7865425
0
LINE
8
0
10
94.1538984
20
31.3629074
11
108.8456431
21
31.3629074
0
LINE
8
0
10
110.3826349
20
31.7865425
11
140.5003708
21
49.7539936
0
ARC
8
0
10
144.087453
20
43.7429338
40
7
50
104.9999979
51
120.8191951
0
LINE
8
0
10
142.2757198
20
50.5044146
11
160.7890472
21
55.4650457
0
ARC
8
0
10
162.6007804
20
48.7035649
40
7
50
89.1808086
51
104.9999979
0
LINE
8
0
10
162.7008603
20
55.7028495
11
180.5250325
21
55.4479886
0
ARC
8
0
10
180.4249527
20
48.4487041
40
7
50
71.5308688
51
89.1808086
0
LINE
8
0
10
182.6425086
20
55.0881653
11
201.1374249
21
48.9109299
0
ARC
8
0
10
198.919869
20
42.2714687
40
7
50
15.0000003
51
71.5308665
0
LINE
8
0
10
205.6813498
20
44.0832019
11
218.204827
21
-2.6550513
0
ARC
8
0
10
211.4433462
20
-4.4667845
40
7
50
285.0000003
51
374.9999979
0
LINE
8
0
10
213.2550794
20
-11.2282654
11
166.4770392
21
-23.7624035
0
LINE
8
0
10
164.7856702
20
-24.9543573
11
155.8909621
21
-37.8223895
0
ARC
8
0
10
150.1327012
20
-33.8421343
40
7
50
295.0000017
51
325.346793
0
LINE
8
0
10
153.0910291
20
-40.1862889
11
136.2139955
21
-48.0561788
0
LINE
8
0
10
135.7945715
20
-48.2945599
11
122.6737558
21
-57.219414
0
ARC
8
0
10
118.7367715
20
-51.4314821
40
7
50
270
51
304.2237599
0
LINE
8
0
10
118.7367715
20
-58.4314821
11
84.2627701
21
-58.4314821
0
ARC
8
0
10
84.2627701
20
-51.4314821
40
7
50
235.7762401
51
270
0
LINE
8
0
10
80.3257858
20
-57.2194139
11
67.2049707
21
-48.2945602
0
LINE
8
0
10
66.7855467
20
-48.0561791
11
49.9085124
21
-40.1862888
0
ARC
8
0
10
52.8668404
20
-33.8421343
40
7
50
214.653207
51
244.9999983
0
LINE
8
0
10
47.108071
20
-37.8216537
11
38.2138714
21
-24.9543573
0
ARC
8
0
10
-9.4790808
20
-8.3304878
40
3
50
254.9999997
51
255.0000021
0
ARC
8
0
10
0.2159693
20
43.3067449
40
3
50
164.9999997
51
165.0000021
0
ARC
8
0
10
2.8124977
20
46.0654465
40
3
50
108.4691312
51
108.4691335
0
ARC
8
0
10
94.1538984
20
34.3629074
40
3
50
239.1808049
51
270
0
ARC
8
0
10
108.8456431
20
34.3629074
40
3
50
270
51
300.8191951
0
ARC
8
0
10
200.1870439
20
46.0654465
40
3
50
71.5308665
51
71.5308688
0
ARC
8
0
10
202.7835723
20
43.3067449
40
3
50
14.9999979
51
15.0000003
0
ARC
8
0
10
212.4786224
20
-8.3304878
40
3
50
284.9999979
51
285.0000003
0
ARC
8
0
10
167.2534962
20
-26.660181
40
3
50
104.9999979
51
145.346793
0
ARC
8
0
10
137.4818504
20
-50.7751021
40
3
50
115.0000017
51
124.2237599
0
ARC
8
0
10
65.5176918
20
-50.7751025
40
3
50
55.7762401
51
64.9999983
0
ARC
8
0
10
35.7460453
20
-26.6601809
40
3
50
34.653207
51
75.0000021
0
ENDSEC
0
EOF