0
SECTION
2
HEADER
9
$INSUNITS
70
4
0
ENDSEC
0
SECTION
2
TABLES
0
TABLE
2
LTYPE
0
LTYPE
72
65
70
64
2
CONTINUOUS
3
______
73
0
40
0
0
ENDTAB
0
TABLE
2
LAYER
0
ENDTAB
0
ENDSEC
0
SECTION
2
ENTITIES
0
LINE
8
0
10
-10.5871081
20
-5.7042214
11
6.3165939
21
-10.2335547
0
LINE
8
0
10
6.3165939
20
-10.2335547
11
10.5871081
21
5.7042214
0
LINE
8
0
10
10.5871081
20
5.7042214
11
-6.3165939
21
10.2335547
0
LINE
8
0
10
-6.3165939
20
10.2335547
11
-10.5871081
21
-5.7042214
0
LINE
8
0
10
-6.1871843
20
10.7165176
11
10.7165177
21
6.1871843
0
LINE
8
0
10
10.7165177
20
6.1871843
11
14.9870319
21
22.1249604
0
LINE
8
0
10
14.9870319
20
22.1249604
11
-1.9166701
21
26.6542937
0
LINE
8
0
10
-1.9166701
20
26.6542937
11
-6.1871843
21
10.7165176
0
LINE
8
0
10
-1.7872606
20
27.1372567
11
15.1164414
21
22.6079234
0
LINE
8
0
10
15.1164414
20
22.6079234
11
19.3869556
21
38.5456995
0
LINE
8
0
10
19.3869556
20
38.5456995
11
2.4832536
21
43.0750328
0
LINE
8
0
10
2.4832536
20
43.0750328
11
-1.7872606
21
27.1372567
0
LINE
8
0
10
9.8795034
20
1.1315531
11
26.7832054
21
-3.3977802
0
LINE
8
0
10
26.7832054
20
-3.3977802
11
31.0537196
21
12.5399959
0
LINE
8
0
10
31.0537196
20
12.5399959
11
14.1500176
21
17.0693292
0
LINE
8
0
10
14.1500176
20
17.0693292
11
9.8795034
21
1.1315531
0
LINE
8
0
10
14.2794272
20
17.5522922
11
31.1831292
21
13.0229589
0
LINE
8
0
10
31.1831292
20
13.0229589
11
35.4536434
21
28.960735
0
LINE
8
0
10
35.4536434
20
28.960735
11
18.5499414
21
33.4900683
0
LINE
8
0
10
18.5499414
20
33.4900683
11
14.2794272
21
17.5522922
0
LINE
8
0
10
18.6793509
20
33.9730312
11
35.5830529
21
29.4436979
0
LINE
8
0
10
35.5830529
20
29.4436979
11
39.8535671
21
45.381474
0
LINE
8
0
10
39.8535671
20
45.381474
11
22.9498651
21
49.9108073
0
LINE
8
0
10
22.9498651
20
49.9108073
11
18.6793509
21
33.9730312
0
LINE
8
0
10
28.5861454
20
1.399032
11
45.4898474
21
-3.1303013
0
LINE
8
0
10
45.4898474
20
-3.1303013
11
49.7603616
21
12.8074748
0
LINE
8
0
10
49.7603616
20
12.8074748
11
32.8566596
21
17.3368081
0
LINE
8
0
10
32.8566596
20
17.3368081
11
28.5861454
21
1.399032
0
LINE
8
0
10
32.9860692
20
17.8197711
11
49.8897712
21
13.2904378
0
LINE
8
0
10
49.8897712
20
13.2904378
11
54.1602854
21
29.2282139
0
LINE
8
0
10
54.1602854
20
29.2282139
11
37.2565834
21
33.7575472
0
LINE
8
0
10
37.2565834
20
33.7575472
11
32.9860692
21
17.8197711
0
LINE
8
0
10
37.3859929
20
34.2405101
11
54.2896949
21
29.7111768
0
LINE
8
0
10
54.2896949
20
29.7111768
11
58.5602091
21
45.6489529
0
LINE
8
0
10
58.5602091
20
45.6489529
11
41.6565071
21
50.1782862
0
LINE
8
0
10
41.6565071
20
50.1782862
11
37.3859929
21
34.2405101
0
LINE
8
0
10
44.6528332
20
-8.1859325
11
61.5565352
21
-12.7152658
0
LINE
8
0
10
61.5565352
20
-12.7152658
11
65.8270494
21
3.2225103
0
LINE
8
0
10
65.8270494
20
3.2225103
11
48.9233474
21
7.7518436
0
LINE
8
0
10
48.9233474
20
7.7518436
11
44.6528332
21
-8.1859325
0
LINE
8
0
10
49.0527569
20
8.2348065
11
65.9564589
21
3.7054732
0
LINE
8
0
10
65.9564589
20
3.7054732
11
70.2269731
21
19.6432493
0
LINE
8
0
10
70.2269731
20
19.6432493
11
53.3232711
21
24.1725826
0
LINE
8
0
10
53.3232711
20
24.1725826
11
49.0527569
21
8.2348065
0
LINE
8
0
10
53.4526807
20
24.6555456
11
70.3563827
21
20.1262123
0
LINE
8
0
10
70.3563827
20
20.1262123
11
74.6268969
21
36.0639884
0
LINE
8
0
10
74.6268969
20
36.0639884
11
57.7231949
21
40.5933217
0
LINE
8
0
10
57.7231949
20
40.5933217
11
53.4526807
21
24.6555456
0
LINE
8
0
10
60.7195209
20
-17.770897
11
77.6232229
21
-22.3002303
0
LINE
8
0
10
77.6232229
20
-22.3002303
11
81.8937371
21
-6.3624542
0
LINE
8
0
10
81.8937371
20
-6.3624542
11
64.9900351
21
-1.8331209
0
LINE
8
0
10
64.9900351
20
-1.8331209
11
60.7195209
21
-17.770897
0
LINE
8
0
10
65.1194447
20
-1.350158
11
82.0231467
21
-5.8794913
0
LINE
8
0
10
82.0231467
20
-5.8794913
11
86.2936609
21
10.0582848
0
LINE
8
0
10
86.2936609
20
10.0582848
11
69.3899589
21
14.5876181
0
LINE
8
0
10
69.3899589
20
14.5876181
11
65.1194447
21
-1.350158
0
LINE
8
0
10
69.5193684
20
15.0705811
11
86.4230704
21
10.5412478
0
LINE
8
0
10
86.4230704
20
10.5412478
11
90.6935846
21
26.4790239
0
LINE
8
0
10
90.6935846
20
26.4790239
11
73.7898826
21
31.0083572
0
LINE
8
0
10
73.7898826
20
31.0083572
11
69.5193684
21
15.0705811
0
LINE
8
0
10
52.5227836
20
-35.6126094
11
68.3831699
21
-43.0084289
0
LINE
8
0
10
68.3831699
20
-43.0084289
11
75.3563712
21
-28.0543504
0
LINE
8
0
10
75.3563712
20
-28.0543504
11
59.4959849
21
-20.6585309
0
LINE
8
0
10
59.4959849
20
-20.6585309
11
52.5227836
21
-35.6126094
0
LINE
8
0
10
69.7793198
20
-41.4216589
11
83.1850976
21
-52.670442
0
LINE
8
0
10
83.1850976
20
-52.670442
11
93.7910932
21
-40.0307087
0
LINE
8
0
10
93.7910932
20
-40.0307087
11
80.3853154
21
-28.7819256
0
LINE
8
0
10
80.3853154
20
-28.7819256
11
69.7793198
21
-41.4216589
0
LINE
8
0
10
196.6829477
20
-10.2335547
11
213.5866497
21
-5.7042214
0
LINE
8
0
10
213.5866497
20
-5.7042214
11
209.3161355
21
10.2335547
0
LINE
8
0
10
209.3161355
20
10.2335547
11
192.4124335
21
5.7042214
0
LINE
8
0
10
192.4124335
20
5.7042214
11
196.6829477
21
-10.2335547
0
LINE
8
0
10
192.2830239
20
6.1871843
11
209.1867259
21
10.7165176
0
LINE
8
0
10
209.1867259
20
10.7165176
11
204.9162117
21
26.6542937
0
LINE
8
0
10
204.9162117
20
26.6542937
11
188.0125097
21
22.1249604
0
LINE
8
0
10
188.0125097
20
22.1249604
11
192.2830239
21
6.1871843
0
LINE
8
0
10
187.8831002
20
22.6079234
11
204.7868022
21
27.1372567
0
LINE
8
0
10
204.7868022
20
27.1372567
11
200.516288
21
43.0750328
0
LINE
8
0
10
200.516288
20
43.0750328
11
183.612586
21
38.5456995
0
LINE
8
0
10
183.612586
20
38.5456995
11
187.8831002
21
22.6079234
0
LINE
8
0
10
176.2163362
20
-3.3977802
11
193.1200382
21
1.1315531
0
LINE
8
0
10
193.1200382
20
1.1315531
11
188.849524
21
17.0693292
0
LINE
8
0
10
188.849524
20
17.0693292
11
171.945822
21
12.5399959
0
LINE
8
0
10
171.945822
20
12.5399959
11
176.2163362
21
-3.3977802
0
LINE
8
0
10
171.8164124
20
13.0229589
11
188.7201144
21
17.5522922
0
LINE
8
0
10
188.7201144
20
17.5522922
11
184.4496002
21
33.4900683
0
LINE
8
0
10
184.4496002
20
33.4900683
11
167.5458982
21
28.960735
0
LINE
8
0
10
167.5458982
20
28.960735
11
171.8164124
21
13.0229589
0
LINE
8
0
10
167.4164887
20
29.4436979
11
184.3201907
21
33.9730312
0
LINE
8
0
10
184.3201907
20
33.9730312
11
180.0496765
21
49.9108073
0
LINE
8
0
10
180.0496765
20
49.9108073
11
163.1459745
21
45.381474
0
LINE
8
0
10
163.1459745
20
45.381474
11
167.4164887
21
29.4436979
0
LINE
8
0
10
157.5096942
20
-3.1303013
11
174.4133962
21
1.399032
0
LINE
8
0
10
174.4133962
20
1.399032
11
170.142882
21
17.3368081
0
LINE
8
0
10
170.142882
20
17.3368081
11
153.23918
21
12.8074748
0
LINE
8
0
10
153.23918
20
12.8074748
11
157.5096942
21
-3.1303013
0
LINE
8
0
10
153.1097704
20
13.2904378
11
170.0134724
21
17.8197711
0
LINE
8
0
10
170.0134724
20
17.8197711
11
165.7429582
21
33.7575472
0
LINE
8
0
10
165.7429582
20
33.7575472
11
148.8392562
21
29.2282139
0
LINE
8
0
10
148.8392562
20
29.2282139
11
153.1097704
21
13.2904378
0
LINE
8
0
10
148.7098467
20
29.7111768
11
165.6135487
21
34.2405101
0
LINE
8
0
10
165.6135487
20
34.2405101
11
161.3430345
21
50.1782862
0
LINE
8
0
10
161.3430345
20
50.1782862
11
144.4393325
21
45.6489529
0
LINE
8
0
10
144.4393325
20
45.6489529
11
148.7098467
21
29.7111768
0
LINE
8
0
10
141.4430064
20
-12.7152658
11
158.3467084
21
-8.1859325
0
LINE
8
0
10
158.3467084
20
-8.1859325
11
154.0761942
21
7.7518436
0
LINE
8
0
10
154.0761942
20
7.7518436
11
137.1724922
21
3.2225103
0
LINE
8
0
10
137.1724922
20
3.2225103
11
141.4430064
21
-12.7152658
0
LINE
8
0
10
137.0430827
20
3.7054732
11
153.9467847
21
8.2348065
0
LINE
8
0
10
153.9467847
20
8.2348065
11
149.6762705
21
24.1725826
0
LINE
8
0
10
149.6762705
20
24.1725826
11
132.7725685
21
19.6432493
0
LINE
8
0
10
132.7725685
20
19.6432493
11
137.0430827
21
3.7054732
0
LINE
8
0
10
132.6431589
20
20.1262123
11
149.5468609
21
24.6555456
0
LINE
8
0
10
149.5468609
20
24.6555456
11
145.2763467
21
40.5933217
0
LINE
8
0
10
145.2763467
20
40.5933217
11
128.3726447
21
36.0639884
0
LINE
8
0
10
128.3726447
20
36.0639884
11
132.6431589
21
20.1262123
0
LINE
8
0
10
125.3763187
20
-22.3002303
11
142.2800207
21
-17.770897
0
LINE
8
0
10
142.2800207
20
-17.770897
11
138.0095065
21
-1.8331209
0
LINE
8
0
10
138.0095065
20
-1.8331209
11
121.1058045
21
-6.3624542
0
LINE
8
0
10
121.1058045
20
-6.3624542
11
125.3763187
21
-22.3002303
0
LINE
8
0
10
120.9763949
20
-5.8794913
11
137.8800969
21
-1.350158
0
LINE
8
0
10
137.8800969
20
-1.350158
11
133.6095827
21
14.5876181
0
LINE
8
0
10
133.6095827
20
14.5876181
11
116.7058807
21
10.0582848
0
LINE
8
0
10
116.7058807
20
10.0582848
11
120.9763949
21
-5.8794913
0
LINE
8
0
10
116.5764712
20
10.5412478
11
133.4801732
21
15.0705811
0
LINE
8
0
10
133.4801732
20
15.0705811
11
129.209659
21
31.0083572
0
LINE
8
0
10
129.209659
20
31.0083572
11
112.305957
21
26.4790239
0
LINE
8
0
10
112.305957
20
26.4790239
11
116.5764712
21
10.5412478
0
LINE
8
0
10
134.6163717
20
-43.0084289
11
150.476758
21
-35.6126094
0
LINE
8
0
10
150.476758
20
-35.6126094
11
143.5035567
21
-20.6585309
0
LINE
8
0
10
143.5035567
20
-20.6585309
11
127.6431704
21
-28.0543504
0
LINE
8
0
10
127.6431704
20
-28.0543504
11
134.6163717
21
-43.0084289
0
LINE
8
0
10
119.814444
20
-52.670442
11
133.2202218
21
-41.4216589
0
LINE
8
0
10
133.2202218
20
-41.4216589
11
122.6142262
21
-28.7819256
0
LINE
8
0
10
122.6142262
20
-28.7819256
11
109.2084484
21
-40.0307087
0
LINE
8
0
10
109.2084484
20
-40.0307087
11
119.814444
21
-52.670442
0
ENDSEC
0
EOF