0
SECTION
2
HEADER
9
$INSUNITS
70
4
0
ENDSEC
0
SECTION
2
TABLES
0
TABLE
2
LTYPE
0
LTYPE
72
65
70
64
2
CONTINUOUS
3
______
73
0
40
0
0
ENDTAB
0
TABLE
2
LAYER
0
ENDTAB
0
ENDSEC
0
SECTION
2
ENTITIES
0
LINE
8
0
10
-8.4507396
20
-4.8790368
11
4.8790368
21
-8.4507396
0
LINE
8
0
10
4.8790368
20
-8.4507396
11
8.4507396
21
4.8790368
0
LINE
8
0
10
8.4507396
20
4.8790368
11
-4.8790368
21
8.4507396
0
LINE
8
0
10
-4.8790368
20
8.4507396
11
-8.4507396
21
-4.8790368
0
LINE
8
0
10
-4.0508158
20
11.5417022
11
9.2789606
21
7.9699994
0
LINE
8
0
10
9.2789606
20
7.9699994
11
12.8506634
21
21.2997758
0
LINE
8
0
10
12.8506634
20
21.2997758
11
-0.479113
21
24.8714786
0
LINE
8
0
10
-0.479113
20
24.8714786
11
-4.0508158
21
11.5417022
0
LINE
8
0
10
0.3491079
20
27.9624413
11
13.6788843
21
24.3907385
0
LINE
8
0
10
13.6788843
20
24.3907385
11
17.2505871
21
37.7205149
0
LINE
8
0
10
17.2505871
20
37.7205149
11
3.9208107
21
41.2922177
0
LINE
8
0
10
3.9208107
20
41.2922177
11
0.3491079
21
27.9624413
0
LINE
8
0
10
12.0158719
20
1.9567377
11
25.3456483
21
-1.6149651
0
LINE
8
0
10
25.3456483
20
-1.6149651
11
28.9173511
21
11.7148113
0
LINE
8
0
10
28.9173511
20
11.7148113
11
15.5875747
21
15.2865141
0
LINE
8
0
10
15.5875747
20
15.2865141
11
12.0158719
21
1.9567377
0
LINE
8
0
10
16.4157957
20
18.3774768
11
29.7455721
21
14.805774
0
LINE
8
0
10
29.7455721
20
14.805774
11
33.3172749
21
28.1355504
0
LINE
8
0
10
33.3172749
20
28.1355504
11
19.9874985
21
31.7072532
0
LINE
8
0
10
19.9874985
20
31.7072532
11
16.4157957
21
18.3774768
0
LINE
8
0
10
20.8157194
20
34.7982158
11
34.1454958
21
31.226513
0
LINE
8
0
10
34.1454958
20
31.226513
11
37.7171986
21
44.5562894
0
LINE
8
0
10
37.7171986
20
44.5562894
11
24.3874222
21
48.1279922
0
LINE
8
0
10
24.3874222
20
48.1279922
11
20.8157194
21
34.7982158
0
LINE
8
0
10
30.7225139
20
2.2242166
11
44.0522903
21
-1.3474862
0
LINE
8
0
10
44.0522903
20
-1.3474862
11
47.6239931
21
11.9822902
0
LINE
8
0
10
47.6239931
20
11.9822902
11
34.2942167
21
15.553993
0
LINE
8
0
10
34.2942167
20
15.553993
11
30.7225139
21
2.2242166
0
LINE
8
0
10
35.1224377
20
18.6449557
11
48.4522141
21
15.0732529
0
LINE
8
0
10
48.4522141
20
15.0732529
11
52.0239169
21
28.4030293
0
LINE
8
0
10
52.0239169
20
28.4030293
11
38.6941405
21
31.9747321
0
LINE
8
0
10
38.6941405
20
31.9747321
11
35.1224377
21
18.6449557
0
LINE
8
0
10
39.5223614
20
35.0656947
11
52.8521378
21
31.4939919
0
LINE
8
0
10
52.8521378
20
31.4939919
11
56.4238406
21
44.8237683
0
LINE
8
0
10
56.4238406
20
44.8237683
11
43.0940642
21
48.3954711
0
LINE
8
0
10
43.0940642
20
48.3954711
11
39.5223614
21
35.0656947
0
LINE
8
0
10
46.7892017
20
-7.3607479
11
60.1189781
21
-10.9324507
0
LINE
8
0
10
60.1189781
20
-10.9324507
11
63.6906809
21
2.3973257
0
LINE
8
0
10
63.6906809
20
2.3973257
11
50.3609045
21
5.9690285
0
LINE
8
0
10
50.3609045
20
5.9690285
11
46.7892017
21
-7.3607479
0
LINE
8
0
10
51.1891254
20
9.0599911
11
64.5189018
21
5.4882883
0
LINE
8
0
10
64.5189018
20
5.4882883
11
68.0906046
21
18.8180647
0
LINE
8
0
10
68.0906046
20
18.8180647
11
54.7608282
21
22.3897675
0
LINE
8
0
10
54.7608282
20
22.3897675
11
51.1891254
21
9.0599911
0
LINE
8
0
10
55.5890492
20
25.4807302
11
68.9188256
21
21.9090274
0
LINE
8
0
10
68.9188256
20
21.9090274
11
72.4905284
21
35.2388038
0
LINE
8
0
10
72.4905284
20
35.2388038
11
59.160752
21
38.8105066
0
LINE
8
0
10
59.160752
20
38.8105066
11
55.5890492
21
25.4807302
0
LINE
8
0
10
62.8558894
20
-16.9457124
11
76.1856658
21
-20.5174152
0
LINE
8
0
10
76.1856658
20
-20.5174152
11
79.7573686
21
-7.1876388
0
LINE
8
0
10
79.7573686
20
-7.1876388
11
66.4275922
21
-3.615936
0
LINE
8
0
10
66.4275922
20
-3.615936
11
62.8558894
21
-16.9457124
0
LINE
8
0
10
67.2558132
20
-0.5249734
11
80.5855896
21
-4.0966762
0
LINE
8
0
10
80.5855896
20
-4.0966762
11
84.1572924
21
9.2331002
0
LINE
8
0
10
84.1572924
20
9.2331002
11
70.827516
21
12.804803
0
LINE
8
0
10
70.827516
20
12.804803
11
67.2558132
21
-0.5249734
0
LINE
8
0
10
71.6557369
20
15.8957657
11
84.9855133
21
12.3240629
0
LINE
8
0
10
84.9855133
20
12.3240629
11
88.5572161
21
25.6538393
0
LINE
8
0
10
88.5572161
20
25.6538393
11
75.2274397
21
29.2255421
0
LINE
8
0
10
75.2274397
20
29.2255421
11
71.6557369
21
15.8957657
0
LINE
8
0
10
54.7699877
20
-35.1709376
11
67.2770351
21
-41.0030696
0
LINE
8
0
10
67.2770351
20
-41.0030696
11
73.1091671
21
-28.4960222
0
LINE
8
0
10
73.1091671
20
-28.4960222
11
60.6021197
21
-22.6638902
0
LINE
8
0
10
60.6021197
20
-22.6638902
11
54.7699877
21
-35.1709376
0
LINE
8
0
10
72.0642653
20
-41.576656
11
82.6356787
21
-50.447125
0
LINE
8
0
10
82.6356787
20
-50.447125
11
91.5061477
21
-39.8757116
0
LINE
8
0
10
91.5061477
20
-39.8757116
11
80.9347343
21
-31.0052426
0
LINE
8
0
10
80.9347343
20
-31.0052426
11
72.0642653
21
-41.576656
0
LINE
8
0
10
198.1205048
20
-8.4507396
11
211.4502812
21
-4.8790368
0
LINE
8
0
10
211.4502812
20
-4.8790368
11
207.8785784
21
8.4507396
0
LINE
8
0
10
207.8785784
20
8.4507396
11
194.548802
21
4.8790368
0
LINE
8
0
10
194.548802
20
4.8790368
11
198.1205048
21
-8.4507396
0
LINE
8
0
10
193.720581
20
7.9699994
11
207.0503574
21
11.5417022
0
LINE
8
0
10
207.0503574
20
11.5417022
11
203.4786546
21
24.8714786
0
LINE
8
0
10
203.4786546
20
24.8714786
11
190.1488782
21
21.2997758
0
LINE
8
0
10
190.1488782
20
21.2997758
11
193.720581
21
7.9699994
0
LINE
8
0
10
189.3206573
20
24.3907385
11
202.6504337
21
27.9624413
0
LINE
8
0
10
202.6504337
20
27.9624413
11
199.0787309
21
41.2922177
0
LINE
8
0
10
199.0787309
20
41.2922177
11
185.7489545
21
37.7205149
0
LINE
8
0
10
185.7489545
20
37.7205149
11
189.3206573
21
24.3907385
0
LINE
8
0
10
177.6538933
20
-1.6149651
11
190.9836697
21
1.9567377
0
LINE
8
0
10
190.9836697
20
1.9567377
11
187.4119669
21
15.2865141
0
LINE
8
0
10
187.4119669
20
15.2865141
11
174.0821905
21
11.7148113
0
LINE
8
0
10
174.0821905
20
11.7148113
11
177.6538933
21
-1.6149651
0
LINE
8
0
10
173.2539695
20
14.805774
11
186.5837459
21
18.3774768
0
LINE
8
0
10
186.5837459
20
18.3774768
11
183.0120431
21
31.7072532
0
LINE
8
0
10
183.0120431
20
31.7072532
11
169.6822667
21
28.1355504
0
LINE
8
0
10
169.6822667
20
28.1355504
11
173.2539695
21
14.805774
0
LINE
8
0
10
168.8540458
20
31.226513
11
182.1838222
21
34.7982158
0
LINE
8
0
10
182.1838222
20
34.7982158
11
178.6121194
21
48.1279922
0
LINE
8
0
10
178.6121194
20
48.1279922
11
165.282343
21
44.5562894
0
LINE
8
0
10
165.282343
20
44.5562894
11
168.8540458
21
31.226513
0
LINE
8
0
10
158.9472513
20
-1.3474862
11
172.2770277
21
2.2242166
0
LINE
8
0
10
172.2770277
20
2.2242166
11
168.7053249
21
15.553993
0
LINE
8
0
10
168.7053249
20
15.553993
11
155.3755485
21
11.9822902
0
LINE
8
0
10
155.3755485
20
11.9822902
11
158.9472513
21
-1.3474862
0
LINE
8
0
10
154.5473275
20
15.0732529
11
167.8771039
21
18.6449557
0
LINE
8
0
10
167.8771039
20
18.6449557
11
164.3054011
21
31.9747321
0
LINE
8
0
10
164.3054011
20
31.9747321
11
150.9756247
21
28.4030293
0
LINE
8
0
10
150.9756247
20
28.4030293
11
154.5473275
21
15.0732529
0
LINE
8
0
10
150.1474038
20
31.4939919
11
163.4771802
21
35.0656947
0
LINE
8
0
10
163.4771802
20
35.0656947
11
159.9054774
21
48.3954711
0
LINE
8
0
10
159.9054774
20
48.3954711
11
146.575701
21
44.8237683
0
LINE
8
0
10
146.575701
20
44.8237683
11
150.1474038
21
31.4939919
0
LINE
8
0
10
142.8805635
20
-10.9324507
11
156.2103399
21
-7.3607479
0
LINE
8
0
10
156.2103399
20
-7.3607479
11
152.6386371
21
5.9690285
0
LINE
8
0
10
152.6386371
20
5.9690285
11
139.3088607
21
2.3973257
0
LINE
8
0
10
139.3088607
20
2.3973257
11
142.8805635
21
-10.9324507
0
LINE
8
0
10
138.4806398
20
5.4882883
11
151.8104162
21
9.0599911
0
LINE
8
0
10
151.8104162
20
9.0599911
11
148.2387134
21
22.3897675
0
LINE
8
0
10
148.2387134
20
22.3897675
11
134.908937
21
18.8180647
0
LINE
8
0
10
134.908937
20
18.8180647
11
138.4806398
21
5.4882883
0
LINE
8
0
10
134.080716
20
21.9090274
11
147.4104924
21
25.4807302
0
LINE
8
0
10
147.4104924
20
25.4807302
11
143.8387896
21
38.8105066
0
LINE
8
0
10
143.8387896
20
38.8105066
11
130.5090132
21
35.2388038
0
LINE
8
0
10
130.5090132
20
35.2388038
11
134.080716
21
21.9090274
0
LINE
8
0
10
126.8138758
20
-20.5174152
11
140.1436522
21
-16.9457124
0
LINE
8
0
10
140.1436522
20
-16.9457124
11
136.5719494
21
-3.615936
0
LINE
8
0
10
136.5719494
20
-3.615936
11
123.242173
21
-7.1876388
0
LINE
8
0
10
123.242173
20
-7.1876388
11
126.8138758
21
-20.5174152
0
LINE
8
0
10
122.413952
20
-4.0966762
11
135.7437284
21
-0.5249734
0
LINE
8
0
10
135.7437284
20
-0.5249734
11
132.1720256
21
12.804803
0
LINE
8
0
10
132.1720256
20
12.804803
11
118.8422492
21
9.2331002
0
LINE
8
0
10
118.8422492
20
9.2331002
11
122.413952
21
-4.0966762
0
LINE
8
0
10
118.0140283
20
12.3240629
11
131.3438047
21
15.8957657
0
LINE
8
0
10
131.3438047
20
15.8957657
11
127.7721019
21
29.2255421
0
LINE
8
0
10
127.7721019
20
29.2255421
11
114.4423255
21
25.6538393
0
LINE
8
0
10
114.4423255
20
25.6538393
11
118.0140283
21
12.3240629
0
LINE
8
0
10
135.7225065
20
-41.0030696
11
148.2295539
21
-35.1709376
0
LINE
8
0
10
148.2295539
20
-35.1709376
11
142.3974219
21
-22.6638902
0
LINE
8
0
10
142.3974219
20
-22.6638902
11
129.8903745
21
-28.4960222
0
LINE
8
0
10
129.8903745
20
-28.4960222
11
135.7225065
21
-41.0030696
0
LINE
8
0
10
120.3638629
20
-50.447125
11
130.9352763
21
-41.576656
0
LINE
8
0
10
130.9352763
20
-41.576656
11
122.0648073
21
-31.0052426
0
LINE
8
0
10
122.0648073
20
-31.0052426
11
111.4933939
21
-39.8757116
0
LINE
8
0
10
111.4933939
20
-39.8757116
11
120.3638629
21
-50.447125
0
ENDSEC
0
EOF