0
SECTION
2
HEADER
9
$INSUNITS
70
4
0
ENDSEC
0
SECTION
2
TABLES
0
TABLE
2
LTYPE
0
LTYPE
72
65
70
64
2
CONTINUOUS
3
______
73
0
40
0
0
ENDTAB
0
TABLE
2
LAYER
0
ENDTAB
0
ENDSEC
0
SECTION
2
ENTITIES
0
LINE
8
0
10
150.0843545
20
-173.5067898
11
105.5288855
21
-161.5681878
0
LINE
8
0
10
103.4075651
20
-157.8939533
11
115.7972576
21
-111.6549917
0
LINE
8
0
10
117.7695078
20
-109.5777846
11
136.746534
21
-103.4229767
0
LINE
8
0
10
137.6655684
20
-103.2766479
11
155.9600276
21
-103.2370525
0
LINE
8
0
10
156.7429775
20
-103.339268
11
173.8432246
21
-107.9212654
0
LINE
8
0
10
174.5723871
20
-108.2242193
11
206.6806886
21
-126.8547294
0
LINE
8
0
10
208.1863082
20
-127.2599058
11
226.9592796
21
-127.2599058
0
LINE
8
0
10
228.4648992
20
-126.8547294
11
260.5732007
21
-108.2242193
0
LINE
8
0
10
261.3023632
20
-107.9212654
11
278.4026103
21
-103.339268
0
LINE
8
0
10
279.1855602
20
-103.2370525
11
297.4800194
21
-103.2766479
0
LINE
8
0
10
298.3990538
20
-103.4229767
11
317.37608
21
-109.5777846
0
LINE
8
0
10
319.3483302
20
-111.6549917
11
331.7380227
21
-157.8939533
0
LINE
8
0
10
329.6167023
20
-161.5681878
11
285.0612333
21
-173.5067898
0
LINE
8
0
10
283.6915706
20
-174.3083397
11
267.855407
21
-190.521419
0
LINE
8
0
10
266.9771421
20
-191.1441147
11
250.9043417
21
-198.6389847
0
LINE
8
0
10
250.5238576
20
-198.8513209
11
236.3818244
21
-208.1511632
0
LINE
8
0
10
234.7334854
20
-208.6445761
11
200.4121024
21
-208.6445761
0
LINE
8
0
10
198.7637634
20
-208.1511632
11
184.6217302
21
-198.8513209
0
LINE
8
0
10
184.2412461
20
-198.6389847
11
168.1684457
21
-191.1441147
0
LINE
8
0
10
167.2901808
20
-190.521419
11
151.4540172
21
-174.3083397
0
ARC
8
0
10
106.3053426
20
-158.6704103
40
3
50
165.0000021
51
255.0000005
0
ARC
8
0
10
118.6950351
20
-112.4314488
40
3
50
107.9694047
51
165.0000005
0
ARC
8
0
10
137.6720613
20
-106.2766409
40
3
50
90.1240053
51
107.9694036
0
ARC
8
0
10
155.9665205
20
-106.2370455
40
3
50
75.0000021
51
90.1240053
0
ARC
8
0
10
173.0667675
20
-110.8190429
40
3
50
59.8759923
51
75.0000005
0
ARC
8
0
10
208.1863082
20
-124.2599058
40
3
50
239.8759923
51
270
0
ARC
8
0
10
226.9592796
20
-124.2599058
40
3
50
270
51
300.1240077
0
ARC
8
0
10
262.0788203
20
-110.8190429
40
3
50
104.9999995
51
120.1240077
0
ARC
8
0
10
279.1790673
20
-106.2370455
40
3
50
89.8759947
51
104.9999979
0
ARC
8
0
10
297.4735265
20
-106.2766409
40
3
50
72.0305964
51
89.8759947
0
ARC
8
0
10
316.4505527
20
-112.4314488
40
3
50
14.9999995
51
72.0305953
0
ARC
8
0
10
328.8402452
20
-158.6704103
40
3
50
284.9999995
51
14.9999979
0
ARC
8
0
10
285.8376904
20
-176.4045673
40
3
50
104.9999995
51
135.6737964
0
ARC
8
0
10
265.7092872
20
-188.4251914
40
3
50
295.0000017
51
315.6737964
0
ARC
8
0
10
252.1721966
20
-201.3579081
40
3
50
115.0000017
51
123.3290361
0
ARC
8
0
10
234.7334854
20
-205.6445761
40
3
50
270
51
303.3290361
0
ARC
8
0
10
200.4121024
20
-205.6445761
40
3
50
236.6709639
51
270
0
ARC
8
0
10
182.9733912
20
-201.3579081
40
3
50
56.6709639
51
64.9999983
0
ARC
8
0
10
169.4363006
20
-188.4251914
40
3
50
224.3262036
51
244.9999983
0
ARC
8
0
10
149.3078974
20
-176.4045673
40
3
50
44.3262036
51
75.0000005
0
ARC
8
0
10
105.658295
20
-161.0852249
40
0.5
50
255.0000005
51
255.0000021
0
ARC
8
0
10
116.2802205
20
-111.7844012
40
0.5
50
165.0000005
51
165.0000021
0
ARC
8
0
10
136.9007886
20
-103.8985874
40
0.5
50
107.9694036
51
107.9694047
0
ARC
8
0
10
173.7138151
20
-108.4042283
40
0.5
50
75.0000005
51
75.0000021
0
ARC
8
0
10
261.4317727
20
-108.4042283
40
0.5
50
104.9999979
51
104.9999995
0
ARC
8
0
10
298.2447992
20
-103.8985874
40
0.5
50
72.0305953
51
72.0305964
0
ARC
8
0
10
318.8653673
20
-111.7844012
40
0.5
50
14.9999979
51
14.9999995
0
ARC
8
0
10
329.4872928
20
-161.0852249
40
0.5
50
284.9999979
51
284.9999995
0
ARC
8
0
10
285.1906428
20
-173.9897527
40
0.5
50
104.9999979
51
104.9999995
0
ARC
8
0
10
284.0492573
20
-174.657711
40
0.5
50
135.6737964
51
135.6737996
0
ARC
8
0
10
267.4977203
20
-190.1720477
40
0.5
50
315.6737964
51
315.6737996
0
ARC
8
0
10
167.6478675
20
-190.1720477
40
0.5
50
224.3262004
51
224.3262036
0
ARC
8
0
10
151.0963305
20
-174.657711
40
0.5
50
44.3262004
51
44.3262036
0
ARC
8
0
10
149.954945
20
-173.9897527
40
0.5
50
75.0000005
51
75.0000021
0
LINE
8
0
10
105.3798489
20
-159.6129927
11
118.7096253
21
-163.1846955
0
LINE
8
0
10
118.7096253
20
-163.1846955
11
122.2813281
21
-149.8549191
0
LINE
8
0
10
122.2813281
20
-149.8549191
11
108.9515517
21
-146.2832163
0
LINE
8
0
10
108.9515517
20
-146.2832163
11
105.3798489
21
-159.6129927
0
LINE
8
0
10
109.9091822
20
-142.7092908
11
123.2389586
21
-146.2809936
0
LINE
8
0
10
123.2389586
20
-146.2809936
11
126.8106614
21
-132.9512172
0
LINE
8
0
10
126.8106614
20
-132.9512172
11
113.480885
21
-129.3795144
0
LINE
8
0
10
113.480885
20
-129.3795144
11
109.9091822
21
-142.7092908
0
LINE
8
0
10
114.4385155
20
-125.8055888
11
127.7682919
21
-129.3772916
0
LINE
8
0
10
127.7682919
20
-129.3772916
11
131.3399947
21
-116.0475152
0
LINE
8
0
10
131.3399947
20
-116.0475152
11
118.0102183
21
-112.4758124
0
LINE
8
0
10
118.0102183
20
-112.4758124
11
114.4385155
21
-125.8055888
0
LINE
8
0
10
126.3553053
20
-152.8100351
11
139.6850817
21
-156.3817379
0
LINE
8
0
10
139.6850817
20
-156.3817379
11
143.2567845
21
-143.0519615
0
LINE
8
0
10
143.2567845
20
-143.0519615
11
129.9270081
21
-139.4802587
0
LINE
8
0
10
129.9270081
20
-139.4802587
11
126.3553053
21
-152.8100351
0
LINE
8
0
10
130.8846385
20
-135.9063332
11
144.2144149
21
-139.478036
0
LINE
8
0
10
144.2144149
20
-139.478036
11
147.7861177
21
-126.1482596
0
LINE
8
0
10
147.7861177
20
-126.1482596
11
134.4563413
21
-122.5765568
0
LINE
8
0
10
134.4563413
20
-122.5765568
11
130.8846385
21
-135.9063332
0
LINE
8
0
10
135.4139718
20
-119.0026312
11
141.0207413
21
-120.5049605
0
LINE
8
0
10
143.1369787
20
-121.0720046
11
148.7437482
21
-122.574334
0
LINE
8
0
10
148.7437482
20
-122.574334
11
152.315451
21
-109.2445576
0
LINE
8
0
10
152.315451
20
-109.2445576
11
138.9856746
21
-105.6728548
0
LINE
8
0
10
138.9856746
20
-105.6728548
11
135.4139718
21
-119.0026312
0
LINE
8
0
10
145.5190283
20
-152.7685583
11
158.8488047
21
-156.3402611
0
LINE
8
0
10
158.8488047
20
-156.3402611
11
162.4205075
21
-143.0104847
0
LINE
8
0
10
162.4205075
20
-143.0104847
11
149.0907311
21
-139.4387819
0
LINE
8
0
10
149.0907311
20
-139.4387819
11
145.5190283
21
-152.7685583
0
LINE
8
0
10
150.0483616
20
-135.8648564
11
163.378138
21
-139.4365592
0
LINE
8
0
10
163.378138
20
-139.4365592
11
166.9498408
21
-126.1067828
0
LINE
8
0
10
166.9498408
20
-126.1067828
11
153.6200644
21
-122.53508
0
LINE
8
0
10
153.6200644
20
-122.53508
11
150.0483616
21
-135.8648564
0
LINE
8
0
10
154.5776948
20
-118.9611544
11
167.9074712
21
-122.5328572
0
LINE
8
0
10
167.9074712
20
-122.5328572
11
171.479174
21
-109.2030808
0
LINE
8
0
10
171.479174
20
-109.2030808
11
158.1493976
21
-105.631378
0
LINE
8
0
10
158.1493976
20
-105.631378
11
154.5776948
21
-118.9611544
0
LINE
8
0
10
162.0945608
20
-162.3863398
11
175.4243372
21
-165.9580426
0
LINE
8
0
10
175.4243372
20
-165.9580426
11
178.99604
21
-152.6282662
0
LINE
8
0
10
178.99604
20
-152.6282662
11
165.6662636
21
-149.0565634
0
LINE
8
0
10
165.6662636
20
-149.0565634
11
162.0945608
21
-162.3863398
0
LINE
8
0
10
166.6238941
20
-145.4826378
11
179.9536705
21
-149.0543406
0
LINE
8
0
10
179.9536705
20
-149.0543406
11
183.5253733
21
-135.7245642
0
LINE
8
0
10
183.5253733
20
-135.7245642
11
170.1955969
21
-132.1528614
0
LINE
8
0
10
170.1955969
20
-132.1528614
11
166.6238941
21
-145.4826378
0
LINE
8
0
10
171.1532274
20
-128.5789359
11
184.4830038
21
-132.1506387
0
LINE
8
0
10
184.4830038
20
-132.1506387
11
188.0547066
21
-118.8208623
0
LINE
8
0
10
188.0547066
20
-118.8208623
11
174.7249302
21
-115.2491595
0
LINE
8
0
10
174.7249302
20
-115.2491595
11
171.1532274
21
-128.5789359
0
LINE
8
0
10
178.6700934
20
-172.0041213
11
191.9998698
21
-175.5758241
0
LINE
8
0
10
191.9998698
20
-175.5758241
11
195.5715726
21
-162.2460477
0
LINE
8
0
10
195.5715726
20
-162.2460477
11
182.2417962
21
-158.6743449
0
LINE
8
0
10
182.2417962
20
-158.6743449
11
178.6700934
21
-172.0041213
0
LINE
8
0
10
183.1994267
20
-155.1004193
11
196.5292031
21
-158.6721221
0
LINE
8
0
10
196.5292031
20
-158.6721221
11
200.1009059
21
-145.3423457
0
LINE
8
0
10
200.1009059
20
-145.3423457
11
186.7711295
21
-141.7706429
0
LINE
8
0
10
186.7711295
20
-141.7706429
11
183.1994267
21
-155.1004193
0
LINE
8
0
10
187.72876
20
-138.1967174
11
193.3355295
21
-139.6990467
0
LINE
8
0
10
195.4517669
20
-140.2660908
11
201.0585364
21
-141.7684202
0
LINE
8
0
10
201.0585364
20
-141.7684202
11
204.6302392
21
-128.4386438
0
LINE
8
0
10
204.6302392
20
-128.4386438
11
191.3004628
21
-124.866941
0
LINE
8
0
10
191.3004628
20
-124.866941
11
187.72876
21
-138.1967174
0
LINE
8
0
10
170.5841917
20
-190.2293464
11
183.0912391
21
-196.0614784
0
LINE
8
0
10
183.0912391
20
-196.0614784
11
188.9233711
21
-183.554431
0
LINE
8
0
10
188.9233711
20
-183.554431
11
176.4163237
21
-177.722299
0
LINE
8
0
10
176.4163237
20
-177.722299
11
170.5841917
21
-190.2293464
0
LINE
8
0
10
188.3316231
20
-196.846374
11
198.9030365
21
-205.716843
0
LINE
8
0
10
198.9030365
20
-205.716843
11
207.7735055
21
-195.1454296
0
LINE
8
0
10
207.7735055
20
-195.1454296
11
197.2020921
21
-186.2749606
0
LINE
8
0
10
197.2020921
20
-186.2749606
11
188.3316231
21
-196.846374
0
LINE
8
0
10
316.4359625
20
-163.1846955
11
329.7657389
21
-159.6129927
0
LINE
8
0
10
329.7657389
20
-159.6129927
11
326.1940361
21
-146.2832163
0
LINE
8
0
10
326.1940361
20
-146.2832163
11
312.8642597
21
-149.8549191
0
LINE
8
0
10
312.8642597
20
-149.8549191
11
316.4359625
21
-163.1846955
0
LINE
8
0
10
311.9066292
20
-146.2809936
11
325.2364056
21
-142.7092908
0
LINE
8
0
10
325.2364056
20
-142.7092908
11
321.6647028
21
-129.3795144
0
LINE
8
0
10
321.6647028
20
-129.3795144
11
308.3349264
21
-132.9512172
0
LINE
8
0
10
308.3349264
20
-132.9512172
11
311.9066292
21
-146.2809936
0
LINE
8
0
10
307.3772959
20
-129.3772916
11
320.7070723
21
-125.8055888
0
LINE
8
0
10
320.7070723
20
-125.8055888
11
317.1353695
21
-112.4758124
0
LINE
8
0
10
317.1353695
20
-112.4758124
11
303.8055931
21
-116.0475152
0
LINE
8
0
10
303.8055931
20
-116.0475152
11
307.3772959
21
-129.3772916
0
LINE
8
0
10
295.4605061
20
-156.3817379
11
308.7902825
21
-152.8100351
0
LINE
8
0
10
308.7902825
20
-152.8100351
11
305.2185797
21
-139.4802587
0
LINE
8
0
10
305.2185797
20
-139.4802587
11
291.8888033
21
-143.0519615
0
LINE
8
0
10
291.8888033
20
-143.0519615
11
295.4605061
21
-156.3817379
0
LINE
8
0
10
290.9311729
20
-139.478036
11
304.2609493
21
-135.9063332
0
LINE
8
0
10
304.2609493
20
-135.9063332
11
300.6892465
21
-122.5765568
0
LINE
8
0
10
300.6892465
20
-122.5765568
11
287.3594701
21
-126.1482596
0
LINE
8
0
10
287.3594701
20
-126.1482596
11
290.9311729
21
-139.478036
0
LINE
8
0
10
286.4018396
20
-122.574334
11
292.0086091
21
-121.0720046
0
LINE
8
0
10
294.1248465
20
-120.5049605
11
299.731616
21
-119.0026312
0
LINE
8
0
10
299.731616
20
-119.0026312
11
296.1599132
21
-105.6728548
0
LINE
8
0
10
296.1599132
20
-105.6728548
11
282.8301368
21
-109.2445576
0
LINE
8
0
10
282.8301368
20
-109.2445576
11
286.4018396
21
-122.574334
0
LINE
8
0
10
276.2967831
20
-156.3402611
11
289.6265595
21
-152.7685583
0
LINE
8
0
10
289.6265595
20
-152.7685583
11
286.0548567
21
-139.4387819
0
LINE
8
0
10
286.0548567
20
-139.4387819
11
272.7250803
21
-143.0104847
0
LINE
8
0
10
272.7250803
20
-143.0104847
11
276.2967831
21
-156.3402611
0
LINE
8
0
10
271.7674498
20
-139.4365592
11
285.0972262
21
-135.8648564
0
LINE
8
0
10
285.0972262
20
-135.8648564
11
281.5255234
21
-122.53508
0
LINE
8
0
10
281.5255234
20
-122.53508
11
268.195747
21
-126.1067828
0
LINE
8
0
10
268.195747
20
-126.1067828
11
271.7674498
21
-139.4365592
0
LINE
8
0
10
267.2381166
20
-122.5328572
11
280.567893
21
-118.9611544
0
LINE
8
0
10
280.567893
20
-118.9611544
11
276.9961902
21
-105.631378
0
LINE
8
0
10
276.9961902
20
-105.631378
11
263.6664138
21
-109.2030808
0
LINE
8
0
10
263.6664138
20
-109.2030808
11
267.2381166
21
-122.5328572
0
LINE
8
0
10
259.7212506
20
-165.9580426
11
273.051027
21
-162.3863398
0
LINE
8
0
10
273.051027
20
-162.3863398
11
269.4793242
21
-149.0565634
0
LINE
8
0
10
269.4793242
20
-149.0565634
11
256.1495478
21
-152.6282662
0
LINE
8
0
10
256.1495478
20
-152.6282662
11
259.7212506
21
-165.9580426
0
LINE
8
0
10
255.1919173
20
-149.0543406
11
268.5216937
21
-145.4826378
0
LINE
8
0
10
268.5216937
20
-145.4826378
11
264.9499909
21
-132.1528614
0
LINE
8
0
10
264.9499909
20
-132.1528614
11
251.6202145
21
-135.7245642
0
LINE
8
0
10
251.6202145
20
-135.7245642
11
255.1919173
21
-149.0543406
0
LINE
8
0
10
250.662584
20
-132.1506387
11
263.9923604
21
-128.5789359
0
LINE
8
0
10
263.9923604
20
-128.5789359
11
260.4206576
21
-115.2491595
0
LINE
8
0
10
260.4206576
20
-115.2491595
11
247.0908812
21
-118.8208623
0
LINE
8
0
10
247.0908812
20
-118.8208623
11
250.662584
21
-132.1506387
0
LINE
8
0
10
243.145718
20
-175.5758241
11
256.4754944
21
-172.0041213
0
LINE
8
0
10
256.4754944
20
-172.0041213
11
252.9037916
21
-158.6743449
0
LINE
8
0
10
252.9037916
20
-158.6743449
11
239.5740152
21
-162.2460477
0
LINE
8
0
10
239.5740152
20
-162.2460477
11
243.145718
21
-175.5758241
0
LINE
8
0
10
238.6163847
20
-158.6721221
11
251.9461611
21
-155.1004193
0
LINE
8
0
10
251.9461611
20
-155.1004193
11
248.3744583
21
-141.7706429
0
LINE
8
0
10
248.3744583
20
-141.7706429
11
235.0446819
21
-145.3423457
0
LINE
8
0
10
235.0446819
20
-145.3423457
11
238.6163847
21
-158.6721221
0
LINE
8
0
10
234.0870514
20
-141.7684202
11
239.6938209
21
-140.2660908
0
LINE
8
0
10
241.8100583
20
-139.6990467
11
247.4168278
21
-138.1967174
0
LINE
8
0
10
247.4168278
20
-138.1967174
11
243.845125
21
-124.866941
0
LINE
8
0
10
243.845125
20
-124.866941
11
230.5153486
21
-128.4386438
0
LINE
8
0
10
230.5153486
20
-128.4386438
11
234.0870514
21
-141.7684202
0
LINE
8
0
10
252.0543487
20
-196.0614784
11
264.5613961
21
-190.2293464
0
LINE
8
0
10
264.5613961
20
-190.2293464
11
258.7292641
21
-177.722299
0
LINE
8
0
10
258.7292641
20
-177.722299
11
246.2222167
21
-183.554431
0
LINE
8
0
10
246.2222167
20
-183.554431
11
252.0543487
21
-196.0614784
0
LINE
8
0
10
236.2425513
20
-205.716843
11
246.8139647
21
-196.846374
0
LINE
8
0
10
246.8139647
20
-196.846374
11
237.9434957
21
-186.2749606
0
LINE
8
0
10
237.9434957
20
-186.2749606
11
227.3720823
21
-195.1454296
0
LINE
8
0
10
227.3720823
20
-195.1454296
11
236.2425513
21
-205.716843
0
ARC
8
0
10
142.1047419
20
-120.69189
40
1.1
50
170.2159071
51
339.784093
0
CIRCLE
8
0
10
121.42394
20
-161.1685121
40
1.1
0
ARC
8
0
10
194.4195301
20
-139.8859762
40
1.1
50
170.2159071
51
339.784093
0
CIRCLE
8
0
10
191.5028067
20
-182.9918369
40
1.1
0
ARC
8
0
10
293.0408459
20
-120.69189
40
1.1
50
200.215907
51
369.7840929
0
CIRCLE
8
0
10
313.7216478
20
-161.1685121
40
1.1
0
ARC
8
0
10
240.7260577
20
-139.8859762
40
1.1
50
200.215907
51
369.7840929
0
CIRCLE
8
0
10
243.6427811
20
-182.9918369
40
1.1
0
ENDSEC
0
EOF