0
SECTION
2
HEADER
9
$INSUNITS
70
4
0
ENDSEC
0
SECTION
2
TABLES
0
TABLE
2
LTYPE
0
LTYPE
72
65
70
64
2
CONTINUOUS
3
______
73
0
40
0
0
ENDTAB
0
TABLE
2
LAYER
0
ENDTAB
0
ENDSEC
0
SECTION
2
ENTITIES
0
LINE
8
0
10
150.0843544
20
-173.5067898
11
105.5288856
21
-161.5681879
0
LINE
8
0
10
103.4075651
20
-157.8939533
11
115.7972576
21
-111.6549918
0
LINE
8
0
10
117.7695078
20
-109.5777846
11
136.746534
21
-103.4229767
0
LINE
8
0
10
137.6655684
20
-103.2766479
11
155.9600276
21
-103.2370525
0
LINE
8
0
10
156.7429775
20
-103.339268
11
173.8432246
21
-107.9212653
0
LINE
8
0
10
174.5723871
20
-108.2242193
11
206.6806886
21
-126.8547294
0
LINE
8
0
10
208.1863082
20
-127.2599058
11
226.9592796
21
-127.2599058
0
LINE
8
0
10
228.4648992
20
-126.8547294
11
260.5732007
21
-108.2242193
0
LINE
8
0
10
261.3023632
20
-107.9212653
11
278.4026103
21
-103.339268
0
LINE
8
0
10
279.1855602
20
-103.2370525
11
297.4800194
21
-103.2766479
0
LINE
8
0
10
298.3990538
20
-103.4229767
11
317.37608
21
-109.5777846
0
LINE
8
0
10
319.3483302
20
-111.6549918
11
331.7380227
21
-157.8939533
0
LINE
8
0
10
329.6167022
20
-161.5681879
11
285.0612334
21
-173.5067898
0
LINE
8
0
10
283.6915705
20
-174.3083398
11
267.8554071
21
-190.5214189
0
LINE
8
0
10
266.9771421
20
-191.1441147
11
250.9043417
21
-198.6389847
0
LINE
8
0
10
250.5238576
20
-198.8513209
11
236.3818244
21
-208.1511632
0
LINE
8
0
10
234.7334854
20
-208.6445761
11
200.4121024
21
-208.6445761
0
LINE
8
0
10
198.7637634
20
-208.1511632
11
184.6217302
21
-198.8513209
0
LINE
8
0
10
184.2412461
20
-198.6389847
11
168.1684457
21
-191.1441147
0
LINE
8
0
10
167.2901807
20
-190.5214189
11
151.4540173
21
-174.3083398
0
ARC
8
0
10
106.3053426
20
-158.6704103
40
3
50
165.0000021
51
255.0000021
0
ARC
8
0
10
118.6950351
20
-112.4314488
40
3
50
107.9694047
51
165.0000021
0
ARC
8
0
10
137.6720613
20
-106.2766409
40
3
50
90.1240053
51
107.9694047
0
ARC
8
0
10
155.9665205
20
-106.2370455
40
3
50
75.0000021
51
90.1240053
0
ARC
8
0
10
173.0667675
20
-110.8190429
40
3
50
59.8759923
51
75.0000021
0
ARC
8
0
10
208.1863082
20
-124.2599058
40
3
50
239.8759923
51
270
0
ARC
8
0
10
226.9592796
20
-124.2599058
40
3
50
270
51
300.1240077
0
ARC
8
0
10
262.0788203
20
-110.8190429
40
3
50
104.9999979
51
120.1240077
0
ARC
8
0
10
279.1790673
20
-106.2370455
40
3
50
89.8759947
51
104.9999979
0
ARC
8
0
10
297.4735265
20
-106.2766409
40
3
50
72.0305953
51
89.8759947
0
ARC
8
0
10
316.4505527
20
-112.4314488
40
3
50
14.9999979
51
72.0305953
0
ARC
8
0
10
328.8402452
20
-158.6704103
40
3
50
284.9999979
51
14.9999979
0
ARC
8
0
10
285.8376904
20
-176.4045673
40
3
50
104.9999979
51
135.6737996
0
ARC
8
0
10
265.7092872
20
-188.4251914
40
3
50
295.0000017
51
315.6737996
0
ARC
8
0
10
252.1721966
20
-201.3579081
40
3
50
115.0000017
51
123.3290361
0
ARC
8
0
10
234.7334854
20
-205.6445761
40
3
50
270
51
303.3290361
0
ARC
8
0
10
200.4121024
20
-205.6445761
40
3
50
236.6709639
51
270
0
ARC
8
0
10
182.9733912
20
-201.3579081
40
3
50
56.6709639
51
64.9999983
0
ARC
8
0
10
169.4363006
20
-188.4251914
40
3
50
224.3262004
51
244.9999983
0
ARC
8
0
10
149.3078974
20
-176.4045673
40
3
50
44.3262004
51
75.0000021
0
LINE
8
0
10
105.1753322
20
-160.9558154
11
118.2153308
21
-164.4498725
0
LINE
8
0
10
120.6648205
20
-163.0356588
11
123.9000585
21
-150.9615861
0
LINE
8
0
10
122.4858448
20
-148.5120964
11
109.4458462
21
-145.0180393
0
LINE
8
0
10
106.9963565
20
-146.432253
11
103.7611185
21
-158.5063257
0
LINE
8
0
10
109.7046655
20
-144.0521135
11
122.7446641
21
-147.5461706
0
LINE
8
0
10
125.1941538
20
-146.1319569
11
128.4293918
21
-134.0578842
0
LINE
8
0
10
127.0151781
20
-131.6083945
11
113.9751795
21
-128.1143374
0
LINE
8
0
10
111.5256898
20
-129.5285511
11
108.2904518
21
-141.6026238
0
LINE
8
0
10
114.2339988
20
-127.1484115
11
127.2739974
21
-130.6424686
0
LINE
8
0
10
129.7234871
20
-129.2282549
11
132.9587251
21
-117.1541822
0
LINE
8
0
10
131.5445114
20
-114.7046925
11
118.5045128
21
-111.2106354
0
LINE
8
0
10
116.0550231
20
-112.6248491
11
112.8197851
21
-124.6989218
0
LINE
8
0
10
126.1507886
20
-154.1528578
11
139.1907872
21
-157.6469149
0
LINE
8
0
10
141.6402769
20
-156.2327012
11
144.8755149
21
-144.1586285
0
LINE
8
0
10
143.4613012
20
-141.7091388
11
130.4213026
21
-138.2150817
0
LINE
8
0
10
127.9718129
20
-139.6292954
11
124.7365749
21
-151.7033681
0
LINE
8
0
10
130.6801218
20
-137.2491559
11
143.7201204
21
-140.743213
0
LINE
8
0
10
146.1696101
20
-139.3289993
11
149.4048481
21
-127.2549266
0
LINE
8
0
10
147.9906344
20
-124.8054369
11
134.9506358
21
-121.3113798
0
LINE
8
0
10
132.5011461
20
-122.7255935
11
129.2659081
21
-134.7996662
0
LINE
8
0
10
135.2094551
20
-120.3454539
11
148.2494537
21
-123.839511
0
LINE
8
0
10
150.6989434
20
-122.4252973
11
153.9341814
21
-110.3512246
0
LINE
8
0
10
152.5199677
20
-107.9017349
11
139.4799691
21
-104.4076778
0
LINE
8
0
10
137.0304794
20
-105.8218915
11
133.7952414
21
-117.8959642
0
LINE
8
0
10
145.3145116
20
-154.111381
11
158.3545102
21
-157.6054381
0
LINE
8
0
10
160.8039999
20
-156.1912244
11
164.0392379
21
-144.1171517
0
LINE
8
0
10
162.6250242
20
-141.667662
11
149.5850256
21
-138.1736049
0
LINE
8
0
10
147.1355359
20
-139.5878186
11
143.9002979
21
-151.6618913
0
LINE
8
0
10
149.8438449
20
-137.2076791
11
162.8838435
21
-140.7017362
0
LINE
8
0
10
165.3333332
20
-139.2875225
11
168.5685712
21
-127.2134498
0
LINE
8
0
10
167.1543575
20
-124.7639601
11
154.1143589
21
-121.269903
0
LINE
8
0
10
151.6648692
20
-122.6841167
11
148.4296312
21
-134.7581894
0
LINE
8
0
10
154.3731781
20
-120.3039771
11
167.4131767
21
-123.7980342
0
LINE
8
0
10
169.8626664
20
-122.3838205
11
173.0979044
21
-110.3097478
0
LINE
8
0
10
171.6836907
20
-107.8602581
11
158.6436921
21
-104.366201
0
LINE
8
0
10
156.1942024
20
-105.7804147
11
152.9589644
21
-117.8544874
0
LINE
8
0
10
161.8900441
20
-163.7291625
11
174.9300427
21
-167.2232196
0
LINE
8
0
10
177.3795324
20
-165.8090059
11
180.6147704
21
-153.7349332
0
LINE
8
0
10
179.2005567
20
-151.2854435
11
166.1605581
21
-147.7913864
0
LINE
8
0
10
163.7110684
20
-149.2056001
11
160.4758304
21
-161.2796728
0
LINE
8
0
10
166.4193774
20
-146.8254605
11
179.459376
21
-150.3195176
0
LINE
8
0
10
181.9088657
20
-148.9053039
11
185.1441037
21
-136.8312312
0
LINE
8
0
10
183.72989
20
-134.3817415
11
170.6898914
21
-130.8876844
0
LINE
8
0
10
168.2404017
20
-132.3018981
11
165.0051637
21
-144.3759708
0
LINE
8
0
10
170.9487107
20
-129.9217586
11
183.9887093
21
-133.4158157
0
LINE
8
0
10
186.438199
20
-132.001602
11
189.673437
21
-119.9275293
0
LINE
8
0
10
188.2592233
20
-117.4780396
11
175.2192247
21
-113.9839825
0
LINE
8
0
10
172.769735
20
-115.3981962
11
169.534497
21
-127.4722689
0
LINE
8
0
10
178.4655767
20
-173.346944
11
191.5055753
21
-176.8410011
0
LINE
8
0
10
193.955065
20
-175.4267874
11
197.190303
21
-163.3527147
0
LINE
8
0
10
195.7760893
20
-160.903225
11
182.7360907
21
-157.4091679
0
LINE
8
0
10
180.286601
20
-158.8233816
11
177.051363
21
-170.8974543
0
LINE
8
0
10
182.99491
20
-156.443242
11
196.0349086
21
-159.9372991
0
LINE
8
0
10
198.4843983
20
-158.5230854
11
201.7196363
21
-146.4490127
0
LINE
8
0
10
200.3054226
20
-143.999523
11
187.265424
21
-140.5054659
0
LINE
8
0
10
184.8159343
20
-141.9196796
11
181.5806963
21
-153.9937523
0
LINE
8
0
10
187.5242433
20
-139.5395401
11
200.5642419
21
-143.0335972
0
LINE
8
0
10
203.0137316
20
-141.6193835
11
206.2489696
21
-129.5453108
0
LINE
8
0
10
204.8347559
20
-127.0958211
11
191.7947573
21
-123.601764
0
LINE
8
0
10
189.3452676
20
-125.0159777
11
186.1100296
21
-137.0900504
0
LINE
8
0
10
170.1496031
20
-191.5162547
11
182.3847583
21
-197.2216012
0
LINE
8
0
10
185.0426104
20
-196.2542222
11
190.3253386
21
-184.9253748
0
LINE
8
0
10
189.3579597
20
-182.2675227
11
177.1228045
21
-176.5621762
0
LINE
8
0
10
174.4649524
20
-177.5295552
11
169.1822242
21
-188.8584026
0
LINE
8
0
10
187.5787665
20
-197.9769521
11
197.9203665
21
-206.6545848
0
LINE
8
0
10
200.7380306
20
-206.4080712
11
208.7728757
21
-196.8325156
0
LINE
8
0
10
208.5263621
20
-194.0148515
11
198.1847621
21
-185.3372188
0
LINE
8
0
10
195.367098
20
-185.5837324
11
187.3322529
21
-195.159288
0
LINE
8
0
10
316.930257
20
-164.4498725
11
329.9702556
21
-160.9558154
0
LINE
8
0
10
331.3844693
20
-158.5063257
11
328.1492313
21
-146.432253
0
LINE
8
0
10
325.6997416
20
-145.0180393
11
312.659743
21
-148.5120964
0
LINE
8
0
10
311.2455293
20
-150.9615861
11
314.4807673
21
-163.0356588
0
LINE
8
0
10
312.4009237
20
-147.5461706
11
325.4409223
21
-144.0521135
0
LINE
8
0
10
326.855136
20
-141.6026238
11
323.619898
21
-129.5285511
0
LINE
8
0
10
321.1704083
20
-128.1143374
11
308.1304097
21
-131.6083945
0
LINE
8
0
10
306.716196
20
-134.0578842
11
309.951434
21
-146.1319569
0
LINE
8
0
10
307.8715904
20
-130.6424686
11
320.911589
21
-127.1484115
0
LINE
8
0
10
322.3258027
20
-124.6989218
11
319.0905647
21
-112.6248491
0
LINE
8
0
10
316.641075
20
-111.2106354
11
303.6010764
21
-114.7046925
0
LINE
8
0
10
302.1868627
20
-117.1541822
11
305.4221007
21
-129.2282549
0
LINE
8
0
10
295.9548006
20
-157.6469149
11
308.9947992
21
-154.1528578
0
LINE
8
0
10
310.4090129
20
-151.7033681
11
307.1737749
21
-139.6292954
0
LINE
8
0
10
304.7242852
20
-138.2150817
11
291.6842866
21
-141.7091388
0
LINE
8
0
10
290.2700729
20
-144.1586285
11
293.5053109
21
-156.2327012
0
LINE
8
0
10
291.4254674
20
-140.743213
11
304.465466
21
-137.2491559
0
LINE
8
0
10
305.8796797
20
-134.7996662
11
302.6444417
21
-122.7255935
0
LINE
8
0
10
300.194952
20
-121.3113798
11
287.1549534
21
-124.8054369
0
LINE
8
0
10
285.7407397
20
-127.2549266
11
288.9759777
21
-139.3289993
0
LINE
8
0
10
286.8961341
20
-123.839511
11
299.9361327
21
-120.3454539
0
LINE
8
0
10
301.3503464
20
-117.8959642
11
298.1151084
21
-105.8218915
0
LINE
8
0
10
295.6656187
20
-104.4076778
11
282.6256201
21
-107.9017349
0
LINE
8
0
10
281.2114064
20
-110.3512246
11
284.4466444
21
-122.4252973
0
LINE
8
0
10
276.7910776
20
-157.6054381
11
289.8310762
21
-154.111381
0
LINE
8
0
10
291.2452899
20
-151.6618913
11
288.0100519
21
-139.5878186
0
LINE
8
0
10
285.5605622
20
-138.1736049
11
272.5205636
21
-141.667662
0
LINE
8
0
10
271.1063499
20
-144.1171517
11
274.3415879
21
-156.1912244
0
LINE
8
0
10
272.2617443
20
-140.7017362
11
285.3017429
21
-137.2076791
0
LINE
8
0
10
286.7159566
20
-134.7581894
11
283.4807186
21
-122.6841167
0
LINE
8
0
10
281.0312289
20
-121.269903
11
267.9912303
21
-124.7639601
0
LINE
8
0
10
266.5770166
20
-127.2134498
11
269.8122546
21
-139.2875225
0
LINE
8
0
10
267.7324111
20
-123.7980342
11
280.7724097
21
-120.3039771
0
LINE
8
0
10
282.1866234
20
-117.8544874
11
278.9513854
21
-105.7804147
0
LINE
8
0
10
276.5018957
20
-104.366201
11
263.4618971
21
-107.8602581
0
LINE
8
0
10
262.0476834
20
-110.3097478
11
265.2829214
21
-122.3838205
0
LINE
8
0
10
260.2155451
20
-167.2232196
11
273.2555437
21
-163.7291625
0
LINE
8
0
10
274.6697574
20
-161.2796728
11
271.4345194
21
-149.2056001
0
LINE
8
0
10
268.9850297
20
-147.7913864
11
255.9450311
21
-151.2854435
0
LINE
8
0
10
254.5308174
20
-153.7349332
11
257.7660554
21
-165.8090059
0
LINE
8
0
10
255.6862118
20
-150.3195176
11
268.7262104
21
-146.8254605
0
LINE
8
0
10
270.1404241
20
-144.3759708
11
266.9051861
21
-132.3018981
0
LINE
8
0
10
264.4556964
20
-130.8876844
11
251.4156978
21
-134.3817415
0
LINE
8
0
10
250.0014841
20
-136.8312312
11
253.2367221
21
-148.9053039
0
LINE
8
0
10
251.1568785
20
-133.4158157
11
264.1968771
21
-129.9217586
0
LINE
8
0
10
265.6110908
20
-127.4722689
11
262.3758528
21
-115.3981962
0
LINE
8
0
10
259.9263631
20
-113.9839825
11
246.8863645
21
-117.4780396
0
LINE
8
0
10
245.4721508
20
-119.9275293
11
248.7073888
21
-132.001602
0
LINE
8
0
10
243.6400125
20
-176.8410011
11
256.6800111
21
-173.346944
0
LINE
8
0
10
258.0942248
20
-170.8974543
11
254.8589868
21
-158.8233816
0
LINE
8
0
10
252.4094971
20
-157.4091679
11
239.3694985
21
-160.903225
0
LINE
8
0
10
237.9552848
20
-163.3527147
11
241.1905228
21
-175.4267874
0
LINE
8
0
10
239.1106792
20
-159.9372991
11
252.1506778
21
-156.443242
0
LINE
8
0
10
253.5648915
20
-153.9937523
11
250.3296535
21
-141.9196796
0
LINE
8
0
10
247.8801638
20
-140.5054659
11
234.8401652
21
-143.999523
0
LINE
8
0
10
233.4259515
20
-146.4490127
11
236.6611895
21
-158.5230854
0
LINE
8
0
10
234.5813459
20
-143.0335972
11
247.6213445
21
-139.5395401
0
LINE
8
0
10
249.0355582
20
-137.0900504
11
245.8003202
21
-125.0159777
0
LINE
8
0
10
243.3508305
20
-123.601764
11
230.3108319
21
-127.0958211
0
LINE
8
0
10
228.8966182
20
-129.5453108
11
232.1318562
21
-141.6193835
0
LINE
8
0
10
252.7608295
20
-197.2216012
11
264.9959847
21
-191.5162547
0
LINE
8
0
10
265.9633636
20
-188.8584026
11
260.6806354
21
-177.5295552
0
LINE
8
0
10
258.0227833
20
-176.5621762
11
245.7876281
21
-182.2675227
0
LINE
8
0
10
244.8202492
20
-184.9253748
11
250.1029774
21
-196.2542222
0
LINE
8
0
10
237.2252213
20
-206.6545848
11
247.5668213
21
-197.9769521
0
LINE
8
0
10
247.8133349
20
-195.159288
11
239.7784898
21
-185.5837324
0
LINE
8
0
10
236.9608257
20
-185.3372188
11
226.6192257
21
-194.0148515
0
LINE
8
0
10
226.3727121
20
-196.8325156
11
234.4075572
21
-206.4080712
0
ARC
8
0
10
199.2059417
20
-205.1224959
40
2
50
229.9999988
51
319.9999988
0
ARC
8
0
10
207.2407869
20
-195.5469404
40
2
50
319.9999988
51
49.9999988
0
ARC
8
0
10
196.8991869
20
-186.8693077
40
2
50
49.9999988
51
139.9999988
0
ARC
8
0
10
188.8643417
20
-196.4448632
40
2
50
139.9999988
51
229.9999988
0
ARC
8
0
10
246.2812461
20
-196.4448632
40
2
50
310.0000012
51
40.0000012
0
ARC
8
0
10
238.2464009
20
-186.8693077
40
2
50
40.0000012
51
130.0000012
0
ARC
8
0
10
227.9048009
20
-195.5469404
40
2
50
130.0000012
51
220.0000012
0
ARC
8
0
10
235.9396461
20
-205.1224959
40
2
50
220.0000012
51
310.0000012
0
ARC
8
0
10
329.4526176
20
-159.0239637
40
2
50
284.9999979
51
14.9999979
0
ARC
8
0
10
326.2173796
20
-146.949891
40
2
50
14.9999979
51
104.9999979
0
ARC
8
0
10
313.177381
20
-150.4439481
40
2
50
104.9999979
51
194.9999979
0
ARC
8
0
10
316.412619
20
-162.5180208
40
2
50
194.9999979
51
284.9999979
0
ARC
8
0
10
308.4771612
20
-152.2210061
40
2
50
284.9999979
51
14.9999979
0
ARC
8
0
10
305.2419232
20
-140.1469334
40
2
50
14.9999979
51
104.9999979
0
ARC
8
0
10
292.2019246
20
-143.6409905
40
2
50
104.9999979
51
194.9999979
0
ARC
8
0
10
295.4371626
20
-155.7150632
40
2
50
194.9999979
51
284.9999979
0
ARC
8
0
10
289.3134382
20
-152.1795293
40
2
50
284.9999979
51
14.9999979
0
ARC
8
0
10
286.0782002
20
-140.1054566
40
2
50
14.9999979
51
104.9999979
0
ARC
8
0
10
273.0382016
20
-143.5995137
40
2
50
104.9999979
51
194.9999979
0
ARC
8
0
10
276.2734396
20
-155.6735864
40
2
50
194.9999979
51
284.9999979
0
ARC
8
0
10
320.393951
20
-125.2165598
40
2
50
284.9999979
51
14.9999979
0
ARC
8
0
10
317.158713
20
-113.1424871
40
2
50
14.9999979
51
104.9999979
0
ARC
8
0
10
304.1187144
20
-116.6365442
40
2
50
104.9999979
51
194.9999979
0
ARC
8
0
10
307.3539524
20
-128.7106169
40
2
50
194.9999979
51
284.9999979
0
ARC
8
0
10
303.947828
20
-135.3173042
40
2
50
284.9999979
51
14.9999979
0
ARC
8
0
10
300.71259
20
-123.2432315
40
2
50
14.9999979
51
104.9999979
0
ARC
8
0
10
287.6725914
20
-126.7372886
40
2
50
104.9999979
51
194.9999979
0
ARC
8
0
10
290.9078294
20
-138.8113613
40
2
50
194.9999979
51
284.9999979
0
ARC
8
0
10
284.7841049
20
-135.2758274
40
2
50
284.9999979
51
14.9999979
0
ARC
8
0
10
281.5488669
20
-123.2017547
40
2
50
14.9999979
51
104.9999979
0
ARC
8
0
10
268.5088683
20
-126.6958118
40
2
50
104.9999979
51
194.9999979
0
ARC
8
0
10
271.7441063
20
-138.7698845
40
2
50
194.9999979
51
284.9999979
0
ARC
8
0
10
299.4184947
20
-118.4136022
40
2
50
284.9999979
51
14.9999979
0
ARC
8
0
10
296.1832567
20
-106.3395295
40
2
50
14.9999979
51
104.9999979
0
ARC
8
0
10
283.1432581
20
-109.8335866
40
2
50
104.9999979
51
194.9999979
0
ARC
8
0
10
286.3784961
20
-121.9076593
40
2
50
194.9999979
51
284.9999979
0
ARC
8
0
10
280.2547717
20
-118.3721254
40
2
50
284.9999979
51
14.9999979
0
ARC
8
0
10
277.0195337
20
-106.2980527
40
2
50
14.9999979
51
104.9999979
0
ARC
8
0
10
263.9795351
20
-109.7921098
40
2
50
104.9999979
51
194.9999979
0
ARC
8
0
10
267.2147731
20
-121.8661825
40
2
50
194.9999979
51
284.9999979
0
ARC
8
0
10
256.1623731
20
-171.4150923
40
2
50
284.9999979
51
14.9999979
0
ARC
8
0
10
252.9271351
20
-159.3410196
40
2
50
14.9999979
51
104.9999979
0
ARC
8
0
10
239.8871365
20
-162.8350767
40
2
50
104.9999979
51
194.9999979
0
ARC
8
0
10
243.1223745
20
-174.9091494
40
2
50
194.9999979
51
284.9999979
0
ARC
8
0
10
118.7329688
20
-162.5180208
40
2
50
255.0000021
51
345.0000021
0
ARC
8
0
10
121.9682068
20
-150.4439481
40
2
50
345.0000021
51
75.0000021
0
ARC
8
0
10
108.9282082
20
-146.949891
40
2
50
75.0000021
51
165.0000021
0
ARC
8
0
10
105.6929702
20
-159.0239637
40
2
50
165.0000021
51
255.0000021
0
ARC
8
0
10
127.7916354
20
-128.7106169
40
2
50
255.0000021
51
345.0000021
0
ARC
8
0
10
131.0268734
20
-116.6365442
40
2
50
345.0000021
51
75.0000021
0
ARC
8
0
10
117.9868748
20
-113.1424871
40
2
50
75.0000021
51
165.0000021
0
ARC
8
0
10
114.7516368
20
-125.2165598
40
2
50
165.0000021
51
255.0000021
0
ARC
8
0
10
139.7084252
20
-155.7150632
40
2
50
255.0000021
51
345.0000021
0
ARC
8
0
10
142.9436632
20
-143.6409905
40
2
50
345.0000021
51
75.0000021
0
ARC
8
0
10
129.9036646
20
-140.1469334
40
2
50
75.0000021
51
165.0000021
0
ARC
8
0
10
126.6684266
20
-152.2210061
40
2
50
165.0000021
51
255.0000021
0
ARC
8
0
10
158.8721482
20
-155.6735864
40
2
50
255.0000021
51
345.0000021
0
ARC
8
0
10
162.1073862
20
-143.5995137
40
2
50
345.0000021
51
75.0000021
0
ARC
8
0
10
149.0673876
20
-140.1054566
40
2
50
75.0000021
51
165.0000021
0
ARC
8
0
10
145.8321496
20
-152.1795293
40
2
50
165.0000021
51
255.0000021
0
ARC
8
0
10
163.4014815
20
-138.7698845
40
2
50
255.0000021
51
345.0000021
0
ARC
8
0
10
166.6367195
20
-126.6958118
40
2
50
345.0000021
51
75.0000021
0
ARC
8
0
10
153.5967209
20
-123.2017547
40
2
50
75.0000021
51
165.0000021
0
ARC
8
0
10
150.3614829
20
-135.2758274
40
2
50
165.0000021
51
255.0000021
0
ARC
8
0
10
196.5525466
20
-158.0054474
40
2
50
255.0000021
51
345.0000021
0
ARC
8
0
10
199.7877846
20
-145.9313747
40
2
50
345.0000021
51
75.0000021
0
ARC
8
0
10
186.747786
20
-142.4373176
40
2
50
75.0000021
51
165.0000021
0
ARC
8
0
10
183.512548
20
-154.5113903
40
2
50
165.0000021
51
255.0000021
0
ARC
8
0
10
324.9232843
20
-142.1202618
40
2
50
284.9999979
51
14.9999979
0
ARC
8
0
10
321.6880463
20
-130.0461891
40
2
50
14.9999979
51
104.9999979
0
ARC
8
0
10
308.6480477
20
-133.5402462
40
2
50
104.9999979
51
194.9999979
0
ARC
8
0
10
311.8832857
20
-145.6143189
40
2
50
194.9999979
51
284.9999979
0
ARC
8
0
10
263.6792391
20
-127.9899069
40
2
50
284.9999979
51
14.9999979
0
ARC
8
0
10
260.4440011
20
-115.9158342
40
2
50
14.9999979
51
104.9999979
0
ARC
8
0
10
247.4040025
20
-119.4098913
40
2
50
104.9999979
51
194.9999979
0
ARC
8
0
10
250.6392405
20
-131.483964
40
2
50
194.9999979
51
284.9999979
0
ARC
8
0
10
251.6330398
20
-154.5113903
40
2
50
284.9999979
51
14.9999979
0
ARC
8
0
10
248.3978018
20
-142.4373176
40
2
50
14.9999979
51
104.9999979
0
ARC
8
0
10
235.3578032
20
-145.9313747
40
2
50
104.9999979
51
194.9999979
0
ARC
8
0
10
238.5930412
20
-158.0054474
40
2
50
194.9999979
51
284.9999979
0
ARC
8
0
10
192.0232133
20
-174.9091494
40
2
50
255.0000021
51
345.0000021
0
ARC
8
0
10
195.2584513
20
-162.8350767
40
2
50
345.0000021
51
75.0000021
0
ARC
8
0
10
182.2184527
20
-159.3410196
40
2
50
75.0000021
51
165.0000021
0
ARC
8
0
10
178.9832147
20
-171.4150923
40
2
50
165.0000021
51
255.0000021
0
ARC
8
0
10
144.2377584
20
-138.8113613
40
2
50
255.0000021
51
345.0000021
0
ARC
8
0
10
147.4729964
20
-126.7372886
40
2
50
345.0000021
51
75.0000021
0
ARC
8
0
10
134.4329978
20
-123.2432315
40
2
50
75.0000021
51
165.0000021
0
ARC
8
0
10
131.1977598
20
-135.3173042
40
2
50
165.0000021
51
255.0000021
0
ARC
8
0
10
148.7670917
20
-121.9076593
40
2
50
255.0000021
51
345.0000021
0
ARC
8
0
10
152.0023297
20
-109.8335866
40
2
50
345.0000021
51
75.0000021
0
ARC
8
0
10
138.9623311
20
-106.3395295
40
2
50
75.0000021
51
165.0000021
0
ARC
8
0
10
135.7270931
20
-118.4136022
40
2
50
165.0000021
51
255.0000021
0
ARC
8
0
10
167.9308147
20
-121.8661825
40
2
50
255.0000021
51
345.0000021
0
ARC
8
0
10
171.1660527
20
-109.7921098
40
2
50
345.0000021
51
75.0000021
0
ARC
8
0
10
158.1260541
20
-106.2980527
40
2
50
75.0000021
51
165.0000021
0
ARC
8
0
10
154.8908161
20
-118.3721254
40
2
50
165.0000021
51
255.0000021
0
ARC
8
0
10
184.5063473
20
-131.483964
40
2
50
255.0000021
51
345.0000021
0
ARC
8
0
10
187.7415853
20
-119.4098913
40
2
50
345.0000021
51
75.0000021
0
ARC
8
0
10
174.7015867
20
-115.9158342
40
2
50
75.0000021
51
165.0000021
0
ARC
8
0
10
171.4663487
20
-127.9899069
40
2
50
165.0000021
51
255.0000021
0
ARC
8
0
10
123.2623021
20
-145.6143189
40
2
50
255.0000021
51
345.0000021
0
ARC
8
0
10
126.4975401
20
-133.5402462
40
2
50
345.0000021
51
75.0000021
0
ARC
8
0
10
113.4575415
20
-130.0461891
40
2
50
75.0000021
51
165.0000021
0
ARC
8
0
10
110.2223035
20
-142.1202618
40
2
50
165.0000021
51
255.0000021
0
ARC
8
0
10
175.4476807
20
-165.2913679
40
2
50
255.0000021
51
345.0000021
0
ARC
8
0
10
178.6829187
20
-153.2172952
40
2
50
345.0000021
51
75.0000021
0
ARC
8
0
10
165.6429201
20
-149.7232381
40
2
50
75.0000021
51
165.0000021
0
ARC
8
0
10
162.4076821
20
-161.7973108
40
2
50
165.0000021
51
255.0000021
0
ARC
8
0
10
201.0818799
20
-141.1017455
40
2
50
255.0000021
51
345.0000021
0
ARC
8
0
10
204.3171179
20
-129.0276728
40
2
50
345.0000021
51
75.0000021
0
ARC
8
0
10
191.2771193
20
-125.5336157
40
2
50
75.0000021
51
165.0000021
0
ARC
8
0
10
188.0418813
20
-137.6076884
40
2
50
165.0000021
51
255.0000021
0
ARC
8
0
10
272.7379057
20
-161.7973108
40
2
50
284.9999979
51
14.9999979
0
ARC
8
0
10
269.5026677
20
-149.7232381
40
2
50
14.9999979
51
104.9999979
0
ARC
8
0
10
256.4626691
20
-153.2172952
40
2
50
104.9999979
51
194.9999979
0
ARC
8
0
10
259.6979071
20
-165.2913679
40
2
50
194.9999979
51
284.9999979
0
ARC
8
0
10
268.2085724
20
-144.8936088
40
2
50
284.9999979
51
14.9999979
0
ARC
8
0
10
264.9733344
20
-132.8195361
40
2
50
14.9999979
51
104.9999979
0
ARC
8
0
10
251.9333358
20
-136.3135932
40
2
50
104.9999979
51
194.9999979
0
ARC
8
0
10
255.1685738
20
-148.3876659
40
2
50
194.9999979
51
284.9999979
0
ARC
8
0
10
247.1037065
20
-137.6076884
40
2
50
284.9999979
51
14.9999979
0
ARC
8
0
10
243.8684685
20
-125.5336157
40
2
50
14.9999979
51
104.9999979
0
ARC
8
0
10
230.8284699
20
-129.0276728
40
2
50
104.9999979
51
194.9999979
0
ARC
8
0
10
234.0637079
20
-141.1017455
40
2
50
194.9999979
51
284.9999979
0
ARC
8
0
10
179.977014
20
-148.3876659
40
2
50
255.0000021
51
345.0000021
0
ARC
8
0
10
183.212252
20
-136.3135932
40
2
50
345.0000021
51
75.0000021
0
ARC
8
0
10
170.1722534
20
-132.8195361
40
2
50
75.0000021
51
165.0000021
0
ARC
8
0
10
166.9370154
20
-144.8936088
40
2
50
165.0000021
51
255.0000021
0
ARC
8
0
10
264.1507481
20
-189.7036391
40
2
50
295.0000017
51
25.0000017
0
ARC
8
0
10
258.8680198
20
-178.3747918
40
2
50
25.0000017
51
115.0000017
0
ARC
8
0
10
246.6328647
20
-184.0801383
40
2
50
115.0000017
51
205.0000017
0
ARC
8
0
10
251.915593
20
-195.4089856
40
2
50
205.0000017
51
295.0000017
0
ARC
8
0
10
183.2299948
20
-195.4089856
40
2
50
244.9999983
51
334.9999983
0
ARC
8
0
10
188.5127231
20
-184.0801383
40
2
50
334.9999983
51
64.9999983
0
ARC
8
0
10
176.277568
20
-178.3747918
40
2
50
64.9999983
51
154.9999983
0
ARC
8
0
10
170.9948397
20
-189.7036391
40
2
50
154.9999983
51
244.9999983
0
ENDSEC
0
EOF