0
SECTION
2
HEADER
9
$INSUNITS
70
4
0
ENDSEC
0
SECTION
2
TABLES
0
TABLE
2
LTYPE
0
LTYPE
72
65
70
64
2
CONTINUOUS
3
______
73
0
40
0
0
ENDTAB
0
TABLE
2
LAYER
0
ENDTAB
0
ENDSEC
0
SECTION
2
ENTITIES
0
LINE
8
0
10
38.9773082
20
-20.2790619
11
-9.2202616
21
-7.3645621
0
LINE
8
0
10
-11.3415821
20
-3.6903275
11
1.1818951
21
43.0479257
0
LINE
8
0
10
3.1292916
20
45.1169521
11
21.6242079
21
51.2941875
0
LINE
8
0
10
22.5316976
20
51.4483975
11
40.3558699
21
51.7032583
0
LINE
8
0
10
41.1752182
20
51.6013424
11
59.6885456
21
46.6407113
0
LINE
8
0
10
60.4490804
20
46.3192987
11
91.5144022
21
27.7865425
0
LINE
8
0
10
93.051394
20
27.3629074
11
109.9481476
21
27.3629074
0
LINE
8
0
10
111.4851394
20
27.7865425
11
142.5504612
21
46.3192987
0
LINE
8
0
10
143.310996
20
46.6407113
11
161.8243234
21
51.6013424
0
LINE
8
0
10
162.6436717
20
51.7032583
11
180.467844
21
51.4483975
0
LINE
8
0
10
181.3753337
20
51.2941875
11
199.87025
21
45.1169521
0
LINE
8
0
10
201.8176465
20
43.0479257
11
214.3411237
21
-3.6903275
0
LINE
8
0
10
212.2198032
20
-7.3645621
11
164.0222334
21
-20.2790619
0
LINE
8
0
10
162.3308644
20
-21.4710158
11
152.6005273
21
-35.547958
0
LINE
8
0
10
151.4005561
20
-36.5610577
11
134.2310864
21
-44.5673128
0
LINE
8
0
10
133.8116623
20
-44.805694
11
120.4240504
21
-53.9120243
0
LINE
8
0
10
118.7367715
20
-54.4314821
11
84.2627701
21
-54.4314821
0
LINE
8
0
10
82.5754912
20
-53.9120243
11
69.1878793
21
-44.805694
0
LINE
8
0
10
68.7684552
20
-44.5673128
11
51.5989855
21
-36.5610577
0
LINE
8
0
10
50.3990143
20
-35.547958
11
40.6686772
21
-21.4710158
0
ARC
8
0
10
-8.4438046
20
-4.4667845
40
3
50
165.0000021
51
255.0000021
0
ARC
8
0
10
4.0796726
20
42.2714687
40
3
50
108.4691312
51
165.0000021
0
ARC
8
0
10
22.5745889
20
48.4487041
40
3
50
90.8191914
51
108.4691312
0
ARC
8
0
10
40.3987612
20
48.7035649
40
3
50
75.0000021
51
90.8191914
0
ARC
8
0
10
58.9120886
20
43.7429338
40
3
50
59.1808049
51
75.0000021
0
ARC
8
0
10
93.051394
20
30.3629074
40
3
50
239.1808049
51
270
0
ARC
8
0
10
109.9481476
20
30.3629074
40
3
50
270
51
300.8191951
0
ARC
8
0
10
144.087453
20
43.7429338
40
3
50
104.9999979
51
120.8191951
0
ARC
8
0
10
162.6007804
20
48.7035649
40
3
50
89.1808086
51
104.9999979
0
ARC
8
0
10
180.4249527
20
48.4487041
40
3
50
71.5308688
51
89.1808086
0
ARC
8
0
10
198.919869
20
42.2714687
40
3
50
14.9999979
51
71.5308688
0
ARC
8
0
10
211.4433462
20
-4.4667845
40
3
50
284.9999979
51
14.9999979
0
ARC
8
0
10
164.7986905
20
-23.1768394
40
3
50
104.9999979
51
145.346793
0
ARC
8
0
10
150.1327012
20
-33.8421343
40
3
50
295.0000017
51
325.346793
0
ARC
8
0
10
135.4989412
20
-47.2862362
40
3
50
115.0000017
51
124.2237599
0
ARC
8
0
10
118.7367715
20
-51.4314821
40
3
50
270
51
304.2237599
0
ARC
8
0
10
84.2627701
20
-51.4314821
40
3
50
235.7762401
51
270
0
ARC
8
0
10
67.5006004
20
-47.2862362
40
3
50
55.7762401
51
64.9999983
0
ARC
8
0
10
52.8668404
20
-33.8421343
40
3
50
214.653207
51
244.9999983
0
ARC
8
0
10
38.2008511
20
-23.1768394
40
3
50
34.653207
51
75.0000021
0
ENDSEC
0
EOF