0
SECTION
2
HEADER
9
$INSUNITS
70
4
0
ENDSEC
0
SECTION
2
TABLES
0
TABLE
2
LTYPE
0
LTYPE
72
65
70
64
2
CONTINUOUS
3
______
73
0
40
0
0
ENDTAB
0
TABLE
2
LAYER
0
ENDTAB
0
ENDSEC
0
SECTION
2
ENTITIES
0
LINE
8
0
10
-6.9
20
-6.9
11
6.9
21
-6.9
0
LINE
8
0
10
6.9
20
-6.9
11
6.9
21
6.9
0
LINE
8
0
10
6.9
20
6.9
11
-6.9
21
6.9
0
LINE
8
0
10
-6.9
20
6.9
11
-6.9
21
-6.9
0
LINE
8
0
10
-6.9
20
10.1
11
6.9
21
10.1
0
LINE
8
0
10
6.9
20
10.1
11
6.9
21
23.9
0
LINE
8
0
10
6.9
20
23.9
11
-6.9
21
23.9
0
LINE
8
0
10
-6.9
20
23.9
11
-6.9
21
10.1
0
LINE
8
0
10
-6.9
20
27.1
11
6.9
21
27.1
0
LINE
8
0
10
6.9
20
27.1
11
6.9
21
40.9
0
LINE
8
0
10
6.9
20
40.9
11
-6.9
21
40.9
0
LINE
8
0
10
-6.9
20
40.9
11
-6.9
21
27.1
0
LINE
8
0
10
-6.9
20
44.1
11
6.9
21
44.1
0
LINE
8
0
10
6.9
20
44.1
11
6.9
21
57.9
0
LINE
8
0
10
6.9
20
57.9
11
-6.9
21
57.9
0
LINE
8
0
10
-6.9
20
57.9
11
-6.9
21
44.1
0
LINE
8
0
10
11.1
20
-6.9
11
24.9
21
-6.9
0
LINE
8
0
10
24.9
20
-6.9
11
24.9
21
6.9
0
LINE
8
0
10
24.9
20
6.9
11
11.1
21
6.9
0
LINE
8
0
10
11.1
20
6.9
11
11.1
21
-6.9
0
LINE
8
0
10
11.1
20
10.1
11
24.9
21
10.1
0
LINE
8
0
10
24.9
20
10.1
11
24.9
21
23.9
0
LINE
8
0
10
24.9
20
23.9
11
11.1
21
23.9
0
LINE
8
0
10
11.1
20
23.9
11
11.1
21
10.1
0
LINE
8
0
10
11.1
20
27.1
11
24.9
21
27.1
0
LINE
8
0
10
24.9
20
27.1
11
24.9
21
40.9
0
LINE
8
0
10
24.9
20
40.9
11
11.1
21
40.9
0
LINE
8
0
10
11.1
20
40.9
11
11.1
21
27.1
0
LINE
8
0
10
11.1
20
44.1
11
24.9
21
44.1
0
LINE
8
0
10
24.9
20
44.1
11
24.9
21
57.9
0
LINE
8
0
10
24.9
20
57.9
11
11.1
21
57.9
0
LINE
8
0
10
11.1
20
57.9
11
11.1
21
44.1
0
LINE
8
0
10
29.1
20
-6.9
11
42.9
21
-6.9
0
LINE
8
0
10
42.9
20
-6.9
11
42.9
21
6.9
0
LINE
8
0
10
42.9
20
6.9
11
29.1
21
6.9
0
LINE
8
0
10
29.1
20
6.9
11
29.1
21
-6.9
0
LINE
8
0
10
29.1
20
10.1
11
42.9
21
10.1
0
LINE
8
0
10
42.9
20
10.1
11
42.9
21
23.9
0
LINE
8
0
10
42.9
20
23.9
11
29.1
21
23.9
0
LINE
8
0
10
29.1
20
23.9
11
29.1
21
10.1
0
LINE
8
0
10
29.1
20
27.1
11
42.9
21
27.1
0
LINE
8
0
10
42.9
20
27.1
11
42.9
21
40.9
0
LINE
8
0
10
42.9
20
40.9
11
29.1
21
40.9
0
LINE
8
0
10
29.1
20
40.9
11
29.1
21
27.1
0
LINE
8
0
10
29.1
20
44.1
11
42.9
21
44.1
0
LINE
8
0
10
42.9
20
44.1
11
42.9
21
57.9
0
LINE
8
0
10
42.9
20
57.9
11
29.1
21
57.9
0
LINE
8
0
10
29.1
20
57.9
11
29.1
21
44.1
0
LINE
8
0
10
47.1
20
-6.9
11
60.9
21
-6.9
0
LINE
8
0
10
60.9
20
-6.9
11
60.9
21
6.9
0
LINE
8
0
10
60.9
20
6.9
11
47.1
21
6.9
0
LINE
8
0
10
47.1
20
6.9
11
47.1
21
-6.9
0
LINE
8
0
10
47.1
20
10.1
11
60.9
21
10.1
0
LINE
8
0
10
60.9
20
10.1
11
60.9
21
23.9
0
LINE
8
0
10
60.9
20
23.9
11
47.1
21
23.9
0
LINE
8
0
10
47.1
20
23.9
11
47.1
21
10.1
0
LINE
8
0
10
47.1
20
27.1
11
60.9
21
27.1
0
LINE
8
0
10
60.9
20
27.1
11
60.9
21
40.9
0
LINE
8
0
10
60.9
20
40.9
11
47.1
21
40.9
0
LINE
8
0
10
47.1
20
40.9
11
47.1
21
27.1
0
LINE
8
0
10
47.1
20
44.1
11
60.9
21
44.1
0
LINE
8
0
10
60.9
20
44.1
11
60.9
21
57.9
0
LINE
8
0
10
60.9
20
57.9
11
47.1
21
57.9
0
LINE
8
0
10
47.1
20
57.9
11
47.1
21
44.1
0
LINE
8
0
10
65.1
20
-6.9
11
78.9
21
-6.9
0
LINE
8
0
10
78.9
20
-6.9
11
78.9
21
6.9
0
LINE
8
0
10
78.9
20
6.9
11
65.1
21
6.9
0
LINE
8
0
10
65.1
20
6.9
11
65.1
21
-6.9
0
LINE
8
0
10
65.1
20
10.1
11
78.9
21
10.1
0
LINE
8
0
10
78.9
20
10.1
11
78.9
21
23.9
0
LINE
8
0
10
78.9
20
23.9
11
65.1
21
23.9
0
LINE
8
0
10
65.1
20
23.9
11
65.1
21
10.1
0
LINE
8
0
10
65.1
20
27.1
11
78.9
21
27.1
0
LINE
8
0
10
78.9
20
27.1
11
78.9
21
40.9
0
LINE
8
0
10
78.9
20
40.9
11
65.1
21
40.9
0
LINE
8
0
10
65.1
20
40.9
11
65.1
21
27.1
0
LINE
8
0
10
65.1
20
44.1
11
78.9
21
44.1
0
LINE
8
0
10
78.9
20
44.1
11
78.9
21
57.9
0
LINE
8
0
10
78.9
20
57.9
11
65.1
21
57.9
0
LINE
8
0
10
65.1
20
57.9
11
65.1
21
44.1
0
LINE
8
0
10
83.1
20
-6.9
11
96.9
21
-6.9
0
LINE
8
0
10
96.9
20
-6.9
11
96.9
21
6.9
0
LINE
8
0
10
96.9
20
6.9
11
83.1
21
6.9
0
LINE
8
0
10
83.1
20
6.9
11
83.1
21
-6.9
0
LINE
8
0
10
83.1
20
10.1
11
96.9
21
10.1
0
LINE
8
0
10
96.9
20
10.1
11
96.9
21
23.9
0
LINE
8
0
10
96.9
20
23.9
11
83.1
21
23.9
0
LINE
8
0
10
83.1
20
23.9
11
83.1
21
10.1
0
LINE
8
0
10
83.1
20
27.1
11
96.9
21
27.1
0
LINE
8
0
10
96.9
20
27.1
11
96.9
21
40.9
0
LINE
8
0
10
96.9
20
40.9
11
83.1
21
40.9
0
LINE
8
0
10
83.1
20
40.9
11
83.1
21
27.1
0
LINE
8
0
10
83.1
20
44.1
11
96.9
21
44.1
0
LINE
8
0
10
96.9
20
44.1
11
96.9
21
57.9
0
LINE
8
0
10
96.9
20
57.9
11
83.1
21
57.9
0
LINE
8
0
10
83.1
20
57.9
11
83.1
21
44.1
0
LINE
8
0
10
101.1
20
-6.9
11
114.9
21
-6.9
0
LINE
8
0
10
114.9
20
-6.9
11
114.9
21
6.9
0
LINE
8
0
10
114.9
20
6.9
11
101.1
21
6.9
0
LINE
8
0
10
101.1
20
6.9
11
101.1
21
-6.9
0
LINE
8
0
10
101.1
20
10.1
11
114.9
21
10.1
0
LINE
8
0
10
114.9
20
10.1
11
114.9
21
23.9
0
LINE
8
0
10
114.9
20
23.9
11
101.1
21
23.9
0
LINE
8
0
10
101.1
20
23.9
11
101.1
21
10.1
0
LINE
8
0
10
101.1
20
27.1
11
114.9
21
27.1
0
LINE
8
0
10
114.9
20
27.1
11
114.9
21
40.9
0
LINE
8
0
10
114.9
20
40.9
11
101.1
21
40.9
0
LINE
8
0
10
101.1
20
40.9
11
101.1
21
27.1
0
LINE
8
0
10
101.1
20
44.1
11
114.9
21
44.1
0
LINE
8
0
10
114.9
20
44.1
11
114.9
21
57.9
0
LINE
8
0
10
114.9
20
57.9
11
101.1
21
57.9
0
LINE
8
0
10
101.1
20
57.9
11
101.1
21
44.1
0
LINE
8
0
10
119.1
20
-6.9
11
132.9
21
-6.9
0
LINE
8
0
10
132.9
20
-6.9
11
132.9
21
6.9
0
LINE
8
0
10
132.9
20
6.9
11
119.1
21
6.9
0
LINE
8
0
10
119.1
20
6.9
11
119.1
21
-6.9
0
LINE
8
0
10
119.1
20
10.1
11
132.9
21
10.1
0
LINE
8
0
10
132.9
20
10.1
11
132.9
21
23.9
0
LINE
8
0
10
132.9
20
23.9
11
119.1
21
23.9
0
LINE
8
0
10
119.1
20
23.9
11
119.1
21
10.1
0
LINE
8
0
10
119.1
20
27.1
11
132.9
21
27.1
0
LINE
8
0
10
132.9
20
27.1
11
132.9
21
40.9
0
LINE
8
0
10
132.9
20
40.9
11
119.1
21
40.9
0
LINE
8
0
10
119.1
20
40.9
11
119.1
21
27.1
0
LINE
8
0
10
119.1
20
44.1
11
132.9
21
44.1
0
LINE
8
0
10
132.9
20
44.1
11
132.9
21
57.9
0
LINE
8
0
10
132.9
20
57.9
11
119.1
21
57.9
0
LINE
8
0
10
119.1
20
57.9
11
119.1
21
44.1
0
LINE
8
0
10
137.1
20
-6.9
11
150.9
21
-6.9
0
LINE
8
0
10
150.9
20
-6.9
11
150.9
21
6.9
0
LINE
8
0
10
150.9
20
6.9
11
137.1
21
6.9
0
LINE
8
0
10
137.1
20
6.9
11
137.1
21
-6.9
0
LINE
8
0
10
137.1
20
10.1
11
150.9
21
10.1
0
LINE
8
0
10
150.9
20
10.1
11
150.9
21
23.9
0
LINE
8
0
10
150.9
20
23.9
11
137.1
21
23.9
0
LINE
8
0
10
137.1
20
23.9
11
137.1
21
10.1
0
LINE
8
0
10
137.1
20
27.1
11
150.9
21
27.1
0
LINE
8
0
10
150.9
20
27.1
11
150.9
21
40.9
0
LINE
8
0
10
150.9
20
40.9
11
137.1
21
40.9
0
LINE
8
0
10
137.1
20
40.9
11
137.1
21
27.1
0
LINE
8
0
10
137.1
20
44.1
11
150.9
21
44.1
0
LINE
8
0
10
150.9
20
44.1
11
150.9
21
57.9
0
LINE
8
0
10
150.9
20
57.9
11
137.1
21
57.9
0
LINE
8
0
10
137.1
20
57.9
11
137.1
21
44.1
0
LINE
8
0
10
155.1
20
-6.9
11
168.9
21
-6.9
0
LINE
8
0
10
168.9
20
-6.9
11
168.9
21
6.9
0
LINE
8
0
10
168.9
20
6.9
11
155.1
21
6.9
0
LINE
8
0
10
155.1
20
6.9
11
155.1
21
-6.9
0
LINE
8
0
10
155.1
20
10.1
11
168.9
21
10.1
0
LINE
8
0
10
168.9
20
10.1
11
168.9
21
23.9
0
LINE
8
0
10
168.9
20
23.9
11
155.1
21
23.9
0
LINE
8
0
10
155.1
20
23.9
11
155.1
21
10.1
0
LINE
8
0
10
155.1
20
27.1
11
168.9
21
27.1
0
LINE
8
0
10
168.9
20
27.1
11
168.9
21
40.9
0
LINE
8
0
10
168.9
20
40.9
11
155.1
21
40.9
0
LINE
8
0
10
155.1
20
40.9
11
155.1
21
27.1
0
LINE
8
0
10
155.1
20
44.1
11
168.9
21
44.1
0
LINE
8
0
10
168.9
20
44.1
11
168.9
21
57.9
0
LINE
8
0
10
168.9
20
57.9
11
155.1
21
57.9
0
LINE
8
0
10
155.1
20
57.9
11
155.1
21
44.1
0
ENDSEC
0
EOF