0
SECTION
2
HEADER
9
$INSUNITS
70
4
0
ENDSEC
0
SECTION
2
TABLES
0
TABLE
2
LTYPE
0
LTYPE
72
65
70
64
2
CONTINUOUS
3
______
73
0
40
0
0
ENDTAB
0
TABLE
2
LAYER
0
ENDTAB
0
ENDSEC
0
SECTION
2
ENTITIES
0
LINE
8
0
10
-10
20
-6.5
11
-10
21
76.5
0
LINE
8
0
10
-7
20
79.5
11
33
21
79.5
0
LINE
8
0
10
36
20
76.5
11
36
21
63.5
0
LINE
8
0
10
39
20
60.5
11
169
21
60.5
0
LINE
8
0
10
172
20
57.5
11
172
21
-6.5
0
LINE
8
0
10
169
20
-9.5
11
-7
21
-9.5
0
ARC
8
0
10
-7
20
76.5
40
3
50
90
51
180
0
ARC
8
0
10
33
20
76.5
40
3
50
0
51
90
0
ARC
8
0
10
39
20
63.5
40
3
50
180
51
270
0
ARC
8
0
10
169
20
57.5
40
3
50
0
51
90
0
ARC
8
0
10
169
20
-6.5
40
3
50
270
51
0
0
ARC
8
0
10
-7
20
-6.5
40
3
50
180
51
270
0
LINE
8
0
10
-8.75
20
-8.25
11
8.75
21
-8.25
0
LINE
8
0
10
8.75
20
-8.25
11
8.75
21
8.25
0
LINE
8
0
10
8.75
20
8.25
11
-8.75
21
8.25
0
LINE
8
0
10
-8.75
20
8.25
11
-8.75
21
-8.25
0
LINE
8
0
10
-8.75
20
8.75
11
8.75
21
8.75
0
LINE
8
0
10
8.75
20
8.75
11
8.75
21
25.25
0
LINE
8
0
10
8.75
20
25.25
11
-8.75
21
25.25
0
LINE
8
0
10
-8.75
20
25.25
11
-8.75
21
8.75
0
LINE
8
0
10
-8.75
20
25.75
11
8.75
21
25.75
0
LINE
8
0
10
8.75
20
25.75
11
8.75
21
42.25
0
LINE
8
0
10
8.75
20
42.25
11
-8.75
21
42.25
0
LINE
8
0
10
-8.75
20
42.25
11
-8.75
21
25.75
0
LINE
8
0
10
-8.75
20
42.75
11
8.75
21
42.75
0
LINE
8
0
10
8.75
20
42.75
11
8.75
21
59.25
0
LINE
8
0
10
8.75
20
59.25
11
-8.75
21
59.25
0
LINE
8
0
10
-8.75
20
59.25
11
-8.75
21
42.75
0
LINE
8
0
10
9.25
20
-8.25
11
26.75
21
-8.25
0
LINE
8
0
10
26.75
20
-8.25
11
26.75
21
8.25
0
LINE
8
0
10
26.75
20
8.25
11
9.25
21
8.25
0
LINE
8
0
10
9.25
20
8.25
11
9.25
21
-8.25
0
LINE
8
0
10
9.25
20
8.75
11
26.75
21
8.75
0
LINE
8
0
10
26.75
20
8.75
11
26.75
21
25.25
0
LINE
8
0
10
26.75
20
25.25
11
9.25
21
25.25
0
LINE
8
0
10
9.25
20
25.25
11
9.25
21
8.75
0
LINE
8
0
10
9.25
20
25.75
11
26.75
21
25.75
0
LINE
8
0
10
26.75
20
25.75
11
26.75
21
42.25
0
LINE
8
0
10
26.75
20
42.25
11
9.25
21
42.25
0
LINE
8
0
10
9.25
20
42.25
11
9.25
21
25.75
0
LINE
8
0
10
9.25
20
42.75
11
26.75
21
42.75
0
LINE
8
0
10
26.75
20
42.75
11
26.75
21
59.25
0
LINE
8
0
10
26.75
20
59.25
11
9.25
21
59.25
0
LINE
8
0
10
9.25
20
59.25
11
9.25
21
42.75
0
LINE
8
0
10
27.25
20
-8.25
11
44.75
21
-8.25
0
LINE
8
0
10
44.75
20
-8.25
11
44.75
21
8.25
0
LINE
8
0
10
44.75
20
8.25
11
27.25
21
8.25
0
LINE
8
0
10
27.25
20
8.25
11
27.25
21
-8.25
0
LINE
8
0
10
27.25
20
8.75
11
44.75
21
8.75
0
LINE
8
0
10
44.75
20
8.75
11
44.75
21
25.25
0
LINE
8
0
10
44.75
20
25.25
11
27.25
21
25.25
0
LINE
8
0
10
27.25
20
25.25
11
27.25
21
8.75
0
LINE
8
0
10
27.25
20
25.75
11
44.75
21
25.75
0
LINE
8
0
10
44.75
20
25.75
11
44.75
21
42.25
0
LINE
8
0
10
44.75
20
42.25
11
27.25
21
42.25
0
LINE
8
0
10
27.25
20
42.25
11
27.25
21
25.75
0
LINE
8
0
10
27.25
20
42.75
11
44.75
21
42.75
0
LINE
8
0
10
44.75
20
42.75
11
44.75
21
59.25
0
LINE
8
0
10
44.75
20
59.25
11
27.25
21
59.25
0
LINE
8
0
10
27.25
20
59.25
11
27.25
21
42.75
0
LINE
8
0
10
45.25
20
-8.25
11
62.75
21
-8.25
0
LINE
8
0
10
62.75
20
-8.25
11
62.75
21
8.25
0
LINE
8
0
10
62.75
20
8.25
11
45.25
21
8.25
0
LINE
8
0
10
45.25
20
8.25
11
45.25
21
-8.25
0
LINE
8
0
10
45.25
20
8.75
11
62.75
21
8.75
0
LINE
8
0
10
62.75
20
8.75
11
62.75
21
25.25
0
LINE
8
0
10
62.75
20
25.25
11
45.25
21
25.25
0
LINE
8
0
10
45.25
20
25.25
11
45.25
21
8.75
0
LINE
8
0
10
45.25
20
25.75
11
62.75
21
25.75
0
LINE
8
0
10
62.75
20
25.75
11
62.75
21
42.25
0
LINE
8
0
10
62.75
20
42.25
11
45.25
21
42.25
0
LINE
8
0
10
45.25
20
42.25
11
45.25
21
25.75
0
LINE
8
0
10
45.25
20
42.75
11
62.75
21
42.75
0
LINE
8
0
10
62.75
20
42.75
11
62.75
21
59.25
0
LINE
8
0
10
62.75
20
59.25
11
45.25
21
59.25
0
LINE
8
0
10
45.25
20
59.25
11
45.25
21
42.75
0
LINE
8
0
10
63.25
20
-8.25
11
80.75
21
-8.25
0
LINE
8
0
10
80.75
20
-8.25
11
80.75
21
8.25
0
LINE
8
0
10
80.75
20
8.25
11
63.25
21
8.25
0
LINE
8
0
10
63.25
20
8.25
11
63.25
21
-8.25
0
LINE
8
0
10
63.25
20
8.75
11
80.75
21
8.75
0
LINE
8
0
10
80.75
20
8.75
11
80.75
21
25.25
0
LINE
8
0
10
80.75
20
25.25
11
63.25
21
25.25
0
LINE
8
0
10
63.25
20
25.25
11
63.25
21
8.75
0
LINE
8
0
10
63.25
20
25.75
11
80.75
21
25.75
0
LINE
8
0
10
80.75
20
25.75
11
80.75
21
42.25
0
LINE
8
0
10
80.75
20
42.25
11
63.25
21
42.25
0
LINE
8
0
10
63.25
20
42.25
11
63.25
21
25.75
0
LINE
8
0
10
63.25
20
42.75
11
80.75
21
42.75
0
LINE
8
0
10
80.75
20
42.75
11
80.75
21
59.25
0
LINE
8
0
10
80.75
20
59.25
11
63.25
21
59.25
0
LINE
8
0
10
63.25
20
59.25
11
63.25
21
42.75
0
LINE
8
0
10
81.25
20
-8.25
11
98.75
21
-8.25
0
LINE
8
0
10
98.75
20
-8.25
11
98.75
21
8.25
0
LINE
8
0
10
98.75
20
8.25
11
81.25
21
8.25
0
LINE
8
0
10
81.25
20
8.25
11
81.25
21
-8.25
0
LINE
8
0
10
81.25
20
8.75
11
98.75
21
8.75
0
LINE
8
0
10
98.75
20
8.75
11
98.75
21
25.25
0
LINE
8
0
10
98.75
20
25.25
11
81.25
21
25.25
0
LINE
8
0
10
81.25
20
25.25
11
81.25
21
8.75
0
LINE
8
0
10
81.25
20
25.75
11
98.75
21
25.75
0
LINE
8
0
10
98.75
20
25.75
11
98.75
21
42.25
0
LINE
8
0
10
98.75
20
42.25
11
81.25
21
42.25
0
LINE
8
0
10
81.25
20
42.25
11
81.25
21
25.75
0
LINE
8
0
10
81.25
20
42.75
11
98.75
21
42.75
0
LINE
8
0
10
98.75
20
42.75
11
98.75
21
59.25
0
LINE
8
0
10
98.75
20
59.25
11
81.25
21
59.25
0
LINE
8
0
10
81.25
20
59.25
11
81.25
21
42.75
0
LINE
8
0
10
99.25
20
-8.25
11
116.75
21
-8.25
0
LINE
8
0
10
116.75
20
-8.25
11
116.75
21
8.25
0
LINE
8
0
10
116.75
20
8.25
11
99.25
21
8.25
0
LINE
8
0
10
99.25
20
8.25
11
99.25
21
-8.25
0
LINE
8
0
10
99.25
20
8.75
11
116.75
21
8.75
0
LINE
8
0
10
116.75
20
8.75
11
116.75
21
25.25
0
LINE
8
0
10
116.75
20
25.25
11
99.25
21
25.25
0
LINE
8
0
10
99.25
20
25.25
11
99.25
21
8.75
0
LINE
8
0
10
99.25
20
25.75
11
116.75
21
25.75
0
LINE
8
0
10
116.75
20
25.75
11
116.75
21
42.25
0
LINE
8
0
10
116.75
20
42.25
11
99.25
21
42.25
0
LINE
8
0
10
99.25
20
42.25
11
99.25
21
25.75
0
LINE
8
0
10
99.25
20
42.75
11
116.75
21
42.75
0
LINE
8
0
10
116.75
20
42.75
11
116.75
21
59.25
0
LINE
8
0
10
116.75
20
59.25
11
99.25
21
59.25
0
LINE
8
0
10
99.25
20
59.25
11
99.25
21
42.75
0
LINE
8
0
10
117.25
20
-8.25
11
134.75
21
-8.25
0
LINE
8
0
10
134.75
20
-8.25
11
134.75
21
8.25
0
LINE
8
0
10
134.75
20
8.25
11
117.25
21
8.25
0
LINE
8
0
10
117.25
20
8.25
11
117.25
21
-8.25
0
LINE
8
0
10
117.25
20
8.75
11
134.75
21
8.75
0
LINE
8
0
10
134.75
20
8.75
11
134.75
21
25.25
0
LINE
8
0
10
134.75
20
25.25
11
117.25
21
25.25
0
LINE
8
0
10
117.25
20
25.25
11
117.25
21
8.75
0
LINE
8
0
10
117.25
20
25.75
11
134.75
21
25.75
0
LINE
8
0
10
134.75
20
25.75
11
134.75
21
42.25
0
LINE
8
0
10
134.75
20
42.25
11
117.25
21
42.25
0
LINE
8
0
10
117.25
20
42.25
11
117.25
21
25.75
0
LINE
8
0
10
117.25
20
42.75
11
134.75
21
42.75
0
LINE
8
0
10
134.75
20
42.75
11
134.75
21
59.25
0
LINE
8
0
10
134.75
20
59.25
11
117.25
21
59.25
0
LINE
8
0
10
117.25
20
59.25
11
117.25
21
42.75
0
LINE
8
0
10
135.25
20
-8.25
11
152.75
21
-8.25
0
LINE
8
0
10
152.75
20
-8.25
11
152.75
21
8.25
0
LINE
8
0
10
152.75
20
8.25
11
135.25
21
8.25
0
LINE
8
0
10
135.25
20
8.25
11
135.25
21
-8.25
0
LINE
8
0
10
135.25
20
8.75
11
152.75
21
8.75
0
LINE
8
0
10
152.75
20
8.75
11
152.75
21
25.25
0
LINE
8
0
10
152.75
20
25.25
11
135.25
21
25.25
0
LINE
8
0
10
135.25
20
25.25
11
135.25
21
8.75
0
LINE
8
0
10
135.25
20
25.75
11
152.75
21
25.75
0
LINE
8
0
10
152.75
20
25.75
11
152.75
21
42.25
0
LINE
8
0
10
152.75
20
42.25
11
135.25
21
42.25
0
LINE
8
0
10
135.25
20
42.25
11
135.25
21
25.75
0
LINE
8
0
10
135.25
20
42.75
11
152.75
21
42.75
0
LINE
8
0
10
152.75
20
42.75
11
152.75
21
59.25
0
LINE
8
0
10
152.75
20
59.25
11
135.25
21
59.25
0
LINE
8
0
10
135.25
20
59.25
11
135.25
21
42.75
0
LINE
8
0
10
153.25
20
-8.25
11
170.75
21
-8.25
0
LINE
8
0
10
170.75
20
-8.25
11
170.75
21
8.25
0
LINE
8
0
10
170.75
20
8.25
11
153.25
21
8.25
0
LINE
8
0
10
153.25
20
8.25
11
153.25
21
-8.25
0
LINE
8
0
10
153.25
20
8.75
11
170.75
21
8.75
0
LINE
8
0
10
170.75
20
8.75
11
170.75
21
25.25
0
LINE
8
0
10
170.75
20
25.25
11
153.25
21
25.25
0
LINE
8
0
10
153.25
20
25.25
11
153.25
21
8.75
0
LINE
8
0
10
153.25
20
25.75
11
170.75
21
25.75
0
LINE
8
0
10
170.75
20
25.75
11
170.75
21
42.25
0
LINE
8
0
10
170.75
20
42.25
11
153.25
21
42.25
0
LINE
8
0
10
153.25
20
42.25
11
153.25
21
25.75
0
LINE
8
0
10
153.25
20
42.75
11
170.75
21
42.75
0
LINE
8
0
10
170.75
20
42.75
11
170.75
21
59.25
0
LINE
8
0
10
170.75
20
59.25
11
153.25
21
59.25
0
LINE
8
0
10
153.25
20
59.25
11
153.25
21
42.75
0
ENDSEC
0
EOF