%TF.GenerationSoftware,KiCad,Pcbnew,(6.0.6-1)-1*%
%TF.CreationDate,2022-08-08T10:13:26-05:00*%
%TF.ProjectId,smcboard,736d6362-6f61-4726-942e-6b696361645f,v1.0.0*%
%TF.SameCoordinates,Original*%
%TF.FileFunction,Soldermask,Top*%
%TF.FilePolarity,Negative*%
%FSLAX46Y46*%
G04 Gerber Fmt 4.6, Leading zero omitted, Abs format (unit mm)*
G04 Created by KiCad (PCBNEW (6.0.6-1)-1) date 2022-08-08 10:13:26*
%MOMM*%
%LPD*%
G01*
G04 APERTURE LIST*
G04 Aperture macros list*
%AMRoundRect*
0 Rectangle with rounded corners*
0 $1 Rounding radius*
0 $2 $3 $4 $5 $6 $7 $8 $9 X,Y pos of 4 corners*
0 Add a 4 corners polygon primitive as box body*
4,1,4,$2,$3,$4,$5,$6,$7,$8,$9,$2,$3,0*
0 Add four circle primitives for the rounded corners*
1,1,$1+$1,$2,$3*
1,1,$1+$1,$4,$5*
1,1,$1+$1,$6,$7*
1,1,$1+$1,$8,$9*
0 Add four rect primitives between the rounded corners*
20,1,$1+$1,$2,$3,$4,$5,0*
20,1,$1+$1,$4,$5,$6,$7,0*
20,1,$1+$1,$6,$7,$8,$9,0*
20,1,$1+$1,$8,$9,$2,$3,0*%
%AMFreePoly0*
4,1,14,0.635355,0.435355,0.650000,0.400000,0.650000,0.200000,0.635355,0.164645,0.035355,-0.435355,0.000000,-0.450000,-0.035355,-0.435355,-0.635355,0.164645,-0.650000,0.200000,-0.650000,0.400000,-0.635355,0.435355,-0.600000,0.450000,0.600000,0.450000,0.635355,0.435355,0.635355,0.435355,$1*%
%AMFreePoly1*
4,1,16,0.635355,1.035355,0.650000,1.000000,0.650000,-0.250000,0.635355,-0.285355,0.600000,-0.300000,-0.600000,-0.300000,-0.635355,-0.285355,-0.650000,-0.250000,-0.650000,1.000000,-0.635355,1.035355,-0.600000,1.050000,-0.564645,1.035355,0.000000,0.470710,0.564645,1.035355,0.600000,1.050000,0.635355,1.035355,0.635355,1.035355,$1*%
G04 Aperture macros list end*
%ADD10C,0.250000*%
%ADD11C,0.100000*%
%ADD12C,1.801800*%
%ADD13C,3.529000*%
%ADD14C,3.100000*%
%ADD15RoundRect,0.050000X-1.300000X-1.300000X1.300000X-1.300000X1.300000X1.300000X-1.300000X1.300000X0*%
%ADD16RoundRect,0.050000X0.825000X0.825000X-0.825000X0.825000X-0.825000X-0.825000X0.825000X-0.825000X0*%
%ADD17RoundRect,0.050000X-0.825000X-0.825000X0.825000X-0.825000X0.825000X0.825000X-0.825000X0.825000X0*%
%ADD18RoundRect,0.050000X-1.775833X-0.475833X0.475833X-1.775833X1.775833X0.475833X-0.475833X1.775833X0*%
%ADD19RoundRect,0.050000X1.126971X0.301971X-0.301971X1.126971X-1.126971X-0.301971X0.301971X-1.126971X0*%
%ADD20RoundRect,0.050000X-1.126971X-0.301971X0.301971X-1.126971X1.126971X0.301971X-0.301971X1.126971X0*%
%ADD21C,1.600000*%
%ADD22O,2.300000X1.700000*%
%ADD23C,1.700000*%
%ADD24FreePoly0,90.000000*%
%ADD25RoundRect,0.050000X-0.800000X0.800000X-0.800000X-0.800000X0.800000X-0.800000X0.800000X0.800000X0*%
%ADD26FreePoly0,270.000000*%
%ADD27FreePoly1,270.000000*%
%ADD28FreePoly1,90.000000*%
G04 APERTURE END LIST*
D10*
%TO.C,MCU1*%
X195287000Y-83670000D02*
G75*
G03*
X195287000Y-83670000I-125000J0D01*
G01*
X193763000Y-81130000D02*
G75*
G03*
X193763000Y-81130000I-125000J0D01*
G01*
X193763000Y-76050000D02*
G75*
G03*
X193763000Y-76050000I-125000J0D01*
G01*
X195287000Y-91290000D02*
G75*
G03*
X195287000Y-91290000I-125000J0D01*
G01*
X193763000Y-68430000D02*
G75*
G03*
X193763000Y-68430000I-125000J0D01*
G01*
X193763000Y-86210000D02*
G75*
G03*
X193763000Y-86210000I-125000J0D01*
G01*
X193763000Y-88750000D02*
G75*
G03*
X193763000Y-88750000I-125000J0D01*
G01*
X195287000Y-86210000D02*
G75*
G03*
X195287000Y-86210000I-125000J0D01*
G01*
X195287000Y-88750000D02*
G75*
G03*
X195287000Y-88750000I-125000J0D01*
G01*
X195287000Y-93830000D02*
G75*
G03*
X195287000Y-93830000I-125000J0D01*
G01*
X195287000Y-81130000D02*
G75*
G03*
X195287000Y-81130000I-125000J0D01*
G01*
X193763000Y-96370000D02*
G75*
G03*
X193763000Y-96370000I-125000J0D01*
G01*
X195287000Y-70970000D02*
G75*
G03*
X195287000Y-70970000I-125000J0D01*
G01*
X195287000Y-96370000D02*
G75*
G03*
X195287000Y-96370000I-125000J0D01*
G01*
X195287000Y-76050000D02*
G75*
G03*
X195287000Y-76050000I-125000J0D01*
G01*
X195287000Y-68430000D02*
G75*
G03*
X195287000Y-68430000I-125000J0D01*
G01*
X193763000Y-78590000D02*
G75*
G03*
X193763000Y-78590000I-125000J0D01*
G01*
X195287000Y-73510000D02*
G75*
G03*
X195287000Y-73510000I-125000J0D01*
G01*
X193763000Y-70970000D02*
G75*
G03*
X193763000Y-70970000I-125000J0D01*
G01*
X193763000Y-91290000D02*
G75*
G03*
X193763000Y-91290000I-125000J0D01*
G01*
X193763000Y-73510000D02*
G75*
G03*
X193763000Y-73510000I-125000J0D01*
G01*
X193763000Y-83670000D02*
G75*
G03*
X193763000Y-83670000I-125000J0D01*
G01*
X193763000Y-93830000D02*
G75*
G03*
X193763000Y-93830000I-125000J0D01*
G01*
X195287000Y-78590000D02*
G75*
G03*
X195287000Y-78590000I-125000J0D01*
G01*
G36*
X200496000Y-74018000D02*
G01*
X199480000Y-74018000D01*
X199480000Y-73002000D01*
X200496000Y-73002000D01*
X200496000Y-74018000D01*
G37*
D11*
X200496000Y-74018000D02*
X199480000Y-74018000D01*
X199480000Y-73002000D01*
X200496000Y-73002000D01*
X200496000Y-74018000D01*
G36*
X200496000Y-94338000D02*
G01*
X199480000Y-94338000D01*
X199480000Y-93322000D01*
X200496000Y-93322000D01*
X200496000Y-94338000D01*
G37*
X200496000Y-94338000D02*
X199480000Y-94338000D01*
X199480000Y-93322000D01*
X200496000Y-93322000D01*
X200496000Y-94338000D01*
G36*
X189320000Y-91798000D02*
G01*
X188304000Y-91798000D01*
X188304000Y-90782000D01*
X189320000Y-90782000D01*
X189320000Y-91798000D01*
G37*
X189320000Y-91798000D02*
X188304000Y-91798000D01*
X188304000Y-90782000D01*
X189320000Y-90782000D01*
X189320000Y-91798000D01*
G36*
X189320000Y-68938000D02*
G01*
X188304000Y-68938000D01*
X188304000Y-67922000D01*
X189320000Y-67922000D01*
X189320000Y-68938000D01*
G37*
X189320000Y-68938000D02*
X188304000Y-68938000D01*
X188304000Y-67922000D01*
X189320000Y-67922000D01*
X189320000Y-68938000D01*
G36*
X189320000Y-86718000D02*
G01*
X188304000Y-86718000D01*
X188304000Y-85702000D01*
X189320000Y-85702000D01*
X189320000Y-86718000D01*
G37*
X189320000Y-86718000D02*
X188304000Y-86718000D01*
X188304000Y-85702000D01*
X189320000Y-85702000D01*
X189320000Y-86718000D01*
G36*
X189320000Y-89258000D02*
G01*
X188304000Y-89258000D01*
X188304000Y-88242000D01*
X189320000Y-88242000D01*
X189320000Y-89258000D01*
G37*
X189320000Y-89258000D02*
X188304000Y-89258000D01*
X188304000Y-88242000D01*
X189320000Y-88242000D01*
X189320000Y-89258000D01*
G36*
X200496000Y-89258000D02*
G01*
X199480000Y-89258000D01*
X199480000Y-88242000D01*
X200496000Y-88242000D01*
X200496000Y-89258000D01*
G37*
X200496000Y-89258000D02*
X199480000Y-89258000D01*
X199480000Y-88242000D01*
X200496000Y-88242000D01*
X200496000Y-89258000D01*
G36*
X189320000Y-84178000D02*
G01*
X188304000Y-84178000D01*
X188304000Y-83162000D01*
X189320000Y-83162000D01*
X189320000Y-84178000D01*
G37*
X189320000Y-84178000D02*
X188304000Y-84178000D01*
X188304000Y-83162000D01*
X189320000Y-83162000D01*
X189320000Y-84178000D01*
G36*
X200496000Y-84178000D02*
G01*
X199480000Y-84178000D01*
X199480000Y-83162000D01*
X200496000Y-83162000D01*
X200496000Y-84178000D01*
G37*
X200496000Y-84178000D02*
X199480000Y-84178000D01*
X199480000Y-83162000D01*
X200496000Y-83162000D01*
X200496000Y-84178000D01*
G36*
X200496000Y-79098000D02*
G01*
X199480000Y-79098000D01*
X199480000Y-78082000D01*
X200496000Y-78082000D01*
X200496000Y-79098000D01*
G37*
X200496000Y-79098000D02*
X199480000Y-79098000D01*
X199480000Y-78082000D01*
X200496000Y-78082000D01*
X200496000Y-79098000D01*
G36*
X200496000Y-81638000D02*
G01*
X199480000Y-81638000D01*
X199480000Y-80622000D01*
X200496000Y-80622000D01*
X200496000Y-81638000D01*
G37*
X200496000Y-81638000D02*
X199480000Y-81638000D01*
X199480000Y-80622000D01*
X200496000Y-80622000D01*
X200496000Y-81638000D01*
G36*
X200496000Y-91798000D02*
G01*
X199480000Y-91798000D01*
X199480000Y-90782000D01*
X200496000Y-90782000D01*
X200496000Y-91798000D01*
G37*
X200496000Y-91798000D02*
X199480000Y-91798000D01*
X199480000Y-90782000D01*
X200496000Y-90782000D01*
X200496000Y-91798000D01*
G36*
X189320000Y-76558000D02*
G01*
X188304000Y-76558000D01*
X188304000Y-75542000D01*
X189320000Y-75542000D01*
X189320000Y-76558000D01*
G37*
X189320000Y-76558000D02*
X188304000Y-76558000D01*
X188304000Y-75542000D01*
X189320000Y-75542000D01*
X189320000Y-76558000D01*
G36*
X200496000Y-96878000D02*
G01*
X199480000Y-96878000D01*
X199480000Y-95862000D01*
X200496000Y-95862000D01*
X200496000Y-96878000D01*
G37*
X200496000Y-96878000D02*
X199480000Y-96878000D01*
X199480000Y-95862000D01*
X200496000Y-95862000D01*
X200496000Y-96878000D01*
G36*
X189320000Y-81638000D02*
G01*
X188304000Y-81638000D01*
X188304000Y-80622000D01*
X189320000Y-80622000D01*
X189320000Y-81638000D01*
G37*
X189320000Y-81638000D02*
X188304000Y-81638000D01*
X188304000Y-80622000D01*
X189320000Y-80622000D01*
X189320000Y-81638000D01*
G36*
X200496000Y-86718000D02*
G01*
X199480000Y-86718000D01*
X199480000Y-85702000D01*
X200496000Y-85702000D01*
X200496000Y-86718000D01*
G37*
X200496000Y-86718000D02*
X199480000Y-86718000D01*
X199480000Y-85702000D01*
X200496000Y-85702000D01*
X200496000Y-86718000D01*
G36*
X189320000Y-79098000D02*
G01*
X188304000Y-79098000D01*
X188304000Y-78082000D01*
X189320000Y-78082000D01*
X189320000Y-79098000D01*
G37*
X189320000Y-79098000D02*
X188304000Y-79098000D01*
X188304000Y-78082000D01*
X189320000Y-78082000D01*
X189320000Y-79098000D01*
G36*
X189320000Y-74018000D02*
G01*
X188304000Y-74018000D01*
X188304000Y-73002000D01*
X189320000Y-73002000D01*
X189320000Y-74018000D01*
G37*
X189320000Y-74018000D02*
X188304000Y-74018000D01*
X188304000Y-73002000D01*
X189320000Y-73002000D01*
X189320000Y-74018000D01*
G36*
X200496000Y-68938000D02*
G01*
X199480000Y-68938000D01*
X199480000Y-67922000D01*
X200496000Y-67922000D01*
X200496000Y-68938000D01*
G37*
X200496000Y-68938000D02*
X199480000Y-68938000D01*
X199480000Y-67922000D01*
X200496000Y-67922000D01*
X200496000Y-68938000D01*
G36*
X189320000Y-71478000D02*
G01*
X188304000Y-71478000D01*
X188304000Y-70462000D01*
X189320000Y-70462000D01*
X189320000Y-71478000D01*
G37*
X189320000Y-71478000D02*
X188304000Y-71478000D01*
X188304000Y-70462000D01*
X189320000Y-70462000D01*
X189320000Y-71478000D01*
G36*
X189320000Y-94338000D02*
G01*
X188304000Y-94338000D01*
X188304000Y-93322000D01*
X189320000Y-93322000D01*
X189320000Y-94338000D01*
G37*
X189320000Y-94338000D02*
X188304000Y-94338000D01*
X188304000Y-93322000D01*
X189320000Y-93322000D01*
X189320000Y-94338000D01*
G36*
X200496000Y-76558000D02*
G01*
X199480000Y-76558000D01*
X199480000Y-75542000D01*
X200496000Y-75542000D01*
X200496000Y-76558000D01*
G37*
X200496000Y-76558000D02*
X199480000Y-76558000D01*
X199480000Y-75542000D01*
X200496000Y-75542000D01*
X200496000Y-76558000D01*
G36*
X200496000Y-71478000D02*
G01*
X199480000Y-71478000D01*
X199480000Y-70462000D01*
X200496000Y-70462000D01*
X200496000Y-71478000D01*
G37*
X200496000Y-71478000D02*
X199480000Y-71478000D01*
X199480000Y-70462000D01*
X200496000Y-70462000D01*
X200496000Y-71478000D01*
G36*
X189320000Y-96878000D02*
G01*
X188304000Y-96878000D01*
X188304000Y-95862000D01*
X189320000Y-95862000D01*
X189320000Y-96878000D01*
G37*
X189320000Y-96878000D02*
X188304000Y-96878000D01*
X188304000Y-95862000D01*
X189320000Y-95862000D01*
X189320000Y-96878000D01*
%TD*%
D12*
%TO.C,S7*%
X132900000Y-83200000D03*
X143900000Y-83200000D03*
D13*
X138400000Y-83200000D03*
D14*
X138400000Y-77250000D03*
X143400000Y-79450000D03*
X138400000Y-77250000D03*
X133400000Y-79450000D03*
D15*
X141675000Y-77250000D03*
X130125000Y-79450000D03*
%TD*%
D13*
%TO.C,S1*%
X102400000Y-103600000D03*
D14*
X107400000Y-99850000D03*
D12*
X107900000Y-103600000D03*
D14*
X102400000Y-97650000D03*
X97400000Y-99850000D03*
X102400000Y-97650000D03*
D12*
X96900000Y-103600000D03*
D15*
X105675000Y-97650000D03*
X94125000Y-99850000D03*
%TD*%
D16*
%TO.C,D6*%
X118050000Y-58300000D03*
D17*
X122750000Y-58300000D03*
%TD*%
D16*
%TO.C,D7*%
X136050000Y-87200000D03*
D17*
X140750000Y-87200000D03*
%TD*%
D16*
%TO.C,D11*%
X154050000Y-75300000D03*
D17*
X158750000Y-75300000D03*
%TD*%
D14*
%TO.C,S16*%
X180944873Y-114852405D03*
D13*
X183400000Y-120600000D03*
D14*
X186375000Y-115447149D03*
D12*
X178636860Y-117850000D03*
D14*
X189605127Y-119852405D03*
D12*
X188163140Y-123350000D03*
D14*
X186375000Y-115447149D03*
D18*
X189211233Y-117084649D03*
X178108640Y-113214905D03*
%TD*%
D16*
%TO.C,D13*%
X172050000Y-97400000D03*
D17*
X176750000Y-97400000D03*
%TD*%
D16*
%TO.C,D3*%
X100050000Y-73600000D03*
D17*
X104750000Y-73600000D03*
%TD*%
D19*
%TO.C,D16*%
X179364840Y-122889102D03*
D20*
X183435160Y-125239102D03*
%TD*%
D16*
%TO.C,D12*%
X154050000Y-58300000D03*
D17*
X158750000Y-58300000D03*
%TD*%
D13*
%TO.C,S3*%
X102400000Y-69600000D03*
D14*
X102400000Y-63650000D03*
X97400000Y-65850000D03*
D12*
X96900000Y-69600000D03*
X107900000Y-69600000D03*
D14*
X107400000Y-65850000D03*
X102400000Y-63650000D03*
D15*
X105675000Y-63650000D03*
X94125000Y-65850000D03*
%TD*%
D16*
%TO.C,D2*%
X100050000Y-90600000D03*
D17*
X104750000Y-90600000D03*
%TD*%
D14*
%TO.C,S15*%
X179400000Y-55650000D03*
X169400000Y-55650000D03*
X174400000Y-53450000D03*
X174400000Y-53450000D03*
D12*
X179900000Y-59400000D03*
X168900000Y-59400000D03*
D13*
X174400000Y-59400000D03*
D15*
X177675000Y-53450000D03*
X166125000Y-55650000D03*
%TD*%
D14*
%TO.C,S5*%
X120400000Y-65350000D03*
X120400000Y-65350000D03*
X125400000Y-67550000D03*
D12*
X114900000Y-71300000D03*
D14*
X115400000Y-67550000D03*
D12*
X125900000Y-71300000D03*
D13*
X120400000Y-71300000D03*
D15*
X123675000Y-65350000D03*
X112125000Y-67550000D03*
%TD*%
D13*
%TO.C,S10*%
X156400000Y-88300000D03*
D12*
X150900000Y-88300000D03*
D14*
X156400000Y-82350000D03*
D12*
X161900000Y-88300000D03*
D14*
X161400000Y-84550000D03*
X156400000Y-82350000D03*
X151400000Y-84550000D03*
D15*
X159675000Y-82350000D03*
X148125000Y-84550000D03*
%TD*%
D16*
%TO.C,D14*%
X172050000Y-80400000D03*
D17*
X176750000Y-80400000D03*
%TD*%
D14*
%TO.C,S17*%
X201963457Y-124447149D03*
D12*
X203751597Y-132350000D03*
D13*
X198988457Y-129600000D03*
D14*
X196533330Y-123852405D03*
D12*
X194225317Y-126850000D03*
D14*
X205193584Y-128852405D03*
X201963457Y-124447149D03*
D18*
X204799690Y-126084649D03*
X193697097Y-122214905D03*
%TD*%
D16*
%TO.C,D5*%
X118050000Y-75300000D03*
D17*
X122750000Y-75300000D03*
%TD*%
D16*
%TO.C,D15*%
X172050000Y-63400000D03*
D17*
X176750000Y-63400000D03*
%TD*%
D16*
%TO.C,D9*%
X136050000Y-53200000D03*
D17*
X140750000Y-53200000D03*
%TD*%
D14*
%TO.C,S2*%
X102400000Y-80650000D03*
X107400000Y-82850000D03*
D13*
X102400000Y-86600000D03*
D12*
X107900000Y-86600000D03*
X96900000Y-86600000D03*
D14*
X102400000Y-80650000D03*
X97400000Y-82850000D03*
D15*
X105675000Y-80650000D03*
X94125000Y-82850000D03*
%TD*%
D13*
%TO.C,S14*%
X174400000Y-76400000D03*
D14*
X179400000Y-72650000D03*
X169400000Y-72650000D03*
D12*
X168900000Y-76400000D03*
D14*
X174400000Y-70450000D03*
D12*
X179900000Y-76400000D03*
D14*
X174400000Y-70450000D03*
D15*
X177675000Y-70450000D03*
X166125000Y-72650000D03*
%TD*%
D14*
%TO.C,S13*%
X169400000Y-89650000D03*
D12*
X179900000Y-93400000D03*
D14*
X174400000Y-87450000D03*
D12*
X168900000Y-93400000D03*
D14*
X174400000Y-87450000D03*
X179400000Y-89650000D03*
D13*
X174400000Y-93400000D03*
D15*
X177675000Y-87450000D03*
X166125000Y-89650000D03*
%TD*%
D16*
%TO.C,D8*%
X136050000Y-70200000D03*
D17*
X140750000Y-70200000D03*
%TD*%
D21*
%TO.C,REF\u002A\u002A*%
X195800000Y-106100000D03*
X202800000Y-106100000D03*
D22*
X193100000Y-103800000D03*
X193100000Y-108400000D03*
X194200000Y-108400000D03*
X194200000Y-103800000D03*
X198200000Y-108400000D03*
X198200000Y-103800000D03*
X201200000Y-108400000D03*
X201200000Y-103800000D03*
%TD*%
D12*
%TO.C,S8*%
X143900000Y-66200000D03*
D13*
X138400000Y-66200000D03*
D14*
X138400000Y-60250000D03*
X143400000Y-62450000D03*
D12*
X132900000Y-66200000D03*
D14*
X138400000Y-60250000D03*
X133400000Y-62450000D03*
D15*
X141675000Y-60250000D03*
X130125000Y-62450000D03*
%TD*%
D14*
%TO.C,S6*%
X115400000Y-50550000D03*
X120400000Y-48350000D03*
D12*
X125900000Y-54300000D03*
D14*
X125400000Y-50550000D03*
D12*
X114900000Y-54300000D03*
D13*
X120400000Y-54300000D03*
D14*
X120400000Y-48350000D03*
D15*
X123675000Y-48350000D03*
X112125000Y-50550000D03*
%TD*%
D14*
%TO.C,S4*%
X115400000Y-84550000D03*
X125400000Y-84550000D03*
D12*
X125900000Y-88300000D03*
D14*
X120400000Y-82350000D03*
D13*
X120400000Y-88300000D03*
D14*
X120400000Y-82350000D03*
D12*
X114900000Y-88300000D03*
D15*
X123675000Y-82350000D03*
X112125000Y-84550000D03*
%TD*%
D14*
%TO.C,S12*%
X151400000Y-50550000D03*
X156400000Y-48350000D03*
D13*
X156400000Y-54300000D03*
D12*
X150900000Y-54300000D03*
X161900000Y-54300000D03*
D14*
X161400000Y-50550000D03*
X156400000Y-48350000D03*
D15*
X159675000Y-48350000D03*
X148125000Y-50550000D03*
%TD*%
D16*
%TO.C,D1*%
X100050000Y-107600000D03*
D17*
X104750000Y-107600000D03*
%TD*%
D14*
%TO.C,S9*%
X138400000Y-43250000D03*
X143400000Y-45450000D03*
X133400000Y-45450000D03*
D12*
X143900000Y-49200000D03*
D14*
X138400000Y-43250000D03*
D13*
X138400000Y-49200000D03*
D12*
X132900000Y-49200000D03*
D15*
X141675000Y-43250000D03*
X130125000Y-45450000D03*
%TD*%
D19*
%TO.C,D17*%
X194953297Y-131889102D03*
D20*
X199023617Y-134239102D03*
%TD*%
D23*
%TO.C,MCU1*%
X202020000Y-86210000D03*
X186780000Y-88750000D03*
X186780000Y-86210000D03*
X202020000Y-73510000D03*
X202020000Y-78590000D03*
X186780000Y-93830000D03*
X186780000Y-68430000D03*
X202020000Y-76050000D03*
D24*
X188558000Y-91290000D03*
X188558000Y-86210000D03*
X188558000Y-70970000D03*
X188558000Y-76050000D03*
D23*
X186780000Y-73510000D03*
D25*
X186780000Y-68430000D03*
D26*
X200242000Y-93830000D03*
X200242000Y-91290000D03*
D23*
X186780000Y-78590000D03*
X186780000Y-76050000D03*
D24*
X188558000Y-96370000D03*
X188558000Y-78590000D03*
X188558000Y-93830000D03*
X188558000Y-81130000D03*
D26*
X200242000Y-73510000D03*
D23*
X186780000Y-96370000D03*
D26*
X200242000Y-81130000D03*
D23*
X202020000Y-83670000D03*
X202020000Y-81130000D03*
D24*
X188558000Y-68430000D03*
D26*
X200242000Y-70970000D03*
D23*
X202020000Y-93830000D03*
X202020000Y-88750000D03*
D24*
X188558000Y-88750000D03*
D26*
X200242000Y-76050000D03*
X200242000Y-86210000D03*
X200242000Y-78590000D03*
X200242000Y-96370000D03*
D23*
X202020000Y-70970000D03*
X202020000Y-96370000D03*
D26*
X200242000Y-68430000D03*
D23*
X186780000Y-81130000D03*
X186780000Y-70970000D03*
X186780000Y-83670000D03*
X202020000Y-68430000D03*
X186780000Y-91290000D03*
D24*
X188558000Y-73510000D03*
D26*
X200242000Y-83670000D03*
D24*
X188558000Y-83670000D03*
D26*
X200242000Y-88750000D03*
D23*
X202020000Y-91290000D03*
D27*
X199226000Y-68430000D03*
X199226000Y-70970000D03*
X199226000Y-73510000D03*
X199226000Y-76050000D03*
X199226000Y-78590000D03*
X199226000Y-81130000D03*
X199226000Y-83670000D03*
X199226000Y-86210000D03*
X199226000Y-88750000D03*
X199226000Y-91290000D03*
X199226000Y-93830000D03*
X199226000Y-96370000D03*
D28*
X189574000Y-96370000D03*
X189574000Y-93830000D03*
X189574000Y-91290000D03*
X189574000Y-88750000D03*
X189574000Y-86210000D03*
X189574000Y-83670000D03*
X189574000Y-81130000D03*
X189574000Y-78590000D03*
X189574000Y-76050000D03*
X189574000Y-73510000D03*
X189574000Y-70970000D03*
X189574000Y-68430000D03*
%TD*%
D12*
%TO.C,S11*%
X161900000Y-71300000D03*
D14*
X161400000Y-67550000D03*
D13*
X156400000Y-71300000D03*
D14*
X156400000Y-65350000D03*
D12*
X150900000Y-71300000D03*
D14*
X151400000Y-67550000D03*
X156400000Y-65350000D03*
D15*
X159675000Y-65350000D03*
X148125000Y-67550000D03*
%TD*%
D16*
%TO.C,D4*%
X118050000Y-92300000D03*
D17*
X122750000Y-92300000D03*
%TD*%
D16*
%TO.C,D10*%
X154050000Y-92300000D03*
D17*
X158750000Y-92300000D03*
%TD*%
M02*
