%TF.GenerationSoftware,KiCad,Pcbnew,(6.0.6-1)-1*%
%TF.CreationDate,2022-08-23T15:24:18-05:00*%
%TF.ProjectId,smcboard,736d6362-6f61-4726-942e-6b696361645f,v1.0.0*%
%TF.SameCoordinates,Original*%
%TF.FileFunction,Soldermask,Bot*%
%TF.FilePolarity,Negative*%
%FSLAX46Y46*%
G04 Gerber Fmt 4.6, Leading zero omitted, Abs format (unit mm)*
G04 Created by KiCad (PCBNEW (6.0.6-1)-1) date 2022-08-23 15:24:18*
%MOMM*%
%LPD*%
G01*
G04 APERTURE LIST*
G04 Aperture macros list*
%AMRoundRect*
0 Rectangle with rounded corners*
0 $1 Rounding radius*
0 $2 $3 $4 $5 $6 $7 $8 $9 X,Y pos of 4 corners*
0 Add a 4 corners polygon primitive as box body*
4,1,4,$2,$3,$4,$5,$6,$7,$8,$9,$2,$3,0*
0 Add four circle primitives for the rounded corners*
1,1,$1+$1,$2,$3*
1,1,$1+$1,$4,$5*
1,1,$1+$1,$6,$7*
1,1,$1+$1,$8,$9*
0 Add four rect primitives between the rounded corners*
20,1,$1+$1,$2,$3,$4,$5,0*
20,1,$1+$1,$4,$5,$6,$7,0*
20,1,$1+$1,$6,$7,$8,$9,0*
20,1,$1+$1,$8,$9,$2,$3,0*%
%AMFreePoly0*
4,1,14,0.635355,0.435355,0.650000,0.400000,0.650000,0.200000,0.635355,0.164645,0.035355,-0.435355,0.000000,-0.450000,-0.035355,-0.435355,-0.635355,0.164645,-0.650000,0.200000,-0.650000,0.400000,-0.635355,0.435355,-0.600000,0.450000,0.600000,0.450000,0.635355,0.435355,0.635355,0.435355,$1*%
%AMFreePoly1*
4,1,16,0.635355,1.035355,0.650000,1.000000,0.650000,-0.250000,0.635355,-0.285355,0.600000,-0.300000,-0.600000,-0.300000,-0.635355,-0.285355,-0.650000,-0.250000,-0.650000,1.000000,-0.635355,1.035355,-0.600000,1.050000,-0.564645,1.035355,0.000000,0.470710,0.564645,1.035355,0.600000,1.050000,0.635355,1.035355,0.635355,1.035355,$1*%
G04 Aperture macros list end*
%ADD10C,0.250000*%
%ADD11C,0.100000*%
%ADD12RoundRect,0.050000X0.825000X0.825000X-0.825000X0.825000X-0.825000X-0.825000X0.825000X-0.825000X0*%
%ADD13RoundRect,0.050000X-0.825000X-0.825000X0.825000X-0.825000X0.825000X0.825000X-0.825000X0.825000X0*%
%ADD14C,3.100000*%
%ADD15C,1.801800*%
%ADD16C,3.529000*%
%ADD17RoundRect,0.050000X-1.775833X-0.475833X0.475833X-1.775833X1.775833X0.475833X-0.475833X1.775833X0*%
%ADD18RoundRect,0.050000X1.126971X0.301971X-0.301971X1.126971X-1.126971X-0.301971X0.301971X-1.126971X0*%
%ADD19RoundRect,0.050000X-1.126971X-0.301971X0.301971X-1.126971X1.126971X0.301971X-0.301971X1.126971X0*%
%ADD20RoundRect,0.050000X-1.300000X-1.300000X1.300000X-1.300000X1.300000X1.300000X-1.300000X1.300000X0*%
%ADD21C,0.900000*%
%ADD22O,2.300000X1.700000*%
%ADD23FreePoly0,270.000000*%
%ADD24C,1.700000*%
%ADD25FreePoly0,90.000000*%
%ADD26RoundRect,0.050000X-0.800000X0.800000X-0.800000X-0.800000X0.800000X-0.800000X0.800000X0.800000X0*%
%ADD27FreePoly1,90.000000*%
%ADD28FreePoly1,270.000000*%
G04 APERTURE END LIST*
D10*
%TO.C,MCU1*%
X167387000Y-84780000D02*
G75*
G03*
X167387000Y-84780000I-125000J0D01*
G01*
X167387000Y-72080000D02*
G75*
G03*
X167387000Y-72080000I-125000J0D01*
G01*
X165863000Y-84780000D02*
G75*
G03*
X165863000Y-84780000I-125000J0D01*
G01*
X167387000Y-64460000D02*
G75*
G03*
X167387000Y-64460000I-125000J0D01*
G01*
X167387000Y-69540000D02*
G75*
G03*
X167387000Y-69540000I-125000J0D01*
G01*
X167387000Y-77160000D02*
G75*
G03*
X167387000Y-77160000I-125000J0D01*
G01*
X167387000Y-79700000D02*
G75*
G03*
X167387000Y-79700000I-125000J0D01*
G01*
X165863000Y-59380000D02*
G75*
G03*
X165863000Y-59380000I-125000J0D01*
G01*
X165863000Y-72080000D02*
G75*
G03*
X165863000Y-72080000I-125000J0D01*
G01*
X167387000Y-59380000D02*
G75*
G03*
X167387000Y-59380000I-125000J0D01*
G01*
X167387000Y-74620000D02*
G75*
G03*
X167387000Y-74620000I-125000J0D01*
G01*
X165863000Y-61920000D02*
G75*
G03*
X165863000Y-61920000I-125000J0D01*
G01*
X165863000Y-79700000D02*
G75*
G03*
X165863000Y-79700000I-125000J0D01*
G01*
X165863000Y-74620000D02*
G75*
G03*
X165863000Y-74620000I-125000J0D01*
G01*
X165863000Y-67000000D02*
G75*
G03*
X165863000Y-67000000I-125000J0D01*
G01*
X165863000Y-69540000D02*
G75*
G03*
X165863000Y-69540000I-125000J0D01*
G01*
X165863000Y-77160000D02*
G75*
G03*
X165863000Y-77160000I-125000J0D01*
G01*
X167387000Y-82240000D02*
G75*
G03*
X167387000Y-82240000I-125000J0D01*
G01*
X167387000Y-61920000D02*
G75*
G03*
X167387000Y-61920000I-125000J0D01*
G01*
X165863000Y-64460000D02*
G75*
G03*
X165863000Y-64460000I-125000J0D01*
G01*
X165863000Y-87320000D02*
G75*
G03*
X165863000Y-87320000I-125000J0D01*
G01*
X167387000Y-87320000D02*
G75*
G03*
X167387000Y-87320000I-125000J0D01*
G01*
X167387000Y-67000000D02*
G75*
G03*
X167387000Y-67000000I-125000J0D01*
G01*
X165863000Y-82240000D02*
G75*
G03*
X165863000Y-82240000I-125000J0D01*
G01*
G36*
X161420000Y-64968000D02*
G01*
X160404000Y-64968000D01*
X160404000Y-63952000D01*
X161420000Y-63952000D01*
X161420000Y-64968000D01*
G37*
D11*
X161420000Y-64968000D02*
X160404000Y-64968000D01*
X160404000Y-63952000D01*
X161420000Y-63952000D01*
X161420000Y-64968000D01*
G36*
X172596000Y-70048000D02*
G01*
X171580000Y-70048000D01*
X171580000Y-69032000D01*
X172596000Y-69032000D01*
X172596000Y-70048000D01*
G37*
X172596000Y-70048000D02*
X171580000Y-70048000D01*
X171580000Y-69032000D01*
X172596000Y-69032000D01*
X172596000Y-70048000D01*
G36*
X172596000Y-67508000D02*
G01*
X171580000Y-67508000D01*
X171580000Y-66492000D01*
X172596000Y-66492000D01*
X172596000Y-67508000D01*
G37*
X172596000Y-67508000D02*
X171580000Y-67508000D01*
X171580000Y-66492000D01*
X172596000Y-66492000D01*
X172596000Y-67508000D01*
G36*
X161420000Y-72588000D02*
G01*
X160404000Y-72588000D01*
X160404000Y-71572000D01*
X161420000Y-71572000D01*
X161420000Y-72588000D01*
G37*
X161420000Y-72588000D02*
X160404000Y-72588000D01*
X160404000Y-71572000D01*
X161420000Y-71572000D01*
X161420000Y-72588000D01*
G36*
X172596000Y-82748000D02*
G01*
X171580000Y-82748000D01*
X171580000Y-81732000D01*
X172596000Y-81732000D01*
X172596000Y-82748000D01*
G37*
X172596000Y-82748000D02*
X171580000Y-82748000D01*
X171580000Y-81732000D01*
X172596000Y-81732000D01*
X172596000Y-82748000D01*
G36*
X161420000Y-59888000D02*
G01*
X160404000Y-59888000D01*
X160404000Y-58872000D01*
X161420000Y-58872000D01*
X161420000Y-59888000D01*
G37*
X161420000Y-59888000D02*
X160404000Y-59888000D01*
X160404000Y-58872000D01*
X161420000Y-58872000D01*
X161420000Y-59888000D01*
G36*
X172596000Y-85288000D02*
G01*
X171580000Y-85288000D01*
X171580000Y-84272000D01*
X172596000Y-84272000D01*
X172596000Y-85288000D01*
G37*
X172596000Y-85288000D02*
X171580000Y-85288000D01*
X171580000Y-84272000D01*
X172596000Y-84272000D01*
X172596000Y-85288000D01*
G36*
X172596000Y-62428000D02*
G01*
X171580000Y-62428000D01*
X171580000Y-61412000D01*
X172596000Y-61412000D01*
X172596000Y-62428000D01*
G37*
X172596000Y-62428000D02*
X171580000Y-62428000D01*
X171580000Y-61412000D01*
X172596000Y-61412000D01*
X172596000Y-62428000D01*
G36*
X161420000Y-62428000D02*
G01*
X160404000Y-62428000D01*
X160404000Y-61412000D01*
X161420000Y-61412000D01*
X161420000Y-62428000D01*
G37*
X161420000Y-62428000D02*
X160404000Y-62428000D01*
X160404000Y-61412000D01*
X161420000Y-61412000D01*
X161420000Y-62428000D01*
G36*
X161420000Y-70048000D02*
G01*
X160404000Y-70048000D01*
X160404000Y-69032000D01*
X161420000Y-69032000D01*
X161420000Y-70048000D01*
G37*
X161420000Y-70048000D02*
X160404000Y-70048000D01*
X160404000Y-69032000D01*
X161420000Y-69032000D01*
X161420000Y-70048000D01*
G36*
X172596000Y-72588000D02*
G01*
X171580000Y-72588000D01*
X171580000Y-71572000D01*
X172596000Y-71572000D01*
X172596000Y-72588000D01*
G37*
X172596000Y-72588000D02*
X171580000Y-72588000D01*
X171580000Y-71572000D01*
X172596000Y-71572000D01*
X172596000Y-72588000D01*
G36*
X161420000Y-75128000D02*
G01*
X160404000Y-75128000D01*
X160404000Y-74112000D01*
X161420000Y-74112000D01*
X161420000Y-75128000D01*
G37*
X161420000Y-75128000D02*
X160404000Y-75128000D01*
X160404000Y-74112000D01*
X161420000Y-74112000D01*
X161420000Y-75128000D01*
G36*
X161420000Y-67508000D02*
G01*
X160404000Y-67508000D01*
X160404000Y-66492000D01*
X161420000Y-66492000D01*
X161420000Y-67508000D01*
G37*
X161420000Y-67508000D02*
X160404000Y-67508000D01*
X160404000Y-66492000D01*
X161420000Y-66492000D01*
X161420000Y-67508000D01*
G36*
X172596000Y-80208000D02*
G01*
X171580000Y-80208000D01*
X171580000Y-79192000D01*
X172596000Y-79192000D01*
X172596000Y-80208000D01*
G37*
X172596000Y-80208000D02*
X171580000Y-80208000D01*
X171580000Y-79192000D01*
X172596000Y-79192000D01*
X172596000Y-80208000D01*
G36*
X161420000Y-80208000D02*
G01*
X160404000Y-80208000D01*
X160404000Y-79192000D01*
X161420000Y-79192000D01*
X161420000Y-80208000D01*
G37*
X161420000Y-80208000D02*
X160404000Y-80208000D01*
X160404000Y-79192000D01*
X161420000Y-79192000D01*
X161420000Y-80208000D01*
G36*
X161420000Y-87828000D02*
G01*
X160404000Y-87828000D01*
X160404000Y-86812000D01*
X161420000Y-86812000D01*
X161420000Y-87828000D01*
G37*
X161420000Y-87828000D02*
X160404000Y-87828000D01*
X160404000Y-86812000D01*
X161420000Y-86812000D01*
X161420000Y-87828000D01*
G36*
X161420000Y-85288000D02*
G01*
X160404000Y-85288000D01*
X160404000Y-84272000D01*
X161420000Y-84272000D01*
X161420000Y-85288000D01*
G37*
X161420000Y-85288000D02*
X160404000Y-85288000D01*
X160404000Y-84272000D01*
X161420000Y-84272000D01*
X161420000Y-85288000D01*
G36*
X172596000Y-87828000D02*
G01*
X171580000Y-87828000D01*
X171580000Y-86812000D01*
X172596000Y-86812000D01*
X172596000Y-87828000D01*
G37*
X172596000Y-87828000D02*
X171580000Y-87828000D01*
X171580000Y-86812000D01*
X172596000Y-86812000D01*
X172596000Y-87828000D01*
G36*
X172596000Y-64968000D02*
G01*
X171580000Y-64968000D01*
X171580000Y-63952000D01*
X172596000Y-63952000D01*
X172596000Y-64968000D01*
G37*
X172596000Y-64968000D02*
X171580000Y-64968000D01*
X171580000Y-63952000D01*
X172596000Y-63952000D01*
X172596000Y-64968000D01*
G36*
X172596000Y-75128000D02*
G01*
X171580000Y-75128000D01*
X171580000Y-74112000D01*
X172596000Y-74112000D01*
X172596000Y-75128000D01*
G37*
X172596000Y-75128000D02*
X171580000Y-75128000D01*
X171580000Y-74112000D01*
X172596000Y-74112000D01*
X172596000Y-75128000D01*
G36*
X172596000Y-59888000D02*
G01*
X171580000Y-59888000D01*
X171580000Y-58872000D01*
X172596000Y-58872000D01*
X172596000Y-59888000D01*
G37*
X172596000Y-59888000D02*
X171580000Y-59888000D01*
X171580000Y-58872000D01*
X172596000Y-58872000D01*
X172596000Y-59888000D01*
G36*
X161420000Y-82748000D02*
G01*
X160404000Y-82748000D01*
X160404000Y-81732000D01*
X161420000Y-81732000D01*
X161420000Y-82748000D01*
G37*
X161420000Y-82748000D02*
X160404000Y-82748000D01*
X160404000Y-81732000D01*
X161420000Y-81732000D01*
X161420000Y-82748000D01*
G36*
X172596000Y-77668000D02*
G01*
X171580000Y-77668000D01*
X171580000Y-76652000D01*
X172596000Y-76652000D01*
X172596000Y-77668000D01*
G37*
X172596000Y-77668000D02*
X171580000Y-77668000D01*
X171580000Y-76652000D01*
X172596000Y-76652000D01*
X172596000Y-77668000D01*
G36*
X161420000Y-77668000D02*
G01*
X160404000Y-77668000D01*
X160404000Y-76652000D01*
X161420000Y-76652000D01*
X161420000Y-77668000D01*
G37*
X161420000Y-77668000D02*
X160404000Y-77668000D01*
X160404000Y-76652000D01*
X161420000Y-76652000D01*
X161420000Y-77668000D01*
%TD*%
D12*
%TO.C,D6*%
X90450000Y-49250000D03*
D13*
X94550000Y-49250000D03*
%TD*%
D14*
%TO.C,S16*%
X161705127Y-110802405D03*
X153044873Y-105802405D03*
X158475000Y-106397149D03*
D15*
X150736860Y-108800000D03*
D14*
X158475000Y-106397149D03*
D16*
X155500000Y-111550000D03*
D15*
X160263140Y-114300000D03*
D17*
X155638767Y-104759649D03*
X164541360Y-112439905D03*
%TD*%
D12*
%TO.C,D14*%
X144450000Y-71350000D03*
D13*
X148550000Y-71350000D03*
%TD*%
D18*
%TO.C,D17*%
X167313104Y-122989102D03*
D19*
X170863810Y-125039102D03*
%TD*%
D15*
%TO.C,S9*%
X116000000Y-40150000D03*
X105000000Y-40150000D03*
D16*
X110500000Y-40150000D03*
D14*
X115500000Y-36400000D03*
X110500000Y-34200000D03*
X110500000Y-34200000D03*
X105500000Y-36400000D03*
D20*
X107225000Y-34200000D03*
X118775000Y-36400000D03*
%TD*%
D14*
%TO.C,S15*%
X146500000Y-44400000D03*
D15*
X152000000Y-50350000D03*
D14*
X141500000Y-46600000D03*
X151500000Y-46600000D03*
D15*
X141000000Y-50350000D03*
D16*
X146500000Y-50350000D03*
D14*
X146500000Y-44400000D03*
D20*
X143225000Y-44400000D03*
X154775000Y-46600000D03*
%TD*%
D12*
%TO.C,D12*%
X126450000Y-49250000D03*
D13*
X130550000Y-49250000D03*
%TD*%
D12*
%TO.C,D5*%
X90450000Y-66250000D03*
D13*
X94550000Y-66250000D03*
%TD*%
D21*
%TO.C,REF\u002A\u002A*%
X167900000Y-97050000D03*
X174900000Y-97050000D03*
D22*
X165200000Y-99350000D03*
X165200000Y-94750000D03*
X166300000Y-99350000D03*
X166300000Y-94750000D03*
X170300000Y-94750000D03*
X170300000Y-99350000D03*
X173300000Y-94750000D03*
X173300000Y-99350000D03*
%TD*%
D12*
%TO.C,D2*%
X72450000Y-81550000D03*
D13*
X76550000Y-81550000D03*
%TD*%
D15*
%TO.C,S3*%
X69000000Y-60550000D03*
D14*
X79500000Y-56800000D03*
X74500000Y-54600000D03*
D15*
X80000000Y-60550000D03*
D14*
X69500000Y-56800000D03*
D16*
X74500000Y-60550000D03*
D14*
X74500000Y-54600000D03*
D20*
X71225000Y-54600000D03*
X82775000Y-56800000D03*
%TD*%
D12*
%TO.C,D9*%
X108450000Y-44150000D03*
D13*
X112550000Y-44150000D03*
%TD*%
D14*
%TO.C,S13*%
X146500000Y-78400000D03*
D15*
X152000000Y-84350000D03*
D14*
X151500000Y-80600000D03*
D15*
X141000000Y-84350000D03*
D14*
X141500000Y-80600000D03*
D16*
X146500000Y-84350000D03*
D14*
X146500000Y-78400000D03*
D20*
X143225000Y-78400000D03*
X154775000Y-80600000D03*
%TD*%
D18*
%TO.C,D16*%
X151724647Y-113989102D03*
D19*
X155275353Y-116039102D03*
%TD*%
D12*
%TO.C,D13*%
X144450000Y-88350000D03*
D13*
X148550000Y-88350000D03*
%TD*%
D14*
%TO.C,S14*%
X141500000Y-63600000D03*
X146500000Y-61400000D03*
D15*
X152000000Y-67350000D03*
D16*
X146500000Y-67350000D03*
D14*
X146500000Y-61400000D03*
D15*
X141000000Y-67350000D03*
D14*
X151500000Y-63600000D03*
D20*
X143225000Y-61400000D03*
X154775000Y-63600000D03*
%TD*%
D12*
%TO.C,D10*%
X126450000Y-83250000D03*
D13*
X130550000Y-83250000D03*
%TD*%
D23*
%TO.C,MCU1*%
X172342000Y-77160000D03*
D24*
X158880000Y-74620000D03*
D23*
X172342000Y-61920000D03*
X172342000Y-64460000D03*
D24*
X174120000Y-74620000D03*
D23*
X172342000Y-87320000D03*
D25*
X160658000Y-87320000D03*
D24*
X158880000Y-79700000D03*
D25*
X160658000Y-69540000D03*
D23*
X172342000Y-74620000D03*
D24*
X158880000Y-77160000D03*
D25*
X160658000Y-84780000D03*
D23*
X172342000Y-69540000D03*
D24*
X174120000Y-59380000D03*
X158880000Y-64460000D03*
X158880000Y-87320000D03*
X158880000Y-82240000D03*
X174120000Y-84780000D03*
X174120000Y-82240000D03*
X158880000Y-59380000D03*
X174120000Y-61920000D03*
D26*
X174120000Y-59380000D03*
D24*
X174120000Y-64460000D03*
D23*
X172342000Y-79700000D03*
D25*
X160658000Y-64460000D03*
D23*
X172342000Y-72080000D03*
D25*
X160658000Y-59380000D03*
X160658000Y-79700000D03*
D24*
X158880000Y-84780000D03*
X174120000Y-87320000D03*
D25*
X160658000Y-61920000D03*
D23*
X172342000Y-82240000D03*
X172342000Y-84780000D03*
D24*
X158880000Y-67000000D03*
X158880000Y-61920000D03*
D25*
X160658000Y-82240000D03*
X160658000Y-72080000D03*
X160658000Y-74620000D03*
D24*
X158880000Y-72080000D03*
X174120000Y-72080000D03*
X174120000Y-69540000D03*
D25*
X160658000Y-67000000D03*
D24*
X174120000Y-77160000D03*
X174120000Y-79700000D03*
D25*
X160658000Y-77160000D03*
D23*
X172342000Y-67000000D03*
X172342000Y-59380000D03*
D24*
X174120000Y-67000000D03*
X158880000Y-69540000D03*
D27*
X161674000Y-59380000D03*
X161674000Y-61920000D03*
X161674000Y-64460000D03*
X161674000Y-67000000D03*
X161674000Y-69540000D03*
X161674000Y-72080000D03*
X161674000Y-74620000D03*
X161674000Y-77160000D03*
X161674000Y-79700000D03*
X161674000Y-82240000D03*
X161674000Y-84780000D03*
X161674000Y-87320000D03*
D28*
X171326000Y-87320000D03*
X171326000Y-84780000D03*
X171326000Y-82240000D03*
X171326000Y-79700000D03*
X171326000Y-77160000D03*
X171326000Y-74620000D03*
X171326000Y-72080000D03*
X171326000Y-69540000D03*
X171326000Y-67000000D03*
X171326000Y-64460000D03*
X171326000Y-61920000D03*
X171326000Y-59380000D03*
%TD*%
D16*
%TO.C,S7*%
X110500000Y-74150000D03*
D14*
X105500000Y-70400000D03*
D15*
X105000000Y-74150000D03*
D14*
X110500000Y-68200000D03*
D15*
X116000000Y-74150000D03*
D14*
X110500000Y-68200000D03*
X115500000Y-70400000D03*
D20*
X107225000Y-68200000D03*
X118775000Y-70400000D03*
%TD*%
D12*
%TO.C,D7*%
X108450000Y-78150000D03*
D13*
X112550000Y-78150000D03*
%TD*%
D14*
%TO.C,S12*%
X133500000Y-41500000D03*
X123500000Y-41500000D03*
D16*
X128500000Y-45250000D03*
D14*
X128500000Y-39300000D03*
D15*
X134000000Y-45250000D03*
X123000000Y-45250000D03*
D14*
X128500000Y-39300000D03*
D20*
X125225000Y-39300000D03*
X136775000Y-41500000D03*
%TD*%
D14*
%TO.C,S6*%
X87500000Y-41500000D03*
D15*
X87000000Y-45250000D03*
X98000000Y-45250000D03*
D14*
X92500000Y-39300000D03*
D16*
X92500000Y-45250000D03*
D14*
X92500000Y-39300000D03*
X97500000Y-41500000D03*
D20*
X89225000Y-39300000D03*
X100775000Y-41500000D03*
%TD*%
D14*
%TO.C,S5*%
X92500000Y-56300000D03*
D16*
X92500000Y-62250000D03*
D14*
X87500000Y-58500000D03*
X92500000Y-56300000D03*
D15*
X98000000Y-62250000D03*
X87000000Y-62250000D03*
D14*
X97500000Y-58500000D03*
D20*
X89225000Y-56300000D03*
X100775000Y-58500000D03*
%TD*%
D14*
%TO.C,S2*%
X74500000Y-71600000D03*
X79500000Y-73800000D03*
X69500000Y-73800000D03*
D16*
X74500000Y-77550000D03*
D15*
X69000000Y-77550000D03*
D14*
X74500000Y-71600000D03*
D15*
X80000000Y-77550000D03*
D20*
X71225000Y-71600000D03*
X82775000Y-73800000D03*
%TD*%
D12*
%TO.C,D15*%
X144450000Y-54350000D03*
D13*
X148550000Y-54350000D03*
%TD*%
D14*
%TO.C,S1*%
X79500000Y-90800000D03*
X69500000Y-90800000D03*
D15*
X69000000Y-94550000D03*
D14*
X74500000Y-88600000D03*
D15*
X80000000Y-94550000D03*
D14*
X74500000Y-88600000D03*
D16*
X74500000Y-94550000D03*
D20*
X71225000Y-88600000D03*
X82775000Y-90800000D03*
%TD*%
D14*
%TO.C,S8*%
X105500000Y-53400000D03*
X115500000Y-53400000D03*
D16*
X110500000Y-57150000D03*
D15*
X116000000Y-57150000D03*
D14*
X110500000Y-51200000D03*
D15*
X105000000Y-57150000D03*
D14*
X110500000Y-51200000D03*
D20*
X107225000Y-51200000D03*
X118775000Y-53400000D03*
%TD*%
D14*
%TO.C,S4*%
X87500000Y-75500000D03*
D16*
X92500000Y-79250000D03*
D15*
X98000000Y-79250000D03*
X87000000Y-79250000D03*
D14*
X92500000Y-73300000D03*
X97500000Y-75500000D03*
X92500000Y-73300000D03*
D20*
X89225000Y-73300000D03*
X100775000Y-75500000D03*
%TD*%
D12*
%TO.C,D11*%
X126450000Y-66250000D03*
D13*
X130550000Y-66250000D03*
%TD*%
D12*
%TO.C,D4*%
X90450000Y-83250000D03*
D13*
X94550000Y-83250000D03*
%TD*%
D14*
%TO.C,S11*%
X133500000Y-58500000D03*
X128500000Y-56300000D03*
X123500000Y-58500000D03*
X128500000Y-56300000D03*
D16*
X128500000Y-62250000D03*
D15*
X134000000Y-62250000D03*
X123000000Y-62250000D03*
D20*
X125225000Y-56300000D03*
X136775000Y-58500000D03*
%TD*%
D12*
%TO.C,D3*%
X72450000Y-64550000D03*
D13*
X76550000Y-64550000D03*
%TD*%
D16*
%TO.C,S10*%
X128500000Y-79250000D03*
D14*
X128500000Y-73300000D03*
X123500000Y-75500000D03*
D15*
X134000000Y-79250000D03*
D14*
X128500000Y-73300000D03*
D15*
X123000000Y-79250000D03*
D14*
X133500000Y-75500000D03*
D20*
X125225000Y-73300000D03*
X136775000Y-75500000D03*
%TD*%
D14*
%TO.C,S17*%
X177293584Y-119802405D03*
X174063457Y-115397149D03*
X174063457Y-115397149D03*
D15*
X175851597Y-123300000D03*
D14*
X168633330Y-114802405D03*
D16*
X171088457Y-120550000D03*
D15*
X166325317Y-117800000D03*
D17*
X171227224Y-113759649D03*
X180129817Y-121439905D03*
%TD*%
D12*
%TO.C,D8*%
X108450000Y-61150000D03*
D13*
X112550000Y-61150000D03*
%TD*%
D12*
%TO.C,D1*%
X72450000Y-98550000D03*
D13*
X76550000Y-98550000D03*
%TD*%
M02*
