%TF.GenerationSoftware,KiCad,Pcbnew,(6.0.6-1)-1*%
%TF.CreationDate,2022-08-23T15:24:18-05:00*%
%TF.ProjectId,smcboard,736d6362-6f61-4726-942e-6b696361645f,v1.0.0*%
%TF.SameCoordinates,Original*%
%TF.FileFunction,Legend,Top*%
%TF.FilePolarity,Positive*%
%FSLAX46Y46*%
G04 Gerber Fmt 4.6, Leading zero omitted, Abs format (unit mm)*
G04 Created by KiCad (PCBNEW (6.0.6-1)-1) date 2022-08-23 15:24:18*
%MOMM*%
%LPD*%
G01*
G04 APERTURE LIST*
%ADD10C,0.150000*%
%ADD11C,0.200000*%
%ADD12C,0.100000*%
G04 APERTURE END LIST*
D10*
X163797619Y-63880952D02*
X163083333Y-63880952D01*
X162940476Y-63833333D01*
X162845238Y-63738095D01*
X162797619Y-63595238D01*
X162797619Y-63500000D01*
X162797619Y-64833333D02*
X162797619Y-64357142D01*
X163797619Y-64357142D01*
X162892857Y-65738095D02*
X162845238Y-65690476D01*
X162797619Y-65547619D01*
X162797619Y-65452380D01*
X162845238Y-65309523D01*
X162940476Y-65214285D01*
X163035714Y-65166666D01*
X163226190Y-65119047D01*
X163369047Y-65119047D01*
X163559523Y-65166666D01*
X163654761Y-65214285D01*
X163750000Y-65309523D01*
X163797619Y-65452380D01*
X163797619Y-65547619D01*
X163750000Y-65690476D01*
X163702380Y-65738095D01*
X163797619Y-66452380D02*
X163083333Y-66452380D01*
X162940476Y-66404761D01*
X162845238Y-66309523D01*
X162797619Y-66166666D01*
X162797619Y-66071428D01*
X162797619Y-67404761D02*
X162797619Y-66928571D01*
X163797619Y-66928571D01*
X162892857Y-68309523D02*
X162845238Y-68261904D01*
X162797619Y-68119047D01*
X162797619Y-68023809D01*
X162845238Y-67880952D01*
X162940476Y-67785714D01*
X163035714Y-67738095D01*
X163226190Y-67690476D01*
X163369047Y-67690476D01*
X163559523Y-67738095D01*
X163654761Y-67785714D01*
X163750000Y-67880952D01*
X163797619Y-68023809D01*
X163797619Y-68119047D01*
X163750000Y-68261904D01*
X163702380Y-68309523D01*
X163797619Y-69023809D02*
X163083333Y-69023809D01*
X162940476Y-68976190D01*
X162845238Y-68880952D01*
X162797619Y-68738095D01*
X162797619Y-68642857D01*
X162797619Y-69976190D02*
X162797619Y-69500000D01*
X163797619Y-69500000D01*
X162892857Y-70880952D02*
X162845238Y-70833333D01*
X162797619Y-70690476D01*
X162797619Y-70595238D01*
X162845238Y-70452380D01*
X162940476Y-70357142D01*
X163035714Y-70309523D01*
X163226190Y-70261904D01*
X163369047Y-70261904D01*
X163559523Y-70309523D01*
X163654761Y-70357142D01*
X163750000Y-70452380D01*
X163797619Y-70595238D01*
X163797619Y-70690476D01*
X163750000Y-70833333D01*
X163702380Y-70880952D01*
X163797619Y-71595238D02*
X163083333Y-71595238D01*
X162940476Y-71547619D01*
X162845238Y-71452380D01*
X162797619Y-71309523D01*
X162797619Y-71214285D01*
X162797619Y-72547619D02*
X162797619Y-72071428D01*
X163797619Y-72071428D01*
X162892857Y-73452380D02*
X162845238Y-73404761D01*
X162797619Y-73261904D01*
X162797619Y-73166666D01*
X162845238Y-73023809D01*
X162940476Y-72928571D01*
X163035714Y-72880952D01*
X163226190Y-72833333D01*
X163369047Y-72833333D01*
X163559523Y-72880952D01*
X163654761Y-72928571D01*
X163750000Y-73023809D01*
X163797619Y-73166666D01*
X163797619Y-73261904D01*
X163750000Y-73404761D01*
X163702380Y-73452380D01*
D11*
X91673428Y-95575714D02*
X91911523Y-96242380D01*
X92149619Y-95575714D01*
X92721047Y-95242380D02*
X92816285Y-95242380D01*
X92911523Y-95290000D01*
X92959142Y-95337619D01*
X93006761Y-95432857D01*
X93054380Y-95623333D01*
X93054380Y-95861428D01*
X93006761Y-96051904D01*
X92959142Y-96147142D01*
X92911523Y-96194761D01*
X92816285Y-96242380D01*
X92721047Y-96242380D01*
X92625809Y-96194761D01*
X92578190Y-96147142D01*
X92530571Y-96051904D01*
X92482952Y-95861428D01*
X92482952Y-95623333D01*
X92530571Y-95432857D01*
X92578190Y-95337619D01*
X92625809Y-95290000D01*
X92721047Y-95242380D01*
X93482952Y-96147142D02*
X93530571Y-96194761D01*
X93482952Y-96242380D01*
X93435333Y-96194761D01*
X93482952Y-96147142D01*
X93482952Y-96242380D01*
X93863904Y-95242380D02*
X94482952Y-95242380D01*
X94149619Y-95623333D01*
X94292476Y-95623333D01*
X94387714Y-95670952D01*
X94435333Y-95718571D01*
X94482952Y-95813809D01*
X94482952Y-96051904D01*
X94435333Y-96147142D01*
X94387714Y-96194761D01*
X94292476Y-96242380D01*
X94006761Y-96242380D01*
X93911523Y-96194761D01*
X93863904Y-96147142D01*
X91488095Y-94059523D02*
X91845238Y-94154761D01*
X92440476Y-94154761D01*
X92678571Y-94059523D01*
X92797619Y-93964285D01*
X92916666Y-93773809D01*
X92916666Y-93583333D01*
X92797619Y-93392857D01*
X92678571Y-93297619D01*
X92440476Y-93202380D01*
X91964285Y-93107142D01*
X91726190Y-93011904D01*
X91607142Y-92916666D01*
X91488095Y-92726190D01*
X91488095Y-92535714D01*
X91607142Y-92345238D01*
X91726190Y-92250000D01*
X91964285Y-92154761D01*
X92559523Y-92154761D01*
X92916666Y-92250000D01*
X93988095Y-94154761D02*
X93988095Y-92154761D01*
X94821428Y-93583333D01*
X95654761Y-92154761D01*
X95654761Y-94154761D01*
X98273809Y-93964285D02*
X98154761Y-94059523D01*
X97797619Y-94154761D01*
X97559523Y-94154761D01*
X97202380Y-94059523D01*
X96964285Y-93869047D01*
X96845238Y-93678571D01*
X96726190Y-93297619D01*
X96726190Y-93011904D01*
X96845238Y-92630952D01*
X96964285Y-92440476D01*
X97202380Y-92250000D01*
X97559523Y-92154761D01*
X97797619Y-92154761D01*
X98154761Y-92250000D01*
X98273809Y-92345238D01*
X99345238Y-94154761D02*
X99345238Y-92154761D01*
X99345238Y-93107142D02*
X100773809Y-93107142D01*
X100773809Y-94154761D02*
X100773809Y-92154761D01*
X101964285Y-92154761D02*
X101964285Y-93773809D01*
X102083333Y-93964285D01*
X102202380Y-94059523D01*
X102440476Y-94154761D01*
X102916666Y-94154761D01*
X103154761Y-94059523D01*
X103273809Y-93964285D01*
X103392857Y-93773809D01*
X103392857Y-92154761D01*
X104583333Y-94154761D02*
X104583333Y-92154761D01*
X106011904Y-94154761D01*
X106011904Y-92154761D01*
X107202380Y-94154761D02*
X107202380Y-92154761D01*
X108630952Y-94154761D01*
X108630952Y-92154761D01*
X111130952Y-94154761D02*
X109702380Y-94154761D01*
X110416666Y-94154761D02*
X110416666Y-92154761D01*
X110178571Y-92440476D01*
X109940476Y-92630952D01*
X109702380Y-92726190D01*
X113511904Y-94154761D02*
X112083333Y-94154761D01*
X112797619Y-94154761D02*
X112797619Y-92154761D01*
X112559523Y-92440476D01*
X112321428Y-92630952D01*
X112083333Y-92726190D01*
D10*
%TO.C,MCU1*%
%TO.C,REF\u002A\u002A*%
X111666666Y-70952380D02*
X111333333Y-70476190D01*
X111095238Y-70952380D02*
X111095238Y-69952380D01*
X111476190Y-69952380D01*
X111571428Y-70000000D01*
X111619047Y-70047619D01*
X111666666Y-70142857D01*
X111666666Y-70285714D01*
X111619047Y-70380952D01*
X111571428Y-70428571D01*
X111476190Y-70476190D01*
X111095238Y-70476190D01*
X112095238Y-70428571D02*
X112428571Y-70428571D01*
X112571428Y-70952380D02*
X112095238Y-70952380D01*
X112095238Y-69952380D01*
X112571428Y-69952380D01*
X113333333Y-70428571D02*
X113000000Y-70428571D01*
X113000000Y-70952380D02*
X113000000Y-69952380D01*
X113476190Y-69952380D01*
X114000000Y-69952380D02*
X114000000Y-70190476D01*
X113761904Y-70095238D02*
X114000000Y-70190476D01*
X114238095Y-70095238D01*
X113857142Y-70380952D02*
X114000000Y-70190476D01*
X114142857Y-70380952D01*
X114761904Y-69952380D02*
X114761904Y-70190476D01*
X114523809Y-70095238D02*
X114761904Y-70190476D01*
X115000000Y-70095238D01*
X114619047Y-70380952D02*
X114761904Y-70190476D01*
X114904761Y-70380952D01*
D12*
%TO.C,D6*%
X92750000Y-49650000D02*
X92150000Y-49250000D01*
X92750000Y-48850000D02*
X92750000Y-49650000D01*
X92750000Y-49250000D02*
X93250000Y-49250000D01*
X91750000Y-49250000D02*
X92150000Y-49250000D01*
X92150000Y-49250000D02*
X92150000Y-48700000D01*
X92150000Y-49250000D02*
X92150000Y-49800000D01*
X92150000Y-49250000D02*
X92750000Y-48850000D01*
%TO.C,D14*%
X146150000Y-71350000D02*
X146150000Y-71900000D01*
X146750000Y-71350000D02*
X147250000Y-71350000D01*
X146750000Y-70950000D02*
X146750000Y-71750000D01*
X146150000Y-71350000D02*
X146750000Y-70950000D01*
X145750000Y-71350000D02*
X146150000Y-71350000D01*
X146750000Y-71750000D02*
X146150000Y-71350000D01*
X146150000Y-71350000D02*
X146150000Y-70800000D01*
%TO.C,D17*%
X168785348Y-123839102D02*
X168510348Y-124315416D01*
X168438938Y-123639102D02*
X168785348Y-123839102D01*
X169104963Y-124485512D02*
X168785348Y-123839102D01*
X168785348Y-123839102D02*
X169504963Y-123792692D01*
X169304963Y-124139102D02*
X169737976Y-124389102D01*
X169504963Y-123792692D02*
X169104963Y-124485512D01*
X168785348Y-123839102D02*
X169060348Y-123362788D01*
%TO.C,D12*%
X128750000Y-49650000D02*
X128150000Y-49250000D01*
X128750000Y-49250000D02*
X129250000Y-49250000D01*
X127750000Y-49250000D02*
X128150000Y-49250000D01*
X128150000Y-49250000D02*
X128150000Y-48700000D01*
X128750000Y-48850000D02*
X128750000Y-49650000D01*
X128150000Y-49250000D02*
X128750000Y-48850000D01*
X128150000Y-49250000D02*
X128150000Y-49800000D01*
%TO.C,D5*%
X92150000Y-66250000D02*
X92750000Y-65850000D01*
X92150000Y-66250000D02*
X92150000Y-66800000D01*
X92750000Y-65850000D02*
X92750000Y-66650000D01*
X91750000Y-66250000D02*
X92150000Y-66250000D01*
X92750000Y-66250000D02*
X93250000Y-66250000D01*
X92150000Y-66250000D02*
X92150000Y-65700000D01*
X92750000Y-66650000D02*
X92150000Y-66250000D01*
%TO.C,D2*%
X74150000Y-81550000D02*
X74150000Y-82100000D01*
X74750000Y-81550000D02*
X75250000Y-81550000D01*
X74750000Y-81150000D02*
X74750000Y-81950000D01*
X74150000Y-81550000D02*
X74750000Y-81150000D01*
X73750000Y-81550000D02*
X74150000Y-81550000D01*
X74750000Y-81950000D02*
X74150000Y-81550000D01*
X74150000Y-81550000D02*
X74150000Y-81000000D01*
%TO.C,D9*%
X110150000Y-44150000D02*
X110150000Y-44700000D01*
X110150000Y-44150000D02*
X110750000Y-43750000D01*
X110750000Y-43750000D02*
X110750000Y-44550000D01*
X109750000Y-44150000D02*
X110150000Y-44150000D01*
X110150000Y-44150000D02*
X110150000Y-43600000D01*
X110750000Y-44150000D02*
X111250000Y-44150000D01*
X110750000Y-44550000D02*
X110150000Y-44150000D01*
%TO.C,D16*%
X153516506Y-115485512D02*
X153196891Y-114839102D01*
X153196891Y-114839102D02*
X153471891Y-114362788D01*
X152850481Y-114639102D02*
X153196891Y-114839102D01*
X153916506Y-114792692D02*
X153516506Y-115485512D01*
X153196891Y-114839102D02*
X153916506Y-114792692D01*
X153716506Y-115139102D02*
X154149519Y-115389102D01*
X153196891Y-114839102D02*
X152921891Y-115315416D01*
%TO.C,D13*%
X145750000Y-88350000D02*
X146150000Y-88350000D01*
X146150000Y-88350000D02*
X146150000Y-88900000D01*
X146150000Y-88350000D02*
X146150000Y-87800000D01*
X146750000Y-88750000D02*
X146150000Y-88350000D01*
X146150000Y-88350000D02*
X146750000Y-87950000D01*
X146750000Y-87950000D02*
X146750000Y-88750000D01*
X146750000Y-88350000D02*
X147250000Y-88350000D01*
%TO.C,D10*%
X128150000Y-83250000D02*
X128750000Y-82850000D01*
X128750000Y-83650000D02*
X128150000Y-83250000D01*
X128750000Y-83250000D02*
X129250000Y-83250000D01*
X128150000Y-83250000D02*
X128150000Y-82700000D01*
X128150000Y-83250000D02*
X128150000Y-83800000D01*
X128750000Y-82850000D02*
X128750000Y-83650000D01*
X127750000Y-83250000D02*
X128150000Y-83250000D01*
D10*
%TO.C,MCU1*%
X160150000Y-58110000D02*
X160150000Y-60650000D01*
X160150000Y-60650000D02*
X157610000Y-60650000D01*
X157610000Y-60650000D02*
X157610000Y-58110000D01*
X160150000Y-58110000D02*
X157610000Y-58110000D01*
D12*
%TO.C,D7*%
X109750000Y-78150000D02*
X110150000Y-78150000D01*
X110750000Y-78550000D02*
X110150000Y-78150000D01*
X110150000Y-78150000D02*
X110750000Y-77750000D01*
X110150000Y-78150000D02*
X110150000Y-78700000D01*
X110750000Y-78150000D02*
X111250000Y-78150000D01*
X110150000Y-78150000D02*
X110150000Y-77600000D01*
X110750000Y-77750000D02*
X110750000Y-78550000D01*
%TO.C,D15*%
X146150000Y-54350000D02*
X146150000Y-54900000D01*
X146750000Y-54350000D02*
X147250000Y-54350000D01*
X145750000Y-54350000D02*
X146150000Y-54350000D01*
X146150000Y-54350000D02*
X146750000Y-53950000D01*
X146750000Y-53950000D02*
X146750000Y-54750000D01*
X146750000Y-54750000D02*
X146150000Y-54350000D01*
X146150000Y-54350000D02*
X146150000Y-53800000D01*
%TO.C,D11*%
X127750000Y-66250000D02*
X128150000Y-66250000D01*
X128150000Y-66250000D02*
X128150000Y-65700000D01*
X128150000Y-66250000D02*
X128150000Y-66800000D01*
X128750000Y-66250000D02*
X129250000Y-66250000D01*
X128750000Y-66650000D02*
X128150000Y-66250000D01*
X128150000Y-66250000D02*
X128750000Y-65850000D01*
X128750000Y-65850000D02*
X128750000Y-66650000D01*
%TO.C,D4*%
X92750000Y-83250000D02*
X93250000Y-83250000D01*
X92150000Y-83250000D02*
X92150000Y-82700000D01*
X92150000Y-83250000D02*
X92750000Y-82850000D01*
X92750000Y-83650000D02*
X92150000Y-83250000D01*
X91750000Y-83250000D02*
X92150000Y-83250000D01*
X92150000Y-83250000D02*
X92150000Y-83800000D01*
X92750000Y-82850000D02*
X92750000Y-83650000D01*
%TO.C,D3*%
X74150000Y-64550000D02*
X74150000Y-64000000D01*
X73750000Y-64550000D02*
X74150000Y-64550000D01*
X74750000Y-64550000D02*
X75250000Y-64550000D01*
X74750000Y-64950000D02*
X74150000Y-64550000D01*
X74150000Y-64550000D02*
X74150000Y-65100000D01*
X74750000Y-64150000D02*
X74750000Y-64950000D01*
X74150000Y-64550000D02*
X74750000Y-64150000D01*
%TO.C,D8*%
X110150000Y-61150000D02*
X110150000Y-60600000D01*
X109750000Y-61150000D02*
X110150000Y-61150000D01*
X110750000Y-61150000D02*
X111250000Y-61150000D01*
X110750000Y-60750000D02*
X110750000Y-61550000D01*
X110150000Y-61150000D02*
X110750000Y-60750000D01*
X110750000Y-61550000D02*
X110150000Y-61150000D01*
X110150000Y-61150000D02*
X110150000Y-61700000D01*
%TO.C,D1*%
X74750000Y-98150000D02*
X74750000Y-98950000D01*
X74150000Y-98550000D02*
X74150000Y-98000000D01*
X73750000Y-98550000D02*
X74150000Y-98550000D01*
X74750000Y-98950000D02*
X74150000Y-98550000D01*
X74750000Y-98550000D02*
X75250000Y-98550000D01*
X74150000Y-98550000D02*
X74150000Y-99100000D01*
X74150000Y-98550000D02*
X74750000Y-98150000D01*
%TD*%
M02*
