M48
; DRILL file {KiCad (6.0.6-1)-1} date Monday, July 25, 2022 at 09:02:25 PM
; FORMAT={-:-/ absolute / inch / decimal}
; #@! TF.CreationDate,2022-07-25T21:02:25-05:00
; #@! TF.GenerationSoftware,Kicad,Pcbnew,(6.0.6-1)-1
; #@! TF.FileFunction,Plated,1,2,PTH
FMAT,2
INCH
; #@! TA.AperFunction,Plated,PTH,ComponentDrill
T1C0.0157
; #@! TA.AperFunction,Plated,PTH,ComponentDrill
T2C0.0354
; #@! TA.AperFunction,Plated,PTH,ComponentDrill
T3C0.0433
; #@! TA.AperFunction,Plated,PTH,ComponentDrill
T4C0.0500
%
G90
G05
T1
X9.0472Y-4.2254
X9.0472Y-4.3254
X9.0472Y-4.4254
X9.0472Y-4.5254
X9.0472Y-4.6254
X9.0472Y-4.7254
X9.0472Y-4.8254
X9.0472Y-4.9254
X9.0472Y-5.0254
X9.0472Y-5.1254
X9.0472Y-5.2254
X9.0472Y-5.3254
X9.1072Y-4.2254
X9.1072Y-4.3254
X9.1072Y-4.4254
X9.1072Y-4.5254
X9.1072Y-4.6254
X9.1072Y-4.7254
X9.1072Y-4.8254
X9.1072Y-4.9254
X9.1072Y-5.0254
X9.1072Y-5.1254
X9.1072Y-5.2254
X9.1072Y-5.3254
T3
X8.7772Y-4.2254
X8.7772Y-4.2254
X8.7772Y-4.3254
X8.7772Y-4.4254
X8.7772Y-4.5254
X8.7772Y-4.6254
X8.7772Y-4.7254
X8.7772Y-4.8254
X8.7772Y-4.9254
X8.7772Y-5.0254
X8.7772Y-5.1254
X8.7772Y-5.2254
X8.7772Y-5.3254
X9.3772Y-4.2254
X9.3772Y-4.2254
X9.3772Y-4.3254
X9.3772Y-4.4254
X9.3772Y-4.5254
X9.3772Y-4.6254
X9.3772Y-4.7254
X9.3772Y-4.8254
X9.3772Y-4.9254
X9.3772Y-5.0254
X9.3772Y-5.1254
X9.3772Y-5.2254
X9.3772Y-5.3254
T4
X5.2583Y-4.4211
X5.2583Y-5.0904
X5.2583Y-5.7597
X5.4552Y-4.5038
X5.4552Y-4.5038
X5.4552Y-5.1731
X5.4552Y-5.1731
X5.4552Y-5.8424
X5.4552Y-5.8424
X5.652Y-4.4211
X5.652Y-5.0904
X5.652Y-5.7597
X5.967Y-3.8187
X5.967Y-4.488
X5.967Y-5.1573
X6.1638Y-3.9014
X6.1638Y-3.9014
X6.1638Y-4.5707
X6.1638Y-4.5707
X6.1638Y-5.24
X6.1638Y-5.24
X6.3607Y-3.8187
X6.3607Y-4.488
X6.3607Y-5.1573
X6.6757Y-3.618
X6.6757Y-4.2872
X6.6757Y-4.9565
X6.8725Y-3.7006
X6.8725Y-3.7006
X6.8725Y-4.3699
X6.8725Y-4.3699
X6.8725Y-5.0392
X6.8725Y-5.0392
X7.0694Y-3.618
X7.0694Y-4.2872
X7.0694Y-4.9565
X7.3843Y-3.8187
X7.3843Y-4.488
X7.3843Y-5.1573
X7.5812Y-3.9014
X7.5812Y-3.9014
X7.5812Y-4.5707
X7.5812Y-4.5707
X7.5812Y-5.24
X7.5812Y-5.24
X7.778Y-3.8187
X7.778Y-4.488
X7.778Y-5.1573
X8.093Y-4.0195
X8.093Y-4.6888
X8.093Y-5.3581
X8.2898Y-4.1022
X8.2898Y-4.1022
X8.2898Y-4.7715
X8.2898Y-4.7715
X8.2898Y-5.4408
X8.2898Y-5.4408
X8.3989Y-6.3105
X8.4867Y-4.0195
X8.4867Y-4.6888
X8.4867Y-5.3581
X8.528Y-6.4805
X8.528Y-6.4805
X8.7398Y-6.5074
X9.0126Y-6.6648
X9.1417Y-6.8349
X9.1417Y-6.8349
X9.3535Y-6.8617
T2
G00X9.0379Y-5.618
M15
G01X9.0142Y-5.618
M16
G05
G00X9.0379Y-5.7991
M15
G01X9.0142Y-5.7991
M16
G05
G00X9.0812Y-5.618
M15
G01X9.0575Y-5.618
M16
G05
G00X9.0812Y-5.7991
M15
G01X9.0575Y-5.7991
M16
G05
G00X9.2386Y-5.618
M15
G01X9.215Y-5.618
M16
G05
G00X9.2386Y-5.7991
M15
G01X9.215Y-5.7991
M16
G05
G00X9.3568Y-5.618
M15
G01X9.3331Y-5.618
M16
G05
G00X9.3568Y-5.7991
M15
G01X9.3331Y-5.7991
M16
G05
T0
M30
