M48
; DRILL file {KiCad (6.0.6-1)-1} date Monday, July 25, 2022 at 09:02:25 PM
; FORMAT={-:-/ absolute / inch / decimal}
; #@! TF.CreationDate,2022-07-25T21:02:25-05:00
; #@! TF.GenerationSoftware,Kicad,Pcbnew,(6.0.6-1)-1
; #@! TF.FileFunction,NonPlated,1,2,NPTH
FMAT,2
INCH
; #@! TA.AperFunction,NonPlated,NPTH,ComponentDrill
T1C0.0591
; #@! TA.AperFunction,NonPlated,NPTH,ComponentDrill
T2C0.0670
; #@! TA.AperFunction,NonPlated,NPTH,ComponentDrill
T3C0.1181
; #@! TA.AperFunction,NonPlated,NPTH,ComponentDrill
T4C0.1350
%
G90
G05
T1
X9.1323Y-5.7085
X9.4079Y-5.7085
T2
X5.2386Y-4.2715
X5.2386Y-4.2715
X5.2386Y-4.9408
X5.2386Y-4.9408
X5.2386Y-5.6101
X5.2386Y-5.6101
X5.6717Y-4.2715
X5.6717Y-4.2715
X5.6717Y-4.9408
X5.6717Y-4.9408
X5.6717Y-5.6101
X5.6717Y-5.6101
X5.9473Y-3.6691
X5.9473Y-3.6691
X5.9473Y-4.3384
X5.9473Y-4.3384
X5.9473Y-5.0077
X5.9473Y-5.0077
X6.3804Y-3.6691
X6.3804Y-3.6691
X6.3804Y-4.3384
X6.3804Y-4.3384
X6.3804Y-5.0077
X6.3804Y-5.0077
X6.656Y-3.4683
X6.656Y-3.4683
X6.656Y-4.1376
X6.656Y-4.1376
X6.656Y-4.8069
X6.656Y-4.8069
X7.089Y-3.4683
X7.089Y-3.4683
X7.089Y-4.1376
X7.089Y-4.1376
X7.089Y-4.8069
X7.089Y-4.8069
X7.3646Y-3.6691
X7.3646Y-3.6691
X7.3646Y-4.3384
X7.3646Y-4.3384
X7.3646Y-5.0077
X7.3646Y-5.0077
X7.7977Y-3.6691
X7.7977Y-3.6691
X7.7977Y-4.3384
X7.7977Y-4.3384
X7.7977Y-5.0077
X7.7977Y-5.0077
X8.0733Y-3.8699
X8.0733Y-3.8699
X8.0733Y-4.5392
X8.0733Y-4.5392
X8.0733Y-5.2085
X8.0733Y-5.2085
X8.4566Y-6.1711
X8.4566Y-6.1711
X8.5064Y-3.8699
X8.5064Y-3.8699
X8.5064Y-4.5392
X8.5064Y-4.5392
X8.5064Y-5.2085
X8.5064Y-5.2085
X8.8317Y-6.3876
X8.8317Y-6.3876
X9.0703Y-6.5254
X9.0703Y-6.5254
X9.4454Y-6.742
X9.4454Y-6.742
T3
X5.2583Y-4.1239
X5.2583Y-4.7931
X5.2583Y-5.4624
X5.4552Y-4.0372
X5.4552Y-4.0372
X5.4552Y-4.7065
X5.4552Y-4.7065
X5.4552Y-5.3758
X5.4552Y-5.3758
X5.652Y-4.1239
X5.652Y-4.7931
X5.652Y-5.4624
X5.967Y-3.5215
X5.967Y-4.1908
X5.967Y-4.8601
X6.1638Y-3.4349
X6.1638Y-3.4349
X6.1638Y-4.1042
X6.1638Y-4.1042
X6.1638Y-4.7735
X6.1638Y-4.7735
X6.3607Y-3.5215
X6.3607Y-4.1908
X6.3607Y-4.8601
X6.6757Y-3.3207
X6.6757Y-3.99
X6.6757Y-4.6593
X6.8725Y-3.2341
X6.8725Y-3.2341
X6.8725Y-3.9034
X6.8725Y-3.9034
X6.8725Y-4.5727
X6.8725Y-4.5727
X7.0694Y-3.3207
X7.0694Y-3.99
X7.0694Y-4.6593
X7.3843Y-3.5215
X7.3843Y-4.1908
X7.3843Y-4.8601
X7.5812Y-3.4349
X7.5812Y-3.4349
X7.5812Y-4.1042
X7.5812Y-4.1042
X7.5812Y-4.7735
X7.5812Y-4.7735
X7.778Y-3.5215
X7.778Y-4.1908
X7.778Y-4.8601
X8.093Y-3.7223
X8.093Y-4.3916
X8.093Y-5.0609
X8.2898Y-3.6357
X8.2898Y-3.6357
X8.2898Y-4.305
X8.2898Y-4.305
X8.2898Y-4.9743
X8.2898Y-4.9743
X8.4867Y-3.7223
X8.4867Y-4.3916
X8.4867Y-5.0609
X8.5475Y-6.0531
X8.7613Y-6.0765
X8.7613Y-6.0765
X8.8885Y-6.2499
X9.1612Y-6.4074
X9.375Y-6.4308
X9.375Y-6.4308
X9.5022Y-6.6043
T4
X5.4552Y-4.2715
X5.4552Y-4.2715
X5.4552Y-4.9408
X5.4552Y-4.9408
X5.4552Y-5.6101
X5.4552Y-5.6101
X6.1638Y-3.6691
X6.1638Y-3.6691
X6.1638Y-4.3384
X6.1638Y-4.3384
X6.1638Y-5.0077
X6.1638Y-5.0077
X6.8725Y-3.4683
X6.8725Y-3.4683
X6.8725Y-4.1376
X6.8725Y-4.1376
X6.8725Y-4.8069
X6.8725Y-4.8069
X7.5812Y-3.6691
X7.5812Y-3.6691
X7.5812Y-4.3384
X7.5812Y-4.3384
X7.5812Y-5.0077
X7.5812Y-5.0077
X8.2898Y-3.8699
X8.2898Y-3.8699
X8.2898Y-4.5392
X8.2898Y-4.5392
X8.2898Y-5.2085
X8.2898Y-5.2085
X8.6442Y-6.2794
X8.6442Y-6.2794
X9.2579Y-6.6337
X9.2579Y-6.6337
T0
M30
