%TF.GenerationSoftware,KiCad,Pcbnew,(6.0.6-1)-1*%
%TF.CreationDate,2022-07-25T21:02:30-05:00*%
%TF.ProjectId,smcboard,736d6362-6f61-4726-942e-6b696361645f,v1.0.0*%
%TF.SameCoordinates,Original*%
%TF.FileFunction,Legend,Bot*%
%TF.FilePolarity,Positive*%
%FSLAX46Y46*%
G04 Gerber Fmt 4.6, Leading zero omitted, Abs format (unit mm)*
G04 Created by KiCad (PCBNEW (6.0.6-1)-1) date 2022-07-25 21:02:30*
%MOMM*%
%LPD*%
G01*
G04 APERTURE LIST*
%ADD10C,0.200000*%
%ADD11C,0.100000*%
%ADD12C,0.150000*%
G04 APERTURE END LIST*
D10*
X174910571Y-144057714D02*
X174672476Y-144724380D01*
X174434380Y-144057714D01*
X173862952Y-143724380D02*
X173767714Y-143724380D01*
X173672476Y-143772000D01*
X173624857Y-143819619D01*
X173577238Y-143914857D01*
X173529619Y-144105333D01*
X173529619Y-144343428D01*
X173577238Y-144533904D01*
X173624857Y-144629142D01*
X173672476Y-144676761D01*
X173767714Y-144724380D01*
X173862952Y-144724380D01*
X173958190Y-144676761D01*
X174005809Y-144629142D01*
X174053428Y-144533904D01*
X174101047Y-144343428D01*
X174101047Y-144105333D01*
X174053428Y-143914857D01*
X174005809Y-143819619D01*
X173958190Y-143772000D01*
X173862952Y-143724380D01*
X173101047Y-144629142D02*
X173053428Y-144676761D01*
X173101047Y-144724380D01*
X173148666Y-144676761D01*
X173101047Y-144629142D01*
X173101047Y-144724380D01*
X172101047Y-144724380D02*
X172672476Y-144724380D01*
X172386761Y-144724380D02*
X172386761Y-143724380D01*
X172482000Y-143867238D01*
X172577238Y-143962476D01*
X172672476Y-144010095D01*
X175095904Y-142541523D02*
X174738761Y-142636761D01*
X174143523Y-142636761D01*
X173905428Y-142541523D01*
X173786380Y-142446285D01*
X173667333Y-142255809D01*
X173667333Y-142065333D01*
X173786380Y-141874857D01*
X173905428Y-141779619D01*
X174143523Y-141684380D01*
X174619714Y-141589142D01*
X174857809Y-141493904D01*
X174976857Y-141398666D01*
X175095904Y-141208190D01*
X175095904Y-141017714D01*
X174976857Y-140827238D01*
X174857809Y-140732000D01*
X174619714Y-140636761D01*
X174024476Y-140636761D01*
X173667333Y-140732000D01*
X172595904Y-142636761D02*
X172595904Y-140636761D01*
X171762571Y-142065333D01*
X170929238Y-140636761D01*
X170929238Y-142636761D01*
X168310190Y-142446285D02*
X168429238Y-142541523D01*
X168786380Y-142636761D01*
X169024476Y-142636761D01*
X169381619Y-142541523D01*
X169619714Y-142351047D01*
X169738761Y-142160571D01*
X169857809Y-141779619D01*
X169857809Y-141493904D01*
X169738761Y-141112952D01*
X169619714Y-140922476D01*
X169381619Y-140732000D01*
X169024476Y-140636761D01*
X168786380Y-140636761D01*
X168429238Y-140732000D01*
X168310190Y-140827238D01*
X167238761Y-142636761D02*
X167238761Y-140636761D01*
X167238761Y-141589142D02*
X165810190Y-141589142D01*
X165810190Y-142636761D02*
X165810190Y-140636761D01*
X164619714Y-140636761D02*
X164619714Y-142255809D01*
X164500666Y-142446285D01*
X164381619Y-142541523D01*
X164143523Y-142636761D01*
X163667333Y-142636761D01*
X163429238Y-142541523D01*
X163310190Y-142446285D01*
X163191142Y-142255809D01*
X163191142Y-140636761D01*
X162000666Y-142636761D02*
X162000666Y-140636761D01*
X160572095Y-142636761D01*
X160572095Y-140636761D01*
X159381619Y-142636761D02*
X159381619Y-140636761D01*
X157953047Y-142636761D01*
X157953047Y-140636761D01*
X155453047Y-142636761D02*
X156881619Y-142636761D01*
X156167333Y-142636761D02*
X156167333Y-140636761D01*
X156405428Y-140922476D01*
X156643523Y-141112952D01*
X156881619Y-141208190D01*
X153072095Y-142636761D02*
X154500666Y-142636761D01*
X153786380Y-142636761D02*
X153786380Y-140636761D01*
X154024476Y-140922476D01*
X154262571Y-141112952D01*
X154500666Y-141208190D01*
D11*
%TO.C,D1*%
X138811539Y-146496000D02*
X139311539Y-146496000D01*
X138811539Y-146896000D02*
X138211539Y-146496000D01*
X138811539Y-146096000D02*
X138811539Y-146896000D01*
X138211539Y-146496000D02*
X138811539Y-146096000D01*
X138211539Y-146496000D02*
X138211539Y-147046000D01*
X138211539Y-146496000D02*
X138211539Y-145946000D01*
X137811539Y-146496000D02*
X138211539Y-146496000D01*
%TO.C,D2*%
X138811539Y-129496000D02*
X139311539Y-129496000D01*
X138811539Y-129896000D02*
X138211539Y-129496000D01*
X138811539Y-129096000D02*
X138811539Y-129896000D01*
X138211539Y-129496000D02*
X138811539Y-129096000D01*
X138211539Y-129496000D02*
X138211539Y-130046000D01*
X138211539Y-129496000D02*
X138211539Y-128946000D01*
X137811539Y-129496000D02*
X138211539Y-129496000D01*
%TO.C,D3*%
X138811539Y-112496000D02*
X139311539Y-112496000D01*
X138811539Y-112896000D02*
X138211539Y-112496000D01*
X138811539Y-112096000D02*
X138811539Y-112896000D01*
X138211539Y-112496000D02*
X138811539Y-112096000D01*
X138211539Y-112496000D02*
X138211539Y-113046000D01*
X138211539Y-112496000D02*
X138211539Y-111946000D01*
X137811539Y-112496000D02*
X138211539Y-112496000D01*
%TO.C,D4*%
X156811539Y-131196000D02*
X157311539Y-131196000D01*
X156811539Y-131596000D02*
X156211539Y-131196000D01*
X156811539Y-130796000D02*
X156811539Y-131596000D01*
X156211539Y-131196000D02*
X156811539Y-130796000D01*
X156211539Y-131196000D02*
X156211539Y-131746000D01*
X156211539Y-131196000D02*
X156211539Y-130646000D01*
X155811539Y-131196000D02*
X156211539Y-131196000D01*
%TO.C,D5*%
X156811539Y-114196000D02*
X157311539Y-114196000D01*
X156811539Y-114596000D02*
X156211539Y-114196000D01*
X156811539Y-113796000D02*
X156811539Y-114596000D01*
X156211539Y-114196000D02*
X156811539Y-113796000D01*
X156211539Y-114196000D02*
X156211539Y-114746000D01*
X156211539Y-114196000D02*
X156211539Y-113646000D01*
X155811539Y-114196000D02*
X156211539Y-114196000D01*
%TO.C,D6*%
X156811539Y-97196000D02*
X157311539Y-97196000D01*
X156811539Y-97596000D02*
X156211539Y-97196000D01*
X156811539Y-96796000D02*
X156811539Y-97596000D01*
X156211539Y-97196000D02*
X156811539Y-96796000D01*
X156211539Y-97196000D02*
X156211539Y-97746000D01*
X156211539Y-97196000D02*
X156211539Y-96646000D01*
X155811539Y-97196000D02*
X156211539Y-97196000D01*
%TO.C,D7*%
X174811539Y-126096000D02*
X175311539Y-126096000D01*
X174811539Y-126496000D02*
X174211539Y-126096000D01*
X174811539Y-125696000D02*
X174811539Y-126496000D01*
X174211539Y-126096000D02*
X174811539Y-125696000D01*
X174211539Y-126096000D02*
X174211539Y-126646000D01*
X174211539Y-126096000D02*
X174211539Y-125546000D01*
X173811539Y-126096000D02*
X174211539Y-126096000D01*
%TO.C,D8*%
X174811539Y-109096000D02*
X175311539Y-109096000D01*
X174811539Y-109496000D02*
X174211539Y-109096000D01*
X174811539Y-108696000D02*
X174811539Y-109496000D01*
X174211539Y-109096000D02*
X174811539Y-108696000D01*
X174211539Y-109096000D02*
X174211539Y-109646000D01*
X174211539Y-109096000D02*
X174211539Y-108546000D01*
X173811539Y-109096000D02*
X174211539Y-109096000D01*
%TO.C,D9*%
X174811539Y-92096000D02*
X175311539Y-92096000D01*
X174811539Y-92496000D02*
X174211539Y-92096000D01*
X174811539Y-91696000D02*
X174811539Y-92496000D01*
X174211539Y-92096000D02*
X174811539Y-91696000D01*
X174211539Y-92096000D02*
X174211539Y-92646000D01*
X174211539Y-92096000D02*
X174211539Y-91546000D01*
X173811539Y-92096000D02*
X174211539Y-92096000D01*
%TO.C,D10*%
X192811539Y-131196000D02*
X193311539Y-131196000D01*
X192811539Y-131596000D02*
X192211539Y-131196000D01*
X192811539Y-130796000D02*
X192811539Y-131596000D01*
X192211539Y-131196000D02*
X192811539Y-130796000D01*
X192211539Y-131196000D02*
X192211539Y-131746000D01*
X192211539Y-131196000D02*
X192211539Y-130646000D01*
X191811539Y-131196000D02*
X192211539Y-131196000D01*
%TO.C,D11*%
X192811539Y-114196000D02*
X193311539Y-114196000D01*
X192811539Y-114596000D02*
X192211539Y-114196000D01*
X192811539Y-113796000D02*
X192811539Y-114596000D01*
X192211539Y-114196000D02*
X192811539Y-113796000D01*
X192211539Y-114196000D02*
X192211539Y-114746000D01*
X192211539Y-114196000D02*
X192211539Y-113646000D01*
X191811539Y-114196000D02*
X192211539Y-114196000D01*
%TO.C,D12*%
X192811539Y-97196000D02*
X193311539Y-97196000D01*
X192811539Y-97596000D02*
X192211539Y-97196000D01*
X192811539Y-96796000D02*
X192811539Y-97596000D01*
X192211539Y-97196000D02*
X192811539Y-96796000D01*
X192211539Y-97196000D02*
X192211539Y-97746000D01*
X192211539Y-97196000D02*
X192211539Y-96646000D01*
X191811539Y-97196000D02*
X192211539Y-97196000D01*
%TO.C,D13*%
X210811539Y-136296000D02*
X211311539Y-136296000D01*
X210811539Y-136696000D02*
X210211539Y-136296000D01*
X210811539Y-135896000D02*
X210811539Y-136696000D01*
X210211539Y-136296000D02*
X210811539Y-135896000D01*
X210211539Y-136296000D02*
X210211539Y-136846000D01*
X210211539Y-136296000D02*
X210211539Y-135746000D01*
X209811539Y-136296000D02*
X210211539Y-136296000D01*
%TO.C,D14*%
X210811539Y-119296000D02*
X211311539Y-119296000D01*
X210811539Y-119696000D02*
X210211539Y-119296000D01*
X210811539Y-118896000D02*
X210811539Y-119696000D01*
X210211539Y-119296000D02*
X210811539Y-118896000D01*
X210211539Y-119296000D02*
X210211539Y-119846000D01*
X210211539Y-119296000D02*
X210211539Y-118746000D01*
X209811539Y-119296000D02*
X210211539Y-119296000D01*
%TO.C,D15*%
X210811539Y-102296000D02*
X211311539Y-102296000D01*
X210811539Y-102696000D02*
X210211539Y-102296000D01*
X210811539Y-101896000D02*
X210811539Y-102696000D01*
X210211539Y-102296000D02*
X210811539Y-101896000D01*
X210211539Y-102296000D02*
X210211539Y-102846000D01*
X210211539Y-102296000D02*
X210211539Y-101746000D01*
X209811539Y-102296000D02*
X210211539Y-102296000D01*
%TO.C,D16*%
X217778045Y-163085102D02*
X218211058Y-163335102D01*
X217578045Y-163431512D02*
X217258430Y-162785102D01*
X217978045Y-162738692D02*
X217578045Y-163431512D01*
X217258430Y-162785102D02*
X217978045Y-162738692D01*
X217258430Y-162785102D02*
X216983430Y-163261416D01*
X217258430Y-162785102D02*
X217533430Y-162308788D01*
X216912020Y-162585102D02*
X217258430Y-162785102D01*
%TO.C,D17*%
X233366502Y-172085102D02*
X233799515Y-172335102D01*
X233166502Y-172431512D02*
X232846887Y-171785102D01*
X233566502Y-171738692D02*
X233166502Y-172431512D01*
X232846887Y-171785102D02*
X233566502Y-171738692D01*
X232846887Y-171785102D02*
X232571887Y-172261416D01*
X232846887Y-171785102D02*
X233121887Y-171308788D01*
X232500477Y-171585102D02*
X232846887Y-171785102D01*
D12*
%TO.C,MCU1*%
X236911539Y-106056000D02*
X236911539Y-108596000D01*
X236911539Y-106056000D02*
X239451539Y-106056000D01*
X236911539Y-108596000D02*
X239451539Y-108596000D01*
X239451539Y-108596000D02*
X239451539Y-106056000D01*
%TD*%
M02*
