%TF.GenerationSoftware,KiCad,Pcbnew,(6.0.6-1)-1*%
%TF.CreationDate,2022-07-25T21:02:30-05:00*%
%TF.ProjectId,smcboard,736d6362-6f61-4726-942e-6b696361645f,v1.0.0*%
%TF.SameCoordinates,Original*%
%TF.FileFunction,Soldermask,Bot*%
%TF.FilePolarity,Negative*%
%FSLAX46Y46*%
G04 Gerber Fmt 4.6, Leading zero omitted, Abs format (unit mm)*
G04 Created by KiCad (PCBNEW (6.0.6-1)-1) date 2022-07-25 21:02:30*
%MOMM*%
%LPD*%
G01*
G04 APERTURE LIST*
G04 Aperture macros list*
%AMRoundRect*
0 Rectangle with rounded corners*
0 $1 Rounding radius*
0 $2 $3 $4 $5 $6 $7 $8 $9 X,Y pos of 4 corners*
0 Add a 4 corners polygon primitive as box body*
4,1,4,$2,$3,$4,$5,$6,$7,$8,$9,$2,$3,0*
0 Add four circle primitives for the rounded corners*
1,1,$1+$1,$2,$3*
1,1,$1+$1,$4,$5*
1,1,$1+$1,$6,$7*
1,1,$1+$1,$8,$9*
0 Add four rect primitives between the rounded corners*
20,1,$1+$1,$2,$3,$4,$5,0*
20,1,$1+$1,$4,$5,$6,$7,0*
20,1,$1+$1,$6,$7,$8,$9,0*
20,1,$1+$1,$8,$9,$2,$3,0*%
%AMFreePoly0*
4,1,39,0.819064,0.871723,0.819418,0.871577,0.846577,0.844418,0.846723,0.844064,0.850500,0.825000,0.850500,0.339437,0.860355,0.335355,0.875000,0.300000,0.875000,-0.300000,0.860355,-0.335355,0.850500,-0.339437,0.850500,-0.825000,0.846723,-0.844064,0.846577,-0.844418,0.819418,-0.871577,0.819064,-0.871723,0.800000,-0.875500,-0.290000,-0.875500,-0.309064,-0.871723,-0.309418,-0.871577,
-0.336577,-0.844418,-0.336723,-0.844064,-0.340500,-0.825000,-0.340500,-0.350000,-0.825000,-0.350000,-0.860355,-0.335355,-0.875000,-0.300000,-0.875000,0.300000,-0.860355,0.335355,-0.825000,0.350000,-0.340500,0.350000,-0.340500,0.825000,-0.336723,0.844064,-0.336577,0.844418,-0.309418,0.871577,-0.309064,0.871723,-0.290000,0.875500,0.800000,0.875500,0.819064,0.871723,0.819064,0.871723,
$1*%
%AMFreePoly1*
4,1,39,0.319064,0.871723,0.319418,0.871577,0.346577,0.844418,0.346723,0.844064,0.350500,0.825000,0.350500,0.350000,0.825000,0.350000,0.860355,0.335355,0.875000,0.300000,0.875000,-0.300000,0.860355,-0.335355,0.825000,-0.350000,0.350500,-0.350000,0.350500,-0.825000,0.346723,-0.844064,0.346577,-0.844418,0.319418,-0.871577,0.319064,-0.871723,0.300000,-0.875500,-0.800000,-0.875500,
-0.819064,-0.871723,-0.819418,-0.871577,-0.846577,-0.844418,-0.846723,-0.844064,-0.850500,-0.825000,-0.850500,-0.339437,-0.860355,-0.335355,-0.875000,-0.300000,-0.875000,0.300000,-0.860355,0.335355,-0.850500,0.339437,-0.850500,0.825000,-0.846723,0.844064,-0.846577,0.844418,-0.819418,0.871577,-0.819064,0.871723,-0.800000,0.875500,0.300000,0.875500,0.319064,0.871723,0.319064,0.871723,
$1*%
%AMFreePoly2*
4,1,16,0.635355,1.035355,0.650000,1.000000,0.650000,-0.250000,0.635355,-0.285355,0.600000,-0.300000,-0.600000,-0.300000,-0.635355,-0.285355,-0.650000,-0.250000,-0.650000,1.000000,-0.635355,1.035355,-0.600000,1.050000,-0.564645,1.035355,0.000000,0.470710,0.564645,1.035355,0.600000,1.050000,0.635355,1.035355,0.635355,1.035355,$1*%
%AMFreePoly3*
4,1,14,0.635355,0.435355,0.650000,0.400000,0.650000,0.200000,0.635355,0.164645,0.035355,-0.435355,0.000000,-0.450000,-0.035355,-0.435355,-0.635355,0.164645,-0.650000,0.200000,-0.650000,0.400000,-0.635355,0.435355,-0.600000,0.450000,0.600000,0.450000,0.635355,0.435355,0.635355,0.435355,$1*%
G04 Aperture macros list end*
%ADD10C,0.250000*%
%ADD11C,0.100000*%
%ADD12C,3.529000*%
%ADD13C,1.801800*%
%ADD14C,3.100000*%
%ADD15RoundRect,0.050000X-1.300000X-1.300000X1.300000X-1.300000X1.300000X1.300000X-1.300000X1.300000X0*%
%ADD16C,2.132000*%
%ADD17FreePoly0,0.000000*%
%ADD18FreePoly1,0.000000*%
%ADD19RoundRect,0.050000X-1.775833X-0.475833X0.475833X-1.775833X1.775833X0.475833X-0.475833X1.775833X0*%
%ADD20FreePoly0,330.000000*%
%ADD21FreePoly1,330.000000*%
%ADD22C,1.700000*%
%ADD23RoundRect,0.050000X-0.800000X0.800000X-0.800000X-0.800000X0.800000X-0.800000X0.800000X0.800000X0*%
%ADD24FreePoly2,90.000000*%
%ADD25FreePoly3,90.000000*%
%ADD26FreePoly3,270.000000*%
%ADD27FreePoly2,270.000000*%
%ADD28C,1.600000*%
%ADD29O,2.300000X1.700000*%
G04 APERTURE END LIST*
D10*
%TO.C,MCU1*%
X229924539Y-135266000D02*
G75*
G03*
X229924539Y-135266000I-125000J0D01*
G01*
X231448539Y-135266000D02*
G75*
G03*
X231448539Y-135266000I-125000J0D01*
G01*
X229924539Y-132726000D02*
G75*
G03*
X229924539Y-132726000I-125000J0D01*
G01*
X231448539Y-132726000D02*
G75*
G03*
X231448539Y-132726000I-125000J0D01*
G01*
X229924539Y-130186000D02*
G75*
G03*
X229924539Y-130186000I-125000J0D01*
G01*
X231448539Y-130186000D02*
G75*
G03*
X231448539Y-130186000I-125000J0D01*
G01*
X229924539Y-127646000D02*
G75*
G03*
X229924539Y-127646000I-125000J0D01*
G01*
X231448539Y-127646000D02*
G75*
G03*
X231448539Y-127646000I-125000J0D01*
G01*
X229924539Y-125106000D02*
G75*
G03*
X229924539Y-125106000I-125000J0D01*
G01*
X231448539Y-125106000D02*
G75*
G03*
X231448539Y-125106000I-125000J0D01*
G01*
X229924539Y-122566000D02*
G75*
G03*
X229924539Y-122566000I-125000J0D01*
G01*
X231448539Y-122566000D02*
G75*
G03*
X231448539Y-122566000I-125000J0D01*
G01*
X229924539Y-120026000D02*
G75*
G03*
X229924539Y-120026000I-125000J0D01*
G01*
X231448539Y-120026000D02*
G75*
G03*
X231448539Y-120026000I-125000J0D01*
G01*
X229924539Y-117486000D02*
G75*
G03*
X229924539Y-117486000I-125000J0D01*
G01*
X231448539Y-117486000D02*
G75*
G03*
X231448539Y-117486000I-125000J0D01*
G01*
X229924539Y-114946000D02*
G75*
G03*
X229924539Y-114946000I-125000J0D01*
G01*
X231448539Y-114946000D02*
G75*
G03*
X231448539Y-114946000I-125000J0D01*
G01*
X229924539Y-112406000D02*
G75*
G03*
X229924539Y-112406000I-125000J0D01*
G01*
X231448539Y-112406000D02*
G75*
G03*
X231448539Y-112406000I-125000J0D01*
G01*
X231448539Y-109866000D02*
G75*
G03*
X231448539Y-109866000I-125000J0D01*
G01*
X229924539Y-109866000D02*
G75*
G03*
X229924539Y-109866000I-125000J0D01*
G01*
X229924539Y-107326000D02*
G75*
G03*
X229924539Y-107326000I-125000J0D01*
G01*
X231448539Y-107326000D02*
G75*
G03*
X231448539Y-107326000I-125000J0D01*
G01*
G36*
X236657539Y-135774000D02*
G01*
X235641539Y-135774000D01*
X235641539Y-134758000D01*
X236657539Y-134758000D01*
X236657539Y-135774000D01*
G37*
D11*
X236657539Y-135774000D02*
X235641539Y-135774000D01*
X235641539Y-134758000D01*
X236657539Y-134758000D01*
X236657539Y-135774000D01*
G36*
X236657539Y-133234000D02*
G01*
X235641539Y-133234000D01*
X235641539Y-132218000D01*
X236657539Y-132218000D01*
X236657539Y-133234000D01*
G37*
X236657539Y-133234000D02*
X235641539Y-133234000D01*
X235641539Y-132218000D01*
X236657539Y-132218000D01*
X236657539Y-133234000D01*
G36*
X236657539Y-130694000D02*
G01*
X235641539Y-130694000D01*
X235641539Y-129678000D01*
X236657539Y-129678000D01*
X236657539Y-130694000D01*
G37*
X236657539Y-130694000D02*
X235641539Y-130694000D01*
X235641539Y-129678000D01*
X236657539Y-129678000D01*
X236657539Y-130694000D01*
G36*
X236657539Y-128154000D02*
G01*
X235641539Y-128154000D01*
X235641539Y-127138000D01*
X236657539Y-127138000D01*
X236657539Y-128154000D01*
G37*
X236657539Y-128154000D02*
X235641539Y-128154000D01*
X235641539Y-127138000D01*
X236657539Y-127138000D01*
X236657539Y-128154000D01*
G36*
X236657539Y-125614000D02*
G01*
X235641539Y-125614000D01*
X235641539Y-124598000D01*
X236657539Y-124598000D01*
X236657539Y-125614000D01*
G37*
X236657539Y-125614000D02*
X235641539Y-125614000D01*
X235641539Y-124598000D01*
X236657539Y-124598000D01*
X236657539Y-125614000D01*
G36*
X236657539Y-123074000D02*
G01*
X235641539Y-123074000D01*
X235641539Y-122058000D01*
X236657539Y-122058000D01*
X236657539Y-123074000D01*
G37*
X236657539Y-123074000D02*
X235641539Y-123074000D01*
X235641539Y-122058000D01*
X236657539Y-122058000D01*
X236657539Y-123074000D01*
G36*
X236657539Y-120534000D02*
G01*
X235641539Y-120534000D01*
X235641539Y-119518000D01*
X236657539Y-119518000D01*
X236657539Y-120534000D01*
G37*
X236657539Y-120534000D02*
X235641539Y-120534000D01*
X235641539Y-119518000D01*
X236657539Y-119518000D01*
X236657539Y-120534000D01*
G36*
X236657539Y-117994000D02*
G01*
X235641539Y-117994000D01*
X235641539Y-116978000D01*
X236657539Y-116978000D01*
X236657539Y-117994000D01*
G37*
X236657539Y-117994000D02*
X235641539Y-117994000D01*
X235641539Y-116978000D01*
X236657539Y-116978000D01*
X236657539Y-117994000D01*
G36*
X236657539Y-115454000D02*
G01*
X235641539Y-115454000D01*
X235641539Y-114438000D01*
X236657539Y-114438000D01*
X236657539Y-115454000D01*
G37*
X236657539Y-115454000D02*
X235641539Y-115454000D01*
X235641539Y-114438000D01*
X236657539Y-114438000D01*
X236657539Y-115454000D01*
G36*
X236657539Y-112914000D02*
G01*
X235641539Y-112914000D01*
X235641539Y-111898000D01*
X236657539Y-111898000D01*
X236657539Y-112914000D01*
G37*
X236657539Y-112914000D02*
X235641539Y-112914000D01*
X235641539Y-111898000D01*
X236657539Y-111898000D01*
X236657539Y-112914000D01*
G36*
X236657539Y-110374000D02*
G01*
X235641539Y-110374000D01*
X235641539Y-109358000D01*
X236657539Y-109358000D01*
X236657539Y-110374000D01*
G37*
X236657539Y-110374000D02*
X235641539Y-110374000D01*
X235641539Y-109358000D01*
X236657539Y-109358000D01*
X236657539Y-110374000D01*
G36*
X236657539Y-107834000D02*
G01*
X235641539Y-107834000D01*
X235641539Y-106818000D01*
X236657539Y-106818000D01*
X236657539Y-107834000D01*
G37*
X236657539Y-107834000D02*
X235641539Y-107834000D01*
X235641539Y-106818000D01*
X236657539Y-106818000D01*
X236657539Y-107834000D01*
G36*
X225481539Y-135774000D02*
G01*
X224465539Y-135774000D01*
X224465539Y-134758000D01*
X225481539Y-134758000D01*
X225481539Y-135774000D01*
G37*
X225481539Y-135774000D02*
X224465539Y-135774000D01*
X224465539Y-134758000D01*
X225481539Y-134758000D01*
X225481539Y-135774000D01*
G36*
X225481539Y-133234000D02*
G01*
X224465539Y-133234000D01*
X224465539Y-132218000D01*
X225481539Y-132218000D01*
X225481539Y-133234000D01*
G37*
X225481539Y-133234000D02*
X224465539Y-133234000D01*
X224465539Y-132218000D01*
X225481539Y-132218000D01*
X225481539Y-133234000D01*
G36*
X225481539Y-130694000D02*
G01*
X224465539Y-130694000D01*
X224465539Y-129678000D01*
X225481539Y-129678000D01*
X225481539Y-130694000D01*
G37*
X225481539Y-130694000D02*
X224465539Y-130694000D01*
X224465539Y-129678000D01*
X225481539Y-129678000D01*
X225481539Y-130694000D01*
G36*
X225481539Y-128154000D02*
G01*
X224465539Y-128154000D01*
X224465539Y-127138000D01*
X225481539Y-127138000D01*
X225481539Y-128154000D01*
G37*
X225481539Y-128154000D02*
X224465539Y-128154000D01*
X224465539Y-127138000D01*
X225481539Y-127138000D01*
X225481539Y-128154000D01*
G36*
X225481539Y-125614000D02*
G01*
X224465539Y-125614000D01*
X224465539Y-124598000D01*
X225481539Y-124598000D01*
X225481539Y-125614000D01*
G37*
X225481539Y-125614000D02*
X224465539Y-125614000D01*
X224465539Y-124598000D01*
X225481539Y-124598000D01*
X225481539Y-125614000D01*
G36*
X225481539Y-123074000D02*
G01*
X224465539Y-123074000D01*
X224465539Y-122058000D01*
X225481539Y-122058000D01*
X225481539Y-123074000D01*
G37*
X225481539Y-123074000D02*
X224465539Y-123074000D01*
X224465539Y-122058000D01*
X225481539Y-122058000D01*
X225481539Y-123074000D01*
G36*
X225481539Y-120534000D02*
G01*
X224465539Y-120534000D01*
X224465539Y-119518000D01*
X225481539Y-119518000D01*
X225481539Y-120534000D01*
G37*
X225481539Y-120534000D02*
X224465539Y-120534000D01*
X224465539Y-119518000D01*
X225481539Y-119518000D01*
X225481539Y-120534000D01*
G36*
X225481539Y-117994000D02*
G01*
X224465539Y-117994000D01*
X224465539Y-116978000D01*
X225481539Y-116978000D01*
X225481539Y-117994000D01*
G37*
X225481539Y-117994000D02*
X224465539Y-117994000D01*
X224465539Y-116978000D01*
X225481539Y-116978000D01*
X225481539Y-117994000D01*
G36*
X225481539Y-115454000D02*
G01*
X224465539Y-115454000D01*
X224465539Y-114438000D01*
X225481539Y-114438000D01*
X225481539Y-115454000D01*
G37*
X225481539Y-115454000D02*
X224465539Y-115454000D01*
X224465539Y-114438000D01*
X225481539Y-114438000D01*
X225481539Y-115454000D01*
G36*
X225481539Y-112914000D02*
G01*
X224465539Y-112914000D01*
X224465539Y-111898000D01*
X225481539Y-111898000D01*
X225481539Y-112914000D01*
G37*
X225481539Y-112914000D02*
X224465539Y-112914000D01*
X224465539Y-111898000D01*
X225481539Y-111898000D01*
X225481539Y-112914000D01*
G36*
X225481539Y-110374000D02*
G01*
X224465539Y-110374000D01*
X224465539Y-109358000D01*
X225481539Y-109358000D01*
X225481539Y-110374000D01*
G37*
X225481539Y-110374000D02*
X224465539Y-110374000D01*
X224465539Y-109358000D01*
X225481539Y-109358000D01*
X225481539Y-110374000D01*
G36*
X225481539Y-107834000D02*
G01*
X224465539Y-107834000D01*
X224465539Y-106818000D01*
X225481539Y-106818000D01*
X225481539Y-107834000D01*
G37*
X225481539Y-107834000D02*
X224465539Y-107834000D01*
X224465539Y-106818000D01*
X225481539Y-106818000D01*
X225481539Y-107834000D01*
%TD*%
D12*
%TO.C,S1*%
X138561539Y-142496000D03*
D13*
X144061539Y-142496000D03*
X133061539Y-142496000D03*
D14*
X143561539Y-138746000D03*
X138561539Y-136546000D03*
D15*
X135286539Y-136546000D03*
X146836539Y-138746000D03*
D14*
X133561539Y-138746000D03*
X138561539Y-136546000D03*
%TD*%
D12*
%TO.C,S2*%
X138561539Y-142496000D03*
D13*
X133061539Y-142496000D03*
X144061539Y-142496000D03*
D16*
X133561539Y-146296000D03*
X138561539Y-148396000D03*
X143561539Y-146296000D03*
X138561539Y-148396000D03*
%TD*%
D17*
%TO.C,D1*%
X136611539Y-146496000D03*
D18*
X140511539Y-146496000D03*
%TD*%
D12*
%TO.C,S3*%
X138561539Y-125496000D03*
D13*
X144061539Y-125496000D03*
X133061539Y-125496000D03*
D14*
X143561539Y-121746000D03*
X138561539Y-119546000D03*
D15*
X135286539Y-119546000D03*
X146836539Y-121746000D03*
D14*
X133561539Y-121746000D03*
X138561539Y-119546000D03*
%TD*%
D12*
%TO.C,S4*%
X138561539Y-125496000D03*
D13*
X133061539Y-125496000D03*
X144061539Y-125496000D03*
D16*
X133561539Y-129296000D03*
X138561539Y-131396000D03*
X143561539Y-129296000D03*
X138561539Y-131396000D03*
%TD*%
D17*
%TO.C,D2*%
X136611539Y-129496000D03*
D18*
X140511539Y-129496000D03*
%TD*%
D12*
%TO.C,S5*%
X138561539Y-108496000D03*
D13*
X144061539Y-108496000D03*
X133061539Y-108496000D03*
D14*
X143561539Y-104746000D03*
X138561539Y-102546000D03*
D15*
X135286539Y-102546000D03*
X146836539Y-104746000D03*
D14*
X133561539Y-104746000D03*
X138561539Y-102546000D03*
%TD*%
D12*
%TO.C,S6*%
X138561539Y-108496000D03*
D13*
X133061539Y-108496000D03*
X144061539Y-108496000D03*
D16*
X133561539Y-112296000D03*
X138561539Y-114396000D03*
X143561539Y-112296000D03*
X138561539Y-114396000D03*
%TD*%
D17*
%TO.C,D3*%
X136611539Y-112496000D03*
D18*
X140511539Y-112496000D03*
%TD*%
D12*
%TO.C,S7*%
X156561539Y-127196000D03*
D13*
X162061539Y-127196000D03*
X151061539Y-127196000D03*
D14*
X161561539Y-123446000D03*
X156561539Y-121246000D03*
D15*
X153286539Y-121246000D03*
X164836539Y-123446000D03*
D14*
X151561539Y-123446000D03*
X156561539Y-121246000D03*
%TD*%
D12*
%TO.C,S8*%
X156561539Y-127196000D03*
D13*
X151061539Y-127196000D03*
X162061539Y-127196000D03*
D16*
X151561539Y-130996000D03*
X156561539Y-133096000D03*
X161561539Y-130996000D03*
X156561539Y-133096000D03*
%TD*%
D17*
%TO.C,D4*%
X154611539Y-131196000D03*
D18*
X158511539Y-131196000D03*
%TD*%
D12*
%TO.C,S9*%
X156561539Y-110196000D03*
D13*
X162061539Y-110196000D03*
X151061539Y-110196000D03*
D14*
X161561539Y-106446000D03*
X156561539Y-104246000D03*
D15*
X153286539Y-104246000D03*
X164836539Y-106446000D03*
D14*
X151561539Y-106446000D03*
X156561539Y-104246000D03*
%TD*%
D12*
%TO.C,S10*%
X156561539Y-110196000D03*
D13*
X151061539Y-110196000D03*
X162061539Y-110196000D03*
D16*
X151561539Y-113996000D03*
X156561539Y-116096000D03*
X161561539Y-113996000D03*
X156561539Y-116096000D03*
%TD*%
D17*
%TO.C,D5*%
X154611539Y-114196000D03*
D18*
X158511539Y-114196000D03*
%TD*%
D12*
%TO.C,S11*%
X156561539Y-93196000D03*
D13*
X162061539Y-93196000D03*
X151061539Y-93196000D03*
D14*
X161561539Y-89446000D03*
X156561539Y-87246000D03*
D15*
X153286539Y-87246000D03*
X164836539Y-89446000D03*
D14*
X151561539Y-89446000D03*
X156561539Y-87246000D03*
%TD*%
D12*
%TO.C,S12*%
X156561539Y-93196000D03*
D13*
X151061539Y-93196000D03*
X162061539Y-93196000D03*
D16*
X151561539Y-96996000D03*
X156561539Y-99096000D03*
X161561539Y-96996000D03*
X156561539Y-99096000D03*
%TD*%
D17*
%TO.C,D6*%
X154611539Y-97196000D03*
D18*
X158511539Y-97196000D03*
%TD*%
D12*
%TO.C,S13*%
X174561539Y-122096000D03*
D13*
X180061539Y-122096000D03*
X169061539Y-122096000D03*
D14*
X179561539Y-118346000D03*
X174561539Y-116146000D03*
D15*
X171286539Y-116146000D03*
X182836539Y-118346000D03*
D14*
X169561539Y-118346000D03*
X174561539Y-116146000D03*
%TD*%
D12*
%TO.C,S14*%
X174561539Y-122096000D03*
D13*
X169061539Y-122096000D03*
X180061539Y-122096000D03*
D16*
X169561539Y-125896000D03*
X174561539Y-127996000D03*
X179561539Y-125896000D03*
X174561539Y-127996000D03*
%TD*%
D17*
%TO.C,D7*%
X172611539Y-126096000D03*
D18*
X176511539Y-126096000D03*
%TD*%
D12*
%TO.C,S15*%
X174561539Y-105096000D03*
D13*
X180061539Y-105096000D03*
X169061539Y-105096000D03*
D14*
X179561539Y-101346000D03*
X174561539Y-99146000D03*
D15*
X171286539Y-99146000D03*
X182836539Y-101346000D03*
D14*
X169561539Y-101346000D03*
X174561539Y-99146000D03*
%TD*%
D12*
%TO.C,S16*%
X174561539Y-105096000D03*
D13*
X169061539Y-105096000D03*
X180061539Y-105096000D03*
D16*
X169561539Y-108896000D03*
X174561539Y-110996000D03*
X179561539Y-108896000D03*
X174561539Y-110996000D03*
%TD*%
D17*
%TO.C,D8*%
X172611539Y-109096000D03*
D18*
X176511539Y-109096000D03*
%TD*%
D12*
%TO.C,S17*%
X174561539Y-88096000D03*
D13*
X180061539Y-88096000D03*
X169061539Y-88096000D03*
D14*
X179561539Y-84346000D03*
X174561539Y-82146000D03*
D15*
X171286539Y-82146000D03*
X182836539Y-84346000D03*
D14*
X169561539Y-84346000D03*
X174561539Y-82146000D03*
%TD*%
D12*
%TO.C,S18*%
X174561539Y-88096000D03*
D13*
X169061539Y-88096000D03*
X180061539Y-88096000D03*
D16*
X169561539Y-91896000D03*
X174561539Y-93996000D03*
X179561539Y-91896000D03*
X174561539Y-93996000D03*
%TD*%
D17*
%TO.C,D9*%
X172611539Y-92096000D03*
D18*
X176511539Y-92096000D03*
%TD*%
D12*
%TO.C,S19*%
X192561539Y-127196000D03*
D13*
X198061539Y-127196000D03*
X187061539Y-127196000D03*
D14*
X197561539Y-123446000D03*
X192561539Y-121246000D03*
D15*
X189286539Y-121246000D03*
X200836539Y-123446000D03*
D14*
X187561539Y-123446000D03*
X192561539Y-121246000D03*
%TD*%
D12*
%TO.C,S20*%
X192561539Y-127196000D03*
D13*
X187061539Y-127196000D03*
X198061539Y-127196000D03*
D16*
X187561539Y-130996000D03*
X192561539Y-133096000D03*
X197561539Y-130996000D03*
X192561539Y-133096000D03*
%TD*%
D17*
%TO.C,D10*%
X190611539Y-131196000D03*
D18*
X194511539Y-131196000D03*
%TD*%
D12*
%TO.C,S21*%
X192561539Y-110196000D03*
D13*
X198061539Y-110196000D03*
X187061539Y-110196000D03*
D14*
X197561539Y-106446000D03*
X192561539Y-104246000D03*
D15*
X189286539Y-104246000D03*
X200836539Y-106446000D03*
D14*
X187561539Y-106446000D03*
X192561539Y-104246000D03*
%TD*%
D12*
%TO.C,S22*%
X192561539Y-110196000D03*
D13*
X187061539Y-110196000D03*
X198061539Y-110196000D03*
D16*
X187561539Y-113996000D03*
X192561539Y-116096000D03*
X197561539Y-113996000D03*
X192561539Y-116096000D03*
%TD*%
D17*
%TO.C,D11*%
X190611539Y-114196000D03*
D18*
X194511539Y-114196000D03*
%TD*%
D12*
%TO.C,S23*%
X192561539Y-93196000D03*
D13*
X198061539Y-93196000D03*
X187061539Y-93196000D03*
D14*
X197561539Y-89446000D03*
X192561539Y-87246000D03*
D15*
X189286539Y-87246000D03*
X200836539Y-89446000D03*
D14*
X187561539Y-89446000D03*
X192561539Y-87246000D03*
%TD*%
D12*
%TO.C,S24*%
X192561539Y-93196000D03*
D13*
X187061539Y-93196000D03*
X198061539Y-93196000D03*
D16*
X187561539Y-96996000D03*
X192561539Y-99096000D03*
X197561539Y-96996000D03*
X192561539Y-99096000D03*
%TD*%
D17*
%TO.C,D12*%
X190611539Y-97196000D03*
D18*
X194511539Y-97196000D03*
%TD*%
D12*
%TO.C,S25*%
X210561539Y-132296000D03*
D13*
X216061539Y-132296000D03*
X205061539Y-132296000D03*
D14*
X215561539Y-128546000D03*
X210561539Y-126346000D03*
D15*
X207286539Y-126346000D03*
X218836539Y-128546000D03*
D14*
X205561539Y-128546000D03*
X210561539Y-126346000D03*
%TD*%
D12*
%TO.C,S26*%
X210561539Y-132296000D03*
D13*
X205061539Y-132296000D03*
X216061539Y-132296000D03*
D16*
X205561539Y-136096000D03*
X210561539Y-138196000D03*
X215561539Y-136096000D03*
X210561539Y-138196000D03*
%TD*%
D17*
%TO.C,D13*%
X208611539Y-136296000D03*
D18*
X212511539Y-136296000D03*
%TD*%
D12*
%TO.C,S27*%
X210561539Y-115296000D03*
D13*
X216061539Y-115296000D03*
X205061539Y-115296000D03*
D14*
X215561539Y-111546000D03*
X210561539Y-109346000D03*
D15*
X207286539Y-109346000D03*
X218836539Y-111546000D03*
D14*
X205561539Y-111546000D03*
X210561539Y-109346000D03*
%TD*%
D12*
%TO.C,S28*%
X210561539Y-115296000D03*
D13*
X205061539Y-115296000D03*
X216061539Y-115296000D03*
D16*
X205561539Y-119096000D03*
X210561539Y-121196000D03*
X215561539Y-119096000D03*
X210561539Y-121196000D03*
%TD*%
D17*
%TO.C,D14*%
X208611539Y-119296000D03*
D18*
X212511539Y-119296000D03*
%TD*%
D12*
%TO.C,S29*%
X210561539Y-98296000D03*
D13*
X216061539Y-98296000D03*
X205061539Y-98296000D03*
D14*
X215561539Y-94546000D03*
X210561539Y-92346000D03*
D15*
X207286539Y-92346000D03*
X218836539Y-94546000D03*
D14*
X205561539Y-94546000D03*
X210561539Y-92346000D03*
%TD*%
D12*
%TO.C,S30*%
X210561539Y-98296000D03*
D13*
X205061539Y-98296000D03*
X216061539Y-98296000D03*
D16*
X205561539Y-102096000D03*
X210561539Y-104196000D03*
X215561539Y-102096000D03*
X210561539Y-104196000D03*
%TD*%
D17*
%TO.C,D15*%
X208611539Y-102296000D03*
D18*
X212511539Y-102296000D03*
%TD*%
D12*
%TO.C,S31*%
X219561539Y-159496000D03*
D13*
X224324679Y-162246000D03*
X214798399Y-156746000D03*
D14*
X225766666Y-158748405D03*
X222536539Y-154343149D03*
D19*
X219700306Y-152705649D03*
X228602899Y-160385905D03*
D14*
X217106412Y-153748405D03*
X222536539Y-154343149D03*
%TD*%
D12*
%TO.C,S32*%
X219561539Y-159496000D03*
D13*
X214798399Y-156746000D03*
X224324679Y-162246000D03*
D16*
X213331412Y-160286897D03*
X216611539Y-164605550D03*
X221991666Y-165286897D03*
X216611539Y-164605550D03*
%TD*%
D20*
%TO.C,D16*%
X215872789Y-161985102D03*
D21*
X219250289Y-163935102D03*
%TD*%
D12*
%TO.C,S33*%
X235149996Y-168496000D03*
D13*
X239913136Y-171246000D03*
X230386856Y-165746000D03*
D14*
X241355123Y-167748405D03*
X238124996Y-163343149D03*
D19*
X235288763Y-161705649D03*
X244191356Y-169385905D03*
D14*
X232694869Y-162748405D03*
X238124996Y-163343149D03*
%TD*%
D12*
%TO.C,S34*%
X235149996Y-168496000D03*
D13*
X230386856Y-165746000D03*
X239913136Y-171246000D03*
D16*
X228919869Y-169286897D03*
X232199996Y-173605550D03*
X237580123Y-174286897D03*
X232199996Y-173605550D03*
%TD*%
D20*
%TO.C,D17*%
X231461246Y-170985102D03*
D21*
X234838746Y-172935102D03*
%TD*%
D22*
%TO.C,MCU1*%
X222941539Y-107326000D03*
X222941539Y-109866000D03*
X222941539Y-112406000D03*
X222941539Y-114946000D03*
X222941539Y-117486000D03*
X222941539Y-120026000D03*
X222941539Y-122566000D03*
X222941539Y-125106000D03*
X222941539Y-127646000D03*
X222941539Y-130186000D03*
X222941539Y-132726000D03*
X222941539Y-135266000D03*
X238181539Y-135266000D03*
X238181539Y-132726000D03*
X238181539Y-130186000D03*
X238181539Y-127646000D03*
X238181539Y-125106000D03*
X238181539Y-122566000D03*
X238181539Y-120026000D03*
X238181539Y-117486000D03*
X238181539Y-114946000D03*
X238181539Y-112406000D03*
X238181539Y-109866000D03*
X238181539Y-107326000D03*
D23*
X238181539Y-107326000D03*
D24*
X225735539Y-107326000D03*
D25*
X224719539Y-107326000D03*
X224719539Y-109866000D03*
D24*
X225735539Y-109866000D03*
D25*
X224719539Y-112406000D03*
D24*
X225735539Y-112406000D03*
D25*
X224719539Y-114946000D03*
D24*
X225735539Y-114946000D03*
D25*
X224719539Y-117486000D03*
D24*
X225735539Y-117486000D03*
D25*
X224719539Y-120026000D03*
D24*
X225735539Y-120026000D03*
D25*
X224719539Y-122566000D03*
D24*
X225735539Y-122566000D03*
D25*
X224719539Y-125106000D03*
D24*
X225735539Y-125106000D03*
D25*
X224719539Y-127646000D03*
D24*
X225735539Y-127646000D03*
D25*
X224719539Y-130186000D03*
D24*
X225735539Y-130186000D03*
D25*
X224719539Y-132726000D03*
D24*
X225735539Y-132726000D03*
D25*
X224719539Y-135266000D03*
D24*
X225735539Y-135266000D03*
D26*
X236403539Y-107326000D03*
D27*
X235387539Y-107326000D03*
X235387539Y-109866000D03*
D26*
X236403539Y-109866000D03*
D27*
X235387539Y-112406000D03*
D26*
X236403539Y-112406000D03*
D27*
X235387539Y-114946000D03*
D26*
X236403539Y-114946000D03*
D27*
X235387539Y-117486000D03*
D26*
X236403539Y-117486000D03*
D27*
X235387539Y-120026000D03*
D26*
X236403539Y-120026000D03*
D27*
X235387539Y-122566000D03*
D26*
X236403539Y-122566000D03*
D27*
X235387539Y-125106000D03*
D26*
X236403539Y-125106000D03*
D27*
X235387539Y-127646000D03*
D26*
X236403539Y-127646000D03*
D27*
X235387539Y-130186000D03*
D26*
X236403539Y-130186000D03*
D27*
X235387539Y-132726000D03*
D26*
X236403539Y-132726000D03*
D27*
X235387539Y-135266000D03*
D26*
X236403539Y-135266000D03*
%TD*%
D28*
%TO.C,REF\u002A\u002A*%
X231961539Y-144996000D03*
X238961539Y-144996000D03*
D29*
X229261539Y-147296000D03*
X230361539Y-142696000D03*
X234361539Y-142696000D03*
X237361539Y-142696000D03*
X229261539Y-142696000D03*
X230361539Y-147296000D03*
X234361539Y-147296000D03*
X237361539Y-147296000D03*
%TD*%
M02*
