%TF.GenerationSoftware,KiCad,Pcbnew,(6.0.6-1)-1*%
%TF.CreationDate,2022-07-25T21:02:30-05:00*%
%TF.ProjectId,smcboard,736d6362-6f61-4726-942e-6b696361645f,v1.0.0*%
%TF.SameCoordinates,Original*%
%TF.FileFunction,Legend,Top*%
%TF.FilePolarity,Positive*%
%FSLAX46Y46*%
G04 Gerber Fmt 4.6, Leading zero omitted, Abs format (unit mm)*
G04 Created by KiCad (PCBNEW (6.0.6-1)-1) date 2022-07-25 21:02:30*
%MOMM*%
%LPD*%
G01*
G04 APERTURE LIST*
%ADD10C,0.150000*%
%ADD11C,0.200000*%
%ADD12C,0.100000*%
G04 APERTURE END LIST*
D10*
X228131619Y-113998952D02*
X227417333Y-113998952D01*
X227274476Y-113951333D01*
X227179238Y-113856095D01*
X227131619Y-113713238D01*
X227131619Y-113618000D01*
X227131619Y-114951333D02*
X227131619Y-114475142D01*
X228131619Y-114475142D01*
X227226857Y-115856095D02*
X227179238Y-115808476D01*
X227131619Y-115665619D01*
X227131619Y-115570380D01*
X227179238Y-115427523D01*
X227274476Y-115332285D01*
X227369714Y-115284666D01*
X227560190Y-115237047D01*
X227703047Y-115237047D01*
X227893523Y-115284666D01*
X227988761Y-115332285D01*
X228084000Y-115427523D01*
X228131619Y-115570380D01*
X228131619Y-115665619D01*
X228084000Y-115808476D01*
X228036380Y-115856095D01*
X228131619Y-116570380D02*
X227417333Y-116570380D01*
X227274476Y-116522761D01*
X227179238Y-116427523D01*
X227131619Y-116284666D01*
X227131619Y-116189428D01*
X227131619Y-117522761D02*
X227131619Y-117046571D01*
X228131619Y-117046571D01*
X227226857Y-118427523D02*
X227179238Y-118379904D01*
X227131619Y-118237047D01*
X227131619Y-118141809D01*
X227179238Y-117998952D01*
X227274476Y-117903714D01*
X227369714Y-117856095D01*
X227560190Y-117808476D01*
X227703047Y-117808476D01*
X227893523Y-117856095D01*
X227988761Y-117903714D01*
X228084000Y-117998952D01*
X228131619Y-118141809D01*
X228131619Y-118237047D01*
X228084000Y-118379904D01*
X228036380Y-118427523D01*
X228131619Y-119141809D02*
X227417333Y-119141809D01*
X227274476Y-119094190D01*
X227179238Y-118998952D01*
X227131619Y-118856095D01*
X227131619Y-118760857D01*
X227131619Y-120094190D02*
X227131619Y-119618000D01*
X228131619Y-119618000D01*
X227226857Y-120998952D02*
X227179238Y-120951333D01*
X227131619Y-120808476D01*
X227131619Y-120713238D01*
X227179238Y-120570380D01*
X227274476Y-120475142D01*
X227369714Y-120427523D01*
X227560190Y-120379904D01*
X227703047Y-120379904D01*
X227893523Y-120427523D01*
X227988761Y-120475142D01*
X228084000Y-120570380D01*
X228131619Y-120713238D01*
X228131619Y-120808476D01*
X228084000Y-120951333D01*
X228036380Y-120998952D01*
X228131619Y-121713238D02*
X227417333Y-121713238D01*
X227274476Y-121665619D01*
X227179238Y-121570380D01*
X227131619Y-121427523D01*
X227131619Y-121332285D01*
X227131619Y-122665619D02*
X227131619Y-122189428D01*
X228131619Y-122189428D01*
X227226857Y-123570380D02*
X227179238Y-123522761D01*
X227131619Y-123379904D01*
X227131619Y-123284666D01*
X227179238Y-123141809D01*
X227274476Y-123046571D01*
X227369714Y-122998952D01*
X227560190Y-122951333D01*
X227703047Y-122951333D01*
X227893523Y-122998952D01*
X227988761Y-123046571D01*
X228084000Y-123141809D01*
X228131619Y-123284666D01*
X228131619Y-123379904D01*
X228084000Y-123522761D01*
X228036380Y-123570380D01*
D11*
X153257428Y-144057714D02*
X153495523Y-144724380D01*
X153733619Y-144057714D01*
X154305047Y-143724380D02*
X154400285Y-143724380D01*
X154495523Y-143772000D01*
X154543142Y-143819619D01*
X154590761Y-143914857D01*
X154638380Y-144105333D01*
X154638380Y-144343428D01*
X154590761Y-144533904D01*
X154543142Y-144629142D01*
X154495523Y-144676761D01*
X154400285Y-144724380D01*
X154305047Y-144724380D01*
X154209809Y-144676761D01*
X154162190Y-144629142D01*
X154114571Y-144533904D01*
X154066952Y-144343428D01*
X154066952Y-144105333D01*
X154114571Y-143914857D01*
X154162190Y-143819619D01*
X154209809Y-143772000D01*
X154305047Y-143724380D01*
X155066952Y-144629142D02*
X155114571Y-144676761D01*
X155066952Y-144724380D01*
X155019333Y-144676761D01*
X155066952Y-144629142D01*
X155066952Y-144724380D01*
X156066952Y-144724380D02*
X155495523Y-144724380D01*
X155781238Y-144724380D02*
X155781238Y-143724380D01*
X155686000Y-143867238D01*
X155590761Y-143962476D01*
X155495523Y-144010095D01*
X153072095Y-142541523D02*
X153429238Y-142636761D01*
X154024476Y-142636761D01*
X154262571Y-142541523D01*
X154381619Y-142446285D01*
X154500666Y-142255809D01*
X154500666Y-142065333D01*
X154381619Y-141874857D01*
X154262571Y-141779619D01*
X154024476Y-141684380D01*
X153548285Y-141589142D01*
X153310190Y-141493904D01*
X153191142Y-141398666D01*
X153072095Y-141208190D01*
X153072095Y-141017714D01*
X153191142Y-140827238D01*
X153310190Y-140732000D01*
X153548285Y-140636761D01*
X154143523Y-140636761D01*
X154500666Y-140732000D01*
X155572095Y-142636761D02*
X155572095Y-140636761D01*
X156405428Y-142065333D01*
X157238761Y-140636761D01*
X157238761Y-142636761D01*
X159857809Y-142446285D02*
X159738761Y-142541523D01*
X159381619Y-142636761D01*
X159143523Y-142636761D01*
X158786380Y-142541523D01*
X158548285Y-142351047D01*
X158429238Y-142160571D01*
X158310190Y-141779619D01*
X158310190Y-141493904D01*
X158429238Y-141112952D01*
X158548285Y-140922476D01*
X158786380Y-140732000D01*
X159143523Y-140636761D01*
X159381619Y-140636761D01*
X159738761Y-140732000D01*
X159857809Y-140827238D01*
X160929238Y-142636761D02*
X160929238Y-140636761D01*
X160929238Y-141589142D02*
X162357809Y-141589142D01*
X162357809Y-142636761D02*
X162357809Y-140636761D01*
X163548285Y-140636761D02*
X163548285Y-142255809D01*
X163667333Y-142446285D01*
X163786380Y-142541523D01*
X164024476Y-142636761D01*
X164500666Y-142636761D01*
X164738761Y-142541523D01*
X164857809Y-142446285D01*
X164976857Y-142255809D01*
X164976857Y-140636761D01*
X166167333Y-142636761D02*
X166167333Y-140636761D01*
X167595904Y-142636761D01*
X167595904Y-140636761D01*
X168786380Y-142636761D02*
X168786380Y-140636761D01*
X170214952Y-142636761D01*
X170214952Y-140636761D01*
X172714952Y-142636761D02*
X171286380Y-142636761D01*
X172000666Y-142636761D02*
X172000666Y-140636761D01*
X171762571Y-140922476D01*
X171524476Y-141112952D01*
X171286380Y-141208190D01*
X175095904Y-142636761D02*
X173667333Y-142636761D01*
X174381619Y-142636761D02*
X174381619Y-140636761D01*
X174143523Y-140922476D01*
X173905428Y-141112952D01*
X173667333Y-141208190D01*
D10*
%TO.C,MCU1*%
D12*
%TO.C,D1*%
X138811539Y-146496000D02*
X139311539Y-146496000D01*
X138811539Y-146896000D02*
X138211539Y-146496000D01*
X138811539Y-146096000D02*
X138811539Y-146896000D01*
X138211539Y-146496000D02*
X138811539Y-146096000D01*
X138211539Y-146496000D02*
X138211539Y-147046000D01*
X138211539Y-146496000D02*
X138211539Y-145946000D01*
X137811539Y-146496000D02*
X138211539Y-146496000D01*
%TO.C,D2*%
X138811539Y-129496000D02*
X139311539Y-129496000D01*
X138811539Y-129896000D02*
X138211539Y-129496000D01*
X138811539Y-129096000D02*
X138811539Y-129896000D01*
X138211539Y-129496000D02*
X138811539Y-129096000D01*
X138211539Y-129496000D02*
X138211539Y-130046000D01*
X138211539Y-129496000D02*
X138211539Y-128946000D01*
X137811539Y-129496000D02*
X138211539Y-129496000D01*
%TO.C,D3*%
X138811539Y-112496000D02*
X139311539Y-112496000D01*
X138811539Y-112896000D02*
X138211539Y-112496000D01*
X138811539Y-112096000D02*
X138811539Y-112896000D01*
X138211539Y-112496000D02*
X138811539Y-112096000D01*
X138211539Y-112496000D02*
X138211539Y-113046000D01*
X138211539Y-112496000D02*
X138211539Y-111946000D01*
X137811539Y-112496000D02*
X138211539Y-112496000D01*
%TO.C,D4*%
X156811539Y-131196000D02*
X157311539Y-131196000D01*
X156811539Y-131596000D02*
X156211539Y-131196000D01*
X156811539Y-130796000D02*
X156811539Y-131596000D01*
X156211539Y-131196000D02*
X156811539Y-130796000D01*
X156211539Y-131196000D02*
X156211539Y-131746000D01*
X156211539Y-131196000D02*
X156211539Y-130646000D01*
X155811539Y-131196000D02*
X156211539Y-131196000D01*
%TO.C,D5*%
X156811539Y-114196000D02*
X157311539Y-114196000D01*
X156811539Y-114596000D02*
X156211539Y-114196000D01*
X156811539Y-113796000D02*
X156811539Y-114596000D01*
X156211539Y-114196000D02*
X156811539Y-113796000D01*
X156211539Y-114196000D02*
X156211539Y-114746000D01*
X156211539Y-114196000D02*
X156211539Y-113646000D01*
X155811539Y-114196000D02*
X156211539Y-114196000D01*
%TO.C,D6*%
X156811539Y-97196000D02*
X157311539Y-97196000D01*
X156811539Y-97596000D02*
X156211539Y-97196000D01*
X156811539Y-96796000D02*
X156811539Y-97596000D01*
X156211539Y-97196000D02*
X156811539Y-96796000D01*
X156211539Y-97196000D02*
X156211539Y-97746000D01*
X156211539Y-97196000D02*
X156211539Y-96646000D01*
X155811539Y-97196000D02*
X156211539Y-97196000D01*
%TO.C,D7*%
X174811539Y-126096000D02*
X175311539Y-126096000D01*
X174811539Y-126496000D02*
X174211539Y-126096000D01*
X174811539Y-125696000D02*
X174811539Y-126496000D01*
X174211539Y-126096000D02*
X174811539Y-125696000D01*
X174211539Y-126096000D02*
X174211539Y-126646000D01*
X174211539Y-126096000D02*
X174211539Y-125546000D01*
X173811539Y-126096000D02*
X174211539Y-126096000D01*
%TO.C,D8*%
X174811539Y-109096000D02*
X175311539Y-109096000D01*
X174811539Y-109496000D02*
X174211539Y-109096000D01*
X174811539Y-108696000D02*
X174811539Y-109496000D01*
X174211539Y-109096000D02*
X174811539Y-108696000D01*
X174211539Y-109096000D02*
X174211539Y-109646000D01*
X174211539Y-109096000D02*
X174211539Y-108546000D01*
X173811539Y-109096000D02*
X174211539Y-109096000D01*
%TO.C,D9*%
X174811539Y-92096000D02*
X175311539Y-92096000D01*
X174811539Y-92496000D02*
X174211539Y-92096000D01*
X174811539Y-91696000D02*
X174811539Y-92496000D01*
X174211539Y-92096000D02*
X174811539Y-91696000D01*
X174211539Y-92096000D02*
X174211539Y-92646000D01*
X174211539Y-92096000D02*
X174211539Y-91546000D01*
X173811539Y-92096000D02*
X174211539Y-92096000D01*
%TO.C,D10*%
X192811539Y-131196000D02*
X193311539Y-131196000D01*
X192811539Y-131596000D02*
X192211539Y-131196000D01*
X192811539Y-130796000D02*
X192811539Y-131596000D01*
X192211539Y-131196000D02*
X192811539Y-130796000D01*
X192211539Y-131196000D02*
X192211539Y-131746000D01*
X192211539Y-131196000D02*
X192211539Y-130646000D01*
X191811539Y-131196000D02*
X192211539Y-131196000D01*
%TO.C,D11*%
X192811539Y-114196000D02*
X193311539Y-114196000D01*
X192811539Y-114596000D02*
X192211539Y-114196000D01*
X192811539Y-113796000D02*
X192811539Y-114596000D01*
X192211539Y-114196000D02*
X192811539Y-113796000D01*
X192211539Y-114196000D02*
X192211539Y-114746000D01*
X192211539Y-114196000D02*
X192211539Y-113646000D01*
X191811539Y-114196000D02*
X192211539Y-114196000D01*
%TO.C,D12*%
X192811539Y-97196000D02*
X193311539Y-97196000D01*
X192811539Y-97596000D02*
X192211539Y-97196000D01*
X192811539Y-96796000D02*
X192811539Y-97596000D01*
X192211539Y-97196000D02*
X192811539Y-96796000D01*
X192211539Y-97196000D02*
X192211539Y-97746000D01*
X192211539Y-97196000D02*
X192211539Y-96646000D01*
X191811539Y-97196000D02*
X192211539Y-97196000D01*
%TO.C,D13*%
X210811539Y-136296000D02*
X211311539Y-136296000D01*
X210811539Y-136696000D02*
X210211539Y-136296000D01*
X210811539Y-135896000D02*
X210811539Y-136696000D01*
X210211539Y-136296000D02*
X210811539Y-135896000D01*
X210211539Y-136296000D02*
X210211539Y-136846000D01*
X210211539Y-136296000D02*
X210211539Y-135746000D01*
X209811539Y-136296000D02*
X210211539Y-136296000D01*
%TO.C,D14*%
X210811539Y-119296000D02*
X211311539Y-119296000D01*
X210811539Y-119696000D02*
X210211539Y-119296000D01*
X210811539Y-118896000D02*
X210811539Y-119696000D01*
X210211539Y-119296000D02*
X210811539Y-118896000D01*
X210211539Y-119296000D02*
X210211539Y-119846000D01*
X210211539Y-119296000D02*
X210211539Y-118746000D01*
X209811539Y-119296000D02*
X210211539Y-119296000D01*
%TO.C,D15*%
X210811539Y-102296000D02*
X211311539Y-102296000D01*
X210811539Y-102696000D02*
X210211539Y-102296000D01*
X210811539Y-101896000D02*
X210811539Y-102696000D01*
X210211539Y-102296000D02*
X210811539Y-101896000D01*
X210211539Y-102296000D02*
X210211539Y-102846000D01*
X210211539Y-102296000D02*
X210211539Y-101746000D01*
X209811539Y-102296000D02*
X210211539Y-102296000D01*
%TO.C,D16*%
X217778045Y-163085102D02*
X218211058Y-163335102D01*
X217578045Y-163431512D02*
X217258430Y-162785102D01*
X217978045Y-162738692D02*
X217578045Y-163431512D01*
X217258430Y-162785102D02*
X217978045Y-162738692D01*
X217258430Y-162785102D02*
X216983430Y-163261416D01*
X217258430Y-162785102D02*
X217533430Y-162308788D01*
X216912020Y-162585102D02*
X217258430Y-162785102D01*
%TO.C,D17*%
X233366502Y-172085102D02*
X233799515Y-172335102D01*
X233166502Y-172431512D02*
X232846887Y-171785102D01*
X233566502Y-171738692D02*
X233166502Y-172431512D01*
X232846887Y-171785102D02*
X233566502Y-171738692D01*
X232846887Y-171785102D02*
X232571887Y-172261416D01*
X232846887Y-171785102D02*
X233121887Y-171308788D01*
X232500477Y-171585102D02*
X232846887Y-171785102D01*
D10*
%TO.C,MCU1*%
X224211539Y-106056000D02*
X224211539Y-108596000D01*
X224211539Y-106056000D02*
X221671539Y-106056000D01*
X224211539Y-108596000D02*
X221671539Y-108596000D01*
X221671539Y-108596000D02*
X221671539Y-106056000D01*
%TD*%
M02*
